<svg width="512" height="512" version="1.1" viewBox="0 0 512 512" xmlns="http://www.w3.org/2000/svg">
 <g transform="matrix(.6413 0 0 .6413 -11.22 -4.8783)">
  <path d="m486.24 124.72c0.13333 0.4 0.29 0.57667 0.47 0.53 0.14-0.04 0.28-0.0767 0.42-0.11 2.3267-7.4933 3.2833-15.123 2.87-22.89-0.38-7.1467-1.2133-14.327-2.5-21.54-1.5867-8.9133-5.1667-20.683-10.74-35.31-1.64-4.3067-2.5967-7.0767-2.87-8.31-4.1044-18.47 5.8833-20.665 20.61-19.92 13.287 0.66667 25.94 3.3867 37.96 8.16 7.52 2.9867 15.563 6.5667 24.13 10.74 1.84 0.9 3.91 2.08 6.21 3.54 4.19 2.67 8.9 4.86 13.26 7.73 1.1333 0.75333 3.4033 2.2767 6.81 4.57 7.9867 5.38 14.987 11.953 21 19.72 7.8 10.07 12.39 21.16 14.82 33.76 1.3733 7.12 2.1967 11.433 2.47 12.94 2.7637 13.916-12.986 13.578-22.86 15.02-3.1 0.53-8.34 1.84-8.6 5.64-0.0467 0.72667-0.32333 7.52-0.83 20.38-0.13 3.23-1.09 6.95-1.14 9.5-0.0104 0.68878 0.79658 1.0678 1.32 0.62 2.4267-2.1067 6.3833-4.8233 11.87-8.15 9.54-5.78 20.81-11.57 31.11-13.04 6.74-0.96 11.693 0.66333 14.86 4.87 0.84 1.12 1.4067 2.0933 1.7 2.92 3.0469 7.9352 2.8382 16.482 2.34 24.91-1.1004 15.681-8.8028 77.362-62.36 111.97-1.3829 0.65055 1.5508 3.4589 2.8669 4.7638 1.378 1.3662 4.3351 5.479 5.3831 2.4862 10.375-18.197 33.573-50.302 74.7-66.6 3.36-1.33 7.12-2.08 10.85-3.27 0.45333-0.14667 2.2767-0.25 5.47-0.31 8.54-0.16 13.36 6.41 13.68 14.24 0.32 7.84-0.29 17.413-1.83 28.72-0.78667 5.74-2.3633 13.54-4.73 23.4-4.281 19.052-14.327 34.842-28 48.42-15.239 12.126-26.172 12.528-23.977 16.4 1.7267 3.0471 15.452-6.485 25.627-8.8503 6.0605-1.9763 21.405-3.269 35.64-0.3 6.7067 1.3933 15.05 4.2667 25.03 8.62 4.6 2 7.4833 4.0633 8.65 6.19 3.81 6.9-1.47 13.31-6.85 18.47-7.6467 7.34-15.183 13.297-22.61 17.87-3.9067 2.4-8.8267 4.65-14.76 6.75-8.6133 3.04-17.49 4.1967-26.63 3.47-0.49301-0.0377-0.87437 0.42095-0.74 0.89l3.8 13.94c0.0466 0.16636 0.10681 0.32696 0.18 0.48 4.26 9.06 7.1067 16.107 8.54 21.14 3.9333 13.84 7.08 26.44 9.44 37.8 1.98 9.5267 3.49 21.303 4.53 35.33 0.42 5.6133 0.45333 16.85 0.1 33.71-0.11333 5.46-0.41333 9.9567-0.9 13.49-0.75 5.56-1.42 16.6-3.34 23.53-0.62667 2.2667-1.1067 4.4867-1.44 6.66-0.14667 0.94-0.70333 3.1467-1.67 6.62-4.96 17.773-11.84 34.497-20.64 50.17-1.6 2.8533-3.1967 5.4667-4.79 7.84-2.46 3.68-4.18 7-6.56 10.32-7.15 9.99-12.06 15.97-18.59 23.65-2.1067 2.48-3.87 4.3933-5.29 5.74-4.8 4.56-8.71 9.11-13.46 12.9-2.68 2.14-7.26 6.56-10.93 9.51-10.013 8.0333-20.733 15.447-32.16 22.24-1.6267 0.97333-6.2633 3.5633-13.91 7.77-5.3 2.92-11.75 5.82-16.72 8.1-19.927 9.12-39.333 15.63-58.22 19.53-5.3067 1.1-13.287 2.2867-23.94 3.56-5.5333 0.66667-10.563 1.49-15.09 2.47-7.93 1.73-15.44 3.34-23.07 3.67-2.4133 0.10667-5.09 0.31-8.03 0.61-24.88 2.58-49.187 1.8633-72.92-2.15-46.267-7.8267-88.427-25.823-126.48-53.99-0.78-0.58-4.63-3.5633-11.55-8.95-4.1933-3.2733-7.94-6.4967-11.24-9.67-13.75-13.27-26.71-26.78-37.93-42.06-20.153-27.447-35.273-56.737-45.36-87.87-1.6667-5.14-4.1267-14.43-7.38-27.87-2.3333-9.62-3.9933-19.063-4.98-28.33-1.4933-13.96-2.2267-26.777-2.2-38.45 0.01333-4.3667 0.14333-8.0367 0.39-11.01 0.42-5.12 0.21-9.18 0.74-14.68 2.5067-26.34 8.1733-51.373 17-75.1 6.1467-16.52 13.883-32.603 23.21-48.25 19.013-31.907 42.813-58.767 71.4-80.58 0.21333-0.16 0.72-0.49333 1.52-1 0.24651-0.15473 0.32979-0.47472 0.19-0.73-4.4667-8.1267-8.3933-16.533-11.78-25.22-1.38-3.5533-3.0333-9.2767-4.96-17.17-1.3467-5.5067-2.1733-11.4-2.48-17.68-0.58-11.747-0.56667-20.273 0.04-25.58 1.5-13.167 3.1267-23.11 4.88-29.83 2.3867-9.1467 4.5467-15.893 6.48-20.24 6.402-14.337 18.644-33.88 29.46-5.91 0.58 1.5067 1.21 3.93 1.89 7.27 0.61333 3.0267 1.41 6.0033 2.39 8.93 0.37333 1.12 0.96 1.56 1.76 1.32 0.86668-0.24116 1.0221-1.7411 2.07-15.18 0.38-4.8533 1.8567-9.3233 4.43-13.41 6.63-10.55 16.56-2.77 23.97 1.39 0.54694 0.30873 1.2386 0.0242 1.41-0.58 5.6267-20.093 13.927-39.097 24.9-57.01 3.4467-5.6267 6.64-10.093 9.58-13.4 8.51-9.58 13.77-15.83 21.6-20.64 11.612-7.1157 20.273-5.01 26.62 0.69 3.12 2.8067 7.01 6.83 11.67 12.07 4.0733 4.5867 7.9033 8.81 11.49 12.67 7.7933 8.4 13.153 13.953 16.08 16.66 8.0733 7.48 14.27 13.323 18.59 17.53 0.45366 0.4478 1.2029 0.38141 1.58-0.14 6.92-9.7 15.64-19.01 26.14-25.1 4.92-2.85 12.5-3.78 17.02 0.39 3.59 3.33 6.12 8.17 8.72 13.14 0.94667 1.8 1.9433 3.9 2.99 6.3 1.4 3.2 2.8433 6.3833 4.33 9.55 6.02 12.793 11.27 25.23 15.75 37.31 0.4 1.0733 0.74333 1.7967 1.03 2.17zm32.12 56.03c4.8703 0.47885 12.477 2.0085 13.75 6.99 1.4359 5.6195-9.4233 31.66-9.55 32.28-0.23333 1.1733 2.3996 3.9368 4.13 5.4 1.4832 1.2542 3.7382 2.919 4.3 5.06 1.2469 4.7519-3.6667 14.503-2.8 14.47 0.58601-0.0238 3.9964-10.453 4.03-10.71 4.364-10.715 14.576-19.527 15.15-31.48 0.33206-14.779-1.4189-29.427-2.55-44.14-0.11728-1.4686-1.9062-2.1197-2.94-1.07-22.477 22.773-27.396 22.805-23.52 23.2z"/>
  <g fill="#9774c6">
   <path d="m314.95 309.38a0.26 0.25-51.13 0 1 0.44-0.05c2.9 4.02 7.4 9.08 12.2 10.79q7.7 2.74 11.82-4.18 5.76-9.68 9.13-20.34c1.9-6.02 0.69-10.63-4.2-14.7q-6.39-5.32-15.6-14.73-3.56-3.63-8.29-1.03c-2.94 1.61-5.25 8.3-6.44 11.85a2.47 2.47-87.62 0 1-1.77 1.63q-11.81 2.87-23.68 0.18a4.9 4.89 78.41 0 1-2.87-1.9q-2.81-3.87-4.64-8.46-5.78-14.52-7.72-29.49a0.45 0.44 83.73 0 0-0.47-0.38l-0.39 0.04a0.19 0.18-6.17 0 0-0.17 0.2l1.16 12.33a0.14 0.14 27.64 0 1-0.26 0.08l-1.66-3.08a2.45 2.41-83.2 0 0-0.48-0.62c-7.27-6.89-15.26-14.51-20.23-23.12-2.36-4.08-1.96-10.39-0.98-15.45a0.55 0.55 19.96 0 1 0.81-0.37c9.47 5.31 25.98-10.54 13.26-19.18q-7.54-5.12-17.17-4.8a1.22 1.22-4.96 0 1-1.25-1.05q-1.27-8.91-1.37-17.68c-0.13-12.23-0.08-23.24 1.26-35.48 0.52-4.74 1.32-12.08 4.53-15.55a2.64 2.64-54.43 0 1 3.19-0.53l15.61 8.34a1.1 1.09-68.28 0 1 0.53 1.24q-4.34 16.25-2.65 32.93a0.31 0.3-4.83 0 0 0.33 0.27l0.32-0.03a0.49 0.49-3.82 0 0 0.44-0.5q-0.44-15.27 5.89-36.71 7.48-25.38 18.68-47.34 7.99-15.68 19.07-28.66c6.69-7.82 13.4-14.31 21.56-18.2 6.85-3.27 12.7 1.63 17.1 6.36 7.46 7.98 15.44 17.58 23.21 25.48q13.25 13.44 20.52 20.04 0.68 0.61 14.1 12.78a1.25 1.24-54.93 0 1 0.26 1.51l-9.92 18.55a0.69 0.69-64.61 0 0 0.34 0.96l0.03 0.02a0.86 0.85-63.42 0 0 1.07-0.36q3.26-5.59 6.73-11.41 9.25-15.5 20.82-27.17c3.69-3.71 15.74-14.82 21.22-10.79q2.08 1.53 5.03 6.97 2.2 4.06 10.97 23.11c7.79 16.94 14.5 34.63 20.68 49.99q2.14 5.31 4.74 13.21a0.79 0.78 68.69 0 1-0.41 0.95q-7.02 3.23-15.58 6.42a0.76 0.76 62.5 0 0-0.36 1.15q0.39 0.56 1.57 0.43c9.53-1.01 18.22-5.32 28.31-9.52q1.97-0.82 3.28-0.94a1.35 1.34 80.28 0 1 1.43 1.02c1.08 4.37 0.84 10.24-0.07 15.04q-0.97 5.06-2.66 14.24c-0.4 2.13-0.08 3.49 1.74 4.53a0.85 0.83 44.43 0 0 0.85 0l1.39-0.8a0.99 0.95-55.68 0 1 0.57-0.12l13.67 1.68a0.68 0.68 8.18 0 1 0.59 0.78q-0.98 6.26-2.19 9.67-4.21 11.84-8.88 22.61a1.09 1.07-55.71 0 0 0.22 1.2l8.79 8.79a2.81 2.8-56.36 0 1 0.61 3.05q-0.77 1.85-1.73 3.37c-6.04 9.5-15.51 19.17-23.06 28.17a0.2 0.2 76.5 0 1-0.34-0.21c6.45-15.4 5.59-35.46 1.44-51.18q-0.45-1.74-1.7-2.72a0.59 0.59-72.49 0 0-0.95 0.5q0.28 5.8 1.61 13.98 1.41 8.72 0.53 20.96c-1.26 17.3-11.2 33.77-23.96 45.83-6.28 5.94-13.37 11.21-21.42 16.28q-7.78 4.9-10.66 7.4c-3.25 2.82-7.78 4.88-11.75 7.97q-20.55 15.96-38.37 32.61c-3.68 3.44-8.94 4.34-14.89 5.04-11.37 1.33-21.47-1.96-29.97-9.79a0.25 0.25 71.37 0 1 0.21-0.43q11.73 2.41 23.91-0.03 2.87-0.58 5.35-3.17c4.03-4.2 9.05-11.84 15.76-16.23a0.7 0.7-31.71 0 1 0.98 0.23c2.28 3.8 6.18 4.13 10.13 2.96q9.23-2.72 12.1-12.48a2.01 1.99 84.55 0 1 0.97-1.19c3.79-2.06 7.59-3.17 10.41-7.18q7.35-10.45 5.52-24.13-0.58-4.33-1.43-6.86a1.67 1.67 50.54 0 1 0.13-1.36q1.02-1.78 0.76-3.11a1.18 1.17-81.38 0 0-0.57-0.78c-4.52-2.49-7.51 0.18-11.24 2.58a0.78 0.77 25.79 0 0 0.5 1.42l2.14-0.2a0.71 0.69-30.52 0 1 0.44 0.11q2.76 1.88 5.51 7.3c1.16 2.28 0.93 3.11 1.02 5.69q0.29 8.47-3.61 15.45c-2.57 4.6-5.01 5.47-9.68 8.16a0.47 0.47-20.5 0 1-0.69-0.31c-0.69-3.35-2.1-5.9-4.8-8.51q-4.72-4.59-9.87-10.01c-7.84-8.27-13.33-1.05-13.39 7.55-0.05 7.73 1.56 14.23 3.89 21.36a0.74 0.73 65.67 0 1-0.32 0.86c-6.09 3.71-10.31 9.25-15.12 15.19-3.7 4.58-7.45 4.61-13.73 5.02q-16.08 1.04-29.74-6.27c-9.19-4.93-15.31-12.22-20.59-21.34-2.04-3.53 1.2-10.93 2.56-14.2z"/>
   <path d="m580.34 109.57c2.63 15.83 2.15 34.24 0.7 49.57q-3 31.55-17.63 59.5-3.36 6.4-7.85 10.93a0.82 0.81 55.82 0 1-1.33-0.26q-0.34-0.79-0.37-2.06-0.02-0.67 0.85-22.25 1.11-27.72-4.02-55.93-3.58-19.68-10.43-36.06-12.22-29.2-31.15-53.68c-9.19-11.88-19.73-21.21-27.8-31.77a0.84 0.84-32.4 0 1 0.28-1.25q3.52-1.84 7.41-1.8 15.16 0.15 28.24 3.76 10.58 2.92 24.02 9.01 18.65 8.46 35.82 19.9c12.51 8.35 22.84 19.48 29.08 33.28 3.9 8.64 6.05 20.51 7.74 29.6q0.33 1.74 0 3.11a0.85 0.84 2.04 0 1-0.69 0.64c-8.05 1.33-18.41 0.94-26.47 6.49a0.5 0.5-17.83 0 1-0.78-0.4q-0.2-9.41-3.41-17.38-0.78-1.93-1.83-3.13a0.22 0.22-70.27 0 0-0.38 0.18z"/>
   <path d="m511.25 175.41c1.36-8.13 3.23-16.03 0.1-24.13a3.5 3.49-8.92 0 0-3.08-2.24q-2.18-0.12-5.46 1.02-1.64 0.58-10.67 4.6a0.56 0.55-17.45 0 1-0.78-0.4q-1.29-7.09-4.07-13.71a0.85 0.85 56.6 0 1 0.19-0.93c7.17-6.94 9.41-20.49 9.86-30.14q0.65-13.66-2.38-30.05-3.61-19.58-11.99-39.18-1.75-4.11-2.55-9.02a0.36 0.36-67.37 0 1 0.65-0.27c2.13 3.07 3.92 5.94 6.51 8.84 6.79 7.6 14.36 15.48 20.53 23.87 11.69 15.88 20.87 32.48 28.3 50.26q5.67 13.57 8.77 27.43 0.51 2.32-0.62 3.42-12.54 12.14-32.86 30.87a0.27 0.27 73.02 0 1-0.45-0.24z"/>
  </g>
  <path d="m389.18 156.78q-1.08-2.43-0.9-5.09 0.86-12.5 6.24-24.74c2.07-4.7 8.89-16.25 15.15-8.48q1.24 1.53 5.43 11.8c1.49 3.62 2.81 7.07 3.43 10.98 0.76 4.86-2.54 9.44-6.31 12.13q-8.47 6.04-19.46 5.13-0.58-0.05-2.86-1.03a1.43 1.4 88.54 0 1-0.72-0.7z"/>
  <path d="m247.46 206.63a0.65 0.64 45.09 0 1 0 1.21q-5.72 2.13-10.34 6.47c-9.83 9.24 11.56 18.03 17.31 20.78a4.16 4.16 81.48 0 1 1.23 0.91l9.75 10.52a0.41 0.41 56.55 0 1-0.13 0.65q-0.51 0.22-4.48 3.12c-1.71 1.25-2.48 2.05-1.73 4.13 2.38 6.56 6.69 13.11 10.69 18.52a0.71 0.71 58.91 0 1-0.26 1.06c-2.77 1.32-7.89 3.59-8.9 5.94-2.59 6.05 13.02 20.04 17.08 23.86a1.56 1.56-50.25 0 1 0.19 2.07l-0.03 0.04a1.3 1.3-52.2 0 1-1.86 0.24q-10.42-8.45-17.96-19.42-9.43-13.74-17.07-27.9-3.56-6.6-5.78-12.27a0.62 0.61-45.15 0 0-1.15 0.01q-0.34 0.88 0 2.22c2.48 9.79 6.7 17.77 11.61 25.67a3.52 3.51 34.42 0 1 0.47 2.5l-2.45 13.16a1.4 1.39-67.94 0 1-2.14 0.91q-4.48-2.99-9.49-8.31c-12.15-12.89-21.38-28.58-27.43-44.81q-9.79-26.29-7.65-54.86 1.66-22.24 7.64-42.16 3.61-12.08 10.53-21.76 0.99-1.38 2.4-2.26a1.58 1.58-29.43 0 1 2.23 0.62q2.68 5.14 4.33 11.98c5.79 24.16 8.65 37.86 16.26 55.06a0.67 0.67 72.66 0 1-0.48 0.92q-4.4 0.9-4.18 4.99c0.28 4.98 4.89 9.69 9.27 13.88q2.35 2.25 2.52 2.31z" fill="#9774c6"/>
  <path d="m404.35 119.56a1.92 1.91-27.09 0 1 2.62 0.84q3.4 6.91 5.27 11.72 3.24 8.29 3.06 10.86-0.22 3.28-3.42 6.25-7.6 7.05-19.15 6.1a2.03 2.03-85.12 0 1-1.86-2.21c0.79-8.42 5.43-29.26 13.48-33.56z" fill="#fefeea"/>
  <path d="m452.26 124.25c1.85 0.62 2.69 4.04 2.68 6.26q-0.02 6.41 0.29 10.3c0.52 6.6-0.5 9.96-5.98 13.45q-5.64 3.6-12.78 3.11c-6.8-0.47-16.43-7.7-11.04-15.5 4.82-6.97 17.31-20.86 26.83-17.62z"/>
  <path d="m487.13 125.14q-0.21 0.05-0.42 0.11-0.27 0.07-0.47-0.53 0.02-0.47 0.89 0.42z" fill="#9774c6"/>
  <path d="m451.26 127.72q0.42 0.66 0.4 1.46-0.19 6.55 0.12 14.62c0.11 3.03-0.92 5-3.26 6.66-6.1 4.32-15.17 5.31-20.42-1.11q-2.97-3.65-0.05-7.23c4.5-5.52 13.62-14.79 20.99-15.48a2.36 2.36 70.91 0 1 2.22 1.08z" fill="#fefeea"/>
  <path d="m361.35 129.32a0.37 0.37 85.59 0 1 0.53 0.46q-9.84 24.08-12.99 49.9a0.59 0.59-69.71 0 1-0.91 0.42q-8.88-5.82-18.22-14.86-2.19-2.12-0.81-4.23 12.93-19.83 32.4-31.69z"/>
  <path d="m358.64 134.1q-0.01 0.04-2.36 6.13-7.02 18.17-8.33 36.83a0.68 0.68-68.34 0 1-1.11 0.48l-16.06-13.15a1.85 1.85 35.6 0 1-0.4-2.41q3.13-5 8.76-11.09 8.67-9.37 18.96-17.19a0.35 0.35-8.4 0 1 0.54 0.4z" fill="#ffc000"/>
  <path d="m367.31 140.27q2.11 1.48 5.24 6.31 6.72 10.37 9.25 16.81c3.25 8.29-10.08 14.41-16.3 15.38q-9.06 1.42-11.1-7.12-2.43-10.23 0.94-20.32c1.69-5.07 4.98-11.68 10.82-11.45a2.21 2.2 63.58 0 1 1.15 0.39z"/>
  <path d="m366.3 143.79q0.04 0.01 0.7 0.86 2.21 2.77 9.34 13.71c2.35 3.6 4.68 6 2.78 9.32q-1.2 2.11-2.63 3.24c-3.38 2.64-12.77 7.35-16.98 4.06-3.74-2.92-2.99-12.19-2.3-17.2q1.05-7.65 5.9-13.42a2.54 2.53 34.7 0 1 3.19-0.57z" fill="#fefeea"/>
  <path d="m232.78 148.42q2.79 4.39 7.18 6a0.93 0.92-80.11 0 1 0.61 0.87c-0.05 9.99 0.07 19.04 3.29 27.92q0.27 0.73 0.14 0.98a1.01 1.01 49.19 0 1-1.86-0.14q-6.15-18.45-9.76-35.46a0.22 0.22-67.59 0 1 0.4-0.17z" fill="#9774c6"/>
  <path d="m592.33 177.26a1.23 1.23 75.45 0 1 0.51-0.87c10.16-7.17 21.16-13.98 32.91-18.13 5.25-1.86 13.65-4.48 15.91 2.56 1.97 6.14 1.56 12.14 1.15 19.15q-0.21 3.56-1.22 8.66-2.68 13.58-5.41 24.58a2.04 2.01-0.33 0 1-1.47 1.47q-9.41 2.32-17.71 3.81c-7.51 1.36-15.16 2.14-22.14 0.58a2.11 2.06-15.94 0 1-1-0.54c-2.8-2.75-2.91-14.36-2.86-18.53q0.14-10.86 1.33-22.74z" fill="#ffc000"/>
  <path d="m283.04 168.53-10.44-10.44a0.83 0.82 60.16 0 1 0.37-1.39q1.32-0.34 2.28-0.24 14.89 1.53 19.2 2.61 5.03 1.25 12.99 4.25 3.47 1.31 5.94 3.06a1.29 1.29-61.15 0 1 0.44 1.53q-2.59 6.4-5.68 13.38c-1.83 4.12-3 8.51-4.55 12.56a0.34 0.34 39.19 0 1-0.6 0.06l-6.97-10.51a0.23 0.23 21.49 0 0-0.42 0.18q1.76 7.21-2.9 13.06c-3.65 4.58-11.16 9.57-17.17 7.08q-1.91-0.79-3.49-4.29-6.46-14.25-9.15-24.52c-1.08-4.13-1.89-11.34 4.51-11.79 5.49-0.38 10.93 2.44 15.28 5.82a0.27281 0.27281 86.38 0 0 0.36-0.41z"/>
  <path d="m303.16 190.81a0.28 0.28-51.19 0 1-0.52 0.06q-1.89-3.68-4.32-6.95-6.92-9.31-14.83-17.14c-3.14-3.1-6.43-5.33-9.2-8.11a0.43 0.43-19.06 0 1 0.36-0.74q2.97 0.37 11.51 1.51c8.87 1.19 18.03 4.05 25.97 7.09a1.19 1.18 26.19 0 1 0.59 1.72q-6.36 10.46-9.56 22.56z" fill="#ffc000"/>
  <path d="m336.63 223.42a0.88 0.87-68.77 0 1-1.17 0.52q-11.66-5.03-20.48-13.17c-2.38-2.2-5.05-5.47-7.86-8.14a2.27 2.26 30.19 0 1-0.61-2.29q3.59-12.01 8.06-23.81 2.5-6.61 5.32-11.85a0.87 0.87 37.56 0 1 1.4-0.18c3.14 3.38 6 6.56 10.04 9.88q1.49 1.23 16.98 14.42a0.81 0.81 29.91 0 1 0.24 0.88z"/>
  <path d="m267.35 166.5 0.3-0.05a3.76 3.67 45.73 0 1 1.18 0.03c9.68 1.91 30.17 15.28 21.98 27.15-3.37 4.87-13.74 12.25-17.14 3.21q-1.26-3.33-6.47-19.53-1.55-4.81-1.34-9.18a1.73 1.73-2.62 0 1 1.49-1.63z" fill="#fefeea"/>
  <path d="m321.07 168.16a0.32 0.32-44.57 0 1 0.51 0q3.24 4.24 7.09 7.66 8.7 7.74 17.24 14.07a0.69 0.68 31.33 0 1 0.21 0.85q-7.04 14.59-10.33 30.24a0.68 0.68-70.13 0 1-0.98 0.46q-14.57-7.52-25.89-19.87a0.99 0.97 32.5 0 1-0.22-0.96q5.29-16.37 11.45-30.93 0.33-0.77 0.92-1.52z" fill="#ffc000"/>
  <path d="m434.85 175.05v0.26a0.06 0.05-90 0 1-0.05 0.06q-4.79 0.3-10.42 1.03-13.97 1.82-25.74 9-8.07 4.92-12.96 14.07a0.58 0.58-64.41 0 1-0.73 0.26l-0.04-0.02a0.58 0.57-67.38 0 1-0.31-0.76q2.96-6.74 4.22-8.17c6.83-7.72 14.6-10.78 24.08-14.1 6.75-2.36 14.73-2.14 21.68-1.91a0.28 0.28 1.06 0 1 0.27 0.28z"/>
  <path d="m550.04 220.36q-0.39 5.76 0.6 10.17 0.79 3.49 4.77 3.17c3.69-0.31 9.67-9.99 11.35-13.22q8.23-15.82 13.1-32.85c0.7-2.46 5.88-5.65 7.65-7a0.29 0.29-16.24 0 1 0.46 0.25c-0.8 12.65-2.31 23.82 0.45 35.98q1.38 6.06 7.32 6.89c12.62 1.76 24.54-0.87 37.37-3.84a0.71 0.71-87.42 0 1 0.84 0.92q-2.81 8.45-6.64 16.75-13.39 29.05-40.04 46.45-4.98 3.25-10.27 5.44a1.38 1.37 51.92 0 1-1.35-0.17l-14.01-10.4a11.17 11.08-88.15 0 1-2.77-2.98c-6.27-9.96-12.74-17.94-23.34-23.4a1.54 1.54-67.75 0 1-0.76-1.82q4.99-16.34 14.77-30.51a0.28 0.27-25.87 0 1 0.5 0.17z" fill="#9774c6"/>
  <path d="m238.79 190.79a1.87 1.86 72.18 0 1 1.12-2.19c6.19-2.43 17.25-0.73 23.15 3.03q1.94 1.24 2.5 4.44c0.93 5.32-7.24 11.52-12.12 10.3-4.84-1.22-13.61-11.42-14.65-15.58z" fill="#fefeea"/>
  <path d="m374.76 226.82a0.48 0.48-4.7 0 1-0.57 0.67c-4.57-1.39-8.69-2.67-13.25-3.44q-4.42-0.75-16.91-2.56a1.12 1.12-75.16 0 1-0.88-1.52l8.45-21.44a0.65 0.64 33.43 0 1 1.06-0.21c8.35 8.48 16.84 18 22.1 28.5z"/>
  <path d="m372.43 225.44q-12.16-4.53-26.38-5.26a0.89 0.89-77.89 0 1-0.78-1.21l7.1-18.01a0.3 0.29 34.28 0 1 0.49-0.09q10.36 11.08 19.86 24.18a0.26 0.25 82 0 1-0.29 0.39z" fill="#ffc000"/>
  <path d="m392.34 239.18c-3.8-8.57-7.26-16.61-6.2-24.06q0.33-2.37 2.21-9.57a0.14 0.14 57.1 0 1 0.17-0.11 0.21 0.21-79.86 0 1 0.16 0.24c-0.62 3.76-1.5 7.47-1.49 10.64q0.01 7.23 1.96 12.55 3.35 9.13 3.53 10.21a0.18 0.18 28.54 0 1-0.34 0.1z"/>
  <path d="m311.87 244.18a0.37 0.37 46.19 0 1-0.68-0.02q-6.17-15.84-5.82-33.42 0.04-1.97 0.66-3.76a0.69 0.69 32.15 0 1 1.14-0.26q1.23 1.26 5.2 5.91 4.16 4.87 11.03 9.58a0.96 0.96-54.63 0 1 0.23 1.36q-6.78 9.22-11.76 20.61z"/>
  <path d="m311.85 240.98a0.34 0.33-42.18 0 1-0.63-0.03q-4.81-16.3-4.41-31.91a0.26 0.26-61.2 0 1 0.48-0.14q5.66 8.55 14.43 14a0.66 0.66 35.09 0 1 0.17 0.97q-6.21 7.83-10.04 17.11z" fill="#ffc000"/>
  <path d="m249.67 229.07q-6.95-3.4-10.35-7.4-1.88-2.21-0.75-4.27c1.25-2.27 5.9-5.58 8.44-7.23a0.34 0.34 79.35 0 1 0.51 0.35c-1.41 7.41-1.34 11.84 2.48 18.19a0.26 0.25-2.61 0 1-0.33 0.36z" fill="#fefeea"/>
  <path d="m453.97 211.23 6.67 2.89a1.09 1.08-42.63 0 1-0.09 2.02c-2.96 1-5.38 3.7-7.27 6.41-8.04 11.54-18.79 21.96-31.53 28.37-4.15 2.09-8.51 3.19-12.85 4.96-3.17 1.29-5.52 1.51-9.15 2.22a0.72 0.72 74.42 0 1-0.83-0.47l-3.1-8.74a0.83 0.83 73.96 0 1 0.6-1.09c15.24-3.39 25.35-10.58 38.47-20.66q10.69-8.21 18.33-15.77a0.69 0.69-55.39 0 1 0.75-0.14z"/>
  <path d="m468.92 233.01a1.03 1.03 32.03 0 1-1.8 0.41l-7.39-8.93a1.45 1.45-46.63 0 1-0.05-1.78q2.76-3.78 5.96-8.64c1.61-2.45 4.19-0.78 4.47 1.7q0.94 8.36-1.19 17.24z"/>
  <path d="m466.05 229.72-3.73-5.62a0.56 0.56 84.25 0 1 0-0.6l4.58-7.19a0.53 0.53-30.92 0 1 0.98 0.24q0.4 5.69-0.83 12.96a0.55 0.55 33 0 1-1 0.21z" fill="#ffc000"/>
  <path d="m275.92 221.12a0.04 0.04-62.93 0 1-0.03-0.05l0.02-0.06a8.03 1.34 17.7 0 1 8.06 1.16l0.38 0.12a8.03 1.34 17.7 0 1 7.24 3.72l-0.02 0.06a0.04 0.04-56.84 0 1-0.05 0.03z"/>
  <path d="m451.24 235.16 5.45-8.55a1.26 1.26-13.55 0 1 2.03-0.13l8.64 10.45a1.26 1.26 79.07 0 1 0.09 1.48l-6.81 10.69a1.26 1.26-1.87 0 1-2.16-0.05l-7.27-12.59a1.26 1.26 81.73 0 1 0.03-1.3z"/>
  <path d="m453.48 236.06 4.05-6.36a0.57 0.57 85 0 1 0.92-0.06l6.16 7.46a0.57 0.57 81.2 0 1 0.04 0.67l-5.03 7.88a0.57 0.57 76 0 1-0.97-0.02l-5.19-8.98a0.57 0.57-5.92 0 1 0.02-0.59z" fill="#ffc000"/>
  <path d="m297.6 231.75q4.63 4.21 7.69 9.93 6.25 11.72 10.95 24.1 0.35 0.93 0.08 1.43a0.35 0.35-42.11 0 1-0.63-0.03c-3.95-9.23-9.01-20.11-13.52-28.29-1.28-2.31-3.47-4.5-4.97-6.8a0.26249 0.26249 4.58 0 1 0.4-0.34z"/>
  <path d="m450.31 238.19 5.65 13.43a2.19 2.18-32.03 0 1-0.58 2.49c-9.47 8.21-19.11 10.82-32.08 12.65-2.41 0.35-4.69 0.66-6.86-0.16a1.19 1.19-56.87 0 1-0.41-1.96c0.86-0.85 2.32-2.33 3.87-3.28 6.47-4.01 11.77-6.89 16.03-10.72q5.69-5.11 12.55-12.76a1.1 1.1-35.38 0 1 1.83 0.31z"/>
  <path d="m688.01 290.12a0.83 0.82 1.66 0 1-0.64 0.6c-12.28 2.32-23.7 4.76-35.37 5.31q-3.14 0.15-5.7-0.55a2.87 2.85 0.57 0 1-2.02-2.05c-2.88-11.31-1.52-23.19 0.35-34.31a2.48 2.47 76.91 0 1 0.98-1.58q13.14-9.62 28.25-15.93c4.22-1.77 11.64-4.32 16.08-3 2.85 0.85 3.75 5.82 3.68 8.66q-0.48 22.15-5.61 42.85z" fill="#ffc000"/>
  <path d="m420.12 264.69a0.44 0.43 29.01 0 1-0.24-0.82q17.02-8.91 28.7-22.76a0.61 0.61 55.19 0 1 1.05 0.19l3.58 10.09a1.33 1.32-28.77 0 1-0.44 1.49q-13.94 10.61-32.65 11.81z" fill="#ffc000"/>
  <g fill="#9774c6">
   <path d="m286.06 309.02q-2.45-3.17-5.04-5.8-8.2-8.35-14.51-15.48-2.17-2.45-3.54-5.7a1.36 1.35-31.14 0 1 0.39-1.56q4.41-3.66 9.01-5.78a1.07 1.07 61.63 0 0 0.46-1.54c-5.08-8.13-8.09-12.68-11.06-18.98a1.36 1.35-32.56 0 1 0.36-1.61l4.06-3.35a1.15 1.15 47.89 0 1 1.55 0.08q5.34 5.43 8.91 14.12 5.07 12.38 8.09 15.53a2.42 2.41-60.04 0 1 0.59 2.23c-0.58 2.33-1.24 8.15-0.14 11.2a3.5 3.44-54.81 0 1 0.2 1.22q-0.19 7.5 1.21 15.18a0.3 0.3-68.89 0 1-0.54 0.24z"/>
   <path d="m564.89 373.5q-2.4-20.61-13.69-36.8-4.45-6.37-7.48-8.68-4.3-3.28-5.78-4.53-4.03-3.38-5.85-4.45c-15.52-9.09-34.4-9.61-51.4-4.11a1.11 1.11 78.4 0 1-1.44-0.95l-1.63-17.36a2.67 2.66-25.3 0 1 0.77-2.14q7.35-7.28 12.21-15.13a25.41 25.28-5.33 0 1 4.62-5.54q10.15-9.19 21.86-23.16a1.82 1.82 27.99 0 1 1.9-0.58c12.62 3.64 24.24 10.26 31.74 21.18 3.41 4.97 6.45 9.75 8.77 15.69q10.91 28 10.62 58.56-0.13 14.56-4.6 28.07a0.32 0.32 51.09 0 1-0.62-0.07z"/>
   <path d="m639.47 262.1a0.52 0.52 76.17 0 1 0.84 0.51q-2.8 14.4-0.9 27.69c1.11 7.76 4.47 10.16 12.37 9.81q16.56-0.74 34.18-4.89a0.55 0.55-88.96 0 1 0.65 0.68q-4.09 15.32-12.7 28.77-7.98 12.46-20.8 19.91c-5.27 3.06-13 5.44-18.9 7.22a1.57 1.57-24.81 0 1-1.77-0.65q-13.61-20.95-30.66-38.93c-0.95-0.99 0.11-2.96 0.62-4.08 8.3-18.08 21.61-33.67 37.07-46.04z"/>
  </g>
  <path d="m316.39 276.59c1.27-3.53 5.11-13.69 9.72-9.48q2.83 2.58 9.89 9.87c3.09 3.18 7.17 5.73 9.65 9.35 3.38 4.95-2.98 17.19-5.62 22.76q-3.27 6.88-4.64 7.9c-6.13 4.56-14.43-4.38-17.89-9.19-3.92-5.44-4.34-13.65-3.71-20.19 0.24-2.44 1.22-4.95 1.69-7.91q0.16-1.02 0.91-3.11z" fill="#fefeea"/>
  <path d="m346.3 781.2q-0.25 0.13-10.75-2.01-74.21-15.14-130.52-64.27c-91.81-80.11-124.11-213.31-76.53-326.43q28.44-67.64 86.33-112.76a0.63 0.63 51.84 0 1 0.88 0.11c6.11 7.75 13.09 15.65 20.76 21.46q2.37 1.79 5.73 2.04c4.23 0.31 7.84-3.83 9.07-7.41a0.3 0.29-53.21 0 1 0.52-0.08c3.76 5.36 18.63 23.65 25.05 22.82a0.53 0.52-3.41 0 1 0.59 0.52v2.47a3.81 3.8 33.62 0 0 0.3 1.48c2.25 5.25 5.72 9.22 10.21 13.51 3.71 3.55 6.22 6.17 10.21 8.17a0.81 0.81 34.36 0 1 0.24 1.27q-3.57 4.01-5.28 8.31a0.85 0.84-73.63 0 1-0.94 0.52c-12.25-2.34-22.4-14.94-25.76-25.47-2.61-8.15-4.7-15.05-14.16-15.11q-4.46-0.02-7.42 0.74-26.33 6.81-46.18 24.55c-10.7 9.56-21.29 20.54-27.47 33.01q-2.18 4.4 1.27 8.46 3.14 3.68 8.24 2.31c9.71-2.6 17.78-4.39 25.63 3.24q3.16 3.07 5.26 5.2a3.5 3.47-6.63 0 0 0.74 0.58q5.99 3.61 11.37-1.51c1.61-1.53 3.72-4.06 6.25-5.26 8.31-3.93 13.85 0.88 18.56 7.19q3.14 4.21 4.76 4.99 4.3 2.06 8.28 0.12 9.52-4.62 18.51-3.67a0.56 0.56 8.92 0 1 0.49 0.67q-7.99 37.65 1.61 75.96 1.82 7.28 4.43 14.23a0.2 0.2 14.29 0 1-0.34 0.2c-14.3-16.02-38.97-22.13-57.75-9.62q-11.31 7.53-19.75 18.07a0.49 0.49-44.07 0 1-0.78-0.01q-7.38-9.9-18.58-17.47-17.89-12.08-38.99-4.3c-29.05 10.72-42.54 47.53-29.8 75.22 9.3 20.2 28.95 24.94 49.23 19.5q12.78-3.42 21.35-9.19 9.44-6.36 16.79-13.19a0.56 0.55 44.58 0 1 0.75 0q2.32 2.06 10.91 8.86 5.99 4.73 10.9 7.15 7.22 3.56 11.98 5.12c19.76 6.48 41.25 4.64 52.29-15.28q9.2-16.59 5.26-35.91a0.18 0.18 22.62 0 1 0.32-0.13l4.31 6.5a1.67 1.65 36.76 0 1 0.21 1.39q-2.54 8.73 0.85 16.54 10.59 24.47 30.67 39.47 7.18 5.37 18.24 11.02 19.76 10.09 41.81 11.51 1.15 0.08 3.06 0.54a6.74 6.62-23.7 0 1 1.58 0.6q5.75 3.07 6.59 3.37 8.91 3.19 20.5 6.46 8.36 2.36 15.32 6.01a0.48 0.47-48.03 0 1 0.04 0.82l-5.86 3.89a1.78 1.53 17.33 0 1-0.51 0.22c-2.2 0.49-4.31 0.81-6.08 1.31q-24.79 7.06-33.67 30.9c-1.16 3.11-1.77 7.11-2.63 10.56a1.59 1.12-35.01 0 1-0.08 0.22l-6.61 13.88a0.61 0.59 3 0 1-0.37 0.32q-10.14 3-26.73 3.69-27.37 1.13-51.64-1.71-30.66-3.6-57.89-18.6c-10.27-5.65-18.53-12.63-28.11-19.69-5.66-4.18-14.18-5.3-18.53 1.18-3.01 4.5-2.94 10.7-2.37 16.43q0.81 8.19 3.66 16.61 9.8 29.02 29.53 50.21c22.35 24 52.57 39.33 83.76 50.05 3.41 1.18 5.92 1.15 9.1 1.46a9.87 9.45-32.19 0 1 1.95 0.4l15.78 4.99a0.26 0.26 39.54 0 1 0.05 0.48z" fill="#68bdf2"/>
  <path d="m599.84 415.08 21.68-2.04a0.4 0.39 48.16 0 0 0.04-0.78q-12.58-2.67-24.74 1.04a0.74 0.74 79.31 0 1-0.95-0.65c-0.53-6.3-3.83-12.17-7.26-18.01q-2.55-4.33-8.98-10c-3.09-2.73-7.34-4.51-10.91-6.96a0.39 0.39 28.63 0 1-0.14-0.47c5.11-12.77 6.45-28.23 5.58-41.96q-1.42-22.39-7.86-42.28-1.49-4.58-3.23-8.06a0.25 0.25 5.58 0 1 0.38-0.31c9.64 7.52 20.56 16.05 29.12 24.56q29.8 29.61 49.77 67.61 7.34 13.96 12.29 28.34c4.94 14.36 8.97 28.14 11.5 42.76q1.12 6.43 1.11 13.31 0 19.83-1.64 34.12c-1.56 13.59-5.63 25.77-13.47 37.33-10.27 15.11-25.21 30.4-42.62 36.5q-4.41 1.54-10.19 2.9a0.56 0.56 78.41 0 1-0.68-0.45q-0.8-5.31-2.44-10.19a1.42 1.4-51.29 0 1-0.07-0.68l1.64-11.86a0.9 0.87 75.98 0 1 0.34-0.59q9.74-7.43 17.73-17.96c12.25-16.17 19.2-37.69 15.63-57.79q-1.32-7.38-4.28-17.43-2.59-8.81-5.3-13.68-8.47-15.24-22.27-25.5a0.46 0.45 60.41 0 1 0.22-0.82z" fill="#9774c6"/>
  <path d="m345.05 354.62a0.14 0.13 77.23 0 1-0.14 0.23q-13.78-6.48-27.9-14.44-9.12-5.14-13.58-9.38c-5.32-5.05-10.15-10.84-12.43-17.98q-3.03-9.47-3.53-19.74a0.95 0.94-5.2 0 1 0.83-0.99q4.38-0.55 11.63-1.24 3.78-0.36 10.61-3.67a0.66 0.66 77.14 0 1 0.95 0.6v4.51a1.59 1.56 80.36 0 1-1.04 1.49q-8.92 3.17-18.95 3.14a0.88 0.88 87.63 0 0-0.88 0.96l0.86 9.11a2.1 2.09-3.24 0 0 2.13 1.9c5.78-0.14 13.11-3.98 18.11-7.04a0.48 0.47 64.38 0 1 0.69 0.25l1.32 3.74a1.25 1.23-44.68 0 1-0.01 0.9q-1.79 4.5-3.74 9.51c-2.85 7.32 4.39 14.9 8.69 20.29 5.69 7.14 14.5 11.61 22.91 14.89a0.31 0.29 73.15 0 1 0.14 0.08z" fill="#9774c6"/>
  <path d="m311.63 296.36 0.26 2.72a0.99 0.97 73.9 0 1-0.52 0.96c-6.9 3.61-10.72 5.79-17.31 7.05a0.96 0.95 81.8 0 1-1.13-0.85l-0.56-5.88a1.11 1.1 87.63 0 1 1.1-1.21q8.79 0.08 17.37-3.28a0.58 0.58 76.78 0 1 0.79 0.49z" fill="#ffc000"/>
  <path d="m474.72 313.25q-6.75-3.73-13.55-0.82c-4.05 1.73-8.85 6.2-9.42 11.08q-0.06 0.54-0.12 0.77a0.44 0.44 27.13 0 1-0.72 0.23l-5.51-4.94a0.54 0.53 49.32 0 1 0.06-0.85c10.73-6.87 19.73-12.19 27.96-19.79a0.24 0.23 65.84 0 1 0.39 0.15l1.31 13.91a0.27 0.27 11.82 0 1-0.4 0.26z" fill="#b384da"/>
  <path d="m395.22 300.28q1.74 0.58 2.7 1.56 11.69 11.97 11.85 12.16 6.67 7.22 0.6 14.88-3.8 4.8-9.35 5.64c-3.15 0.48-6.69-3.83-7.63-6.35q-3.06-8.13-3.07-19.88c-0.01-2.44 1.36-9.19 4.9-8.01z" fill="#fefeea"/>
  <path d="m366.31 316.88c-0.69-5.62-0.37-10.92 3.81-15.17a2.54 2.44 39.82 0 1 3.22-0.23q0.52 0.37 0.5 1.88-0.01 0.83-0.79 1.83-0.95 1.22-1.56 2.27a6.8 6.66 66.8 0 0-0.8 2.06c-0.62 2.9-1.03 8.23-3.69 8.02a0.76 0.75-0.89 0 1-0.69-0.66z"/>
  <path d="m454.23 324.92q0.82-2.8 2.95-5.26 6.82-7.91 16.66-3.51a0.35 0.35-41.58 0 1-0.04 0.66q-10.3 3.35-19.29 8.33a0.19 0.19-6.59 0 1-0.28-0.22z" fill="#fefeea"/>
  <path d="m302.03 334.18a0.2 0.2-2.12 0 1-0.27 0.29q-9.63-6.58-16.11-16.26a1.52 1.51-41.19 0 1 0.13-1.85l1.14-1.27a0.88 0.87 55.97 0 1 1.47 0.29q2.74 7.53 8.58 13.91c1.88 2.05 3.67 3.14 5.06 4.89z" fill="#9774c6"/>
  <path d="m489.22 317.5a0.22 0.22-9.31 0 1 0-0.42c20.76-5.56 47 3.34 59.05 21.86q8.04 12.39 11.17 25.1 1.48 6.01 2.99 15.01a4.45 4.43 53.1 0 1-0.37 2.64q-4.14 8.79-11.98 15.65a1.69 1.67 29.24 0 1-1.42 0.39l-7.05-1.32a0.98 0.98 7.49 0 1-0.8-1.04c2.21-30.07-12.97-57.67-39.06-72.67q-5.77-3.32-12.53-5.2z" fill="#ffc000"/>
  <path d="m428.69 347.06q5.48-12.01 17.44-15.24c3.52-0.95 6.6-0.73 10.54-1.44a1.05 1.05-24.7 0 0 0.63-1.7q-0.29-0.36-1.35-0.86a0.38 0.38 46.91 0 1 0.02-0.7q12.42-5.1 24.18-8.03a3.95 3.84 42.82 0 1 1.7-0.04q6.08 1.16 9.95 2.68c9.38 3.7 19.35 10.77 26.06 18.2q20.79 22.97 19.24 55.29a0.55 0.55 7.19 0 1-0.66 0.51c-12.33-2.54-24.17-2.13-35.3 4.29a0.57 0.56 77.63 0 1-0.84-0.54c0.78-8.77-5.76-17.25-11.95-22.65-8.56-7.47-20.87-5.57-29.56 0.69a0.35 0.34 86.6 0 1-0.5-0.45c7.09-13.19 21.95-21.56 36.49-13.81a0.31 0.31-3.41 0 0 0.4-0.45c-5.19-7.58-14.42-7.63-22.29-4.4q-7.71 3.16-13.61 10.94c-0.71 0.94-1.36 2.59-2.19 3.7a0.28 0.28 63.32 0 1-0.51-0.17q0-0.54 0.23-5.6 0.5-11.09-6.96-18.98a5.06 4.63-2.56 0 0-0.85-0.71q-9.59-6.33-19.91-0.16a0.29 0.28 87.15 0 1-0.4-0.37z" fill="#9774c6"/>
  <path d="m182.27 369.04a0.33 0.33-79.51 0 1-0.35-0.51c14.68-21.47 36.76-40.57 61.52-47 2.44-0.64 5.76-2.01 9.67-1.7a1.93 1.91-5.71 0 1 1.69 1.37c5.58 18.69 18.09 37.44 39.62 39.1a0.34 0.34-77.74 0 1 0.29 0.46q-3.78 9.67-6.36 20.98a0.78 0.78-74.81 0 1-0.99 0.57q-14.44-4.5-28.13 2.43a0.87 0.86 66.86 0 1-1.2-0.49l-9.76-27.46a0.28 0.28-57.26 0 0-0.54 0.12q1.03 12.47 6.97 23.61a0.29 0.28 66.18 0 1-0.15 0.4l-0.24 0.08a0.11 0.11 61.9 0 1-0.13-0.04c-6.99-9.58-17.53-13.2-28.46-7.83-2.79 1.36-5.67 4.19-7.27 5.6a0.31 0.31 76.08 0 1-0.51-0.31c2.52-10.85 6.44-18.71 12.32-28.35q3.91-6.4 7.55-10.64a0.22077 0.21074 1.61 0 0-0.3-0.31c-7.6 5.53-12.91 13.05-17.28 21.81q-4.07 8.14-4.51 16.66a0.47 0.47 25.73 0 1-0.83 0.29c-8.87-10.01-19.93-12.1-32.62-8.84z" fill="#b384da"/>
  <path d="m413.6 370.28a0.28 0.28-60.3 0 1-0.47 0.13q-4.1-4.2-7.17-6.86-0.99-0.85-1.23-0.92a1.97 1.97-71.06 0 0-2.39 1.17q-6.19 15.79-12.74 27.84a0.63 0.62 15.6 0 0 0.52 0.92c7.18 0.37 14.02-0.83 21.17-1.18a1.14 1.14-72.57 0 1 0.96 1.84c-3.24 4.18-8.21 13.12-5.95 18.55a0.88 0.88 52.81 0 0 1.51 0.21q3.54-4.55 9.74-5.08a1.97 1.93 54.04 0 1 1 0.17c6.59 2.95 12.14-0.55 17.47-4.16a0.3 0.3-4.49 0 1 0.44 0.37l-4.52 9.48a0.45 0.43 15.13 0 1-0.46 0.25q-1.65-0.18-6.46 0.17-32.51 2.39-50.33 27.49-5.12 7.2-8.29 19.24c-5.12 19.42 0.03 38.76 11.45 54.38a0.22 0.21-10.51 0 1-0.23 0.33c-28.83-7.32-54.82-25.26-70.62-50.61q-14.35-23.04-19.34-49.39-0.62-3.25 0.82-12.08 3.93-24.23 8.84-37.45 4.9-13.22 10.1-24.55a0.89 0.88 24.84 0 1 1.18-0.43l12.8 6.1a0.47 0.47 47.73 0 1-0.04 0.86c-3.58 1.29-5.45 2.11-7.14 4.68a1.94 1.92-34.34 0 0-0.28 1.45q0.75 3.55 2.06 5.34c7.81 10.63 18.43 17.39 30.15 22.86a0.55 0.55 24.92 0 0 0.73-0.26l8.56-17.96a0.71 0.7 25.29 0 1 0.94-0.33l2.74 1.3a0.55 0.54 22.27 0 1 0.28 0.66l-3.71 11.75a1.47 1.12-37.37 0 0-0.06 0.22q-0.89 3.9 3.1 5.01 11.6 3.23 23.65 5.07 1.7 0.26 2.88 0.24a1.87 1.85-76.96 0 0 1.65-1.04q4.85-9.88 9.13-18.27 1.4-2.72 1.04-5.01a1.41 1.4-72.27 0 0-0.41-0.8l-1.38-1.38a0.7 0.7-42.34 0 1 0.05-1.03l3.67-3.03a1.78 1.78-49.47 0 1 2.03-0.16q3.53 2.07 4.72-1.62 1.16-3.57 2.13-6a3.11 3.09-9.8 0 1 0.86-1.21q15.99-13.87 32.3-25.81a1.2 1.19 49.16 0 1 1.55 0.12l4.95 4.95a0.28 0.27-29.51 0 1-0.13 0.46q-18.52 4.59-22.92 22.16a6.48 6.41 71.27 0 1-1.14 2.34c-1.88 2.43-4.21 4.78-5.69 7.68q-2.86 5.58-4.07 10.83z" fill="#b384da"/>
  <path d="m195.94 355.77-0.24-0.29a0.24 0.24-65.73 0 1 0.02-0.34q17.26-15.46 37.03-25.04c4.81-2.34 9.46-3.31 14.83-4.27q4.1-0.74 4.35 3.44c0.19 3.01 0.11 5.81 0.88 8.49q1.28 4.5 4.64 8.37 11.16 12.82 28.01 17.39a0.67 0.67 49.87 0 1-0.11 1.32c-10.9 0.98-23.15-8.12-30.01-16.03-5.1-5.9-6.72-11.28-6.57-18.81a0.91 0.9 85.55 0 0-1.06-0.91q-11.9 2.14-22.68 8.41-15.16 8.83-28.76 18.32a0.24 0.24-36.11 0 1-0.33-0.05z"/>
  <path d="m352.86 361.54a0.81 0.81-62.15 0 1 0.37 1.2q-4.09 6.14-7.61 14.42a0.94 0.94 26.21 0 1-1.33 0.45q-2.08-1.17-7.39-4.18c-7.48-4.24-13.68-9.81-18.76-16.77q-1.07-1.47-1.37-3.72a1.12 1.12 66.01 0 1 0.39-1.02q2.7-2.24 6.58-3.5a2.23 2.22 50.24 0 1 1.79 0.17q13.6 7.51 27.33 12.95z" fill="#ffc000"/>
  <path d="m437.82 359.03a0.26 0.26 0.22 0 0-0.36-0.36c-5.71 3.25-9.64 8.15-12.59 13.64a1.09 1.07 2.16 0 1-0.54 0.49l-7.55 3.18a0.36 0.35 84.31 0 1-0.48-0.4q1.49-7.12 4.5-13.25c3.58-7.28 12.53-16.09 21.25-13.59 4.95 1.42 7.78 4.71 9.47 9.73 2.78 8.21 2.59 17.28-1.09 25.38a4.87 4.65-10.98 0 1-1.02 1.44q-4.02 3.91-7.04 9.15a0.76 0.76 50.37 0 1-1.38-0.13q-4.19-11.83-12.33-20.7a0.87 0.87 37.54 0 1-0.13-0.99q2.45-4.74 6.19-9.95c1.07-1.5 2.38-2.39 3.1-3.64z" fill="#b8b6b9"/>
  <path d="m695.21 358.85a0.36 0.35-71.87 0 1 0.26 0.52q-3.99 7.42-6.66 13.69c-0.75 1.74-0.96 3.39-0.13 5.22 3.27 7.27 9.77 11.55 16.31 16.29a0.65 0.64-43.19 0 1-0.04 1.06q-20.7 13.09-45 8.71a1.92 1.91-3.61 0 1-1.47-1.29q-4.99-15.24-13.32-30.35a1.13 1.13-29.88 0 1 0.41-1.51c15.23-9.13 31.63-14.64 49.64-12.34z" fill="#9774c6"/>
  <g fill="#ffc000">
   <path d="m700.98 359.85q14.73 2.94 28.24 9.9 2.99 1.55 0.92 4.39c-4.98 6.82-12.19 12.52-19.16 17.66a1.91 1.9-45.13 0 1-2.24 0.01q-6.47-4.66-11.85-9.33c-2.02-1.75-3.29-3.61-4.36-5.84a2.38 2.37 44.86 0 1-0.01-2.06l6.57-13.79a1.72 1.71-71.35 0 1 1.89-0.94z"/>
   <path d="m362.79 365.44q0.54 0.25 4.8 0.96c5.25 0.88 10.53 0.01 15.28-0.7q4.35-0.65 8.84-3.17a1.46 1.44-24.81 0 1 2.09 0.75q0.41 1.17-0.23 2.54-2.05 4.37-7.97 15.26-0.98 1.81-1.87 2.41a1.17 1.15-55.94 0 1-0.89 0.18c-7.98-1.55-15.86-2.81-22.97-5.8a0.49 0.49-72 0 1-0.29-0.57l2.6-11.56a0.44 0.44-71.07 0 1 0.61-0.3z"/>
   <path d="m405.32 366.19 7.15 6.41a0.3 0.3-29.56 0 1 0.1 0.25l-1.05 15.51a0.3 0.3-57 0 1-0.27 0.27l-17.32 1.63a0.3 0.3-52.18 0 1-0.3-0.43l11.22-23.55a0.3 0.3 65.75 0 1 0.47-0.09z"/>
  </g>
  <g fill="#b8b6b9">
   <path d="m427.82 375.74q7.36 8.63 11.45 19.83a0.96 0.95 66.76 0 1-0.47 1.18q-4.33 2.16-8.98 5.27c-2.06 1.38-4.73 2.26-6.91 2.51a0.6 0.59 87.51 0 1-0.66-0.61q0.21-10.02 2.34-20.11 0.94-4.41 2.55-7.97a0.41 0.41-52.94 0 1 0.68-0.1z"/>
   <path d="m423.54 375.7q-4.86 12.27-3.8 25.7a0.25 0.25 30.77 0 1-0.48 0.12q-4.89-10.7-3.15-22.98a0.55 0.54-5.77 0 1 0.35-0.42l7.01-2.49a0.06 0.05 1.79 0 1 0.07 0.07z"/>
   <path d="m478.91 390.05a0.21 0.21 44.05 0 0-0.01-0.3l-0.45-0.39a5e-3 0 0 0 0-0.01 0l-12.22 10.09a1.43 1.42-50.88 0 1-1.56 0.17q-7.7-3.97-16-6.12a0.7 0.7-62.34 0 1-0.35-1.13c8.02-9.25 23.66-22.54 36.46-13.14 6.89 5.07 12.21 13.35 12.8 22.11a1.46 1.44 72.08 0 1-0.67 1.33q-11.02 6.95-17.26 17.83a1.43 1.41-75 0 1-1.23 0.72h-12.45a0.55 0.54-85.05 0 1-0.53-0.64q1.57-9.24 1.45-17.95a0.51 0.47 69.18 0 1 0.14-0.35z"/>
  </g>
  <path d="m591.66 410.75q-3.59-1.66-7.14-3.23-14.89-6.59-30-8.73a0.26 0.26 28.93 0 1-0.13-0.45q8.16-6.72 12.49-17.16a0.63 0.63-63.27 0 1 0.9-0.3q4.42 2.64 9.26 6.54c7.49 6.01 11.48 14.22 15.13 22.84a0.38 0.38 1.02 0 1-0.51 0.49z" fill="#fefeea"/>
  <path d="m349.6 386.03a0.98 0.97-72.82 0 1 1.33-0.71q13.39 5.67 29.68 8.9a1.41 1.41 28.5 0 1 0.71 2.39q-8.44 8.2-19.61 14.57c-2.88 1.64-7.16 3.39-9.24-0.81q-5.54-11.18-2.87-24.34z"/>
  <path d="m377.22 395.94a0.28 0.28 29.88 0 1 0.13 0.48q-6.26 5.91-12.38 9.8-4.52 2.88-7.39 3.94-2.21 0.81-3.23-1.55-4.19-9.68-2.89-20.35a0.68 0.67-71.87 0 1 1-0.51c7.57 4.27 16.64 6.3 24.76 8.19z" fill="#ffc000"/>
  <path d="m462.4 401.99q-11 7.45-25.56 12.47a0.43 0.43 36.01 0 1-0.54-0.54c2.31-6.92 5.38-11.25 10.29-18.76a0.96 0.95 28.31 0 1 1.18-0.35l14.55 6.29a0.51 0.51-50.25 0 1 0.08 0.89z" fill="#b8b6b9"/>
  <path d="m407.79 408.15c-0.44-3.43 2.51-8.77 4.57-11.81a0.53 0.52 52.24 0 1 0.93 0.12l2.94 8.29a0.34 0.34-12.55 0 1-0.29 0.45q-4.07 0.37-7.57 3.18a0.36 0.36-23.28 0 1-0.58-0.23z" fill="#ffc000"/>
  <path d="m593.07 553.72a0.19 0.19 30.49 0 1-0.36 0.09q-5.64-9.69-13.82-16.4a6.03 6.02 8.53 0 1-1.77-2.39q-0.83-2.02-3.96-9.7c-3.89-9.56-11.14-19.26-20.76-23.44q-3.3-1.43-7.96-0.63c-7.83 1.35-15.09 7.9-19.62 14.25a0.5 0.49 46.18 0 1-0.82-0.02q-1.61-2.42-4.03-4.44c-7.6-6.35-18.25-15.83-28.5-12.8a0.78 0.78 76.85 0 1-0.99-0.62c-1.49-8.7-4.17-17.5-8.15-31.06q-3.28-11.2-3.7-15.09c-1.56-14.5 0.8-28.23 11.67-38.72 8.41-8.12 18.48-14.09 30.18-14.55q6.78-0.27 14.29 1c9.71 1.65 23.85 3.5 35.52 7.03a8.92 8.39 66.74 0 1 1.84 0.8q6.94 4.03 12.48 12.88 10.64 17 10.9 37.37 0.08 6.66-0.39 11.97a0.47 0.47 22.13 0 1-0.76 0.32c-1.99-1.62-3.93-3.97-6.28-5.6-6.6-4.6-13.43-9.57-20.62-13.16a0.64 0.64-73.72 0 0-0.93 0.51c-0.2 2.18 2.39 3.85 4.48 5.54q0.31 0.25 11.51 8.48c9.28 6.81 19.77 18.72 21.28 30.42 1.13 8.73-0.41 17.95-3.78 27.27-3.51 9.68-6.79 20.42-6.95 30.69z" fill="#9774c6"/>
  <path d="m463.92 404.42a0.37 0.37 72.19 0 1 0.6 0.31l-1 14.8a1.34 1.34-84.84 0 1-1.48 1.24c-10.96-1.23-16.76-1.31-22.65-3.27a0.4 0.4-42.18 0 1 0.04-0.77q13.48-3.04 24.49-12.31z" fill="#b8b6b9"/>
  <path d="m599.19 542.12c1.51-7.87 4.59-15.31 7.08-23.35q2.47-7.97 2.57-17.74c0.11-10.28-3.85-18.92-10.21-26.43a2 1.98 29.12 0 1-0.46-1.58q1.13-8.34 1.03-15.76c-0.21-16.66-6.2-34.26-17.67-46.67a0.17 0.17-10.21 0 1 0.19-0.27q21.59 8.67 35.36 28.23c5.59 7.93 7.42 16.41 9.67 27.22 4.36 20.88 0.93 40.5-11.19 58.34q-6.94 10.22-16.04 18.2a0.2 0.2-15 0 1-0.33-0.19z" fill="#ffc000"/>
  <path d="m364.05 437.08q-0.62-10.64 0.15-19.55c0.17-2.07 0.79-3.46 2.88-4.28 8.61-3.37 15.22-3.89 22.77 1.73q1.97 1.47 3.04 3.69a0.94 0.93-8.98 0 1-0.97 1.33c-6.65-0.91-11.27 2.64-16.1 7.08q-3.99 3.67-10.59 10.44a0.69 0.69-24.47 0 1-1.18-0.44z"/>
  <path d="m388.11 417.15q-6.72 1.37-11.63 5.79-5.71 5.14-9.93 9.61a0.46 0.46 54.77 0 1-0.75-0.13q-0.07-0.16-0.11-0.27a1.02 0.93 36.88 0 1-0.08-0.43l0.29-14.02a2.77 2.76-12.83 0 1 1.53-2.42q7.32-3.67 14.5-2.57 2.82 0.43 6.41 3.56a0.51 0.51-30.47 0 1-0.23 0.88z" fill="#ffc000"/>
  <path d="m331.89 429.61a0.55 0.54-61.2 0 1-0.82 0.24q-3.75-2.61-7.88-4.4c-3.32-1.43-8.19-1.67-11.38-2.55a1.69 1.68 24.14 0 1-0.97-2.54q0.81-1.27 2.49-2.02c7.64-3.39 15.18-5.49 22.97-2.28a0.87 0.87 22.11 0 1 0.48 1.13z"/>
  <path d="m477.77 464.16a0.44 0.44 2.28 0 1-0.59 0.54q-25.54-10.97-52.8-14.1c-9.45-1.09-16.15 0.24-21.33 8.86q-6.6 10.97-10.34 20.72-6.04 15.75-9.33 35.66a0.6 0.59 7.31 0 1-0.64 0.49q-1.61-0.15-2.5-1.41-7.5-10.61-11.14-22.24c-5.03-16.12-2.74-34.51 6.22-48.72 11.88-18.83 33.22-28.93 55.65-28.26a0.96 0.95 76.67 0 1 0.8 0.5c2.2 4.03 6.12 5.66 10.56 6.43q6.64 1.15 15.61 2.09a4.09 3.97-26.01 0 1 1.65 0.54q8.13 4.79 14.4 12.26a1.86 1.82 27.92 0 1 0.42 1.32q-0.97 12.58 3.36 25.32z" fill="#fefeea"/>
  <path d="m313.73 420.68q9.66-5.27 20.33-3.12a0.21 0.2-74.7 0 1 0.15 0.28l-2.96 8.4a0.62 0.61-63.31 0 1-0.92 0.31q-7.29-4.83-16.47-5.31a0.3 0.3 32.17 0 1-0.13-0.56z" fill="#ffc000"/>
  <path d="m358.31 417.32a0.56 0.56 79.82 0 1 0.79 0.55l-1.56 22.98a1.35 1.34-2.41 0 1-1.15 1.24c-9.8 1.5-15.05-3.82-21.91-9.49a1.47 1.45 30.78 0 1-0.43-1.66l4.6-11.67a2 2-67.45 0 1 2.66-1.1c2.03 0.89 3.72 1.58 5.95 1.54q5.88-0.1 11.05-2.39z"/>
  <path d="m356.27 420.62a0.26 0.26-5.64 0 1 0.33 0.27l-1.21 17.8a1.1 1.1-87.54 0 1-1.12 1.03c-7.54-0.18-11.54-3.47-17.12-8.17a0.98 0.98-61.46 0 1-0.31-1.05l3.11-9.83a0.53 0.52-67.38 0 1 0.74-0.31c5.02 2.67 10.14 1.58 15.58 0.26z" fill="#ffc000"/>
  <path d="m474.48 433.81-8.64-7.74a0.33 0.33-23.92 0 1 0.22-0.57h10.77a0.48 0.48 8.5 0 1 0.46 0.62l-2.4 7.57a0.26 0.25-60.59 0 1-0.41 0.12z" fill="#b8b6b9"/>
  <path d="m287.78 427.91q3.61 12.16 5.57 17.28c9.53 24.86 27.03 46.63 50.3 59.9q5.84 3.33 10.54 5.71 5.1 2.59 11.03 4.6 7.61 2.56 13.25 4.24a0.53 0.53-42.32 0 1-0.05 1.02c-7.51 1.57-16.38 3.87-24.41 4.91q-13.08 1.7-26.71 1.16a3.34 3.32-20.68 0 1-2.28-1.02c-13.14-13.62-21.24-29.04-28.91-47.33q-0.67-1.59-3.7-12.08-1.35-4.68-2.15-9.55c-0.57-3.53-2.37-10.3-2.72-15.9-0.27-4.4-0.79-8.25-0.06-12.92a0.15033 0.15033-48.64 0 1 0.3-0.02z" fill="#292929"/>
  <path d="m670.63 451.46h0.01a0.48 0.48 77.1 0 1 0.54 0.34q3.57 12.8 6.18 23.54 11.62 47.71 6.37 97.42c-2.88 27.3-10.91 53.37-24.44 77.82q-29.75 53.74-82.67 87.06c-30.01 18.89-64.48 34-99.54 40.15q-47.01 8.26-96.01 1.55-24.58-3.37-47.15-11.35a0.95 0.95-84.49 0 1-0.63-0.77q-1.75-13.49-0.75-26.23 1.87-23.64 15.19-42.97 2.84-4.13 6.36-7.58a2.25 2.22 22.47 0 1 1.57-0.64q18.22 0.07 35.91-4.37a0.86 0.86-5.26 0 1 1.07 0.88q-0.76 12.85 3.63 24.45c3.27 8.61 9.92 17.41 18.76 19.43 8.26 1.9 12.88-4.18 15.64-10.93q4.1-10.05 9.88-18.42 0.79-1.15 2.72-1.98a2.03 2.03-52.95 0 1 1.06-0.15c19.6 2.5 39.62-7.42 54.2-20.68q6-5.45 16.17-17.57 3.73-4.44 13.23-13.62c3.96-3.82 8.39-6.27 12.54-9.81a0.69 0.68 61.08 0 1 1.1 0.32q1.36 4.41 4 8.31c7.51 11.11 24.93-7.23 29.84-12.95q7.44-8.67 10.89-18.57a10.76 10.35 73.77 0 1 1.44-2.75q11.51-15.75 11.25-35.61a0.68 0.67-3.76 0 1 0.6-0.68c13.02-1.43 24.38-7.4 33.93-15.55q19.13-16.32 29.08-36.67c4.78-9.78 6.76-20.63 7.85-32.36q0.89-9.76 0.52-14.87c-0.58-7.9 0.14-15.3-0.72-23.69a0.47 0.46-8.15 0 1 0.38-0.5z" fill="#9774c6"/>
  <path d="m447.26 582.14q-16.36 4.14-31.62 4.49-7.73 0.18-13.61 0.17c-12.94 0-25.49-2.75-37.74-8.12q-13.08-5.73-21.97-12.39-16.74-12.53-26.27-32.32c-2.38-4.93-3.88-9.14-2.4-13.85a0.37 0.37-55.42 0 1 0.64-0.12c2.08 2.63 8.53 10.32 12.02 10.54 18.97 1.19 39.05-2.18 57.8-7.37a2.11 2.08 86.65 0 0 1.51-1.72q2.74-18.63 9.27-37.08 3.18-8.96 8.58-18.39c5.12-8.96 8.37-12.89 19.54-11.69q28.87 3.12 55.45 14.93a2.06 2.03 4.88 0 1 1.14 1.33l7.71 28.46a0.68 0.67-22.26 0 1-0.33 0.77q-9.86 5.45-16.24 15.04a2.93 2.91-77.17 0 1-1.99 1.26c-10.36 1.58-19.94 6.64-25.41 15.99q-11.34 19.42-1.94 39.7 1.56 3.37 6.06 9.85a0.34 0.34-24.37 0 1-0.2 0.52z" fill="#ffc000"/>
  <path d="m208.47 502.38q0.31 0 0.46-0.2 4.65-6.48 9.31-12.19 2.41-2.94 9.84-8.92 6.19-4.99 11.43-6.66c18.77-5.97 37.23 3.19 46.82 19.71q9.13 15.71 6.97 33.44c-1.61 13.23-9.84 26.7-23.84 29.09-12.78 2.19-26-1.52-37.5-7.9-5.23-2.91-9.01-6.42-14.87-10.92q-2.63-2.02-8.37-7.47-0.1-0.1-0.26-0.1-0.15 0-0.25 0.1-5.74 5.45-8.37 7.47c-5.86 4.5-9.64 8.01-14.87 10.92-11.5 6.38-24.72 10.09-37.5 7.9-14-2.4-22.23-15.87-23.84-29.1q-2.16-17.73 6.97-33.44c9.59-16.52 28.05-25.67 46.82-19.7q5.24 1.67 11.43 6.66 7.43 5.98 9.84 8.92 4.66 5.71 9.31 12.19 0.15 0.2 0.47 0.2z" fill="#fefeea"/>
  <path d="m196.71 517.34q-0.08 0.42-0.35 0.75-6.05 7.21-17.67 13.09c-7.33 3.7-19.61 0.01-25.06-5.58-7.09-7.26-7.46-19.6-0.33-26.63 8.66-8.54 22.59-1.88 30.67 5.09q6.39 5.5 12.58 12.72a0.65 0.65 69.94 0 1 0.16 0.56z"/>
  <path d="m220.22 517.36a0.65 0.65-77.92 0 1 0.16-0.56q6.19-7.23 12.58-12.73c8.08-6.98 22.01-13.65 30.68-5.11 7.14 7.03 6.77 19.37-0.32 26.64-5.45 5.6-17.73 9.29-25.06 5.6q-11.63-5.88-17.69-13.09-0.27-0.33-0.35-0.75z"/>
  <path d="m467.43 547.6q-1.16-3.48-0.58-9.83 1.13-12.35 7.64-21.29c4.54-6.23 10.07-11.8 17.36-14.14 8.42-2.72 17.86 4.72 25.16 10.17q3.33 2.48 5.68 5.18a0.56 0.55-49.5 0 1 0.05 0.66q-8.26 13.71-4.12 29.48a0.2 0.2 5.16 0 1-0.28 0.23q-16.89-7.97-33.48-14.02a0.96 0.95-74.17 0 1-0.61-1.11l3.53-16.32a0.05 0.04 12.39 0 0-0.04-0.05l-0.33-0.07a0.29 0.29 16.66 0 0-0.3 0.16q-3.76 8.64-4.61 17.46a1.17 1.16 72.92 0 1-0.4 0.76q-0.34 0.29-8.78 6.94-0.91 0.71-5.25 5.91a0.37 0.37-34.23 0 1-0.64-0.12z" fill="#b8b6b9"/>
  <path d="m230.3 517.09q6.96-8.17 14.83-12.3c5.22-2.75 12.42-4.47 15.32 2.44q2.11 5.01-0.45 10.44c-2.64 5.62-10.72 7.88-16.65 7.4a3.38 3.33 61.48 0 1-1.39-0.43l-11.5-6.59a0.63 0.63-54.83 0 1-0.16-0.96z" fill="#68bdf2"/>
  <path d="m186.71 517.04a0.63 0.63 54.62 0 1-0.16 0.96l-11.49 6.64a3.39 3.33-61.69 0 1-1.39 0.43c-5.93 0.5-14.03-1.73-16.69-7.34q-2.58-5.43-0.49-10.45c2.88-6.93 10.1-5.23 15.33-2.5q7.89 4.11 14.89 12.26z" fill="#68bdf2"/>
  <g fill="#b8b6b9">
   <path d="m547.76 520.7q0.34 8.62-0.84 15.48a1.09 1.08 88.42 0 1-0.83 0.88q-12.77 2.95-23.46 8.42a0.39 0.39-18.81 0 1-0.55-0.27c-3.14-15.06 3.98-29.35 16.67-37.38q8.19-5.19 15.83-0.29c8.12 5.2 14.14 15.15 17.47 24.18 1.6 4.34 2.96 9.2 1.03 13.61q-2.39 5.44-6.12 9.96a0.45 0.45 42.09 0 1-0.66 0.03l-17.4-17.4a0.7 0.68 26.42 0 1-0.2-0.57c0.66-5.68 1.05-11.25-0.21-16.69a0.36 0.35-4.42 0 0-0.32-0.27q-0.42-0.04-0.41 0.31z"/>
   <path d="m465.3 554.92a0.33 0.32-0.3 0 1-0.42 0.42c-5.4-2.07-9.99-3.75-15.81-2.09a0.47 0.46 82.63 0 1-0.59-0.46q0.2-10.38 2.39-19.97a0.3 0.29-80.23 0 0-0.25-0.36l-0.33-0.04a0.06 0.05 5.65 0 0-0.06 0.04q-3.78 11.12-3.66 21.4a0.9 0.9 70 0 1-0.32 0.69l-5.19 4.28a0.11 0.11-22.88 0 1-0.18-0.07q-1.26-13.75 5.69-25.43c4.75-7.99 12.81-12.22 21.27-14.9a0.33 0.32 4.98 0 1 0.39 0.46c-5.81 10.96-7.59 24.27-2.93 36.03z"/>
   <path d="m518.08 551a0.33 0.32 34.04 0 1 0.1 0.51q-12.02 13.18-15.4 16.75-4.2 4.43-9.65 6.4a1.67 1.66 67.42 0 1-2.07-0.86c-3.73-7.92-6.11-15.7-6.65-24.81q-0.49-8.24-0.37-11.17a0.79 0.79-78.41 0 1 1.07-0.71q19.86 7.53 32.97 13.89z"/>
   <path d="m481.64 538.81a0.3 0.3 77.14 0 1 0.46 0.29c-0.3 2.3-1.02 5.08-0.99 7.56q0.19 14.33 6.82 26.88a0.27 0.27-3.31 0 1-0.34 0.38c-9.06-3.67-16.03-13-19.14-21.9a1.6 1.6-35.98 0 1 0.24-1.51q4.9-6.42 12.95-11.7z"/>
   <path d="m546.02 540.26a0.14 0.13-4.67 0 1 0.17 0.14l-3.49 28.39a1.36 1.36 10.91 0 1-1.7 1.15q-4.8-1.25-7.85-4.61-6.83-7.5-10.34-17.65a1.03 1.03 72.8 0 1 0.7-1.33z"/>
  </g>
  <path d="m521.25 597.45a0.27 0.27-27.05 0 1 0.15-0.46c7.57-1.33 14.74-2.48 23.11-1.95q4.44 0.29 8.66-0.87a0.53 0.53-49.49 0 0-0.08-1.03c-6.59-0.71-13-3.21-21-1.91q-9.35 1.52-16.34 2.15c-14.15 1.27-20.91-5.83-29.64-15.37a0.24 0.23-11.76 0 1 0.25-0.38c9.5 3.18 17.01-3.48 22.91-10.37q5.95-6.96 11.29-12.37a0.57 0.57-34.91 0 1 0.93 0.16c3.34 7.43 10.52 18.13 19.23 18.74 8.05 0.57 19.08-6.48 25.16-11.87q9.44-8.38 12.28-20.47a0.21 0.21 28.81 0 1 0.36-0.1q8.34 8.49 12.95 18.58c5.78 12.64 4.39 27.77-1.49 40.53-4.18 9.05-10.68 14.85-19.26 20.24q-7.73 4.86-17.21 5.87c-14.92 1.59-18.41-13.14-26.96-23.35q-2.43-2.89-5.3-5.77z" fill="#9774c6"/>
  <g fill="#b8b6b9">
   <path d="m548.01 542.65a0.5 0.5-63.74 0 1 0.85-0.29l15 15a0.72 0.72-43.65 0 1-0.03 1.04q-8.07 7.3-18.18 10.91a0.43 0.43 88.28 0 1-0.56-0.53q2.34-8.21 2.06-16.29c-0.11-3.31 0.5-7.49 0.86-9.84z"/>
   <path d="m449.55 556.11c4.95-1.31 10.87 0.5 15.49 1.83a4.54 4.54 83.56 0 1 2.72 2.17q3.97 7.26 9.74 12.13a0.8 0.79 39.48 0 1 0.11 1.1q-4.75 5.97-8.33 10.94-1.61 2.22-4.21 3.52a1.33 1.32 54.98 0 1-1.56-0.28c-8.03-8.55-13.63-18.36-14.82-30.17a1.16 1.16 79.83 0 1 0.86-1.24z"/>
   <path d="m459.63 587.15c-8.78-4.87-14.57-14.43-17.66-24.17a1.79 1.79 58.73 0 1 0.44-1.81l3.05-3.05a0.8 0.79-25.97 0 1 1.35 0.46q1.81 15.66 13.09 28.23a0.22 0.22 83.56 0 1-0.27 0.34z"/>
  </g>
  <path d="m468.09 612.99a0.31 0.31 38.29 0 1-0.07-0.59q19.03-8.2 24.94-10.68 0.81-0.34 0.97-0.84a0.36 0.36-85.32 0 0-0.39-0.46q-16.8 2.38-30.92 11.52a1.7 1.7-48.74 0 1-1.66 0.11q-6.17-3.01-13.1-7.14-3.47-2.06-11.61-4.9-0.98-0.34-21.18-6.6-2.03-0.62-4.87-1.9a0.28 0.28 57.55 0 1 0.12-0.54q19.98 0.31 39.82-5.06a1.95 1.91-37.12 0 1 1.47 0.19q1.37 0.79 3.66 2.61c2.79 2.22 7.17 3.43 11.11 2.39q2.18-0.58 4.69-3.51 4.48-5.23 8.51-11.2a0.84 0.84-45.7 0 1 1.38-0.02q4.78 6.78 10.73 12.66 9.31 9.18 22.45 8.55a2.97 2.95-24.71 0 1 2.16 0.79c4.76 4.42 8.41 8.93 12.17 15.02q4.45 7.23 7.51 10.39a5.86 5.83 13.17 0 1 1.33 2.13l2.64 7.43a0.62 0.6 66.91 0 1-0.29 0.74c-2.39 1.25-6.1 3.09-8.55 4.99-10.26 7.96-18.93 17.74-25.75 25.96-12.91 15.58-28.86 26.15-48.67 30.69a0.36 0.35-73.38 0 1-0.32-0.6q11.87-11.51 25-20.7c7.33-5.13 7.63-10.13 7.66-18.41 0.06-18.66-10.91-35.15-31.57-32.82-2.17 0.25-5.12 1.4-6.6 1.88a2.54 2.52-48.19 0 1-1.36 0.08l-4.53-1.05a0.39 0.39-52.93 0 1-0.1-0.72c8.23-4.55 16.73-7.55 26.12-6.93q6.95 0.47 13.14 1.51a0.33 0.33-29.92 0 0 0.17-0.63q-4.82-1.83-11.05-3.73c-1.77-0.55-3.61-0.34-5.16-0.61z" fill="#9774c6"/>
  <g fill="#b8b6b9">
   <path d="m579.14 619.93c-5.89 9.85-14.36 19.05-24.39 24.37q-4.14 2.18-6.57-2.23-2.87-5.17-5.93-12.87a0.39 0.38-87.6 0 1 0.53-0.49c9.87 5.03 24.86-0.77 33.21-7q1.78-1.33 2.89-2.03a0.19 0.18-0.96 0 1 0.26 0.25z"/>
   <path d="m446.06 627.33a0.23 0.23 32.92 0 1 0.09 0.42c-12.33 8.48-16.75 26.68-15.54 40.82a0.48 0.47 4.07 0 1-0.59 0.5q-10.33-2.47-21.07-0.14a2.17 2.15 22.65 0 0-0.69 0.28l-4.37 2.68a0.36 0.36-14.46 0 1-0.55-0.32q0.61-15.03 6.87-25.53c6.33-10.63 18.21-17.05 30.35-18.67q3.28-0.44 5.5-0.04z"/>
   <path d="m436.26 653.59q1.22-6.57 4.22-12.33c6.75-13 22.46-18.41 34.51-9.21 9.37 7.15 11.64 20.99 9.61 32.06-0.69 3.73-7.68 8.19-11.16 10.42a1.16 1.14 54.64 0 1-1.53-0.27c-3.28-4.25-6.43-8.91-10.34-11.78q-11.25-8.27-24.86-8.34a0.47 0.46 6.18 0 1-0.45-0.55z"/>
  </g>
  <path d="m259.2 731.38a0.21 0.21-69.82 0 1-0.34 0.16q-27.67-21.8-40.85-54.31-4.96-12.25-5.91-25.69-0.15-2.08 0.67-5.44a0.53 0.53 15.04 0 1 0.67-0.38q3.39 1 5.08 2.27c8.73 6.55 16.04 12.72 25.31 18.21 11.38 6.76 25.21 12.96 38.66 16.26a0.24 0.23-56.05 0 1 0.08 0.42q-10.03 7.31-15.9 18.35-4.06 7.64-5.54 14.63-1.52 7.16-1.93 15.52z" fill="#ffc000"/>
  <g fill="#b8b6b9">
   <path d="m470.27 676.33a0.27 0.27 51.73 0 1-0.04 0.36q-9.97 8.55-16.59 14.69c-2.96 2.75-7.68 4.7-10.47 0.55-6.76-10.07-9.23-22.63-7.63-34.76a0.66 0.65-85.55 0 1 0.66-0.57c9.68 0.25 20.29 4.14 27.11 11.41q4.17 4.46 6.96 8.32z"/>
   <path d="m439.64 696.28-2 1.49a13.8 13.61-88.01 0 0-2.21 2.09q-3.45 4.11-7.58 8.97c-6.49 7.63-15.95-5.09-18.64-10.63q-5.32-10.94-5.71-22.79a1.42 1.41-13.81 0 1 0.8-1.32c2.35-1.16 5.01-2.34 7.8-2.66q9.04-1.06 17.33 0.73a2.46 2.46-89.3 0 1 1.91 1.96q2.1 11.54 8.48 21.11a0.77 0.77-35.31 0 1-0.18 1.05z"/>
   <path d="m399.24 671.72a0.23 0.22-25.84 0 1 0.41 0.14q-0.58 7.7 1.05 14.57a1.05 1.05-21.61 0 1-0.5 1.15l-3.14 1.81a0.63 0.63 74.73 0 1-0.94-0.54q-0.04-7.61 2.16-15.08 0.35-1.18 0.96-2.05z"/>
  </g>
  <path d="m307.58 688.24q-25.74 22.17-27.15 56.95a0.43 0.43 17.7 0 1-0.66 0.34l-16.36-10.42a1.5 1.5-70.77 0 1-0.69-1.43c1.07-10.06 2.62-20.13 7.63-29.85q5.99-11.63 17.19-18.89a2.83 2.82 33.8 0 1 2.09-0.41l17.84 3.33a0.22 0.22 29.33 0 1 0.11 0.38z" fill="#9774c6"/>
  <path d="m347.49 690.7q-14.41 18.88-18.08 42.22-2.23 14.23 0.42 33.32a0.31 0.31 5.26 0 1-0.41 0.34q-23.54-7.77-44.47-18.34a2.13 2.1 15.19 0 1-1.17-2.01q1.31-24.15 15.36-43.7c4.02-5.59 8.48-9.23 14.14-13.33a3.04 3.02-60.4 0 1 2.05-0.57q14.39 1.32 31.81 1.35a0.45 0.44-71.17 0 1 0.35 0.72z" fill="#ffc000"/>
  <path d="m427.82 714.32a0.36 0.35 88.44 0 1 0.46 0.44c-2.08 6.37-6.59 15.05-15.05 10.49-11.35-6.11-15.95-20.03-16.84-32.36a1.02 1.02-16.89 0 1 0.52-0.97l3.49-2.02a0.97 0.97-27.16 0 1 1.37 0.44q0.62 1.4 2.1 5.86c2.01 6.04 6.18 11.56 10.97 15.71q5.88 5.09 12.98 2.41z" fill="#b8b6b9"/>
 </g>
</svg>
