<svg width="512" height="512" version="1.1" viewBox="0 0 512 512" xmlns="http://www.w3.org/2000/svg">
 <g transform="matrix(.42595 0 0 .42595 1.2501 .43157)">
  <path d="m723.94 148.29q11.53 4.6 22.28 11.28a2.09 2.06-32.7 0 0 1.37 0.29c1.6-0.2 3.18-0.64 4.93-0.81q41.96-3.95 50.98-4.82 11.13-1.06 24.24-3.26c4.14-0.69 9.54-1.02 13.15 0.86q4.65 2.41 6.31 6.63c5.83 14.9 2.45 32.6-3.52 47.51q-10.42 25.98-26.16 49.11a0.47 0.46 48.76 0 0-0.03 0.48q2.85 5.86 4.36 11.56 2.82 10.65 3.77 18.67a0.46 0.45 86.41 0 0 0.45 0.4q103.57-0.62 184.69-0.9 12.43-0.04 20.09-0.22c14.86-0.33 25.07-0.06 36.63-0.09 10.84-0.03 27.16 1.89 35.02 2.51q4.12 0.31 10.05 1.96c19.24 5.32 37.73 14.68 51.69 28.51 5.6 5.56 10.53 14.74 12.39 21.62q2.25 8.29 2.52 18.41 0.58 21.01-5.46 41.31c-2.91 9.8-9.74 20.8-13.84 29.48q-1.39 2.94-7.47 12.82c-11.83 19.24-22.96 35.71-36.79 57.25q-77.84 121.14-108.25 168.5c-3.59 5.58-3.28 12.23-1.44 18.26q11.36 37.27 60.47 197.54c6.48 21.15 11.79 37.22 17.84 58.14q2.74 9.49 4.66 18.94 3.32 16.34 3.7 19.16 1.33 9.66 0.16 21.87c-1.39 14.38-4.25 27.23-10.3 39.99-4.19 8.85-11.4 16.65-19.13 21.54q-5.89 3.73-14.62 6.81-20.22 7.12-42.15 7.32-7.19 0.07-18.39-1.99-17.44-3.2-23.04-4.59-12.31-3.06-33.52-9.31c-32.61-9.6-67.54-19.36-94.48-27.25a1.72 1.72 41.13 0 0-1.19 0.08q-8.27 3.71-17.45 8.49-32.92 17.12-67.68 23.54c-8.71 1.61-15.17 3.28-24.01 4.69q-35.55 5.66-70.23 4.02c-11.35-0.54-20.48-0.29-32.16-1.27q-18.31-1.53-36.26-4.94a1.56 1.54-57.48 0 0-1.19 0.27c-32.14 23.57-63.03 45.7-94.02 68.78q-14.13 10.52-28.78 20.68c-7.08 4.91-16.13 9.82-21.58 13.2q-7.96 4.91-14.28 7.28-16.31 6.13-34.52 7.81c-11.66 1.08-24.15 0.72-34.38-3.75q-8.53-3.73-13.86-8.3-6.25-5.38-11.99-13-11.03-14.67-17.77-32.11c-2.06-5.32-3.65-10.84-4.55-16.99-1.55-10.7-3.51-21.28-4.29-32.74q-1.11-16.37-1.57-26.3-1.03-22.53-1.22-25.94-9.17-171.14-11.56-215.03c-0.24-4.46-1.27-10.06-4.05-13.73q-1.64-2.15-1.86-2.58-1.69-3.29-7.39-9.59-2.98-3.28-9.11-7.96-116.69-88.83-143.55-109.37c-19.3-14.75-37.91-28.18-56.32-43.02-7.37-5.94-12.97-11.89-19.78-17.81q-9.38-8.16-17.61-22.05c-7.12-12.01-12.66-24.78-15.06-38.08-2.36-13.07 0.07-26.3 6.78-37.45q12.66-21.04 33.43-36.42 5.7-4.22 15.87-9.03 17.37-8.21 20.32-9.39 12.26-4.87 33.37-12.27c46.59-16.34 109.06-38.89 221.71-79.2q8.33-2.98 10.79-4.89a4.65 4.54 87.04 0 0 1.18-1.34q1.8-3.14 3.09-6.94 11.25-33.12 67.78-198.98c6.01-17.64 10.74-32.59 17.76-52.28 4.58-12.86 9.85-23.66 15.31-35.65q1.72-3.76 6.81-10.69 9.43-12.84 22.22-23.53c8.18-6.84 18.66-13.48 28.97-15.61q9.2-1.91 17.44-1.05 7.53 0.78 16.18 3.62 17.78 5.85 32.96 16.03c4.58 3.07 9.05 6.61 13.13 10.87 8.82 9.19 16.75 16.94 24.38 26.84q3.79 4.93 10.15 12.44a0.64 0.64-36.86 0 0 0.85 0.12q26.46-17.64 46.55-29.67c3.66-2.2 9.21-7.54 14.93-10.29 15.22-7.31 23.75 4.1 27.09 17.19q3.59 14.08 3.67 28.52 0.05 7.68-0.08 15.74-0.34 21.76-6.84 42.89a0.54 0.53 19.96 0 0 0.31 0.65z"/>
  <path d="m556.71 133.27a0.47 0.46 39.39 0 1 0.38-0.03 0.1 0.09 35.76 0 1 0.03 0.16q-10.06 7.77-13.5 11.72-3.92 4.5-5.63 6.07a4.5 4.38 13.73 0 1-1.56 0.92q-12.97 4.44-25.23 14.28c-23.47 18.84-39.13 46.7-38.19 77.17a6.88 6.85 48.71 0 1-0.09 1.43q-4.71 28.84 13.27 51.36 2.15 2.7 2.5 3.21a0.59 0.58-35.96 0 1-0.13 0.8c-4.65 3.46-19.35 17.13-11.86 23.28a0.69 0.69 81.85 0 1 0.09 0.97c-3.27 3.93-6.86 10.19-1.15 14.25q4.21 3 7.87 5.27a0.5 0.5-51.75 0 1 0.09 0.78l-3.38 3.38a1.81 1.78-75.52 0 1-0.75 0.45q-3.25 0.98-3.71 1.06c-11.84 2-21.47 4.13-31.94 8.77-28.45 12.62-52.74 28.58-73.93 51.33q-19.72 21.18-30.18 37.54-0.83 1.3-3.23 3.54a1.55 1.52 23.07 0 1-1.05 0.41c-42.77-0.05-87.92 7.46-123.73 32.3q-16.11 11.18-29.18 24.84-10.55 11.03-16.83 25.96-13.17 31.3-17.56 65.93c-2.2 17.31-2.54 35.43 2.06 52.11q1.93 6.99 5.19 12.63c3.19 5.54 8.37 5.79 13.94 2.68 8.17-4.57 13.57-7.76 20.24-10.63 17.96-7.74 36.46-14.02 55.54-18.26 13.88-3.08 30.86-5.66 40.53-16.75a0.26 0.26 65.44 0 1 0.45 0.17q0.31 22.86 4.31 41.75 10.74 50.63 35.54 99.18 1.99 3.89 3.55 14.45 5.16 34.75-8.82 68.73-3.46 8.42-9.45 21.25c-2.76 5.91 1.4 10.64 7.62 9.96q4.31-0.47 10.32-3.27a0.38 0.37-8.34 0 1 0.53 0.39q-2.55 17.51-0.81 35.14c2.35 23.86 15.19 47.94 31.06 65.37q3.35 3.68 8.02 1.97a0.68 0.68-27.77 0 1 0.79 0.24q9.6 13.56 22.23 25.26 4.64 4.3 12.24 9.25 3.65 2.38 8.92 1.24a0.62 0.61-27.55 0 1 0.59 0.18c25.64 26.91 59.85 42.36 96.75 46.35 7.81 0.85 15.13 1.18 21.79-0.95a1.5 1.47-45.67 0 1 0.86-0.02q10.36 2.78 16.39 3.36 3.39 0.32 7.49-2.07a1.08 1.06-51.1 0 1 0.88-0.1l15.55 4.79a0.27 0.27 35.54 0 1 0.08 0.47q-47.71 34.86-94.37 68.85-6.26 4.55-18.47 12.76c-16.48 11.09-33.84 19.17-52.35 24.9q-13.99 4.33-29.32 3.74c-14.05-0.53-23.84-6.44-32.78-17.63q-9.06-11.35-14.35-25.78c-6.14-16.78-10.59-33.61-11.98-51.06-0.61-7.65-1.4-14.07-1.86-22.54q-3.25-60.56-8.28-155.47c-1.32-24.76-2.33-52.03-4.19-79.22-0.56-8.32-0.5-18.18-2.01-27.64q-0.74-4.64-3.05-8.39-1.4-2.26-6.43-6.17-22.77-17.73-39.86-30.6c-51.4-38.7-102.53-77.79-154.04-117.01q-7.62-5.79-13.09-10.34c-7.52-6.25-11.78-9.39-16.93-14.46q-14.52-14.28-26.48-31.39-8.49-12.14-12.92-27.32-5.45-18.69 4.69-34.57 9.38-14.69 23.26-25 18.64-13.85 37.88-22.89 0.66-0.3 17.62-7.07 7.37-2.94 17.79-6.63c32.44-11.49 109.88-39.54 172.46-61.47q21.88-7.66 51.02-18.36 8.64-3.18 11.86-5.86 5.46-4.54 7.61-10.71 11.95-34.22 13.48-38.79 24.68-73.67 66.09-194.91 2.93-8.58 7.76-21.29 5.09-13.39 9.03-20.73 8.83-16.43 18.52-29.41 8.88-11.87 21.52-20.75 16.56-11.63 36.12-6.4 14.78 3.95 27.07 12.15 15.68 10.44 29.87 23.86 4.91 4.65 12.39 13.5 11.1 13.14 11.87 14.09a0.49 0.48 54.58 0 1-0.12 0.72q-21.14 12.9-48.17 28.62-6.8 3.95-19.83 13a0.17 0.17-41.29 0 1-0.19-0.01q-0.03-0.02-0.05-0.04a0.08 0.06 47.3 0 1-0.01-0.1c2.36-1.94 4.04-3.07 4.64-6.53q1.55-8.91 12.76-65.94a3.02 3.01 10.69 0 0-2.43-3.55l-0.16-0.03a3.03 3.02 11.07 0 0-3.55 2.38l-11.08 56.83a0.34 0.34-64.66 0 1-0.55 0.2c-5.51-4.67-13.61-4.53-19.56-0.42q-3.45 2.38-4.52 6.05-2.62 8.95 6.21 13.21 8.03 3.87 15.66-0.4z" fill="#f4bf00"/>
  <path d="m527.13 73.9a0.11 0.11-64.33 0 0-0.19 0.07q-0.89 13.91-2.76 37.53-0.59 7.4-2.05 14.89-0.55 2.8-2.4 4.77-8.57 9.15-20.22 8.4-6.84-0.45-8.98-6.37c-3.22-8.94 5.09-18.28 12.49-22.21q5.43-2.87 11.42-1.05a0.49 0.48-79.87 0 0 0.63-0.44q1.22-20.52 2.95-41.97 0.85-10.48 1.43-14.77 0.2-1.45 1.35-3.76c2.1-4.24 5.78-2.8 6.75 1.13q1.31 5.31 3.62 7.97 6.18 7.08 8.51 9.95c7.83 9.64 11.96 23.35 7.13 35.07a0.89 0.89 50.7 0 1-1.69-0.17c-1.23-6.15-3.07-11.8-7.1-17.67a2.38 2.11-86.58 0 0-0.22-0.28z"/>
  <path d="m703.1 71.32a0.45 0.45 67 0 0-0.76-0.31q-3.21 3.13-6.26 7.33-5.48 7.54-20.61 26.14-2.33 2.86-4.31 5.83a2.92 2.92-69.54 0 1-2.78 1.27q-15.48-1.96-29.4-9.57a0.78 0.78 38.87 0 1-0.14-1.27c3.19-2.75 5.6-5.41 9.2-8.67q16.61-15.06 45.24-37.29c6.87-5.33 16.74-12.64 23.17-2.98 2.41 3.61 4.25 8.53 5.24 13.06q4.09 18.53 2.79 37.9-0.79 11.81-2.07 22.93a2.05 2.04 0.16 0 1-1.81 1.79q-11.3 1.22-22.44-2.67a0.93 0.92 16.71 0 1-0.59-1.09q6.24-25.33 5.53-52.4z" fill="#5a463a"/>
  <path d="m635.12 99.83-4.94-3.12a0.15 0.15 19.23 0 1-0.01-0.25l27.72-18.24a0.15 0.15-88.76 0 1 0.2 0.02l0.19 0.21a0.15 0.15 81.74 0 1-0.01 0.21l-22.97 21.15a0.15 0.15 82.62 0 1-0.18 0.02z" fill="#5a463a"/>
  <path d="m652.79 140.86c8.59-10.68 20.5-25.02 30.06-38.31q9.49-13.21 15.39-21.92a0.65 0.64-27.93 0 1 1.18 0.36q0.01 7.28-0.97 15.75-2.65 22.89-9.16 44.86a0.77 0.76 11.54 0 1-0.83 0.54q-17.45-2.29-35.35-0.69a0.37 0.36 16.67 0 1-0.32-0.59z" fill="#f5e9dd"/>
  <g fill="#b08e71">
   <path d="m551.65 148.96a0.52 0.52 21.69 0 1-0.38-0.88q4.81-4.94 11.04-9.52c6.82-5 15.39-10.55 24.19-15.69q21.73-12.7 41.98-25.2a0.44 0.44-40.38 0 1 0.51 0.04l4.19 3.4a0.27 0.27 42.27 0 1 0.02 0.4l-48.45 48.45a0.67 0.67-59.41 0 1-0.66 0.17q-13.36-3.74-26.96-2.11c-2.06 0.24-3.79 0.9-5.48 0.94z"/>
   <path d="m668.14 113.43a0.64 0.64-68.96 0 1 0.46 1.04l-21.58 26.54a3.58 3.56 14.81 0 1-2.18 1.26c-15.47 2.53-30.91 6.71-44.6 13.69a1.02 1.02-46.81 0 1-0.83 0.03l-10.95-4.64a0.21 0.21 33.64 0 1-0.07-0.34l47.64-47.64a0.58 0.58 37.76 0 1 0.71-0.09c9.18 5.35 20.55 9.67 31.4 10.15z"/>
   <path d="m696.87 126.4a0.38 0.38 19.62 0 1 0.53-0.25c6.8 3.33 15.92 5.25 23.48 2.93a0.67 0.67 85.25 0 1 0.86 0.73q-1.19 8.97-4.2 17.94a0.98 0.98 18.53 0 1-1.25 0.62q-11.02-3.75-22.67-5.48a0.5 0.49 10.66 0 1-0.42-0.6z"/>
  </g>
  <path d="m749.96 169.86q-11.84 0.37-22.98 3.75a4.78 4.72 43.79 0 1-2.6 0.04q-26.93-7.16-53.97-2.68c-15.21 2.52-29.79 6.91-42.83 14.7a0.6 0.6 60.2 0 1-0.84-0.23q-7.25-13.12-18.75-23.25a0.65 0.64 52.13 0 1 0.13-1.06c22.44-11.47 48.32-15.7 73.5-14.72q18.32 0.71 34.96 6.77 17.66 6.43 33.6 15.78a0.48 0.48 58.93 0 1-0.22 0.9z" fill="#333"/>
  <path d="m567.97 152.47a0.32 0.32 57 0 1 0.13-0.62q8.28 0.31 17.36 3.13a0.06 0.06 0 0 1 0 0.12l-6.41 1.74a0.53 0.52-41.41 0 1-0.37-0.02z" fill="#5d8eb2"/>
  <path d="m521.29 167.82q15.21-10.33 32.7-12.26c14.12-1.56 28.17 6.96 36.56 18.14q8.34 11.14 10.95 26.11c4.47 25.7-3.79 51.4-26.23 65.57-18.12 11.45-40.58 16.16-61.49 11.3-7.43-1.72-14.11-5.57-20.24-9.19-5.5-3.25-8.29-9.17-11.17-16.4-5.13-12.9-0.55-30.64 4.89-42.66q4.5-9.92 12.31-20.46 8.07-10.86 21.72-20.15z" fill="#333"/>
  <path d="m816.97 216.27a0.57 0.56 31.31 0 1-0.22-0.88q6.16-7.67 10.12-18.51 3.43-9.39 4.61-17.09c1.17-7.58-4.58-6.53-9.19-4.74q-9.46 3.66-18.35 9.61a1.65 1.63-59.05 0 1-1.05 0.27q-2.52-0.22-5.1-1.25-7.12-2.87-16.35-7.86a1.89 1.86-87.77 0 1-0.84-0.92l-2.73-6.54a0.61 0.6 73.71 0 1 0.45-0.83q20.62-3.63 43.44-8.99 8.22-1.92 15.07-1.14c7.04 0.81 6.96 15.5 6.68 20.86q-0.66 12.91-5.92 25.41-4.19 9.95-7.61 17.15a0.92 0.92 24.23 0 1-1.19 0.45z" fill="#5a463a"/>
  <path d="m618.77 179.94a0.18 0.18-5.87 0 1-0.22 0.27q-9.02-3.28-17.06 2.19a0.58 0.57-29.18 0 1-0.85-0.24q-6.45-14.26-18.9-22.95a0.4 0.4-36.1 0 1 0.11-0.7q3.43-1.09 7.23-1.15 2.78-0.05 6.88 2.01 14.31 7.16 22.81 20.57z" fill="#5d8eb2"/>
  <path d="m775.91 162.81a0.28 0.28 22.22 0 1 0.24-0.31l0.14-0.02a15.2 0.89-7.5 0 1 15.19-1.1l0.01 0.08a15.2 0.89-7.5 0 1-14.96 2.87l-0.13 0.01a0.28 0.28 23.86 0 1-0.32-0.24z" fill="#5a463a"/>
  <path d="m748.43 164.12 26.03-1.6a0.6 0.6-3.28 0 1 0.64 0.57l0.06 0.86a1.14 1.14-6.82 0 1-0.94 1.19l-19.96 3.61a0.73 0.73-30.6 0 1-0.59-0.15l-5.3-4.31a0.1 0.1-25.87 0 1 0.06-0.17z" fill="#b08e71"/>
  <path d="m760.44 170.06a0.15 0.15-90 0 1 0-0.3l14.83-1.76a0.76 0.76-14.77 0 1 0.79 0.46l2.25 5.39a0.44 0.44-57.68 0 1-0.58 0.58q-7.36-3.12-17.29-4.37z" fill="#b08e71"/>
  <path d="m722.61 174.49a0.2 0.2-47.3 0 1 0.01 0.38l-7.29 2.91a2.51 2.49-53.03 0 1-1.18 0.17c-2.78-0.29-7.51-1.39-11.08-1.57q-27.88-1.43-51.67 6.8-9.17 3.18-20.51 9.87a0.59 0.58 63.45 0 1-0.83-0.28l-1.82-4.36a0.62 0.61-26.11 0 1 0.27-0.78q10.91-5.94 16.77-8.11 27.27-10.11 57-8.08 1.42 0.1 4.3 0.48c5.69 0.76 11.74 1.3 16.03 2.57z" fill="#333"/>
  <path d="m753.64 197.06q6.6-1.2 13.56 0.21 9.62 1.94 18.46 6.79 5.1 2.8 7.49 3.97 18.75 9.22 29.32 13.81 1.2 0.52 1.57 1.19a2.9 2.62-41.27 0 1-0.36 3.09q-5.75 7.11-14.55 10.5-13.23 5.09-28.63 6.06c-4.87 0.3-9.3-1.42-13.93-3.37a0.31 0.3 23.45 0 0-0.39 0.15l-0.01 0.04a0.26 0.25 27.69 0 0 0.11 0.33q7.11 3.99 11.93 4.77 9.14 1.48 17.57 3.03a0.78 0.77 26.78 0 1 0.43 1.29c-8.11 8.63-18.02 13.02-29.97 10.71q-5-0.96-12.23-4.67a5.19 5.12-8.52 0 1-1.29-0.94q-5.87-5.87-7.85-12.83c-3.55-12.47-7.68-26.85-16.35-36.4-11.24-12.4-27.92-17.68-44.54-17.91q-3.48-0.05-9.49 0.46c-14.15 1.2-28.12 5.81-40.66 12.38a0.8 0.8 68.63 0 1-1.14-0.5l-0.51-1.89a1.39 1.39-23.02 0 1 0.63-1.56q20.87-12.41 45.4-15.88 19.29-2.74 35.98 0.11a2.72 2.64-45.86 0 0 1-0.03c9.45-2.16 19.99-5.81 29.23-6.54q14.62-1.16 28.2 3.2c13.45 4.33 26.72 13.68 41.87 14.25a0.34 0.34-76.46 0 1 0.29 0.48q-2.24 4.94-6.69 8.62c-3.64 3.01-8.17 4.61-12.44 5.99a2.47 2.43-38.66 0 1-1.94-0.2c-10.79-6.18-21.31-11.54-34.1-10.41q-3.42 0.3-6.04 1.5a0.11118 0.10108 26.73 0 0 0.07 0.2z" fill="#b08e71"/>
  <path d="m541.6 174.93a15.26 9.85-51.9 0 1-1.67 18.09 15.26 9.85-51.9 0 1-17.17 5.93 15.26 9.85-51.9 0 1 1.67-18.09 15.26 9.85-51.9 0 1 17.17-5.93z"/>
  <path d="m540.74 175.49a14.28 8.81-53.1 0 1-1.52 16.71 14.28 8.81-53.1 0 1-15.62 6.13 14.28 8.81-53.1 0 1 1.52-16.71 14.28 8.81-53.1 0 1 15.62-6.13z" fill="#5d8eb2"/>
  <path d="m806.79 185.76a0.37 0.37 35.49 0 1-0.12-0.7c7.75-3.93 13.45-7.26 20.66-8.48a0.93 0.93 85.29 0 1 1.08 0.92q-0.02 1.96-0.36 3.77c-2.18 11.64-7.55 22.29-13.26 33.09a0.56 0.56-62.51 0 1-0.75 0.24l-11.65-5.96a0.48 0.47-42.44 0 1 0.04-0.86q11.01-4.62 16.89-15.22 1.13-2.03 1.12-3.79a2.49 2.22-0.6 0 0-2.51-2.19q-5.45 0.04-11.14-0.82z" fill="#f5e9dd"/>
  <path d="m559.45 178.58a15.86 11.2-76.6 0 1 7.22 18.03 15.86 11.2-76.6 0 1-14.58 12.83 15.86 11.2-76.6 0 1-7.22-18.03 15.86 11.2-76.6 0 1 14.58-12.83z"/>
  <path d="m559.15 179.79a14.81 10.06-77 0 1 6.47 16.69 14.81 10.06-77 0 1-13.13 12.17 14.81 10.06-77 0 1-6.47-16.69 14.81 10.06-77 0 1 13.13-12.17z" fill="#5d8eb2"/>
  <path d="m632.48 233.91a0.3 0.29 35.16 0 1-0.55 0.09c-4.8-8.97-14.1-16.06-24.45-16.58a0.36 0.36-53.33 0 1-0.34-0.38c0.59-10.84-1.29-21.81-5.13-32.05a0.74 0.73-24.79 0 1 0.34-0.91c5.99-3.28 10.58-2.24 17.95-0.98a1.41 1.4 79.19 0 1 0.95 0.65c6.66 11.12 10.19 23.85 11.6 36.71 0.53 4.82 0.21 9.1-0.37 13.45z" fill="#5d8eb2"/>
  <path d="m499.46 205.45q0.44 6.06 6.02 6.18c9.28 0.21 11.6-9.43 11.47-17.27-0.12-7.72-7.27-7.72-11.49-3.32q-0.7-0.12 0.17-0.93c3.75-3.52 10.35-4.51 11.48 2.18q1.24 7.31-1.62 13.96-2.2 5.09-7.37 6.2c-5.77 1.24-9.69-1.95-9.61-7.77a0.33 0.32 26.55 0 1 0.58-0.19q0.25 0.31 0.37 0.96z"/>
  <path d="m499.46 205.45q0.62-8.39 6-14.41c4.22-4.4 11.37-4.4 11.49 3.32 0.13 7.84-2.19 17.48-11.47 17.27q-5.58-0.12-6.02-6.18z" fill="#5d8eb2"/>
  <path d="m636.53 217.21a0.07 0.07-24.38 0 1-0.11-0.04l-2.69-14.9a0.5 0.49 70.61 0 1 0.25-0.53q26.46-14.03 55.98-12.29c16.63 0.98 34.14 9.14 42.36 24.42q4.05 7.51 6.1 15.2c2.54 9.49 3.38 13.95 6.87 20.64 2.73 5.23 8.56 8.84 13.86 11.31a0.33 0.32 47.16 0 1-0.02 0.6q-3.06 1.17-5.19 4.13a1.79 1.78-74.36 0 1-1.29 0.73q-7.28 0.57-12.7-2.22c-6.91-3.57-12.53-9.46-14.22-17.21a1.53 1.52-39.08 0 1 0.1-0.93c4.48-10.19 2.95-22.09-7.01-28.16q-16.45-10.02-37.07-10.89c-15.18-0.63-28.14 0.49-41.42 7.27q-1.78 0.91-3.8 2.87z" fill="#f5e9dd"/>
  <path d="m516.49 211.7c-7.82 4.15-19 9.48-17.22 21.05q1.05 6.82 6.31 10.08c3.97 2.47 11.72 1.08 16.24-0.08a1.99 1.97-45.29 0 1 0.98-0.01q1.19 0.29 2.85 2.13c2.13 2.36 4.66 5.85 6.96 7.14q4.58 2.57 9.4 1.77 16-2.65 13.07-19.02-1.07-5.94-6.67-14.55a6.69 6.68 22.42 0 1-0.93-2.23c-1.3-5.93-2.58-10.23-7.94-13.49q-5.57-3.38-11.3-0.75-6.44 2.95-11.11 10.16a0.21 0.2 35.12 0 1-0.3 0.05h-0.01a0.21 0.2-48.37 0 1-0.01-0.31q0.75-0.74 0.64-1.95 4.19-6.45 10.41-9.11 5.67-2.42 11.48 0.56c6.16 3.15 7.81 8.05 9.25 14.34a9.06 9.05 22.03 0 0 1.24 2.92q3.5 5.38 5.38 10.15c3.34 8.49 1.62 19.26-7.76 23.13-10.43 4.32-16.85-0.35-23.02-8.29a2.47 2.45-24.02 0 0-2.37-0.9c-4.03 0.71-9.42 2.1-13.36 0.95-8.29-2.42-11.83-11.11-10.6-19.19a2.91 2.89 64.21 0 1 0.33-0.96q5.59-10.27 17.27-14.08 0.4-0.13 0.79 0.49z"/>
  <path d="m516.49 211.7 0.96-0.01q0.11 1.21-0.64 1.95a0.21 0.2-48.37 0 0 0.01 0.31h0.01a0.21 0.2 35.12 0 0 0.3-0.05q4.67-7.21 11.11-10.16 5.73-2.63 11.3 0.75c5.36 3.26 6.64 7.56 7.94 13.49a6.69 6.68 22.42 0 0 0.93 2.23q5.6 8.61 6.67 14.55 2.93 16.37-13.07 19.02-4.82 0.8-9.4-1.77c-2.3-1.29-4.83-4.78-6.96-7.14q-1.66-1.84-2.85-2.13a1.99 1.97-45.29 0 0-0.98 0.01c-4.52 1.16-12.27 2.55-16.24 0.08q-5.26-3.26-6.31-10.08c-1.78-11.57 9.4-16.9 17.22-21.05z" fill="#5d8eb2"/>
  <path d="m572.07 206.52a13.96 9.01-65.7 0 1 2.47 16.43 13.96 9.01-65.7 0 1-13.95 9.01 13.96 9.01-65.7 0 1-2.47-16.43 13.96 9.01-65.7 0 1 13.95-9.01z"/>
  <path d="m571.87 207.4a13.12 8.09-65 0 1 1.79 15.31 13.12 8.09-65 0 1-12.87 8.47 13.12 8.09-65 0 1-1.79-15.31 13.12 8.09-65 0 1 12.87-8.47z" fill="#5d8eb2"/>
  <path d="m607.79 219.66q16.39 4.06 22.7 19.64a3.01 2.88-57.83 0 1 0.22 1.07q0.03 2.76-1.19 6.41-9.82 29.55-34.7 48.83a0.48 0.48 86.9 0 1-0.58 0q-6.98-5.21-7.89-5.98-8.34-7.07-12.68-16.87a0.52 0.51-26.32 0 1 0.23-0.66q27.9-15.62 32.64-47.3c0.27-1.77 0.16-3.24 0.47-4.66a0.64 0.64 13.19 0 1 0.78-0.48z" fill="#5d8eb2"/>
  <path d="m751.17 337.49c3.85-5.27 5.79-9.82 7.97-15.59q0.33-0.88 2.62-5.57 6.08-12.5 1.66-26.03c-2.48-7.55-10.31-14.26-18.95-10.98q-1.47 0.56-3.11 2.58a1.13 1.11 57.55 0 0-0.21 1q0.35 1.27-0.32 1.95c-9.82 10.07-15.44 23.32-19.85 36.37q-2.11 6.22-2.66 14.4c-0.07 1.01 0.35 2.65 0.28 2.91a0.53 0.52-66.72 0 1-0.77 0.31q-7.19-4.21-13.26-4.03-11.07 0.32-22.29 7.12a2.82 2.75-68.89 0 1-0.59 0.27q-11.83 3.84-21.02-4.69a4.11 4.03 7.59 0 1-0.78-1q-6.48-11.75-19.64-15.57-1.02-0.3-10.15-2.62-13.36-3.41-25.63-10.49-4.62-2.66-6.2-7.77a2.04 2.02-27.07 0 1 0.73-2.22q7.07-5.31 12.75-12.83a1.07 1.05 25.16 0 1 1.12-0.39q9.78 2.42 18.6 6.18c12.34 5.28 20.1 15.73 26.2 27.27 2.96 5.6 13.13 26.39 18.22 23.35q2.75-1.64 2.43-6.18a3.67 3.63 66.55 0 1 1.13-2.91q6.14-5.82 10.38-13.49c6.59-11.91 10.88-24.96 13.45-37.37q2.18-10.56 1.83-22.79a0.33 0.33-65.51 0 1 0.58-0.22l2.01 2.46a1.23 1.23 38.31 0 0 2.06-0.24c0.71-1.43 0.06-2.49-0.28-3.83q-1.84-7.27-6.24-12.09c-10.22-11.21-23.49-14.89-38.65-15.06q-14.71-0.18-27.92 5.36a0.47 0.46 80.2 0 1-0.64-0.46l0.65-10.44a0.74 0.74-8.56 0 1 0.48-0.65q9.93-3.77 19.97-3.61c9.77 0.16 21.39 1.95 31.62 4.93q9.85 2.87 17.51 7.77 8.1 5.17 10.34 13.94a2.99 2.99 84.55 0 0 2.72 2.25l3.04 0.19a1.85 1.84-8.97 0 1 1.61 1.17c4.64 11.77 14.69 18.87 27.43 18.43a2.08 2.01-30.65 0 1 1.06 0.25c2 1.07 2.84 2.41 5.81 2.03 3.98-0.53 7.97-1.95 11.3 0 6.03 3.52 9.93 10.41 11.5 17.14 0.32 1.33-0.1 3.07 0.2 4.19a0.48 0.47-44.04 0 0 0.91 0.01l0.95-3.09a0.55 0.55-40.63 0 1 1.07 0.08q0.75 5.27-2.68 9.83c-6.16 8.15-10.83 15.05-13.78 24.05q-2.31 7.07-0.13 14.69a0.35 0.35 38.28 0 0 0.68-0.08q0.12-2.67 0.06-7.54-0.02-1.65 2.48-7.46a0.34 0.33 27.27 0 1 0.49-0.15l6.51 4.1a0.76 0.75 18.94 0 1 0.36 0.72c-0.83 9.36-5.94 18.26-14.46 22.64a1.92 1.9-57.63 0 1-0.91 0.21l-10.31-0.16a2.51 2.31-33.4 0 1-0.62-0.1l-14.66-4.53a0.33 0.32-52.03 0 1-0.07-0.59q7.08-4.14 14.51-4.89 1.36-0.14 2.58-0.62a0.64 0.63 34.12 0 0-0.24-1.22h-2.54a0.38 0.37-71.76 0 1-0.3-0.6z" fill="#5a463a"/>
  <path d="m824.3 231.17a0.28 0.27 83.54 0 1 0.42 0.34l-11.56 20.02a0.66 0.66-46.97 0 1-1.12 0.04q-3.3-4.94-7.73-8.07a0.58 0.58 54.57 0 1 0.17-1.03q11.37-3.22 19.82-11.3z" fill="#b08e71"/>
  <path d="m684.17 252.51c0 4.83-2.27 8.92-6.33 11.32-7.37 4.33-17.18 5.74-24.64 1.08-4.45-2.78-6.99-7.25-6.98-12.45 0.01-5.21 2.56-9.67 7.02-12.44 7.47-4.63 17.28-3.19 24.63 1.16 4.06 2.41 6.31 6.51 6.3 11.33z" fill="#fff"/>
  <path d="m688.83 245.27q5.71 2.9 7.41 5.22c5.05 6.88 6.13 19.38 4.53 27.77q-3.41 17.78-12.15 34.85-5.03 9.84-12.71 16.81c-6.03 5.47-11.83-6.29-13.87-10.27a0.57 0.57 59.62 0 1 0.19-0.73q13.8-9.15 19.79-20.63 12.45-23.85 6.42-52.72a0.27 0.27 7.11 0 1 0.39-0.3z" fill="#fff"/>
  <g fill="#5d8eb2">
   <path d="m787.09 282.52-4.6-19.96a0.63 0.62 72.62 0 1 0.37-0.71q6.6-2.74 12.48-7.76 3.46-2.95 5.15-7.07a0.63 0.63-59.4 0 1 0.97-0.25c7.66 6.25 12.15 16.05 14.4 25.49a1.15 1.15 62.7 0 1-0.35 1.11q-11.91 10.83-27.71 9.75a0.79 0.78-4.46 0 1-0.71-0.6z"/>
   <path d="m496.44 298.31a0.29 0.29 7.68 0 1-0.46 0.35q-18.29-18.33-18.47-43.78a0.25 0.25-60 0 1 0.47-0.13q4.61 8.41 12.18 15.37a1.11 1.11 21.98 0 1 0.36 0.84c-0.24 10.14 1.02 18.75 5.92 27.35z"/>
   <path d="m648.91 299.84c2.06-0.06 4.27-0.72 6.21-1.9q1.91-1.17 5.52-1.37c3.82-0.2 7.29-3.51 7.27-7.78q-0.01-1.93 0.54-2.6c5.64-6.86 9.49-12.4 11.87-20.86q0.3-1.04 2.78-3.71a1.15 0.96 85 0 0 0.14-0.2l2.17-3.9a0.29 0.29-45.57 0 1 0.5-0.01q0.34 0.59 0.36 0.95 2.06 28.23-15.21 49.16c-2.64 3.19-6.47 6.4-10.06 8.41a0.8 0.79-32.21 0 1-1.03-0.23l-11.28-15.51a0.28 0.28-19.23 0 1 0.22-0.45z"/>
   <path d="m546.75 316.29a0.18 0.18 53.4 0 1-0.05 0.34q-22.68 2.28-41.29-10.56a4.99 4.87 87.12 0 1-1.09-1.01c-8.14-10.16-10.99-20.01-12.21-32.16a0.32 0.31 15.28 0 1 0.5-0.28q11.09 7.94 25.12 9.93 3.31 0.47 7.4 0.85a0.55 0.54-87.62 0 1 0.48 0.53q0.21 23.53 21.14 32.36z"/>
   <path d="m592.66 297.38q-10.78 8.73-23.91 14.16a0.51 0.51-69.06 0 1-0.67-0.67c1.44-3.61 1.71-10.45-2.66-12.51-5.93-2.79-11.3-2.75-14.65 3.48q-1.22 2.27-3.05 11.95a0.43 0.42-73.93 0 1-0.57 0.32c-1.81-0.69-3.56-2.02-4.93-2.91q-14.38-9.32-14.99-26.81a0.79 0.79 89.66 0 1 0.81-0.82q16.13 0.4 31.74-5.06 4.45-1.56 11.99-5.17a0.56 0.56 65.43 0 1 0.75 0.28c4.31 10.01 10.43 18.06 20.07 23.11a0.4 0.39 39.28 0 1 0.07 0.65z"/>
   <path d="m816.2 274.46q2.03 9.32 1.88 13.86-0.61 18.43-10.87 34.2-4 6.14-9.98 9.78a2.37 2.36 50.04 0 1-2.8-0.25c-6.36-5.71-13.88-8.48-22.15-11.85a0.27 0.26-64.65 0 1-0.13-0.38l3.69-6.39a0.27 0.27 31.48 0 1 0.38-0.09c8.59 5.81 21.34 9.18 31.56 5.48a0.25 0.25-21.18 0 0 0.15-0.33l-0.1-0.24a0.08 0.07 67.26 0 0-0.09-0.04q-10.97 2.64-22.99-2-5.46-2.11-7.48-3.91a0.72 0.7-55.66 0 1-0.15-0.85q1.97-3.83 6.92-9.59c4.18-4.87 4.49-10.49 3.26-16.66a0.48 0.48-3.2 0 1 0.51-0.57c10.27 0.9 20.79-3.2 27.76-10.35a0.37 0.37 60.78 0 1 0.63 0.18z"/>
  </g>
  <path d="m646.92 280.07a11.14 8.38-146.1 0 1 13.92-0.75 11.14 8.38-146.1 0 1 4.58 13.17 11.14 8.38-146.1 0 1-13.92 0.75 11.14 8.38-146.1 0 1-4.58-13.17z" fill="#fff"/>
  <path d="m620.13 282.69-4.46-1.03a0.5 0.49-67.83 0 1-0.31-0.75l2.03-3.23a0.36 0.35-42.68 0 1 0.61 0.02l2.45 4.58a0.29 0.28-7.18 0 1-0.32 0.41z" fill="#5d8eb2"/>
  <path d="m718.36 285.57a0.11 0.11 35.07 0 1 0.1-0.13h0.02a7.87 2.21 81.6 0 1 3.33 7.46l0.05 0.34a7.87 2.21 81.6 0 1-1.03 8.11h-0.02a0.11 0.11-73.33 0 1-0.13-0.09z"/>
  <path d="m757.9 290.33a11.77 10.65-34.4 0 1-3.69 15.44 11.77 10.65-34.4 0 1-15.73-2.14 11.77 10.65-34.4 0 1 3.69-15.44 11.77 10.65-34.4 0 1 15.73 2.14z" fill="#fff"/>
  <path d="m715.73 295.92a0.05 0.05 39.62 0 1 0.04-0.05h0.04a7.33 1.99 89.5 0 1 2.06 7.31v0.34a7.33 1.99 89.5 0 1-1.92 7.35h-0.04a0.05 0.05-44.67 0 1-0.05-0.05z"/>
  <path d="m746.72 448.86q7.54-1.62 11.8-4.71a3.44 3.39-61.88 0 1 2.09-0.65q6.91 0.21 13.64-3.25 19.81-10.19 31.2-29.33a9.17 8.99-5.96 0 1 1.78-2.15q12.16-10.69 15.7-15.06 1.62-2.01 0.99-6.46-1.32-9.25-6.86-17.38a0.75 0.74 47.35 0 1 0.03-0.87q2.55-3.27 0.99-7.28-4.79-12.36-15.27-20.26a2.24 2.23 45.06 0 1 0-3.57c12.44-9.39 19.14-24.42 21.87-39.58a0.74 0.74 5.11 0 1 0.73-0.61q100.44-0.9 219.45-1.38c10.67-0.05 17.2 0.3 26.26 0.58 18.28 0.56 36.66 4.41 54.05 10.19q12.58 4.19 23.64 12.19c11.69 8.46 17.62 18.38 18.73 32.47q1.12 14.33-2.02 27.3-6.41 26.56-18.93 49.27c-4.7 8.53-11.44 19.39-17.94 29.5-53.01 82.43-76.99 119.71-101.94 158.15q-17.37 26.77-29.81 46.9c-4.16 6.73-4.6 15.42-2.6 22.9q3.94 14.73 16.56 55.24c20.38 65.39 39.96 129.71 55.7 181.09 3.53 11.52 5.21 18.52 7.92 28.49 2.96 10.92 4.27 21.58 5.04 33.4 1.27 19.4 0.55 36.27-7.3 52.93q-6.12 12.97-19.6 19-16.99 7.59-36.15 7.68c-18.79 0.09-34.4-1.25-51-5.36-8.56-2.12-13-3.04-20-5.05q-19.21-5.5-95.27-27.32a0.37 0.37 36.72 0 1-0.1-0.67q10.75-6.8 20.37-15.57a0.63 0.62-46.85 0 1 0.82-0.03q7 5.62 24.77 20.36 9 7.46 20.99 7.33 2.95-0.03 7.03 2.29c11.81 6.71 26.61 10.2 38.93 10.12 11.77-0.07 22.14-3.95 32.27-9.76a3.74 3.63 25.31 0 1 1.29-0.44c3.66-0.5 5.12-0.89 8.57-0.82q7.62 0.16 15.79-1.72 5.46-1.26 10.89-4.89 9.09-6.09 14.87-12.01a3.66 3.51 7.53 0 1 0.94-0.69l6.03-3.04a3.8 3.79 76.93 0 0 2.09-3.36q0.03-6.22 1.66-12.57c0.33-1.31 0.38-4.64 0.06-6.37-2.53-13.68-8.09-26.32-21.37-31.74a2.39 2.39 83.94 0 1-1.05-0.85c-8.69-12.68-17.02-22.83-31.3-27.83a9.9 9.35 68.43 0 1-1.84-0.86c-5.75-3.41-11.16-5.72-17.49-3.81q-7 2.11-15.49 6a4.18 4.15 46.11 0 1-3.65-0.08q-1.6-0.84-3.9-2.66-2.03-1.61-9.75-8.5-3.46-3.09-5.52-6.94a0.66 0.66 53.99 0 1 0.12-0.77c12.16-12.32 26.28-23.28 39.84-32.47 4.29-2.91 6.43-6.07 2.65-10.36a0.39 0.39 57.91 0 1 0.14-0.62l5.56-2.28a3.64 2.8 21.48 0 1 0.59-0.17q6.29-1.29 7.99-2.33c5.94-3.61 4.55-9.03 1.08-13.78q-6.53-8.95-9.89-11.84a0.71 0.7-54.45 0 1-0.14-0.89q2.45-4.09 0-8.84-11.57-22.49-30.12-40.16a0.44 0.44-38.7 0 1 0.08-0.7q8.08-4.85 15.34-8.27c8.15-3.84 13.66-6.82 19.62-10.83q1.72-1.16 1.74-3.71 0.09-8.96 0.33-12.89a16.24 16.06 54.15 0 1 0.48-3.09c1.53-6.03 2.27-11.19-0.74-16.73a4.55 4.48 6.88 0 0-0.98-1.23q-5.91-5.15-6.78-5.83-48.23-37.69-92.15-72.08a0.48 0.47-46.76 0 1-0.02-0.73l7.42-6.34a1.19 1.18 32.14 0 1 1.07-0.24q10.93 2.85 20.29 5.16c11.77 2.9 23.24 4.38 33.3 5.61q6.2 0.76 11.41-0.28 3.67-0.74 3.48-4.84-0.34-7.35 0.86-21.17 1.83-20.85 10.44-39.98c11.08-24.6 27.06-44.87 51.51-56.64q2.71-1.3 1.6-4.66-1.32-4-3.68-8.57c-14.12-27.39-36.67-48.21-64.02-61.75a6.94 6.83 80.66 0 1-1.92-1.4c-13.23-13.66-29.15-23.49-46.7-31.18-4.56-2-13.35 5.39-16.94 8.68a0.82 0.82 37.63 0 1-0.95 0.12q-12.19-6.52-23.63-11.26-3.14-1.3-5.54-1.75a4.24 4.22-56 0 0-3.1 0.61q-26.98 17.53-44.52 44.95-2.09 3.27-4.38 8.01a0.52 0.51-54.36 0 1-0.83 0.14q-10.58-10.76-24.82-12.7a1.41 1.4 77.79 0 1-1-0.65c-4.4-7.02-9.06-12.36-16.69-15.28q-5.4-2.07-13.26-3.23-8.38-1.24-15.56 2.42a0.18 0.17-47.86 0 1-0.1 0.01l-7.86-0.84a0.13 0.13-47.44 0 1-0.01-0.25z" fill="#f4bf00"/>
  <path d="m551.55 308.55c0.34-5.48 2.62-9.36 8.72-9.01 2.93 0.17 6.56 2.14 6.34 5.68q-0.16 2.66-0.49 4.02a0.45 0.44 27.75 0 1-0.73 0.22q-6.23-5.59-13.36-0.64a0.31 0.31-15.57 0 1-0.48-0.27z" fill="#5d8eb2"/>
  <path d="m622.07 317.95q-5.04 0.38-6.33 0.75a1.81 1.63-22.63 0 0-1.18 2.49q0.63 1.05 2.27 1.26 5.4 0.72 9.79 2.7a3.06 3.05-7.27 0 1 1.13 0.87c3.58 4.43 4.39 9.13 3.37 15.38q-0.66 4.06-1.12 11.36-1.93 29.96-0.52 55.03 1.22 21.61 7.56 45.47 6.47 24.37 27.3 38.37 4.44 2.99 9.83 3.92a0.29 0.29-54.78 0 1 0.09 0.53c-5.44 3.22-11.51 6.06-17.95 6.82q-9.73 1.15-17.69-2.44c-8.4-3.78-14-7.61-18.38-15.66q-3.21-5.89-4.61-11.92-3.68-15.81-10.03-36.28c-1.17-3.76-3.97-10.16-6.86-13.96q-11.66-15.36-17.03-20.88-5.58-5.74-19.52-19.18-4.75-4.58-11.2-13.83-4.94-7.08-8.19-15.74-4.13-11.02-5.63-21.85a0.35 0.35 82.46 0 0-0.39-0.3l-0.25 0.03a0.13 0.13-2.39 0 0-0.12 0.13q0.04 2.54 0.13 8.03c0.13 7.69 3.84 16.67 7.03 23.61a0.21 0.21 8.74 0 1-0.33 0.24c-2.67-2.31-5.84-5.12-8.13-8.06q-7.4-9.48-12.2-19.92a0.49 0.48 85.54 0 1 0.57-0.67q2.94 0.81 7.22 2.31a0.57 0.56-74.97 0 0 0.75-0.44q0.06-0.31-0.23-0.56-5.96-5.11-13.05-12.51a0.75 0.74-36.08 0 1 0.19-1.18l5.74-3.07a2.49 2.48-52.63 0 1 1.68-0.23q9.82 2.2 20.98 1.07a0.51 0.5-3.65 0 1 0.56 0.49c0.27 13.16 0.8 25.86 7.12 37.39q5.74 10.45 13.91 17.63 1.66 1.46 4.19 3.77a0.76 0.74 32.88 0 1 0.19 0.84q-2.37 5.75 2.48 10.05 10.43 9.25 22.65 17.08 1.78 1.14 5.02 1.51a3.32 3.27-52.5 0 0 1.59-0.22q14.14-5.78 17.25-19.72 1.37-6.18-3.58-10.88-8.69-8.25-19.53-14.94c-4.65-2.87-8.47-4.24-12.46-0.2a0.56 0.56 42.71 0 1-0.77 0.03q-8.04-7.14-13.58-16.26-3.23-5.3-4.19-10.01-2.21-10.76-0.3-20.16a1.21 1.21-4.98 0 1 0.75-0.89q12.99-4.9 26.65-14.33a0.48 0.48 59.23 0 1 0.7 0.18q2.26 4.25 6.24 6.94 7.7 5.2 20.47 9.6a0.21 0.21 52.38 0 1-0.05 0.41z" fill="#f5e9dd"/>
  <path d="m760.51 302.14q0.44 2.07 0.08 4.98c-0.7 5.68-1.47 11.71-3.99 16.92q-3.64 7.54-8.17 13.59a0.5 0.49-81 0 1-0.23 0.17l-11.46 3.91a0.2 0.19-71.37 0 1-0.17-0.35c12.88-8.87 20.95-24 23.61-39.21a0.17 0.17-46.37 0 1 0.33-0.01z" fill="#fff"/>
  <path d="m501.98 315.75a0.28 0.27-22.22 0 0 0.17-0.39l-0.12-0.23a0.05 0.05 60.27 0 0-0.07-0.03q-8.44 1.91-13.43 2.66-3.41 0.52-6.06 0.23a0.5 0.5 18.28 0 1-0.38-0.75q4.83-7.98 12.77-14.52a0.81 0.8-42.77 0 1 1.08 0.04q1.78 1.75 6.57 5.18 6.29 4.52 14.28 7.75 4.31 1.74 4.33 1.75a0.38 0.38 57.26 0 1-0.14 0.65q-2.97 0.91-5.33 3.26a1.96 1.95 43.81 0 0 0.06 2.82l8.7 8.04a0.23 0.23-23.58 0 1-0.16 0.4h-1.62a1.74 1.74 79.98 0 0-1.63 2.33q4.58 12.57 12.33 22.88a8.7 8.66 2.33 0 0 1.14 1.23l9.62 8.37a1.57 1.35 10.07 0 0 0.17 0.13q3.64 2.34 6.11 4.65a0.17 0.17 81.81 0 1-0.2 0.27q-22.79-13.56-49.93-18.95-4.12-0.82-10.67-1.4-0.65-0.06-1.29-0.53a0.84 0.84 40.14 0 1-0.11-1.26q5.1-5.26 11.45-6.57a0.3 0.3 45.21 0 0 0-0.58q-10.67-2.4-19.94-8.96a1.26 1.26-60.27 0 1-0.42-1.56q0.96-2.1 2.76-4.17 7.86-9.02 19.96-12.74z" fill="#b08e71"/>
  <path d="m723.66 334.73a0.54 0.54-72.38 0 1 0.75-0.39c4.26 1.95 8.44-0.64 11.63-3.37a1.56 1.52-67.46 0 1 0.82-0.35q7.47-0.86 7.34-7.53a2.84 2.8-29.24 0 1 0.47-1.62q4.04-6.15 6.21-11.91a1.88 1.83 87.72 0 1 0.9-1q3.34-1.68 5.88-4.69a0.36 0.36-23.2 0 1 0.63 0.25c-0.53 8.09-5.04 16.16-9.28 22.66-4.72 7.24-16.22 17.7-25.76 14.21a0.94 0.94 15.17 0 1-0.61-1.06z" fill="#5d8eb2"/>
  <path d="m712.99 306.95a5.52 1.05-84.1 0 1 0.47 5.6 5.52 1.05-84.1 0 1-1.61 5.38 5.52 1.05-84.1 0 1-0.47-5.6 5.52 1.05-84.1 0 1 1.61-5.38z"/>
  <path d="m582.6 381.4q-2.05-0.04-3.8-1.26c-8.51-5.94-17.14-14.3-22.2-23.87-4.31-8.16-6.29-17.62-7.05-27.52q-0.53-6.79 0.75-12.62 1.96-8.89 10.46-7.02 2.07 0.45 3.51 2.43a1.8 1.76 25.21 0 1 0.34 0.91q0.38 3.89 0.17 6.05-1.22 12.6 1.68 20.57c4.39 12.09 12.51 20.79 22.05 29.16 4.29 3.77-1.82 10.63-5.11 12.93a1.35 1.34 28.1 0 1-0.8 0.24z" fill="#333"/>
  <path d="m933.36 394.64q4.98-27.01 4.81-52.8a1.51 1.5 10.88 0 0-0.94-1.38q-5.05-2.05-10.5-2.9c-14.46-2.25-29.73-2.67-43.73 0.36a1.17 1.16-3.15 0 0-0.91 1.01q-4.85 45.4-6.43 61.8-0.83 8.52-7.09 14.32c-4.81 4.46-15.69 8.64-22.21 5.68-8.66-3.92-8.24-15.56-2.37-21.81q9.16-9.75 22.88-9.99a0.5 0.49 1.9 0 0 0.49-0.45q4.01-36.92 3.67-72.75a2.07 2.04 71.43 0 1 0.81-1.66q2.92-2.21 6.6-2.79c19.15-3.04 40.75-3.15 60.53 1.25q4.58 1.01 8.83 2.67a0.93 0.93-77.1 0 1 0.59 0.95q-3.59 41.16-7.03 83.36c-1.11 13.61-10.88 24.63-24.87 24.93-9.26 0.2-17.75-5.61-12.79-16.03 5.1-10.73 17.4-17.93 29.18-13.5a0.36 0.36-74.33 0 0 0.48-0.27z"/>
  <path d="m997.98 352.86q0.01 0.39-3.86 62.34c-0.77 12.39-8.67 19.29-20.29 20.78-9.28 1.19-18.59-0.23-21.85-10.22a3.96 3.93-55.42 0 1-0.2-1.11c-0.44-16.27 18.03-33.66 33.95-23.52a0.43 0.42-71.85 0 0 0.65-0.33q2.43-38.05 4.96-79.87 0.2-3.26 2.81-4.86a0.62 0.62-26.58 0 1 0.91 0.3c1.76 4.55 4.34 7.92 8 11.61 7.58 7.64 12.31 11.35 16.04 18.47 6.96 13.29 10.86 32.23 3.48 45.89q-1.45 2.68-3.77 4.26a0.59 0.58 74.6 0 1-0.91-0.52q0.3-5.51-0.21-13.3-0.77-11.91-7.19-20.78-3.29-4.55-11.97-9.47a0.37 0.37-75.88 0 0-0.55 0.33z"/>
  <path d="m731.58 318.54a6.76 5.68-138.4 0 1 8.83 0.24 6.76 5.68-138.4 0 1 1.29 8.74 6.76 5.68-138.4 0 1-8.83-0.24 6.76 5.68-138.4 0 1-1.29-8.74z" fill="#fff"/>
  <path d="m810.78 397.35q5.65-11.67-3.15-20.52-1.22-1.23-6.85-5a1.3 1.3 9.98 0 1-0.54-0.77c-1.59-6.6-3.84-11.45-8.9-15.06a0.26 0.26-25.58 0 1 0.17-0.48l7.2 0.44a1.12 1.12-9.37 0 0 1.11-1.54c-3-7.41-14.42-14.22-20.92-16.31a0.74 0.73-66.92 0 1-0.42-1.05q2.11-3.94 1.8-8.62a0.51 0.51-78.83 0 1 0.73-0.49q4.39 2.17 9.62 5.89 0.13 0.1 3.48 3.58a0.33 0.33-26.33 0 1-0.19 0.56q-3.71 0.64-7.69-0.37a0.22 0.21 9.15 0 0-0.27 0.19l-0.01 0.28a0.11 0.1 14.24 0 0 0.07 0.11q16.53 6.66 25.78 24.31a0.85 0.85-12.23 0 1-0.8 1.24q-3.67-0.21-8.37-2.85-0.51-0.29-1.21-0.23a0.33 0.32-26.95 0 0-0.19 0.57c3.24 2.79 6.43 5.18 9.02 8.35 4.07 5 8.9 13.84 7.94 20.2a1.04 1.02 72.16 0 1-0.29 0.58l-6.87 7.16a0.15116 0.15116-10.33 0 1-0.25-0.17z" fill="#b08e71"/>
  <path d="m659.98 344.24 4.42 4.79a0.55 0.55 19.09 0 0 0.95-0.46q-0.7-4.09-2.7-7.17a0.21 0.21-88.85 0 1 0.3-0.29q7.87 5.53 17.39 3.15a4.59 4.51-65.53 0 0 0.96-0.37q9.97-5.23 17.52-6.49c5.66-0.94 10.32 0.04 16.39 2.59 17.07 7.17 35.57 12.75 53.83 20.07a0.05 0.05 57.8 0 1-0.02 0.09q-2.13-0.16-4.78-0.57-7.42-1.17-13.67-0.75-6.14 0.42-9.68 5.45a2.83 2.81-21.6 0 0-0.45 1.03q-1.29 6.34-0.01 12.98 2.69 13.94 8.44 28.09 2.35 5.77 5.7 10.73a0.84 0.83 44.69 0 1 0.01 0.92q-4.93 7.48-13.03 11.41a1.32 1.31 41.38 0 1-1.03 0.06q-16.33-5.78-34.19-9.49-1.04-0.21-6.17-2.07c-3.96-1.43-8.75-5.29-11.57-7.52-7.2-5.7-11.73-12.01-15.43-21.06q-5.32-12.99-6.83-18.98-3.26-12.93-6.86-25.86a0.3 0.3 16.17 0 1 0.51-0.28z" fill="#f5e9dd"/>
  <path d="m780.08 345.05a0.18 0.18 10.13 0 0-0.29 0.2c3.24 6.03 6.92 12.74 6.67 19.39a0.21 0.21-77.12 0 1-0.3 0.19l-18.61-8.85a0.34 0.33-41.63 0 1 0.04-0.62l3.34-1.18a0.32 0.31-42.3 0 0 0.03-0.58l-4.47-2.13a0.33 0.33-42.21 0 1 0.03-0.61c4.68-1.7 8.44-7.1 10.92-11.47a0.74 0.73 25.12 0 1 0.91-0.32c6.87 2.66 15.74 8.14 19.68 14.7a0.3 0.3-17.07 0 1-0.24 0.45l-8.44 0.52a0.28 0.28-21.73 0 0-0.2 0.46c3.78 4.32 7.66 8.5 8.74 15a0.09 0.09 9.04 0 1-0.13 0.09l-8.54-4.06a0.37 0.36-77.04 0 1-0.21-0.35c0.48-7.88-4.11-15.45-8.93-20.83z" fill="#f5e9dd"/>
  <path d="m646.22 385.42 2.13-4.16a1.59 1.58-41.49 0 0 0.08-1.23c-1.23-3.56-4.29-6.13-7.22-9.06-2.53-2.54-2.34-7.09-1.75-10.48 1.02-5.78 3.13-14.54 7.43-18.66a0.97 0.97 54.86 0 1 1.54 0.27l1.47 2.91a0.92 0.9 52.16 0 1-0.12 1.01q-1.67 1.94-5.08 9.23c-2.06 4.39 1.57 6.86 4.6 9.81a5.1 5.07 21.26 0 1 1.54 3.47q0.07 1.86 0.15 5.22 0.11 4.14 8.78 4.53a0.32 0.32 7.01 0 1 0.3 0.38l-1.64 8.37a0.06 0.06-75.31 0 1-0.08 0.05q-5.97-2.88-11.76-1.21a0.32 0.32-84.54 0 1-0.37-0.45z" fill="#5a463a"/>
  <path d="m734.52 359.98-0.01 0.02a0.44 0.44-51.24 0 1-0.63 0.07q-5.35-4.39-12.91-3.21c-11.29 1.76-20.69 9.57-26.29 19.2a1.01 1 49.09 0 1-1.8-0.13q-0.99-2.47-0.68-5.16 1.51-12.77 10.18-21.73a0.27 0.27-70.29 0 0-0.21-0.45l-11.02 0.67a0.13 0.13-60.35 0 1-0.14-0.12l-0.01-0.28a0.14 0.14 80.28 0 1 0.1-0.15q8.39-2.66 17.38-1.12 14.42 2.47 25.97 11.81a0.42 0.41 38.55 0 1 0.07 0.58z"/>
  <path d="m661.77 374.05a1.11 1.11-4.9 0 1-1.19 1.41l-4.72-0.54a2.29 2.29 0.32 0 1-2.02-2.04c-0.6-5.66-0.08-10.48-6.02-13.43a2.31 2.31 20.96 0 1-1.2-2.69q1.33-4.83 4.28-8.33a0.84 0.84 46.75 0 1 1.31 0.04c5.08 6.79 6.3 14.35 9.56 25.58z" fill="#fff"/>
  <path d="m688.44 348.45a3.39 0.47-45 0 1-2.07 2.73 3.39 0.47-45 0 1-2.73 2.07 3.39 0.47-45 0 1 2.07-2.73 3.39 0.47-45 0 1 2.73-2.07z"/>
  <path d="m684.83 349.31q0.34 0.37-2.92 3.24-0.47 0.42-0.73 0.13-0.27-0.28 0.18-0.72 3.12-3.02 3.47-2.65z"/>
  <path d="m694.73 372.97a0.43 0.43-24.19 0 1-0.77-0.29q0.88-13.38 8.67-21.58c1.38-1.44 2.57-2.14 4.67-1.88q8.82 1.07 16.05 4.74a0.27 0.26-37.45 0 1-0.07 0.49c-4.7 1-8.91 1.44-13.11 3.95q-6.77 4.05-10 7.78-1.81 2.09-5.44 6.79z" fill="#5a463a"/>
  <path d="m506.19 505.26 2.22-0.51a0.5 0.5-77.93 0 1 0.51 0.79c-7.7 10.18-12.13 17.99-19.48 32.13q-1.98 3.8-3.95 6.7c-3.54 5.23-6.24 9.23-10.64 12.89a0.58 0.58 46.91 0 1-0.78-0.03c-6.48-6.32-16.66-15.78-26.44-16.77a0.32 0.32-60.79 0 1-0.16-0.57l2.33-1.8a1.42 1.41 57.54 0 0 0.39-1.77c-1.62-3.1-7.37-3.72-10.52-3.65a0.62 0.62 8.71 0 1-0.6-0.81c1.13-3.44-3.71-4.09-6.04-4.41q-12.54-1.74-24.84 2.14a0.62 0.62 79.84 0 1-0.8-0.56q-0.04-0.69 0.42-1.6a0.94 0.94-6.8 0 0-1.45-1.14c-9.02 7.76-20.07 8.41-28.48 14.6-2.72 1.99-8.27 7.06-8.79 10.89a0.79 0.79 10.85 0 0 0.6 0.88q7.49 1.78 12.87 1.74a0.38 0.38-54.32 0 1 0.12 0.74q-6.48 2.16-14.74 1.87a1.03 1.03 85.75 0 0-1.05 1.22c0.49 2.58 2.65 4.51 4.8 6.17a0.23 0.23 71.68 0 1-0.2 0.4q-8.31-2.35-14.73-6.01a1.45 1.45 19.18 0 0-2.15 1.04c-1.77 11.48 5.19 24.37 13.52 31.87a0.22 0.22 72.11 0 1-0.19 0.38l-22.63-5.24a0.33 0.33-81.15 0 0-0.41 0.3q-0.98 12.35 6.23 22.52 0.16 0.24 2.7 3.55a0.28 0.28 81.04 0 1-0.31 0.43l-10.12-3.62a0.84 0.84-4.22 0 0-1.03 1.19q5.82 10.69 14.77 17.28a0.4 0.4-20.16 0 1-0.33 0.71l-18.13-4.2a0.36 0.36 74.15 0 0-0.34 0.61q0.32 0.34 0.46 0.72a0.63 0.61 67.34 0 1-0.3 0.75l-8.32 4.18a1.09 1.09 54.28 0 1-1.27-0.21c-6.78-6.85-13.04-20.14-11.14-29.49q1.48-7.33 8.53-11.93a0.23033 0.23033-72.5 0 0-0.21-0.41c-3.51 1.43-5.83 3.29-8.25 6.63q-3.31 4.58-8.91 10.2a0.29 0.28-24.52 0 1-0.49-0.18c-0.63-10.52 3.79-26.7 15.4-29.76a0.3 0.29 76.72 0 0 0.21-0.35l-0.06-0.25a0.05 0.05-5.65 0 0-0.06-0.04q-5.91 0.98-11.71-1.03a0.59 0.59 36.29 0 1-0.16-1.03c7.07-5.31 13.57-11.09 17.89-18.4q1.99-3.37 5.11-12.65c1.99-5.92 5.08-12 7.86-19.13q8.28-21.28 14.2-31.86 11.3-20.21 26.35-38.39 22.52-27.19 24.75-29.99 8.86-11.14 14.52-20.27 0.96-1.55 1.24-3.09a0.22 0.22-19.22 0 0-0.38-0.18l-9.87 11.03a0.27 0.27-17.94 0 1-0.47-0.24q0.98-4.43-0.25-8.16a0.56 0.55 43.79 0 0-1.06 0.02q-0.61 2.1-1.01 4.1c-1.46 7.17-5.73 14.75-9.52 19.03q-14.47 16.36-25.73 30.24a1.09 1.07-68.28 0 1-0.89 0.39l-29.25-1.8a0.39 0.38-71.29 0 1-0.29-0.6q8.1-11.94 17.54-22.41c19.34-21.45 40.73-39.85 65.65-54.51q6.29-3.7 13.51-6.99 11.49-5.24 13.91-6.18 9.85-3.85 20.42-5.86 13.9-2.64 27.75 0.98 27.9 7.3 50.82 25.69 5.14 4.13 7.94 8.48c8.68 13.53 12.25 30.29 11.56 46.17q-0.39 8.92-3.95 16.3-0.51 1.06-0.53 1.07a1.04 1.03 77.9 0 1-1.41-0.92l-0.2-4.38a0.33 0.33 55.74 0 0-0.63-0.12q-0.01 0.02-0.97 5.45-1.67 9.45-7.34 16.12a0.75 0.74-32.22 0 1-1.29-0.29q-0.62-2.33-0.36-5.25a0.38 0.38 59.68 0 0-0.72-0.19c-1.42 3.13-3.14 6.13-5.32 8.57q-9.44 10.6-19.83 16.85-10.58 6.36-25.73 12.89a0.18 0.17 26.76 0 0 0.11 0.33z" fill="#b08e71"/>
  <path d="m747.83 362.72q1.11-1.37 3.74-1.47c12.88-0.51 26.24 2.92 37.33 8.46q12.79 6.39 17.58 10.1 4.08 3.16 4.01 8.14a1.53 1.53-13.11 0 1-0.84 1.35c-2.28 1.17-4.59 1-7.13 1.02q-11.15 0.12-19.52-3.59-9.02-3.99-21.1-10.8c-4.88-2.75-10.18-7-13.69-11.09q-1.08-1.25-0.38-2.12z" fill="#333"/>
  <path d="m574.35 383.91-0.23-1.88a1.11 1.11-71.73 0 1 1.86-0.94q5.64 5.32 11.47-0.44c3.81-3.76 7.3-11.89 1.17-15.68a0.52 0.51-49.32 0 1-0.06-0.83q3.74-3.21 8.34-0.22 8.27 5.36 17.84 13.42c10.58 8.91 0.45 22.23-8.33 27.33-3.67 2.14-6.33 1.04-9.91-1.43q-11.56-8.02-20.27-15.72a5.73 5.7 17.63 0 1-1.88-3.61z" fill="#5d8eb2"/>
  <path d="m810.38 392.01c-1.61 6.65-7.63 10.85-13.42 13.79q-16.64 8.45-35.69 11.27a3.07 3.05 64.91 0 1-2.73-1q-1.85-2.09-3.5-5.36-4.94-9.82-8.8-23.98c-1.72-6.28-3.36-12.96-2.79-19.18q0.1-1.08 1.57-2.93a0.51 0.5 44.71 0 1 0.79 0q2.03 2.53 2.94 3.37 8.54 7.93 19.3 13.71 4.51 2.42 10.33 5.23 6.18 2.99 10.77 4.09 8.63 2.07 16.65 1.32 2.08-0.19 4-0.85a0.44 0.44-2.98 0 1 0.58 0.52z" fill="#333"/>
  <path d="m637.03 407.29a0.35 0.35-19.55 0 1-0.57-0.27c-0.15-11.35-0.55-22.75 1.82-34.2a0.5 0.5-64.45 0 1 0.81-0.29c2.78 2.24 8.17 5.69 5.46 10.77q-2.51 4.71-4.83 9.49a1.81 1.81-57.66 0 0 0.49 2.19q1.29 1.05 2.03 2.81a2.22 2.2-47.89 0 1 0.07 1.51q-1.55 5.02-5.28 7.99z" fill="#fff"/>
  <path d="m662.81 380.76a0.27 0.27-46.03 0 1 0.5-0.01l4.73 11.33a0.38 0.38 72.89 0 1-0.28 0.53q-2.94 0.55-5.85-1.09a1.75 1.72-74.8 0 1-0.88-1.57q0.14-4.75 1.78-9.19z" fill="#fff"/>
  <path d="m666.04 453.22c-0.56-5.77-0.79-11.76 2.79-16.37q2.6-3.36 3.76-5.09c0.64-0.95 0.47-1.86 0.85-2.72a1.03 1.01-79.88 0 1 0.84-0.6q5.79-0.56 11.9-3.25a0.77 0.76 58.82 0 1 0.91 0.23q3.04 3.86 3.24 7.76 0.33 6.23-0.53 8.64-0.17 0.48-2 4.94c-1.73 4.23-5.13 9.32-6.42 12.43-1.57 3.8-0.62 8.47-2.22 13.3-1.19 3.6-5.04 4.57-8.26 2.9q-2.69-1.39-4.89-3.01a1.34 1.33-76.9 0 1-0.53-0.86c-0.8-4.85-6.46-4.45-10.16-3.85a0.39 0.39-72.68 0 1-0.34-0.65c3.9-4.15 7.59-8.42 7.96-14.22 0.31-4.75-2.04-5.18-6.33-4.8q-5.67 0.49-12.83-0.54a1.03 1.03-65.93 0 1-0.64-1.68q5.8-6.91 5.32-15.55a3.55 3.54-77.52 0 0-1.86-2.93l-2.95-1.59a1.77 1.76 16.1 0 1-0.93-1.68l0.2-3.3a3.06 3.04 10.41 0 0-2.15-3.1l-2.98-0.92a1.07 1.04 89.23 0 1-0.7-0.7q-0.69-2.28-0.47-4.45a1.19 1.16 78.02 0 1 0.57-0.9c5.18-3.03 10.47-10.22 6.43-16a1.66 1.66-44.16 0 1 0.03-1.96c2.82-3.73 6.43-4.24 11.25-4.38 1.39-0.05 2.45 0.53 2.77 2.16 0.7 3.54 3.71 4.08 6.61 4.97 3.47 1.07 5.73 4.07 6.22 7.46q0.31 2.12-2.15 6.19-3.37 5.57-5.97 9.75c-3.58 5.77 1.67 8.98 6.53 9.48a0.51 0.51 14.6 0 1 0.42 0.71l-4.42 10.13a1.54 1.39 63.97 0 0-0.11 0.38q-0.7 3.97-0.64 4.7 0.23 2.96 1.69 9a0.1 0.1 35.69 0 0 0.19-0.03z" fill="#ae566f"/>
  <path d="m573.14 400.92 4.2 3.75a5.09 4.97 5.66 0 1 0.89 1.06c7.09 11.1 9.99 25.45 12.37 38.75q0.33 1.82 0.14 3.19a0.61 0.6-80.77 0 1-0.7 0.51q-6.83-1.25-12.99-0.06a0.42 0.41 88.14 0 1-0.49-0.47q2.79-19.25-1.43-38.11c-0.58-2.59-1.73-5.63-2.49-8.31a0.31 0.3 12.88 0 1 0.5-0.31z" fill="#5d8eb2"/>
  <path d="m674.55 402.64c4.58 6.04 10.43 11.77 15.46 15.48a0.4 0.4-90 0 1 0 0.64c-6.22 4.55-18.07 9.05-25.15 4.75a1.27 1.27 30.77 0 1-0.44-1.73c4-6.82 7.71-12.33 9.4-19a0.41 0.41 33.81 0 1 0.73-0.14z" fill="#fff"/>
  <path d="m800.63 406.44a0.20156 0.20156-0.93 0 1 0.29 0.28q-13.31 19.3-34.62 29.82c-6.36 3.14-14.81-2.15-19.61-4.53a0.26 0.26-48.11 0 1-0.02-0.45q7.11-4.66 11.64-10.42a1.29 1.29 18.06 0 1 0.97-0.49c10.46-0.33 21.29-4.4 31.29-8.61q5.55-2.34 10.06-5.6z" fill="#f5e9dd"/>
  <path d="m588.59 417.3q6.33 7.66 9.22 14.48 7.17 16.99 8.62 22.07 2.83 9.96 5.3 19.55a0.68 0.68-20.94 0 1-0.35 0.78l-2.36 1.19a0.49 0.49-19.02 0 1-0.7-0.34c-2.05-9.78-6.2-18.16-13.82-24.38a1.83 1.8 19.2 0 1-0.65-1.32q-0.54-16.5-5.62-31.84a0.21 0.21 16.68 0 1 0.36-0.19z" fill="#f5e9dd"/>
  <path d="m636.9 419.87a0.71 0.7-79.48 0 1 0.98-0.68l1.49 0.63a1.28 1.28-75.47 0 1 0.78 1.33l-0.42 3.69a0.85 0.77-51.58 0 0 0.02 0.31c0.87 3.01 3.77 3.16 5.33 4.89a1.83 1.82-64.85 0 1 0.46 1.29q-0.3 6.11-3.82 11.12a0.26 0.26-37.4 0 1-0.46-0.06q-3.96-11.36-4.36-22.52z" fill="#fff"/>
  <path d="m695.84 420.66c3.56 1.83 6.18 3.02 9.98 3.82q8.34 1.77 10.38 2.34 0.3 0.08 0.34 0.17a0.59 0.58 76 0 1-0.48 0.81q-9.2 0.93-16.09 4.62a0.47 0.47 68.03 0 1-0.68-0.29q-0.59-2.1-2.2-3.77a2.95 2.41-55.5 0 1-0.26-3.13q1.39-2.73-1.31-4.11a0.23 0.23 54.85 0 1-0.11-0.31 0.32 0.32-24.1 0 1 0.43-0.15z" fill="#5a463a"/>
  <path d="m692.84 434.95q0.12-6.53-3.3-10.69a0.67 0.67-40.32 0 1 0.08-0.93q1.22-1.05 1.96-1.31a1.98 1.71-87.11 0 1 2.06 2.64q-1.57 4.25 2.15 6.62a0.86 0.85-54.31 0 1 0.2 1.26l-2.23 2.75a0.52 0.52 65.25 0 1-0.92-0.34z" fill="#fff"/>
  <path d="m919.74 602.61a0.22 0.22 18.18 0 1-0.36 0.18l-71.23-63.72a0.64 0.63-56.88 0 1-0.15-0.74q7.07-14.83-2.39-28.23-2.81-3.99-7.73-7.36a5.34 5.23 83.47 0 1-0.85-0.69l-3.01-2.92a0.57 0.48-85.27 0 1-0.1-0.14l-4.41-9.4a1.18 1.17 41.32 0 1-0.06-0.86q0.88-2.81 1.18-3.32 13.91-23.48 32.03-41.51 7.52-7.48 14.97-13.02a0.6 0.6-51.59 0 1 0.6-0.07q36.73 16.17 67.97 41 17.33 13.78 30.13 30.16a0.46 0.46-30.14 0 1-0.19 0.71q-7.74 3.11-13.81 8.18c-16.34 13.65-31.38 33.76-37.63 54.58q-1.72 5.71-4.04 17.95-1.82 9.58-0.92 19.22z" fill="#fff"/>
  <path d="m733.85 433.66q-1.57 3.47-4.89 7.04a1.75 1.69-71.26 0 1-1.01 0.52q-3.84 0.5-9.15 2.78c-10.83 4.66-25.79 11.78-30.72 23.17a0.78 0.78-35.85 0 1-1.5-0.24q-0.06-0.65 0.4-2.3a1.5 1.49-6.67 0 1 0.71-0.89c1.44-0.79 4.63-3.49 4.95-5.53a1.35 1.32-50.69 0 0-0.06-0.68l-1.33-3.61a1.48 1.47-30.24 0 1 0.44-1.64q2.71-2.21 1.13-4.68a1.13 1.12 40.57 0 1-0.09-1.06c3.69-8.61 14.04-13.69 22.51-14.37q7.38-0.6 18.15 0.68a0.58 0.58-74.7 0 1 0.46 0.81z" fill="#f5e9dd"/>
  <path d="m753.17 439.82c-6.21 3.6-14.32 6.61-21.42 5.37a1.26 1.24-10.37 0 1-0.84-0.57q-1.16-1.88-0.07-3.12 2.61-2.95 6.69-8.2a0.42 0.41 30.22 0 1 0.48-0.12l15.15 6.41a0.13 0.13-48.07 0 1 0.01 0.23z" fill="#fff"/>
  <path d="m924.2 599.65q0.27-23.28 9.07-43.93a1.13 1.09 3.58 0 1 0.74-0.63q3.93-1 4.31 2.27a1.93 1.89 15.59 0 0 0.76 1.32l1.79 1.32a0.34 0.34 7.39 0 0 0.52-0.4c-1.42-3.58-0.28-7.34-5.9-7.23a0.41 0.41-77.88 0 1-0.38-0.59q6.77-14.55 16.54-25.99a0.63 0.63 54.89 0 1 1.07 0.19c1.79 4.77 4.25 5.54 8.91 3.78a0.26 0.26 81.22 0 1 0.35 0.26l-0.4 6.49a0.84 0.84-31.7 0 0 1.61 0.38c0.82-1.9 1.91-6.45 1.39-8.66q-0.26-1.15-1.4-1.31a0.9 0.84-46.79 0 0-0.32 0.02l-4.94 1.43a1.15 1.13 66.96 0 1-1.31-0.54q-0.8-1.42-3.01-3.27a0.69 0.68-47.44 0 1-0.04-1.01q8.33-8.38 12.29-11.22 6.07-4.34 14.71-9.24a1.32 1.32 56.35 0 0 0.39-1.96q-16.77-21.58-38.49-37.57-14.07-10.34-29.19-18.93a0.45 0.45 35.15 0 1-0.12-0.68q4.5-5.3 10.08-8.58a1.17 1.16-48.53 0 1 1.05-0.07q11.81 4.91 13.65 5.98 24.03 13.96 39.34 34.18 16.59 21.92 27.1 46.93a1.49 1.48-21.87 0 1-0.84 1.96q-6.42 2.48-10.9 4.53-18.42 8.44-33.02 22.24c-14.8 14-26.29 30.32-35.15 48.59a0.14 0.14-31.72 0 1-0.26-0.06z" fill="#fff"/>
  <path d="m726.01 447.32-30.32 20.63a0.21 0.21-85.59 0 1-0.27-0.32c8.64-9.5 18.59-14.7 30.47-20.52a0.12093 0.12093-75.05 0 1 0.12 0.21z" fill="#f4bf00"/>
  <path d="m689.04 449.01a0.21 0.21 25.86 0 1 0.26-0.09l0.27 0.11a0.04 0.02 31.72 0 1 0.02 0.04l-1.81 4.28a1.33 1.33 43.66 0 0 0.03 1.11l1.26 2.5a1.18 1.17 49.96 0 1-0.1 1.23q-2.2 3.02-6.09 5.69a0.32 0.31-12.41 0 1-0.49-0.31c0.74-4.61 3.56-9.05 6.65-14.56z" fill="#fff"/>
  <path d="m644.09 450.3q6.91 0.87 14.68-0.05a1.27 1.27-6.24 0 1 1.41 1.13c0.59 5.78-4.52 12.11-8.8 15.44a0.93 0.92-30.14 0 1-1.42-0.37l-6.44-15.4a0.55 0.54-7.91 0 1 0.57-0.75z" fill="#fff"/>
  <path d="m623.76 533.04c2.84 1.37 5.71 1.47 5.92-2.46a2.7 2.65-56.18 0 0-0.23-1.22l-2-4.41a0.74 0.74 70.01 0 1 0.48-1.03l6.66-1.81a0.75 0.66-66.89 0 0 0.19-0.09q6.84-4.1 7.57-4.64 5.56-4.19 8.78-10.22a0.84 0.84-78.79 0 1 0.64-0.43q8.12-0.82 15.29-3.4 2.54-0.91 8.3-4.36 4.91-2.94 8.08-4.77 1.85-1.08 2.86-3.56a1.16 0.6-45.75 0 0 0.07-0.23l0.93-4.66a1.64 1.53-24.54 0 1 0.24-0.58l6.39-9.67a1.21 1.21-24.81 0 1 0.26-0.26l34.75-23.65a4.65 4.64-49.38 0 1 4.62-0.36l2.07 0.98a0.89 0.89 48.9 0 1-0.11 1.65q-6.59 2.09-11 6.72-8.76 9.22-13.34 22.12a2.38 2.38 25.96 0 1-0.64 0.96c-2.53 2.31-5.31 4.12-7.95 6.13q-56 42.7-60.97 46.61-2.51 1.98-2.65 2.07-4.44 2.76-9.47 7.75-0.53 0.52-2.19 1.09a0.44 0.44-0.39 0 1-0.56-0.55l0.25-0.77a1.35 1.28 51.1 0 0 0.05-0.62q-1.03-6.42-3.85-11.76a0.42 0.42-0.67 0 1 0.56-0.57z" fill="#333"/>
  <path d="m568.6 462.38 1.54-0.77a3.05 3-89.78 0 0 1.34-1.35l3.05-6.2a0.7 0.56 83.5 0 1 0.1-0.16q0.77-0.95 2.76-1.55c5.69-1.72 11.7-0.26 16.55 2.68 5.79 3.52 8.12 10.14 9.92 16.58 1.72 6.18 1 11.01-1.03 16.75-1.79 5.09-4.53 7.62-9.81 9.21q-4.62 1.39-10.96 1.35c-6.3-0.05-10.15-2.5-15.1-6.19-4.39-3.26-5.79-11.64-5.55-16.63a2.55 2.54-28.23 0 1 0.36-1.19q0.56-0.94 2.78-3.89 2.25-2.98 3.35-7.74a1.36 1.35-7.41 0 1 0.7-0.9z" fill="#5d8eb2"/>
  <path d="m878.17 474.09a0.27 0.26 71.6 0 0-0.43-0.22l-3.35 2.87a1.25 1.22-61.07 0 1-0.93 0.28q-2.41-0.26-2.23-2.77c0.41-5.66 2.69-10.17 5.55-16.92a1.01 1 7.36 0 0-1.07-1.38c-7.58 1.11-13.07 11.14-16.87 17.15q-0.27 0.43-0.89 0.78a0.76 0.76-3.93 0 1-1.08-0.94q2.72-6.74 7.7-12.62c2.64-3.12 9.11-8.76 13.43-6.3 3.21 1.82-0.42 8.03-2.2 12.27q-1.27 3.04-2.18 7.02a0.44 0.44 71.01 0 0 0.77 0.38q2.25-2.82 4.5-3.47a1.46 1.45-6.1 0 1 1.85 1.49l-0.16 2.55a0.63 0.62-8.91 0 0 0.85 0.61c6.13-2.41 6.06 2.62 6.3 6.64a0.48 0.47 71.3 0 0 0.74 0.37l2.89-1.97a2.13 2.12-67 0 1 0.76-0.31c3.3-0.63 3.61 3.98 4.27 7.02 0.42 1.92 1.88 4.31 3.69 5.76 3.59 2.89 6.69 5.02 9.27 7.84a0.15 0.15 84.63 0 1-0.19 0.23l-11.67-7.16a1.16 1.08 84.11 0 1-0.25-0.22c-2.93-3.64-3.49-6.2-4.16-10.38a0.6 0.6 66.58 0 0-0.96-0.38c-1.98 1.52-5.36 4.22-6.63-0.07q-0.28-0.94-0.53-4.46a1.09 1.08 80.98 0 0-1.33-0.98c-2.7 0.64-5.6 1.38-5.46-2.71z"/>
  <path d="m750.23 454.63q-12.86 7.58-18.61 22.63a0.25 0.25 58.57 0 1-0.48-0.12q0.21-2.32-0.03-4c-0.72-4.98-6.88-0.94-8.57 1.16q-3.33 4.13-4.32 9.6a0.38 0.38-57.11 0 1-0.68 0.15q-2.61-3.75-0.78-7.18 1.94-3.64 5.53-8.29c6.3-8.18 13.67-12.73 23.96-14.4q2.4-0.39 3.89-0.07a0.28 0.28 35.39 0 1 0.09 0.52z" fill="#5a463a"/>
  <path d="m737.53 498.26q-3.89-3.7-6.42-9.2a2.55 2.54-50.42 0 1-0.16-1.72q4.42-17.41 18.46-28.15c7.89-6.04 19.68-6.1 29.35-3.75q10.46 2.53 14.09 12.51a0.93 0.91 70.78 0 1-0.56 1.18q-7.45 2.6-12.83 7.58-8.73 8.08-13.54 14.94-4.55 6.5-7.22 13.45a1.38 1.37-79.4 0 1-1.28 0.88h-6.38a0.48 0.48-73.13 0 1-0.4-0.75c2.8-4.26 9.71-17.44 5.88-22.87a4.32 3.82-20.01 0 0-3.97-1.56c-6.47 0.94-11.93 11.52-13.8 17.15a0.75 0.74-59.11 0 1-1.22 0.31z" fill="#5a463a"/>
  <path d="m258.16 560.17q0.82-0.7 1.09-0.91 21.66-16.83 51.45-32.81 14.7-7.89 30.86-13.92a0.34 0.33-88.58 0 1 0.42 0.45c-1.25 2.93-3.22 7.54-4.48 11.42q-4.31 13.3-10.47 24.89c-4.62 8.69-11.51 15.72-19.56 21.38-3.8 2.68-1.28 6.59 1.76 8.27a0.52 0.52 33.67 0 1 0.16 0.78c-3.58 4.55-6.5 8.56-9.79 12.46q-6.46 7.65-12.8 16.88-9.06 13.19-25.41 16.84-6.23 1.39-21.2 5.03-25.25 6.15-49.17 17.64c-13.14 6.32-18.12 9.51-27.5 12.21a1.26 1.25-20.36 0 1-1.49-0.68c-5.97-12.82-7.49-27.8-6.88-41.77q1.95-44.25 21.41-83.28 3.73-7.49 7.32-12.4c4.45-6.1 11.26-12.59 17.73-18.28 19.09-16.77 40.14-28.31 64.48-34.91 34.22-9.28 69.95-9.69 105.71-10.04a0.43 0.42 18.76 0 1 0.34 0.68q-17.16 22.42-27.54 46.47a0.45 0.45 12.22 0 1-0.41 0.26q-16.21 0.17-32.99 3.07c-17.93 3.09-35.75 6.72-51.53 12.77-9.99 3.84-16.05 7.88-28.63 15.37q-2.53 1.51-4.66 3.51a0.2 0.2-80.74 0 0 0.23 0.32q29.03-15.76 61.21-23.05 27.21-6.17 54.69-9.32a0.51 0.51 88.17 0 1 0.57 0.54q-0.05 0.63-0.63 0.91-0.65 0.33-11.77 3.71c-24.53 7.48-43.32 22.43-63.87 38.14q-4.65 3.56-8.67 7.34a0.02 0.02-82.81 0 0 0.02 0.03z" fill="#5d8eb2"/>
  <g fill="#fff">
   <path d="m664.06 475.93q0.54-0.55 0.85-1.69a0.55 0.54-64.97 0 1 0.84-0.31q7.26 5.21 16.15 6.69a0.37 0.36-21.89 0 0 0.28-0.65l-0.32-0.24a0.73 0.73 60.12 0 1 0.35-1.31q4-0.45 3.41 1.59c-2.11 7.3-8.71 10.87-15.63 6.51q-10.33-6.52-17.19-16.21a0.31 0.31 66.97 0 1 0.19-0.48q4.54-0.9 8.49-0.28a2.44 2.43-85.6 0 1 2.06 2.41v3.75a0.31 0.31 67.84 0 0 0.52 0.22z"/>
   <path d="m677.02 477.58c2.26-2.05 4.37-3.22 4.69-6.57a0.69 0.68 88.44 0 1 0.58-0.62q1.87-0.3 6.12-1.05 1.57-0.28 2.35 0.77c1.98 2.65-0.96 7.65-2.62 10.07a0.24 0.24-24.91 0 1-0.44-0.16c0.68-6.38-7.55-3.24-10.39-1.99a0.27 0.27-77.84 0 1-0.29-0.45z"/>
   <path d="m978.53 470.81q11.04 6.62 20.24 13.91 25.46 20.19 37.98 49.73a0.39 0.38 69.58 0 1-0.23 0.52c-14.55 4.9-26.42 16.28-35.91 27.67-13.41 16.11-23.03 38.38-27.37 58.74q-3.03 14.27-1.62 32a0.54 0.54 89.06 0 1-0.56 0.58q-17.61-0.7-29.88-3.11-14.25-2.79-29.69-6.69a0.23 0.23-57.92 0 1-0.09-0.4l13.76-11.75a4.87 4.79-5.53 0 0 1.03-1.23q4.41-7.34 3.38-15.49-0.17-1.3-2.34-5.33a2.04 2.03 39.62 0 1-0.15-1.56l3.2-10.36a0.39 0.38 82.17 0 1 0.17-0.23q0.83-0.5 0.47 1.31a0.74 0.74 80.85 0 0 1.09 0.79q3.84-2.19 7.16-0.98a0.85 0.84 4.01 0 1 0.54 0.61l0.49 2.1a1.57 1.57 72.6 0 0 2.12 1.11l1.38-0.56a0.84 0.84-31.6 0 1 0.94 0.22c0.94 1.04 1.94 3.08 3.51 4.08q4.47 2.87 10.07 1.57a0.35 0.35-77.08 0 0 0-0.68q-2.96-0.7-6.75-1.84c-2.67-0.81-3.77-3.42-5.58-5.23a1.96 1.95 70.69 0 0-1.15-0.56q-0.71-0.08-1.81 0.3a0.64 0.63 74.52 0 1-0.82-0.47q-0.79-3.74-5.59-3.34-2.48 0.21-3.11 0.49a0.34 0.34 16.24 0 1-0.48-0.24l-0.62-2.7a1.41 1.39 52.48 0 1 0.12-0.97q7.68-14.37 18.22-26.67a0.54 0.54 51.74 0 1 0.89 0.11q0.69 1.36 1.81 1.16a0.87 0.81-72.04 0 0 0.45-0.25l4.6-4.84a2.26 2.04 2.86 0 1 0.33-0.27q2.75-1.73 6.66-2.01a0.83 0.83-1.93 0 1 0.89 0.83v10.41a1.68 1.67-4.67 0 0 1.95 1.65q5.46-0.91 10.75 1.34a1.22 1.22 14.85 0 0 1.6-0.64l0.14-0.33a0.83 0.82 22.12 0 0-0.46-1.08q-5.89-2.34-11.06-1.71a0.56 0.56-3.65 0 1-0.63-0.55v-9.48a2.81 2.81-85 0 0-2.32-2.77c-3.27-0.58-7.5 1.38-10.37 3.18a0.19209 0.19209-83.9 0 1-0.24-0.3q11.98-12.53 26.48-22.05a0.73 0.73 50.56 0 1 0.91 0.09q3.11 3.04 9.04 4.13a0.92 0.91 9.46 0 0 1.07-0.76v-0.04a1.16 1.14-77.33 0 0-0.7-1.12l-7.57-3.16a0.82 0.81-47.04 0 1-0.05-1.48l21.06-10.6a2.09 2.09-74.57 0 0 1.12-2.24q-0.43-2.42-0.89-3.74c-6.13-17.56-15.52-34.47-27.92-48.41a0.27 0.27-5.39 0 1 0.34-0.41z"/>
  </g>
  <path d="m766.56 515.83-4.7-9.35a2.36 2.36-54.68 0 1-0.23-1.35q0.19-1.41 1.3-3.46 5.38-9.96 14.23-19.08 6.66-6.86 13.32-8.97c16.98-5.39 32.53 8.74 38.39 23.77a0.4 0.39-16.28 0 1-0.3 0.53c-13.33 2.28-32.04 11.54-35.57 26.3a0.86 0.85-86.55 0 1-0.73 0.65q-6.5 0.82-13.71-0.57a0.49 0.48-65.78 0 1-0.29-0.77c4.94-6.53 9.25-12.67 9.31-21.09 0.06-8.36-7-5.77-10.96-2.34q-6.84 5.94-9.14 15.62a0.49 0.49-51.82 0 1-0.92 0.11z" fill="#5a463a"/>
  <path d="m721.09 492.63q-0.93-0.89-1.14-2.83c-0.59-5.63 1.78-14.37 7.68-17.02a1.24 1.23-14.08 0 1 1.74 1.04q0.34 4.85-1.59 8.76c-1.51 3.06-3.58 7.32-6.05 10.02a0.45 0.45-47.22 0 1-0.64 0.03z" fill="#fff"/>
  <path d="m528.38 523.85q0.83-0.23 4.44-1.78 4.84-2.07 13.8-6.91 11.76-6.35 17.32-17.41a0.36 0.36-26.18 0 1 0.68 0.23c-0.58 3.05-2.14 6.82-2.87 10.22q-1.07 5.04-3.13 10.66h0.01q5.39-9.24 8.45-18.99a0.54 0.54 22.14 0 1 0.76-0.32q6.39 3.21 12.84 2.9a0.84 0.83-80.9 0 1 0.81 1.13q-6.95 18.42-18.69 32.76a0.8 0.79-60.69 0 1-0.86 0.25q-10.92-3.67-14.93-4.8c-3.9-1.11-6.52-0.64-8.62 2.18q-0.59 0.79-0.66 0.84a1.26 1.26-59.46 0 1-0.89 0.23q-7.77-0.84-11.58 1.12-3.69 1.91-5.5 6.9-3.45 9.5 5.52 14.66a0.39 0.39-40.23 0 1-0.06 0.7q-7.56 2.91-15.22 4.07-13.14 1.99-25.02 2.78a2.49 2.46-26.69 0 1-1.73-0.56l-5.09-4.13a0.76 0.76-47.08 0 1-0.04-1.15c10.54-9.92 17.7-23.85 23.7-35.6 4.43-8.68 11.46-17.92 20.28-22.52 11.24-5.87 23.84-14.13 32.85-24.36a0.31 0.3-32.51 0 1 0.52 0.11q2.58 8.92 4.13 13.11c0.63 1.72 1.92 3.38 2.49 4.8a1.15 1.14-40.1 0 1-0.09 1q-2.66 4.28-7.92 9.21-12.89 12.07-25.91 18.1a0.31 0.3 24.85 0 0 0.21 0.57z" fill="#5d8eb2"/>
  <path d="m714.82 482.59q0.39 0.61 2.05 3.3a5.87 5.87-64.33 0 1 0.87 2.48c0.28 2.35 0.52 5.51 2.93 6.41a1.17 1.14 41.23 0 0 0.91-0.05q3.2-1.57 4.23-4.55a0.53 0.53-68.29 0 1 0.72-0.31l0.09 0.04a0.62 0.62 24.74 0 1 0.31 0.83q-2.02 4.42-0.14 8.63a0.37 0.37-89.37 0 1-0.49 0.48q-8.13-3.79-12.24-11.71a2.27 2.26-55.88 0 1-0.25-1.32l0.48-4.11a0.29 0.29 32.14 0 1 0.53-0.12z" fill="#333"/>
  <path d="m753.69 482.81a15.01 5.37-65 0 1-1.47 15.87 15.01 5.37-65 0 1-11.21 11.33 15.01 5.37-65 0 1 1.47-15.87 15.01 5.37-65 0 1 11.21-11.33z" fill="#fff"/>
  <path d="m616.44 500.87q-5.9-2.46-10.38-6.38-1.12-0.98-1.51-1.64a1.02 1.02-6.37 0 1 1.2-1.5q3.3 1.09 6.7 1.05a0.25 0.24-33.36 0 0 0.1-0.47l-5.98-2.53a0.57 0.57 17.01 0 1-0.33-0.62l0.84-4.28a0.42 0.42-73.37 0 1 0.57-0.31l9.7 3.9a0.6 0.53 80.33 0 1 0.25 0.2c6.78 9.47 17.51 16.9 29.27 18.18a0.66 0.65 22.35 0 1 0.45 1.06q-4.86 6.09-12.6 10c-5.6 2.83-12.39 1.6-17.34-2.06a0.2 0.19 59.78 0 1 0.09-0.35q4.38-0.59 6.57-4.72c1.84-3.46-3.27-4.68-5.49-4.63-4.6 0.1-9.75-0.34-13.35-1.1q-4.71-1-8.46-4.39a0.35 0.35 55.85 0 1 0.11-0.58q3.9-1.53 6.25-4.86a0.59 0.59 39.77 0 1 0.9-0.08c3.59 3.59 7.14 6.45 12.37 6.43a0.17 0.17-33.21 0 0 0.07-0.32z" fill="#5d8eb2"/>
  <path d="m730.73 505.75q-5.25 2.7-8.31 5.21-4.94 4.05-12.67 12.04-2.15 2.22-14.02 16.15c-5.44 6.38-13.48 10.72-16.23 19.33a1.69 1.68-85.39 0 1-1.34 1.15q-8.55 1.36-9.02 1.44-4.14 0.7-6.54 3.44l-5.12-1.64a1.28 1.27 32.5 0 1-0.48-2.15q4.47-4.14 5.43-4.98 3.18-2.75 3.47-4.45c0.77-4.58-5.18-6.94-8.96-7.44q-10.02-1.32-20.27 0.89a0.37 0.37 19.9 0 1-0.31-0.66l74.13-57.26a0.5 0.49 65.04 0 1 0.78 0.29q1.54 6.97 7 11.05 3.12 2.34 9.76 4.78a1.35 1.31-9.68 0 1 0.57 0.39z" fill="#fff"/>
  <path d="m877.38 518.71q-1.83-0.67-2.51-1.28-3.36-3-6.79-3.81a2.22 2.21-81.83 0 1-1.71-2.29l0.3-4.88a1.02 1.02-0.24 0 0-1.1-1.09c-2.75 0.2-4.66 1.96-7.92 4.25a1.68 1.68 78.68 0 1-2.61-1.74q1.42-6.4 2.64-10.85 0.82-3 0.26-5.52a1.8 1.79 76.37 0 0-2.22-1.36c-5.03 1.36-9.77 5.54-13.59 8.49a0.18 0.18 86.3 0 1-0.26-0.23q4.41-7.83 12.61-10.53 3.34-1.09 5.49 1.58a1.83 1.77 24.48 0 1 0.39 0.99c0.5 5.78-0.89 9.98-2.73 15.71a0.31 0.31 78.2 0 0 0.5 0.33c1.87-1.67 6.78-4.7 9.22-3.1 2.54 1.67 1.28 5.8 1.39 7.55a0.78 0.78 1.38 0 0 0.68 0.71q2.53 0.28 4.08 2.53c1.17 1.68 2.74 3.03 4.04 4.28a0.16 0.16 76.81 0 1-0.16 0.26z"/>
  <path d="m737.35 507.75q-5.08-3.04-7.55-8.19a2.72 2.57-59.06 0 1-0.25-1.13v-7.46a0.61 0.6-58.69 0 1 1.14-0.28q0.24 0.47 1 2.38c1.16 2.95 3.45 5.46 6.04 7.07a0.63 0.61-73.48 0 1 0.3 0.57l-0.42 6.9a0.17 0.17-72.97 0 1-0.26 0.14z" fill="#333"/>
  <path d="m769.83 528.3q-1.51-1.54-1.54-4.05c-0.12-10.05 4.49-22.16 14.99-25.49a1.62 1.61 74.53 0 1 2.06 1.17c2.41 10.34-7.19 21.8-14.66 28.4a0.62 0.62-42.93 0 1-0.85-0.03z" fill="#fff"/>
  <path d="m612.53 537.05q-0.18-0.38-0.51-0.56a0.2 0.2 85.51 0 0-0.25 0.3q0.15 0.21 0.5 0.32 3.59 4.2 5.84 8.92a0.6 0.6-8.55 0 1-0.63 0.85c-3.56-0.51-7.33-2.37-10.84-1.01q-5.8 2.25-8.73 3.25a1.37 1.34-43.75 0 1-0.89-0.01l-30.63-10.96a0.47 0.47 31.22 0 1-0.19-0.77q13.47-14.33 17.97-33.63a0.46 0.46-1.08 0 1 0.34-0.35l9.02-2.47a0.92 0.91 62.89 0 1 0.96 0.32c5.86 7.27 7.03 16.57 4.66 25.48a0.41 0.4 21.21 0 1-0.58 0.25q-0.4-0.21-0.72-0.85-1.49-2.99-4.71-10.24a0.22 0.22 30.03 0 0-0.42 0.11q0.75 6.78-0.76 14-0.3 1.44-3.09 7.12-0.31 0.63-0.39 0.64-0.37 0.05-0.38 0.25a0.29 0.28-18.57 0 0 0.47 0.23c4.05-3.36 5.32-6.81 6.37-11.97a0.31 0.31 36.81 0 1 0.57-0.08l1.25 2.35a2.03 2.02-40.38 0 0 3.39 0.27c3.85-5.01 2-16.6 0.04-22.19a0.22 0.22 1.86 0 1 0.3-0.28q4.7 2.06 9.99 2.24 4.13 0.14 9.42 0.3a0.93 0.93 31.85 0 1 0.41 1.75l-6.43 3.44a2.07 2.06-52.36 0 1-1.45 0.19q-2.07-0.46-3.7-0.46a0.32 0.32-37.12 0 0-0.09 0.63q12.06 3.36 17.59 15.2a0.52 0.51-2.71 0 1-0.64 0.7l-9.76-3.49a0.19 0.19-10.22 0 0-0.21 0.3c3.9 4.41 8.95 11.87 8.55 17.9a0.38 0.38 16.84 0 1-0.57 0.3q-4.4-2.46-4.83-2.85-3.06-2.81-6.24-5.44z" fill="#f5e9dd"/>
  <path d="m808.46 537.32a0.92 0.91-59.88 0 1-0.31-1.19q2.38-4.68 3.9-10.92c0.96-3.92-1.46-6.77-5.44-4.55q-5.37 2.98-7.35 8.1a0.66 0.65 37.44 0 1-1.14 0.15l-1.98-2.72a3.59 3.59-55.34 0 1-0.56-3.07c1.19-4.3 4.59-7.44 8.05-10.69q6.86-6.42 16.18-9.11c6.73-1.94 12.58-1.73 18.16 2.87 6.84 5.63 11.35 14.36 10.62 23.31q-0.27 3.22-1.71 5.44-1.07 1.66-3.61 1.5a0.66 0.65-89.53 0 1-0.6-0.62q-0.02-0.39-0.14-0.43a0.62 0.61 37.66 0 0-0.61 0.07q-4.21 3.09-7.47 5.51-1.57 1.16-6.49 3.47a1.93 1.92 35.42 0 1-1.03 0.17q-5.33-0.6-6.85-1.18-5.41-2.06-11.62-6.11z" fill="#5a463a"/>
  <path d="m730.73 505.75 1.76 1.89q-18.04 12.75-32.34 29.6a0.39 0.39 35.72 0 0 0.1 0.59q0.55 0.33 1.25-0.05c8.61-4.71 17.29-6.42 27.09-7.16 5.25-0.4 12.29 0.4 16.59 0.75a1.27 1.27 18.53 0 0 1.17-0.58q4.16-6.48 6.01-14.33l3.28-0.26q0.2 8.65-4.63 15.4a1.02 1.02-65.47 0 0 0.59 1.59q7.35 1.8 15.71 6.21a0.81 0.81-78.19 0 0 1.19-0.78l-0.7-8.72 3.79 1.84q-0.1 3.49-0.17 6.76-0.08 3.8 3.18 5.12a2.44 2.43 80.08 0 1 0.88 0.62c1.55 1.71 4.61 3.61 6.58 5.6q5.59 5.63 9.94 11.65a1.81 1.8 63.4 0 0 1.99 0.67c3.91-1.21 10.43-3.39 15.55-3.7 6.25-0.38 13.21-0.31 18.81 2.46q2.68 1.32 4.65 4.45a2.7 2.51-69.42 0 1 0.34 0.83l0.98 4.52a1.6 1.44 42.14 0 1 0.03 0.3c-0.09 9.84-1.09 19.53-3.91 28.73-1.62 5.31-3.63 13.86-6.57 18.85q-9.43 16-23.88 28.14-1.36 1.14-7.68 4.21-5.92 2.88-7.33 10.06c-1.54 7.77-4.53 14.59-11.15 19.07-12.18 8.26-29.23 2.85-42.21-0.39q-4-1-11.31-1.87-8.61-1.02-16.92-4.01-4.78-1.72-14.84-6.88a2.36 2.29-5.6 0 1-0.69-0.55q-0.76-0.91-2.41-1.09a0.35 0.35 9.34 0 1-0.31-0.43l0.12-0.5a0.07 0.06 8.7 0 1 0.08-0.05l18.89 4.75a2.29 2.06-36.75 0 0 0.66 0.06q1.14-0.08 1.62 0.09 4.48 1.67 8.48 2.23a4.53 4.36-29.42 0 1 0.93 0.24q1.97 0.76 3.96 0.98 7.82 0.86 15.37 1.01 0.93 0.01 4.54-0.41 2.23-0.27 4.5-0.55c12.48-1.54 21.41-5.35 31.03-12.17q1.68-1.2 2.79-2.5a0.99 0.98-38.59 0 0 0.13-1.1c-3.75-7.21-8.66-14.52-15.02-24.17q-1.89-2.87-4.63-5.68c-4.45-4.58-7.24-7.88-12.87-14.37-7.69-8.87-17.31-16.69-26.92-22.78a1.82 1.82 65.34 0 0-0.36-0.18q-1.36-0.49-5.47-3.21-8.63-5.7-20.03-10.24a7.87 7.65 56.11 0 0-2.56-0.54l-2.69-0.1q-4.15-1.98-7.82-5.6l15.27 2.58a0.5 0.5-5.77 0 0 0.55-0.67q-1.2-3.21-0.8-7.1 0.3-2.89 2.52-5.98 2.27-3.15 4.34-4.93a0.71 0.71-5.05 0 1 1.08 0.9q-3.6 6.08-3.5 12.88 0.05 3.51 3 4.57 5.22 1.87 9.92 0.97 3.39-0.64 6.71-2.93 3.18-2.18 5.27-5.02 1.18-1.59-0.2-2.68a1.33 1.33 64 0 0-0.87-0.3q-4.62 0.07-8.21-2.85c-4.66-3.79-4.81-10.96-1.04-15.36q5.3-6.17 13.69-6.03a0.47 0.47 31.16 0 1 0.22 0.89q-4.51 2.47-6.81 3.96c-3.13 2.02-6.98 7.1-5.86 11.46 1.26 4.95 8.9 4.37 12.47 3.73a3.47 3.44 10.9 0 0 2.31-1.55l5.66-9a0.78 0.78 44.36 0 1 1.31-0.01l0.14 0.22a4.42 4.42-51.27 0 1 0.44 4.03l-2.31 6.04a1.01 0.97 53.29 0 0-0.06 0.48q0.19 1.32-1.37 2.26a0.87 0.86-27.93 0 0-0.34 1.09l0.01 0.04a0.67 0.67-28.72 0 0 0.98 0.28q4.97-3.31 7.71-4.17 5.17-1.61 5.44-1.77a3.57 1.7-16.02 0 0 0.4-0.23l17.42-11.32a0.68 0.67 45.17 0 0 0-1.13q-8.36-5.54-17.64-7.1a1.13 1.1 30.37 0 0-0.89 0.22l-5.22 4.03a0.53 0.53-2.92 0 1-0.78-0.7l2.27-3.62a0.91 0.91-68.9 0 0-0.61-1.38q-21.82-3.75-40.69 6.2-4.23 2.23-8.02 5.6-4.34 3.84-6.69 7.16-0.81 1.15-6.23 9.21a1.32 1.32 13.53 0 1-0.95 0.58q-0.96 0.12-2.18-0.48a2 1.98 56.15 0 0-0.99-0.2q-5.44 0.32-10.95 2.49l-3.19-0.92q2.4-2.74 6.54-3.44 0.47-0.08 9.02-1.44a1.69 1.68-85.39 0 0 1.34-1.15c2.75-8.61 10.79-12.95 16.23-19.33q11.87-13.93 14.02-16.15 7.73-7.99 12.67-12.04 3.06-2.51 8.31-5.21z" fill="#5d8eb2"/>
  <path d="m937.9 513.62a0.46 0.46-21.38 0 1-0.33 0.75c-3.78 0.24-8.52-4.27-11.48-7.32a0.25 0.25-6.11 0 1 0.31-0.38q7.59 4.52 9.27 5.16 1.13 0.43 2.23 1.79z"/>
  <path d="m744.37 511.4 4.94-4.54a0.45 0.44-49.59 0 1 0.55-0.05q4.04 2.61 7.51 0.44a0.18 0.18-14.27 0 1 0.27 0.16l-0.33 5.32a0.3 0.3-2.53 0 1-0.25 0.27q-6.59 1.09-12.63-1.29a0.19 0.18-56.68 0 1-0.06-0.31z" fill="#333"/>
  <path d="m732.49 507.64q5.25 4.77 11.75 7.62 1.94 0.85 8.12 1.2-1.85 7.85-6.01 14.33a1.27 1.27 18.53 0 1-1.17 0.58c-4.3-0.35-11.34-1.15-16.59-0.75-9.8 0.74-18.48 2.45-27.09 7.16q-0.7 0.38-1.25 0.05a0.39 0.39 35.72 0 1-0.1-0.59q14.3-16.85 32.34-29.6z" fill="#fff"/>
  <path d="m761.57 508.91q1.34 5.05 4.37 8.4a2.66 2.64 25.92 0 1 0.68 1.94l-0.27 4.37a0.64 0.64 21.95 0 1-1.06 0.45q-7.48-6.33-4.19-15.18a0.25 0.25-42.43 0 1 0.47 0.02z" fill="#333"/>
  <path d="m767.8 529.9 0.7 8.72a0.81 0.81-78.19 0 1-1.19 0.78q-8.36-4.41-15.71-6.21a1.02 1.02-65.47 0 1-0.59-1.59q4.83-6.75 4.63-15.4 1.67-0.98 2.04 0.4c1.78 6.7 5.75 9.21 10.12 13.3z" fill="#fff"/>
  <path d="m881.43 520.97 22.05 11.29a1.45 1.26-3.95 0 1 0.41 0.31l4.1 4.45a0.28111 0.28111-6.52 0 1-0.35 0.44c-7.73-4.36-12.83-6.6-18.82-10.85q-1.52-1.08-7.49-5.15a0.11 0.1-75.01 0 1-0.05-0.09l0.02-0.33a0.09 0.09 15.82 0 1 0.13-0.07z"/>
  <path d="m807.64 532.53c-1.44 3.36-3.29 7.65-5.24 8.93a1.12 1 57.65 0 1-1.46-0.41c-2.19-3.52-1.44-7.55 0.17-11.31 1.6-3.75 3.99-7.09 8.04-7.93a1.12 1-11.38 0 1 1.32 0.77c0.42 2.3-1.4 6.6-2.83 9.95z" fill="#fff"/>
  <path d="m774.22 529.84a0.51 0.5 28.05 0 1-0.24-0.77l2.39-3.22a0.77 0.76 29.16 0 1 0.9-0.25q6.44 2.57 14.77 0.94a0.14 0.14-3.09 0 1 0.17 0.15l-0.25 4.18a0.37 0.37-3 0 1-0.31 0.34q-9.06 1.67-17.43-1.37z" fill="#333"/>
  <path d="m798.21 539.86a0.48 0.48-73.21 0 1-0.82 0.44q-4.65-5.12-2.6-12.31a0.08 0.08-59.95 0 1 0.13-0.04l2.86 2.86a0.64 0.61-63.9 0 1 0.17 0.54q-0.74 4.64 0.26 8.51z" fill="#333"/>
  <path d="m644.02 618.42q1.52 0.66 3.09 1.4 6.28 2.94 11.64 7.95 4.7 4.39 4.53 10.99c-0.17 6.64-2.56 10.87-4.64 16.52a0.63 0.63-41.49 0 1-0.8 0.38l-9.63-3.45a0.050533 0.040426 72.02 0 0-0.04 0.08l10.71 7.95a3.93 3.93 14.83 0 1 1.57 2.7q0.86 7.02-1.28 13.14a2.16 2.13-13.64 0 1-0.52 0.84q-5.31 5.48-12.12 4.37-13.37-2.18-20.29-2.27-9.29-0.12-16.67-0.64c-23.77-1.67-47.24-0.03-70.55 4.93q-25.15 5.35-49.76 13.87a4.1 4.07 45.79 0 1-2.81-0.05q-0.63-0.25-6.17-2.19-2.24-0.78-29.79-11.97-20.5-8.32-37.2-17.08-9.67-5.09-17.94-8.61-20.44-8.71-43.15-22.18-5.86-3.48-11.33-8.2a0.16 0.15-13.95 0 1 0.16-0.26q10.93 4.02 23.21 4.56a0.29 0.29 60.49 0 0 0.15-0.55c-6.62-3.67-12.87-7.99-17.05-14.39q-2.11-3.24-3.15-4.72a0.2 0.2 31.69 0 1 0.26-0.3q4.4 2.24 8.69 3.38 4.65 1.24 7.45 3.17a0.23 0.23 35.53 0 0 0.31-0.05v-0.01a0.2 0.2-51.59 0 0-0.03-0.27c-9.09-7.65-14.6-16.75-15.09-28.75a0.35 0.35 5.67 0 1 0.43-0.35l27.48 6.35a0.19 0.18-20.81 0 0 0.15-0.33q-14.47-10.38-17.75-27.91-0.6-3.2 0.09-6.03a0.45 0.45 22.17 0 1 0.67-0.28q5.46 3.31 12.23 5.3c2.57 0.76 4.54 0.78 6.92 1.16a0.29 0.28 64.07 0 0 0.18-0.53q-4.49-2.49-7.47-6.82a0.34 0.34 68.8 0 1 0.23-0.53l11.51-1.51a0.76 0.7-61.61 0 0 0.23-0.08l5.23-2.79a0.53 0.53 34.26 0 0-0.19-0.99l-14.79-1.7a0.58 0.58-71.87 0 1-0.44-0.87c1.16-2.08 2.67-3.26 3.9-4.49q6.37-6.38 14-9.4 11.49-4.55 14.26-6.01c0.87-0.46 1.59-1.3 2.37-1.6a0.26 0.26-79.07 0 1 0.28 0.42l-4.31 4.83a0.33 0.33-80.21 0 0 0.37 0.53c10.19-4.3 21.56-6.56 32.67-5.09q1.03 0.14 1.09 0.18a1.07 1.07-38.72 0 1-0.21 1.9l-10.28 3.77a0.12 0.12-12.91 0 0-0.07 0.15l0.09 0.26a0.04 0.04 80.76 0 0 0.05 0.03q8.37-1.63 17.28-0.98 3.26 0.24 5.47 1.37a0.57 0.56-48.69 0 1 0.06 0.97c-2.48 1.7-7.57 2.69-10.35 3.19a0.39 0.39 47.27 0 0-0.03 0.76c1.82 0.47 4.48 0.4 6.58 0.8q12.15 2.33 21.89 11.01c12.5 11.16 23.06 20.88 38.14 33.48q15.7 13.13 30.79 26.26a1.22 1.21-55.49 0 1 0.27 1.48l-1.89 3.5a3.22 2.7 84.96 0 1-0.37 0.53q-2.94 3.3-3.58 4.57-1.56 3.1-5.42 12.88a0.15 0.15-66.3 0 0 0.07 0.19l0.24 0.13a0.06 0.05-61.54 0 0 0.08-0.03q4.23-8.05 7.27-13.18c1.54-2.6 4.08-4.64 6.21-7.13q9.47-11.06 15.3-20.34a5.67 5.66-25.55 0 0 0.84-2.37l1.1-9.63a3.97 3.92 74.02 0 1 1.41-2.58l4.9-4.02a1.9 1.9-55.89 0 1 1.76-0.34q7.35 2.27 12.26 3.48a0.77 0.68 23.14 0 1 0.52 1.08q-0.27 0.36 0.01 0.85a0.56 0.55-23.82 0 0 0.64 0.24q4.32-1.33 7.12-4.01 8.12-7.81 16.94-12.95 2.88-1.68 7.63-2.37 12.96-1.89 25.71-4.52 3.07-0.63 7.69 1.22c10.58 4.24 20.17 6.94 31.36 9.95 1.89 0.51 4.36 1.74 5.67 2.14a0.35 0.35-39.24 0 1-0.07 0.69c-2.58 0.25-6.77 0-9.52 1.68a1.78 1.78-26.83 0 0-0.72 2.18c2.24 5.56 8.16 10.29 13.11 13.13a1.6 1.6 14.36 0 1 0.8 1.35q0.07 3.01-1.47 5.63-6.58 11.17-19.79 10.65a1.91 1.9-6.94 0 1-1.76-1.37c-1.81-6.25-5.54-14-11.12-17.34q-2.04-1.22-5.62-1.15-6.34 0.12-16.83 0.57a16.15 16.05 47.46 0 1-2.83-0.13q-3.34-0.45-10.14-2.3c-4.52-1.23-6.4 2.46-9.64 4.96a0.5 0.49 55.6 0 0-0.12 0.65l0.01 0.02a0.43 0.42 55.81 0 0 0.4 0.08l6.46-2.14a1.55 1.51-48.94 0 1 0.73-0.06q10.95 1.71 14.34 1.53 12.82-0.71 18.88-0.11c7.08 0.69 11.67 10.47 13.13 16.06 1.47 5.65 2.94 10.75 1.97 15.77a1.44 1.44 21.67 0 1-2.18 0.94q-5.8-3.67-12.07-5.34a0.3 0.3-25.59 0 0-0.2 0.56z" fill="#5a463a"/>
  <path d="m707.99 598.53q9.83 6.6 18.05 14.58a0.31 0.3-21.81 0 1-0.23 0.52c-5.69-0.18-10.58-0.02-16.08-0.33q-9.77-0.56-16.59 0.07a0.64 0.64 64.86 0 0-0.39 1.09l0.08 0.08a3.41 3.38-21.49 0 0 2.3 0.99q19.61 0.62 31.87 1.55 2.12 0.16 3.57-1.18a2.19 2-41.07 0 0 0.33-2.86q-1.93-2.36-3.63-4.05a4.23 3.97-5.17 0 0-0.78-0.61c-3.09-1.86-5.34-4.35-8.13-6.25q-3.44-2.34-8.79-6.44-3.29-2.52-8.22-3.59l-3.46-2.24a1.24 1.21 10.61 0 1-0.52-0.74c-1.35-5.87-5.46-9.49-9.68-13.45l2.69 0.1a7.87 7.65 56.11 0 1 2.56 0.54q11.4 4.54 20.03 10.24 4.11 2.72 5.47 3.21a1.82 1.82-65.18 0 1 0.36 0.18c9.61 6.09 19.23 13.91 26.92 22.78 5.63 6.49 8.42 9.79 12.87 14.37q2.74 2.81 4.63 5.68c6.36 9.65 11.27 16.96 15.02 24.17a0.99 0.98-38.59 0 1-0.13 1.1q-1.11 1.3-2.79 2.5c-9.62 6.82-18.55 10.63-31.03 12.17q-2.27 0.28-4.5 0.55-3.61 0.42-4.54 0.41-7.55-0.15-15.37-1.01-1.99-0.22-3.96-0.98a4.53 4.36-29.42 0 0-0.93-0.24q-4-0.56-8.48-2.23-0.48-0.17-1.62-0.09a2.29 2.06-36.75 0 1-0.66-0.06l-18.89-4.75a0.07 0.06 8.7 0 0-0.08 0.05l-0.12 0.5a0.35 0.35 9.34 0 0 0.31 0.43q1.65 0.18 2.41 1.09a2.36 2.29-5.6 0 0 0.69 0.55q10.06 5.16 14.84 6.88 8.31 2.99 16.92 4.01 7.31 0.87 11.31 1.87c12.98 3.24 30.03 8.65 42.21 0.39 6.62-4.48 9.61-11.3 11.15-19.07q1.41-7.18 7.33-10.06 6.32-3.07 7.68-4.21 14.45-12.14 23.88-28.14c2.94-4.99 4.95-13.54 6.57-18.85 2.82-9.2 3.82-18.89 3.91-28.73a1.6 1.44 42.14 0 0-0.03-0.3l-0.98-4.52a2.7 2.51-69.42 0 0-0.34-0.83q-1.97-3.13-4.65-4.45c-5.6-2.77-12.56-2.84-18.81-2.46-5.12 0.31-11.64 2.49-15.55 3.7a1.81 1.8 63.4 0 1-1.99-0.67q-4.35-6.02-9.94-11.65c-1.97-1.99-5.03-3.89-6.58-5.6a2.44 2.43 80.08 0 0-0.88-0.62q-3.26-1.32-3.18-5.12 0.07-3.27 0.17-6.76 9.94 4.2 19.86 2.59a0.87 0.87-10.64 0 1 1 0.68c1.08 5.25 2.46 7.67 7.12 10.16q9.62 5.15 20.25 3.68a1.44 1.42-28.15 0 1 1.14 0.34q37.41 32.96 66.13 59.97 4.38 4.12 7.42 8.01a1.37 1.37-36.83 0 1-0.28 1.95c-2.38 1.71-4.26 2.85-6.5 5q-3.42 3.27-7.92 6.94-26.03 21.26-120.5 98.31a0.22 0.21-30.85 0 1-0.33-0.08q-4.39-10.41-11.55-19.37c-7.79-9.74-17.13-13.61-29.62-15.82q-15.32-2.71-24.9-4.61a4.67 4.57-20.12 0 1-1.91-0.86q-11.91-9.09-22.37-19.01-2.55-2.43-4.52-3.74a0.5 0.49 12.15 0 1-0.19-0.29l-2.03-8.79a1.66 1.64 48.87 0 1 0.06-0.94c0.89-2.41 2.86-5.58 3.54-7.9 2.35-8.03 2.14-16.19-3.81-22.69a1.43 1.43 24.89 0 1-0.37-1.01q0.29-6.68-1.22-13.35a0.47 0.47 82.42 0 1 0.44-0.58c1.87-0.07 4.28 0.95 6.28 0.84q5.69-0.31 7.61-1.06c3.68-1.46 8.08 0.3 12.55 1.31a12.02 11.56 49.93 0 0 2.64 0.28l18.22-0.2a3.33 3.11-33.74 0 1 1.04 0.17q0.05 0.02 0.15 0.07a2.09 2.07 58.06 0 0 0.93 0.22q5 0.05 7.32 0.04a1.82 1.7-10.66 0 0 1.73-2.35q-0.3-0.72-1.19-1.47-5.3-4.45-9.82-9.65z" fill="#fff"/>
  <path d="m679.87 570.07-14.08-4.64q5.51-2.17 10.95-2.49a2 1.98 56.15 0 1 0.99 0.2q1.22 0.6 2.18 0.48a1.32 1.32 13.53 0 0 0.95-0.58q5.42-8.06 6.23-9.21 2.35-3.32 6.69-7.16 3.79-3.37 8.02-5.6 18.87-9.95 40.69-6.2a0.91 0.91-68.9 0 1 0.61 1.38l-2.27 3.62a0.53 0.53-2.92 0 0 0.78 0.7l5.22-4.03a1.13 1.1 30.37 0 1 0.89-0.22q9.28 1.56 17.64 7.1a0.68 0.67 45.17 0 1 0 1.13l-17.42 11.32a3.57 1.7-16.02 0 1-0.4 0.23q-0.27 0.16-5.44 1.77-2.74 0.86-7.71 4.17a0.67 0.67-28.72 0 1-0.98-0.28l-0.01-0.04a0.87 0.86-27.93 0 1 0.34-1.09q1.56-0.94 1.37-2.26a1.01 0.97 53.29 0 1 0.06-0.48l2.31-6.04a4.42 4.42-51.27 0 0-0.44-4.03l-0.14-0.22a0.78 0.78 44.36 0 0-1.31 0.01l-5.66 9a3.47 3.44 10.9 0 1-2.31 1.55c-3.57 0.64-11.21 1.22-12.47-3.73-1.12-4.36 2.73-9.44 5.86-11.46q2.3-1.49 6.81-3.96a0.47 0.47 31.16 0 0-0.22-0.89q-8.39-0.14-13.69 6.03c-3.77 4.4-3.62 11.57 1.04 15.36q3.59 2.92 8.21 2.85a1.33 1.33 64 0 1 0.87 0.3q1.38 1.09 0.2 2.68-2.09 2.84-5.27 5.02-3.32 2.29-6.71 2.93-4.7 0.9-9.92-0.97-2.95-1.06-3-4.57-0.1-6.8 3.5-12.88a0.71 0.71-5.05 0 0-1.08-0.9q-2.07 1.78-4.34 4.93-2.22 3.09-2.52 5.98-0.4 3.89 0.8 7.1a0.5 0.5-5.77 0 1-0.55 0.67z" fill="#fff"/>
  <path d="m540.78 567.61q5.09-2.56 9.97-8.47a3.02 2.9 76.6 0 0 0.5-0.85q1.93-5.13 2.19-6.34 2.06-9.67-3.14-16.08a0.5 0.5-9.69 0 1 0.56-0.79l8.72 3.12a3.78 3.75 88.06 0 1 2.2 2.07q5.22 12.19-2.06 23.06-2.03 3.03-7.69 6.91a2.62 2.58-55.35 0 1-2.06 0.39l-9.08-2.1a0.49 0.49 38.24 0 1-0.11-0.92z" fill="#333"/>
  <path d="m866.18 541.71q-2.99-1.73-6.18-3.69-1.28-0.79-1.44-1.84a0.73 0.73 47.71 0 1 1.05-0.75l5.66 2.9a2.86 2.81-86.61 0 1 1.38 1.58l0.39 1.1a0.59 0.59 5.5 0 1-0.86 0.7z"/>
  <path d="m612.53 537.05q-0.13 0.03-0.26 0.06-0.35-0.11-0.5-0.32a0.2 0.2 85.51 0 1 0.25-0.3q0.33 0.18 0.51 0.56z" fill="#b08e71"/>
  <g fill="#333">
   <path d="m545.35 539.54c1.86 2.97 1.44 7.97 0.72 11.36q-1.26 5.99-7.08 9.5a2.5 2.5-54.87 0 1-1.78 0.31c-5.59-1.12-13.92-3.9-15.55-9.85q-1.48-5.37 2.28-10.22c4.08-5.27 15.49-3.69 20.62-1.76a1.68 1.65 84.4 0 1 0.79 0.66z"/>
   <path d="m824.54 547.56q0.12-0.03 0.62 0.06 0.4 0.06 0.57 0 7.13-2.9 12.81-7.48 2.23-1.8 4.57-1.5a1.73 1.69 70.96 0 1 1.04 0.52q3.29 3.42 10.15 9.53 27.56 24.55 56.28 50.49 7.54 6.8 14.15 12.58c4.04 3.53 0.64 12.32-1.56 16.21a4.46 4.25 84.79 0 1-0.84 1.06q-1.74 1.56-3.51 3.07-110.58 94.07-131.38 111.32c-8.78 7.29-17.99 15.19-29.17 24.31a0.44 0.44 79.35 0 1-0.7-0.48q3.27-10.46 4.47-19.73a2.19 2.13 74.5 0 1 0.77-1.4l150.91-123.69a0.38 0.37-43.56 0 0 0.02-0.57l-0.29-0.27a0.7 0.69-43.27 0 0-0.91-0.02l-149.77 122.76a0.29 0.29-23.93 0 1-0.47-0.18l-2.06-11.39a1.09 1.08-25.2 0 1 0.38-1.04q58.88-48.87 106.06-87.65 5.32-4.37 12.08-9.65 11.02-8.62 12.08-9.67c2.39-2.34 4.89-2.93 6.51-6.34a2.92 2.91-55.99 0 0-0.65-3.39l-72.36-66.79a0.39 0.39-28.58 0 1 0.2-0.67z"/>
   <path d="m820.47 546.3c-6.29 1-11.22 1.11-17.03-1.47a0.96 0.95 30.44 0 1-0.38-1.44l3.13-4.22a1.13 1.13-50.35 0 1 1.67-0.16q4.85 4.49 12.65 6.69a0.31 0.31-41.41 0 1-0.04 0.6z"/>
   <path d="m615.88 559.23c-4.18 0.91-11.54 0.4-17.04 3.87q-7.94 5.02-15.57 11.28a0.67 0.53 6.26 0 1-0.11 0.07l-4.57 2.15a0.86 0.83 31.72 0 1-0.36 0.08q-2.73 0.04-3.97-0.14-10.56-1.53-20.19-4.57a0.35 0.35-51.36 0 1-0.07-0.64c10.47-6.37 15.1-18.51 10.97-30.04a0.44 0.44 89.63 0 1 0.56-0.57l50.38 18.03a0.25 0.25-41.5 0 1-0.03 0.48z"/>
  </g>
  <path d="m736.11 592.29a0.69 0.69-33.24 0 1 0.23-1.09c2.4-1.07 6.65-0.38 8.08-3.12a0.48 0.48-84.22 0 0-0.56-0.69q-4.37 1.24-9.11-1.08-2.06-1.01-2.91-3.77-2.43-7.87 2.27-13.79 2.19-2.75 7.94-5.8 0.43-0.23 2.92-0.77c8.24-1.79 9.85 5.78 10 12.22a1.04 1.04 71.49 0 0 1.64 0.82q0.47-0.34 0.8-1.53 1.69-6.05-2.6-11.77-1.22-1.63-4.06-3.82a1.07 1.07 47.33 0 1 0.07-1.74l16.2-10.66a1.68 1.67 45.53 0 1 1.87 0.02l7.48 5.16a0.75 0.68-2.86 0 1 0.11 0.09c4.95 4.67 8.25 7.49 11.28 12.08a0.83 0.82 64.96 0 1-0.45 1.24c-2.9 0.88-5.8 1.62-8.29 2.88q-4.13 2.09-8.51 3.96a0.68 0.67-33.08 0 0-0.23 1.08l0.23 0.25a0.86 0.85 54.57 0 0 1.03 0.18q8.87-4.65 17.32-6.69a1.42 1.42-20.92 0 1 1.59 0.71l4.55 8.52a0.82 0.82 65.11 0 1-0.42 1.15q-3.46 1.4-7.4 3.65-5.16 2.94-5.33 3.06c-2.95 2.11-5.29 3.3-4.9 5.9a0.38 0.38 71.28 0 0 0.56 0.28c3.14-1.81 8.02-6.06 11.67-7.98q3.66-1.92 6.11-3.08a0.79 0.79-22.99 0 1 1.08 0.43q8.8 23.02 2.04 46.81-2.93 10.31-8.82 18.4c-0.53 0.73-3.24 3.79-5.12 3.89q-0.56 0.03-1 0.92-0.35 0.71-0.12 1.4 0.89 2.75-1.75 5.32a0.82 0.81-34 0 1-1.31-0.25q-5.15-11.67-13.29-22.08-8.97-11.48-18.74-23.76-1.57-1.98-2.6-4.17a0.81 0.81 75.66 0 1 0.68-1.15q1.54-0.1 2.65-1.44 2.99-3.62 4.79-6.93a1.08 1.08 37.83 0 1 1.75-0.22l4.15 4.5a2.28 2.27-55.16 0 1 0.43 2.42c-1.94 4.72-3.16 8.1-1.84 12.27a1.1 1.1-42.42 0 0 2.06 0.09l4.52-10.68a1.33 1.32-66.41 0 1 1.75-0.69q2.22 0.97 3.55 0.94a1.34 1.33-26.49 0 0 0.8-2.38q-1.35-1.07-3.08-1.5a1.01 1.01-67.92 0 1-0.63-1.49q7.38-12.5 9.18-15.82 0.2-0.37 0.16-0.51a1.37 1.27-20.65 0 0-1.82-0.74q-2.21 0.97-3.74 3.03-5.13 6.91-7.08 11.11a1.99 1.99 33.66 0 1-3.15 0.63l-2.83-2.61a2.87 2.86-52.63 0 1-0.48-3.63l8.9-14.14a2.03 2.03-57.77 0 0-0.63-2.79l-0.09-0.06a1.95 1.94 33.53 0 0-2.73 0.55l-8.59 13.17a0.97 0.96-42.57 0 1-1.66-0.07l-5.67-10.62a0.6 0.6-55.48 0 0-1.13 0.21c-0.51 4.13 3.06 9.85 5.38 13.3a1.27 1.27 46.61 0 1-0.04 1.47l-6.26 8.44a1.25 1.24 41.88 0 1-1.91 0.1z" fill="#fff"/>
  <path d="m649.98 546.13c4.11-0.25 10.53 0.34 13.17 3.87a1.09 1.08-42.7 0 1-0.06 1.36l-5.34 5.96a0.39 0.39 65.06 0 1-0.68-0.25q-0.08-3.33-1.78-5.69a0.66 0.66-41.64 0 1 0.05-0.84q0.24-0.26 1-0.16a0.22 0.21-72.59 0 0 0.22-0.12q0.18-0.39-0.13-0.5-0.96-0.26-1.46-0.16a1.47 1.46 61.5 0 1-1.33-0.4q-1.5-1.5-3.76-2.61a0.24 0.24-33.02 0 1 0.1-0.46z" fill="#fff"/>
  <path d="m637.2 548.26q-6.17 2.55-9.54 7.95a1.57 1.55-78.94 0 1-1.06 0.72l-4.37 0.79a0.95 0.9-38.65 0 1-0.5-0.04l-17.49-6a0.38 0.38-40.52 0 1 0.06-0.73l6.58-1.19a4.72 4.66 45.31 0 1 1.82 0.02c7.03 1.42 14.09 2.19 20.4-1.44q1.01-0.58 4.02-0.51a0.22 0.22 34.49 0 1 0.08 0.43z" fill="#5a463a"/>
  <path d="m632.88 555.13q5.48-7.13 14.06-6.72c5.7 0.27 8.46 7.55 8.08 12.3a1.13 1.13 15.87 0 1-1.64 0.91q-3.24-1.64-10.99-4.39c-3.08-1.09-6.67-1.39-9.31-1.66a0.28 0.28 20.66 0 1-0.2-0.44z" fill="#333"/>
  <path d="m879.86 551.37 7.96 5.01a2.78 2.75 49.64 0 0 2.54 0.22q5.77-2.39 8.13 0.94a0.91 0.87-70.26 0 1 0.16 0.36l0.6 3.36a4.6 4.59 5.92 0 0 2.8 3.44q4.88 1.96 9.21 5.4a3.16 2.98-12.98 0 0 0.7 0.41l3.19 1.35a0.36 0.36 52.46 0 1-0.09 0.69c-2.08 0.3-4.02 0.19-5.86-1.13q-4.14-2.96-7.68-4.43c-3.69-1.52-4.3-3.72-4.95-7.4a2 2-10.16 0 0-2.33-1.62l-4.97 0.9a1.86 1.82 56.15 0 1-1.34-0.28c-4.48-2.94-6.61-4.07-8.4-6.89a0.24 0.24-0.2 0 1 0.33-0.33z"/>
  <path d="m804.68 623.84q0.93-3.04 1.54-9.52 0.38-4.19-0.25-9.63-1.11-9.46-2.17-15.46c-0.79-4.4-1.82-6.86-3.57-12.15a0.98 0.98-15.65 0 1 0.71-1.26q7.22-1.61 16.32-2.57c2.38-0.25 4.86-0.01 7.23-0.97a0.59 0.59 36.49 0 0-0.17-1.13c-6.23-0.52-11.16-0.44-17.29 1.1q-3.89 0.97-7.42 1.85a0.68 0.67-20.06 0 1-0.77-0.35l-3.87-7.69a1.4 1.39 72.83 0 1 1.06-2.01q7.59-1.05 9.35-1.43 2.92-0.62 6.03-0.8c5.15-0.29 13.2-1.37 16.21 3.55 1.53 2.5 2.37 7.01 2.46 10.39q0.29 11.47-2.81 23.26c-1.7 6.46-4.93 11.48-8.08 18.05q-1.38 2.9-3.99 6.86c-5.24 7.96-11.65 15.73-19.25 21.21a0.46 0.46 88.16 0 1-0.66-0.62q5.97-9.47 9.39-20.68z" fill="#fff"/>
  <path d="m488.21 569.01a0.39 0.39-23.1 0 1 0.27-0.67c14.23 0.26 28.32-2.45 41.65-6.38a0.47 0.47-9.96 0 1 0.6 0.42c0.21 2.6 0.86 5.4 2.97 6.79a1.26 1.19-20.02 0 0 0.37 0.16l22.28 5.54a0.43 0.43-50.04 0 1 0.07 0.81q-4.68 2.13-6.45 5.86a5.1 4.95-28.88 0 0-0.44 1.44c-1 6.46-0.96 9.87-3.6 13.84-2.75 4.13-5.2 8.09-8.61 12.03a0.65 0.64 33.79 0 1-0.79 0.15q-1.78-0.89-3.4-2.14-23.38-17.96-44.92-37.85z" fill="#f5e9dd"/>
  <g fill="#fff">
   <path d="m726.19 570.89c0.34 2.77-2.54 5.33-3.89 6.95q-2.23 2.68-4.98 0.35a0.76 0.75-38.89 0 1 0.14-1.25q4.78-2.51 7.91-6.29a0.47 0.46-28.55 0 1 0.82 0.24z"/>
   <path d="m685.17 577.55q6.3 3.89 8.63 11.17a1.32 1.32-9.38 0 1-1.24 1.72c-3.82 0.06-9.3-2.86-12.39-4.77-3.1-1.91-8.17-5.5-9.83-8.94a1.32 1.32 72.73 0 1 0.99-1.87q7.55-1.19 13.84 2.69z"/>
   <path d="m725.42 578.47 0.92 3.38a0.87 0.87 1.83 0 1-1.12 1.05q-4.14-1.44-0.69-4.68a0.54 0.54-29 0 1 0.89 0.25z"/>
   <path d="m717.52 583.81a0.42 0.42 26.11 0 1-0.55 0.22l-2.76-1.22a4.61 1.18 23.8 0 1-3.74-2.94l0.06-0.15a4.61 1.18 23.8 0 1 4.7 0.79l2.75 1.21a0.42 0.42-90 0 1 0.22 0.55z"/>
   <path d="m737.71 598.07a0.48 0.47 50.12 0 1-0.05 0.67l-0.28 0.24a0.38 0.38 50.1 0 1-0.55-0.05c-1.48-1.83-3.93-2.72-5.49-4.81q-0.61-0.82-2.88-1.82a2.1 2.09 74.93 0 1-0.5-0.29l-8.86-6.43a0.93 0.92 42.73 0 1-0.06-1.45l0.27-0.23a1.45 1.44-50.02 0 1 1.66-0.15c2.09 1.22 4.43 2.43 6.38 4.26q2.27 2.14 5.32 4.18a0.36 0.36-45.8 0 1 0.1 0.1z"/>
  </g>
  <path d="m674.43 605.92a0.24 0.23 18.11 0 1-0.21-0.41q7.47-5.68 8.61-14.75a0.26 0.26 13.46 0 1 0.35-0.21l5.79 2.07a0.19 0.18 22.04 0 1 0.11 0.25q-4.52 10.11-14.65 13.05z" fill="#333"/>
  <path d="m708.91 798.99-1.2 0.11a3.96 3.29-50.26 0 0-0.7 0.13q-2.53 0.77-12.63 3.93-2.68 0.85-8.5 4.73-11.38 7.61-22.99 17.52-26.16 22.33-56.22 38.98-5.74 3.19-7.88 4.12c-6.91 3.01-12.36 6.56-19.27 9.13q-9.36 3.49-11.75 4.05-2.17 0.52-11.82 0.56a0.28218 0.28218-37.92 0 0-0.07 0.56l13.19 3.38a2.1 2.05 66.18 0 1 0.55 0.22l0.35 0.2a0.61 0.6 52.34 0 1-0.14 1.11q-15.09 4.19-30.61 2.04c-4.51-0.63-10.61-2.66-13.92-3.91a0.16 0.16 71.66 0 0-0.14 0.28q2.58 1.7 6.83 3.36 7.4 2.88 13.83 6.64a0.38 0.37 47.81 0 1-0.03 0.67c-7.14 3.29-15.84 2.97-24.13 2.49q-4.16-0.25-11.29-2.01-8.82-2.19-11.12-2.83a0.25 0.25-22.19 0 0-0.19 0.45l9.99 5.77a0.35 0.35 60.64 0 1-0.18 0.65c-11.75-0.35-22.51-5.67-32.39-11.48q-2.26-1.32-5.48-2.58-11.29-4.42-21.57-10.68c-12.6-7.66-27.93-16.98-40.13-26.1q-29.04-21.72-49.97-50.43-18.69-25.63-34.84-62.01-17.74-39.96-26.05-83.76-3.92-20.65-3.67-41.77 0.03-2.53 1.79-5.45 0.31-0.53 9.54-14.74a0.23 0.23-18.99 0 1 0.41 0.2c-1.34 3.89-3.24 13.52-0.22 17.56a2.66 2.18-29.51 0 0 3.02 0.52q1.77-0.81 3.32-3.06a0.32 0.32-27.81 0 1 0.59 0.18c0.04 10.15 7.22 20.58 14.29 27.27q2.41 2.28 5.13 0.14 3.09-2.44 6.8-4.66a0.79 0.79-38.7 0 1 0.94 0.1c6.6 6.17 16.65 11.06 22.31 14.83 8.93 5.96 18.57 10.15 29.41 15.59a3.43 3.43-86.4 0 1 1.69 1.92c2.53 7.07 6.6 12.97 11.29 19.11q6.93 9.06 16.01 15.76a0.18 0.18-23.79 0 1-0.13 0.33q-0.44-0.05-1.85-0.37c-2.55-0.58-3.78 1.69-2.42 3.59q6.32 8.84 15.6 11.67a0.41 0.41-45.85 0 1 0.01 0.78l-8.72 3.08a0.20012 0.20012 32.16 0 0 0.09 0.39q12.9-1.37 13.36-1.44 4.54-0.71 10.39-0.11a0.28 0.28-58.08 0 1 0.12 0.52q-8.49 5.29-15.58 12.37a0.28 0.28-70.66 0 0 0.23 0.48c0.5-0.05 1.61-1.15 2.43-1.41q3.72-1.17 7.33-3.21 15.12-8.54 29.09-15.66 6.21-3.17 13.46-5.55 5.28-1.74 25.47-7.74 35.87-10.68 67.29-12.78 23.17-1.55 54.87 0.17 7.52 0.41 17.39 2.18c24.24 4.33 49.51 9.59 67.43 12.79 5.18 0.93 12.24 2.48 16.94 5.36q7.86 4.81 12.26 11.07 8.24 11.68 12.71 24.88c2.37 7.01-0.63 13.68-2.53 20.38-3.59 12.68-7.19 24.33-14.57 35.48-7.81 11.8-15.47 22.91-27.03 30.9a0.35 0.35-7.93 0 1-0.53-0.4q1.9-5.56 1.75-11.18a1.04 1.03-26.37 0 0-1.84-0.62q-10.71 13.2-27.76 19.23a0.76 0.76-11.33 0 1-1.01-0.67q-0.43-7.84 1.31-15.68c1.26-5.65 1.47-8.82 6.49-10.82q11.66-4.64 15.87-6.41a0.20131 0.20131 30.95 0 0-0.1-0.39z" fill="#b08e71"/>
  <path d="m707.99 598.53-6.64-6.43q4.93 1.07 8.22 3.59 5.35 4.1 8.79 6.44c2.79 1.9 5.04 4.39 8.13 6.25a4.23 3.97-5.17 0 1 0.78 0.61q1.7 1.69 3.63 4.05a2.19 2-41.07 0 1-0.33 2.86q-1.45 1.34-3.57 1.18-12.26-0.93-31.87-1.55a3.41 3.38-21.49 0 1-2.3-0.99l-0.08-0.08a0.64 0.64 64.86 0 1 0.39-1.09q6.82-0.63 16.59-0.07c5.5 0.31 10.39 0.15 16.08 0.33a0.31 0.3-21.81 0 0 0.23-0.52q-8.22-7.98-18.05-14.58z" fill="#5d8eb2"/>
  <path d="m682.51 607.67a0.78 0.78-51.7 0 1-0.17-1.45q7.13-3.58 9.83-12.18a0.96 0.95 6 0 1 0.82-0.66q1.49-0.13 2.27-0.63a1.41 1.41-16.9 0 1 2.18 1.16c0.1 5.9-1.39 10.91-6.75 14.27a4.62 4.62 35.45 0 1-3.46 0.58z" fill="#333"/>
  <path d="m703.67 599.15a0.47 0.47-67.52 0 1 0.82-0.34l2.96 3.22a2.25 2.24 29.21 0 1 0.56 1.96l-0.59 3.02a2.93 2.92 5.5 0 1-2.87 2.36h-3.93a0.43 0.43 18.51 0 1-0.35-0.69q3.58-4.66 3.4-9.53z" fill="#333"/>
  <path d="m614.39 615.99a0.26 0.25 10.73 0 1-0.28-0.41q6.6-7.19 14.29-0.22a0.42 0.42 77.97 0 1-0.45 0.7q-6.38-2.83-13.56-0.07z"/>
  <path d="m692.38 630.94-1.48-2.17c-1.91-3.21-5.05-1.92-7.89-2.29q-8.36-1.11-12.51-7.82a1.17 1.07-66.39 0 1-0.15-0.44q-0.02-0.24-0.02-0.27a0.36 0.36 20.5 0 1 0.51-0.23l9.7 4.88a2.03 1.93 57.83 0 0 0.86 0.22q3.35 0.1 8.54 0.53c2.45 0.2 5.98 6.56 7.41 8.84 6.51 10.38 19.06 19.36 31.67 17.71q8.92-1.16 11.34-10.61a0.55 0.55-39.74 0 1 1.09 0.1q0.25 3.73-1.55 6.96c-2.5 4.52-8.62 6.63-13.66 6.6-9.84-0.05-18.85-4.73-25.65-11.62-2.69-2.73-5.38-6.85-8.21-10.39z" fill="#5d8eb2"/>
  <path d="m692.38 630.94q-4.25 8.86-6.02 18.07c-0.71 3.7 0 8.23-0.74 11.22a0.86 0.86 42.91 0 1-1.65 0.06c-1.33-4.04-0.41-10.19 0.68-14.41q2.33-9.01 6.25-17.11z" fill="#f5e9dd"/>
  <path d="m737.8 636.29a0.71 0.71-45.48 0 1-0.01-1.37q6.34-1.7 11.72 1.03t7.2 7.9a1.88 1.71 82.23 0 1-1.72 2.51q-0.71-0.07-1.47-1.06c-2.78-3.61-5.18-6.87-9.34-7.71q-6.08-1.23-6.38-1.3z" fill="#5d8eb2"/>
  <path d="m619.47 643.06q6.09-2.28 11.05 1.26a0.49 0.49 71.41 0 1-0.43 0.87q-4.42-1.4-10.49-1.42a0.37 0.37 34.67 0 1-0.13-0.71z"/>
  <path d="m952.8 785.76 39.36-19.92a2.6 2.59-22.31 0 0 1.3-3.1q-0.22-0.69-1.31-3.2c-2.34-5.37 0.19-10.63 2.91-15.14a0.75 0.75-61.39 0 0-0.31-1.06q-3.24-1.62-6.74-0.63-10.03 2.8-11.5 3.14a0.81 0.81 63.37 0 1-0.8-0.27q-1.88-2.24-2.48-2.56-11.19-5.96-77.51-41.39a9.04 8.99 64.51 0 0-2.49-0.89q-9.43-1.91-16.97-2.62-1.02-0.1-1.12-0.03a1.31 1.3-38.35 0 0-0.24 2.04q5.45 5.41 12.86 12.59 0.9 0.87 2.96 2.04 30.98 17.64 60.63 34.14 0.94 0.52 3.19 2.55a0.27 0.26-31.53 0 1-0.11 0.45l-38.46 10.49a2.91 2.87-40.93 0 1-1.87-0.12q-17.3-7.17-36.27-8.81a0.39 0.38 21.19 0 1-0.28-0.62q2.01-2.56 2.57-5.4c3.29-16.69-1.53-30.39-11.09-43.72q-5.26-7.35-12.76-12.12a0.53 0.53-49.24 0 1-0.06-0.85l30.03-25.64a0.75 0.74 43.99 0 1 0.96-0.01l90.43 73.55a0.53 0.52-57.82 0 0 0.8-0.19l0.13-0.27a1.01 1.01 32.08 0 0-0.28-1.22l-89.71-72.96a0.59 0.59-45.85 0 1-0.01-0.9l3.93-3.35a0.8 0.8-43.85 0 1 1.06 0.02q3.77 3.47 7.38 6.28 79.81 62.16 88.7 69.05c2.13 1.65 5.86 3.2 6.94 5.58q1.53 3.37 0.91 5.87-2.34 9.43-1.86 18.49a3.39 3.39-15.65 0 1-1.79 3.18l-37.7 20.14a0.37 0.36-39.16 0 1-0.41-0.04l-2.94-2.39a0.11 0.11-39.79 0 1 0.02-0.18z" fill="#5d8eb2"/>
  <path d="m740.22 678.65a0.39 0.39 76.81 0 1 0.32-0.52q15.53-1.9 29.26-9.03c4.04-2.1 6.71-4.52 10.44-7.27a0.66 0.66-11.71 0 1 1.04 0.68c-1.1 4.72-3.74 11.28-7.98 14.11q-5.5 3.67-10.07 4.22-9.99 1.21-22.34-1.74-0.56-0.13-0.67-0.45z" fill="#fff"/>
  <path d="m432.49 701.92q-23.53-13.34-35.73-38.06a0.26 0.26 34.13 0 1 0.35-0.35q36.24 17.48 69.76 30.23 5.05 1.92 13.3 5.66a0.3 0.3-42 0 1-0.03 0.55q-12.18 4.21-23.37 11.12a4.08 4.01 22.3 0 1-1.25 0.51c-12.7 2.79-28.91 0.07-36.86-11.51a0.23 0.23 77.67 0 1 0.23-0.36l13.44 2.63a0.23 0.23-24.34 0 0 0.16-0.42z" fill="#f5e9dd"/>
  <path d="m683.72 686.94a0.46 0.46-23.59 0 1-0.33 0.84l-25.71-5.01a0.39 0.38 29.17 0 1-0.19-0.66l1.96-1.84a2.06 1.93-7.52 0 0 0.37-0.45q2.4-4 3.3-9.42a0.62 0.62 26.35 0 1 1.04-0.35q6.76 6.34 14.1 12.68 3.45 2.98 5.46 4.21z" fill="#333"/>
  <path d="m784.16 752.6a0.14 0.14 59.14 0 1-0.12-0.24l68.61-58.59a0.67 0.67-11.98 0 1 0.86 0q11.13 9.4 17.95 22.85c4.57 9.01 6.08 18.89 4.58 28.66q-0.42 2.77-3.78 7.44a0.96 0.94-70.9 0 1-0.81 0.4q-14.33-0.45-28.83 2.64a0.39 0.39-13.83 0 1-0.45-0.27v-0.01a0.42 0.41-20.67 0 1 0.23-0.5c3.96-1.68 12.02-4.44 7.74-9.18q-1.48-1.63-4.92-1.98-29.17-2.93-56.31 7.09-4.24 1.56-4.75 1.69z" fill="#b08e71"/>
  <path d="m890.38 709.52-3.77-0.43a1.42 1.42-67.2 0 1-0.81-0.39l-4.81-4.81a1.96 1.96-19.51 0 1 1.59-3.33q1.54 0.16 6.95 1.17 1.09 0.2 3.03 2.1a0.37 0.37-19.62 0 1-0.3 0.63l-4.22-0.49a0.79 0.79-17.08 0 0-0.69 1.3l3.26 3.81a0.27 0.26 73 0 1-0.23 0.44z" fill="#f5e9dd"/>
  <path d="m890.16 705.58h4.3a0.51 0.51 70.15 0 0 0.39-0.84l-1.35-1.65a0.54 0.53-5.51 0 1 0.67-0.81l63.14 34a0.37 0.37-7.28 0 1 0.03 0.63q-5.18 3.48-5.56 9.41a0.85 0.85-73.14 0 1-1.27 0.68l-61.1-35.28a0.37 0.37 65.3 0 1 0.25-0.68q1.53 0.29 2.61-0.36a0.68 0.68 55.88 0 0 0.19-0.99q-2.19-2.9-2.62-3.51a0.39 0.38-17.29 0 1 0.32-0.6z" fill="#5a463a"/>
  <path d="m948.9 736.34a0.27 0.27 0 0 1-0.36 0.11l-48.78-26.81a0.27 0.27 0 0 1-0.1-0.37l0.02-0.03a0.27 0.27 0 0 1 0.36-0.11l48.78 26.81a0.27 0.27 0 0 1 0.1 0.37z"/>
  <path d="m922.14 726.65q11.93 6.55 23.84 13.15 0.55 0.31 0.43 0.52-0.12 0.22-0.68-0.08-11.95-6.51-23.88-13.06-11.93-6.56-23.84-13.15-0.56-0.31-0.44-0.53t0.68 0.09q11.96 6.51 23.89 13.06z"/>
  <path d="m956.45 748.38a0.73 0.73 19.69 0 1-1.17 0.55l-0.31-0.24a2.89 2.88 20.61 0 1-1.13-2.48q0.31-4.9 4.43-7.8a2.78 2.77-51.15 0 1 2.68-0.29l0.91 0.39a0.76 0.76 40.84 0 1 0.1 1.35q-5.31 3.2-5.51 8.52z" fill="#b08e71"/>
  <path d="m971.36 753.83a3.98 3.98 0 0 1-5.49 1.26l-6.01-3.77a3.98 3.98 0 0 1-1.26-5.49l2.2-3.5a3.98 3.98 0 0 1 5.49-1.26l6.01 3.77a3.98 3.98 0 0 1 1.26 5.49z" fill="#ae566f"/>
  <path d="m971.1 745.71a0.19 0.18-74.55 0 1 0.18 0.32q-4.61 3.45-4.42 7.58a0.55 0.54-1.01 0 1-0.55 0.56h-0.07a0.46 0.46-87.08 0 1-0.45-0.5q0.53-5.98 5.31-7.96z"/>
  <path d="m931.13 770.63a0.29 0.28 53.21 0 1 0.07-0.52l28.5-7.77a0.95 0.95 82.39 0 0 0.67-1.17l-0.09-0.33a0.63 0.63-45 0 0-0.78-0.44l-30.47 8.31a3 2.97 53.31 0 1-2.39-0.36l-2.34-1.47a0.7 0.7-36.54 0 1 0.19-1.27l36.82-10.04a0.98 0.96-40.88 0 1 0.66 0.04c4.04 1.74 7.05 3.02 11.02 0.16a1.56 1.45-4.96 0 0 0.39-0.43l1.87-3.23a1.77 1.74 7.02 0 1 1.07-0.82l12.08-3.3a0.29 0.29-5.08 0 1 0.36 0.3l-0.43 6.97a0.54 0.54-62.54 0 1-0.36 0.48l-41.84 14.77a1.01 1 72.75 0 0-0.63 1.21l0.1 0.38a0.55 0.55 72.5 0 0 0.71 0.37l41.84-14.77a0.16 0.15 70.5 0 1 0.2 0.1l1.45 4.11a0.45 0.44-23.7 0 1-0.22 0.55l-40.09 20.17a0.17 0.16 46.79 0 1-0.16-0.01l-3.09-1.94a0.22 0.22 48.45 0 1 0.02-0.39l19.42-9.13a0.83 0.83-25.81 0 0 0.39-1.12l-0.15-0.29a0.68 0.67-25.59 0 0-0.89-0.31l-20.2 9.49a0.58 0.58-41.62 0 1-0.56-0.03z" fill="#fff"/>
  <path d="m756.55 1013.6 0.04-0.01a2.32 2.32-38.19 0 1 1.95 0.23q10.44 6.44 20.27 7.39 15.06 1.45 30.45-1.94 4.13-0.91 10.07-3.9 9.79-4.94 17.78-12.25a1.06 1.06 32.61 0 1 1.06-0.23c4.72 1.55 8.95-1.15 7.7-6.26a0.82 0.81 68.81 0 1 0.4-0.91q4.96-2.62 10.21-8.71 7.3-8.47 11.28-15.95a1.5 1.47-82.61 0 1 0.93-0.73c2.17-0.55 4.52-1.03 5.61-3.26a2.04 2-34.98 0 0 0.2-1.07q-0.31-4.24-2.21-9a1.09 1.09 50.24 0 1 0.09-1.01q3.78-6.02 5.45-12.45a1.11 1.1-4.01 0 1 0.64-0.73c2.15-0.89 4.15-1.46 4.37-4.2 0.25-3.15-0.12-6.36-1.56-9.18-2.01-3.96-2.92-8.47-5.29-12.49q-4.51-7.63-10.69-14.2a1.53 1.52 37.36 0 1-0.24-1.77c2.45-4.6-2.39-10.36-5.75-13.42a6.57 6.29 5.11 0 1-1.03-1.18c-0.68-1.02-1.13-2.22-2.14-3.33q-6.61-7.3-15.51-9.86-16.7-4.8-33.73-3.66-6.26 0.42-10.43 2.09c-5.85 2.36-10.43 7.95-14.59 12.57-4.65 5.18-9.27 7.73-15.82 8.22q-14.71 1.09-44.44 1.54a1.13 1.11-32.96 0 1-0.44-0.09l-12.82-5.43a0.16 0.16 41.64 0 1-0.02-0.29q3.48-1.92 7.79-5.46c4.81-3.94 11.27-12.61 9.35-19.32a0.46 0.46-38.74 0 0-0.57-0.31q-11.29 3.41-23.07 3.16a0.32 0.32 17.24 0 1-0.26-0.49q1.64-2.49 2.35-3.23c15.26-16.02 28.91-32.44 37.67-51.83q6.23-13.79 11.94-29.91a10.17 10.16 74.73 0 1 1.78-3.12q6.59-7.84 16.64-14.24 4.32-2.75 8.77-4.02 0.9-0.26 6.04-2.37c16.33-6.72 35.54-9.08 53.73-8.23q1.31 0.06 1.93 0.27a0.37 0.37 42.64 0 1 0.03 0.69c-13.97 6.01-26.73 14.41-39.58 22.76a0.29 0.29-38.53 0 0-0.05 0.44l0.18 0.2a0.1 0.09-34.61 0 0 0.12 0.02c14.95-7.97 31.28-11.25 48.11-13.36q33.09-4.15 63.72 9.55 20.21 9.04 35.98 22.95c13.98 12.32 25.34 25.54 34.85 41.74a0.29 0.29-11.08 0 1-0.29 0.43q-16.69-2.5-33.92-2.48a0.17 0.16-19.85 0 0-0.13 0.27q0.27 0.31 0.9 0.47 16.23 4.08 30.53 12.31c7.02 4.04 12.6 8.84 16.79 15.31a0.92 0.91-21.55 0 1-0.61 1.4c-15.42 2.7-29.66 7.35-42.01 17.42a0.19 0.19-71.06 0 0 0.16 0.33c6.02-1.5 16.38-4.35 22.01-1.7a0.4 0.4 35.71 0 1 0.11 0.65q-1.36 1.29-2.47 1.96c-19.28 11.68-35.94 25.61-50.35 42.48-7.23 8.46-11.38 12.7-15.74 19.7q-7.65 12.28-11.86 18.62-9.1 13.69-21.82 26.16-21.16 20.75-46.75 37.29c-18.77 12.14-38.35 20.53-59.46 26.83a0.83 0.83-28.79 0 1-0.86-0.25q-11.51-13.19-28.71-17.92a0.19 0.19 48.32 0 1 0.02-0.37c9.59-1.33 20.05-3.2 28.04-8a1.07 1.07 40.85 0 0-0.14-1.91q-5.44-2.27-12.88-8.33a0.63 0.63-34.79 0 1 0.2-1.09z" fill="#f5e9dd"/>
  <path d="m514.75 1045.9a0.3 0.3 27.89 0 0-0.4 0.12l-0.03 0.04a0.22 0.22 31.23 0 0 0.07 0.28l9.43 6.33a0.53 0.53-31.19 0 1-0.24 0.97q-4.04 0.43-7.09 0.09-28.41-3.11-54.53-14.77-19.93-8.89-38.38-24.72c-8.9-7.63-15.95-16.71-23.26-25.76a0.21 0.21-77.84 0 0-0.35 0.23q4.06 8.34 8.7 15.85 0.58 0.93 0.27 1.79a1.18 1.04 21.67 0 1-1.54 0.55q-4.73-2.03-9.36-5.98c-16.26-13.88-27.54-30.41-36.47-49.85a0.17 0.16-64.27 0 0-0.31 0.11l4.13 17.92a0.85 0.85 7.04 0 1-1.22 0.95q-2.1-1.07-3.43-2.85-18.95-25.53-23.24-57.24-3.64-26.91 1.72-54.67a0.26 0.26-17.66 0 0-0.45-0.23c-1.27 1.34-2.12 3.15-3.46 4.49q-7.34 7.36-17.12 10.55a0.74 0.74 6.73 0 1-0.86-1.09c11.53-18.74 19.4-38.85 21.83-60.28q1.85-16.29 0.8-30.84a0.36 0.36-60.83 0 1 0.67-0.19c1.98 3.77 3.65 9.05 6.15 13.18q12.48 20.62 29.19 37.16 11.08 10.96 24.74 22.03 7.46 6.04 23.75 16.45 14.66 9.37 24.63 15.36 6.38 3.83 18.49 8.08a11.03 11.02-19.55 0 1 2.04 0.97q4.62 2.82 5.51 3.36 15.53 9.3 33.34 9.89 2.84 0.1 5.51-2.19a1.42 1.41-61.79 0 1 1.08-0.33q13.98 1.5 27.25-0.56c3.1-0.49 10.52-1.54 7.93-6.23a0.54 0.53 75.67 0 1 0.47-0.8q9.73 0.14 17.45-2.47c3.11-1.05 5.61-1.79 6.46-5.22a2.27 2.27-5.7 0 1 1.23-1.5l13.12-6.16a0.43 0.43-17.61 0 1 0.6 0.31c1.94 10.51-2.59 18.99-8.64 27.59q-3.97 5.65-8.31 13.4-4.36 7.77-5.74 14.61-3.34 16.56 2.16 31.27c1.06 2.81 4.96 9.92 8.81 9.12a0.95 0.95-24.14 0 1 0.95 0.36q5.91 8.03 15.96 9.25 3.24 0.39 4.05-2.17a0.52 0.51-64.46 0 1 0.77-0.28q1.46 0.95 7.18 0.49 3.64-0.3 4.42-3a0.6 0.59 13.5 0 1 0.68-0.41c21.08 4.3 38.94 7.9 58.49 13.34a3.55 3.54 75.84 0 1 1.57 0.94q5.86 6.16 15.99 11.54 9.85 5.24 18.48 8.86a0.35 0.34 37.97 0 1 0.08 0.6c-9.99 7.39-22.27 11.37-34.37 13.07a1.19 1.17-11.38 0 0-0.98 1.46q1.15 4.38 4.92 7.39 12.17 9.72 27.37 14.69a0.34 0.34 37.54 0 1 0.08 0.61c-4.29 2.69-8.95 6.15-14.08 8.28q-11.36 4.72-20.69 5.57c-32.94 3.01-66.24-1.83-100.03-9.8q-15.22-3.6-30.45-9.96-0.41-0.17-0.36 0.21a0.23 0.18-77.61 0 0 0.07 0.14l10.66 8.66a0.39 0.39 64.96 0 1-0.25 0.69c-11.25-0.15-23.53-4.73-33.61-9.65z" fill="#b08e71"/>
  <path d="m764.12 976.13c2.33-7.29 3.64-17 10.95-21.28q2.75-1.61 8.43-2.33 11.02-1.39 22.81 3.18c10.18 3.96 19.22 8.73 26.2 16.64q1.83 2.08 2.61 4.37a0.29 0.28-80.56 0 1-0.44 0.32c-4.88-3.81-11.91-7.29-18.3-6.4-6.3 0.88-4.82 7.31-3.26 11.51q2.76 7.39 8.29 12.69a0.64 0.64 40.27 0 1 0.07 0.84q-9.42 12.89-24.96 19.32-9.71 4.01-18.67 2.39-11.43-2.06-20.88-10.05a0.45 0.45 42.23 0 0-0.63 0.03l-0.18 0.18a0.11 0.1 51.42 0 0-0.01 0.14l1.33 1.91a0.41 0.41-21.72 0 1-0.28 0.64q-3.55 0.58-5.2 0.32c-7.48-1.14-17.27-3.33-25.31-5.74q-18.99-5.69-46.3-13.4-7.22-2.04-11.75-3.03-11.13-2.43-11.84-2.6-20.14-5.01-44.08-8.92-4.95-0.81-8.83-3.72a0.3 0.29-88.44 0 0-0.42 0.4l2.86 4.35a0.47 0.47 64.81 0 1-0.25 0.71c-4.16 1.23-11.88-2.93-15.29-5.17a0.28 0.28 0.3 0 0-0.39 0.38l4.69 7.12a0.43 0.42-4.5 0 1-0.53 0.62c-8.02-3.56-15.03-8.08-18.28-16.73a0.27 0.27 74.39 0 0-0.3-0.17l-0.33 0.06a0.07 0.07 37.66 0 0-0.06 0.08l0.92 5.11a0.68 0.68-78.52 0 1-1.04 0.69c-1.38-0.92-1.77-2.04-2.52-3.41q-4.84-8.89-4.2-17.9c0.9-12.69 4.71-23.8 12.21-33.77q3.44-4.57 6.16-8.36c2.86-3.97 6.81-11.05 7.1-16.65q0.39-7.35 0.37-13.75a1.51 1.49-13.74 0 1 0.82-1.33q10.83-5.52 22.75-13.28 20.98-13.65 35.42-24.33 10.46-7.75 30.06-25.17 0.82-0.72 1.95-1.23a0.33 0.33-8.33 0 1 0.46 0.34q-0.26 2.09-0.6 3.02-3.4 9.09-2.15 19.17a1.04 1.03-12.44 0 0 1.35 0.86q8.53-2.77 16.78-7.64 6.71-3.96 12.51-11.37a0.35 0.35 66.69 0 1 0.62 0.25q-0.66 7.39-4.32 13.51a0.31 0.31-86.62 0 0 0.39 0.44q7.08-3.13 13.07-9.04 10.95-10.79 18.73-23.66a0.17 0.1 22.92 0 1 0.19-0.02q0.02 0.01 0.04 0.01a0.04 0.04-73.15 0 1 0.03 0.06c-2.12 5.04-4.11 10.73-6.55 15.38q-8.81 16.8-20.36 30.33-12.67 14.85-34.47 38.71-9.6 10.5-12.71 24.2a0.37 0.37 67.65 0 0 0.67 0.28l4.08-6.49a0.86 0.86 26.91 0 1 1.05-0.34q4.59 1.87 9.1 1.78 18.12-0.35 18.5-0.37 19.41-0.83 38.75-1.32 10.74-0.27 29.11-3.65 2.33-0.42 4.35-0.4 2.49 0.04 3.67-0.41a2.05 2-83.9 0 0 0.98-0.81c6.05-9.49 16.51-19.79 28.37-20.81q13.68-1.18 27.59 1.97 2.99 0.68 5.44 2.05a0.42 0.42 62.25 0 1-0.24 0.78c-2.87-0.26-9.64-0.97-11.15 2.44q-0.95 2.12 1.42 4.83a0.4 0.4-16.41 0 1-0.36 0.66c-9.58-1.41-18.24-2.52-27.16-1.35-9.05 1.19-14.54 4.84-19.24 12.25q-0.56 0.88-4.58 8.14-0.79 1.42-3.21 1.58c-3.1 0.21-5.3 0.55-7.42 0.35q-3.81-0.36-11.95-0.33c-2.74 0.01-5.58-0.81-8.3-1.01a0.15 0.15 55.09 0 0-0.05 0.29q14.26 4.07 28.48 2.22a0.45 0.44 5.11 0 1 0.48 0.57l-1.64 5.32a0.62 0.62-19.84 0 0 1.11 0.52q4.25-6.47 5.43-8.81c3.52-6.95 9.69-14.47 17.52-16.26 14.16-3.23 28.46-0.22 42.47 4.23 9.58 3.04 19.89 6.15 22.1 16.66a0.49 0.48 6.34 0 1-0.68 0.54c-5.04-2.34-16.86-5.26-19.41 1.95-0.77 2.2 0.72 5.26 1.86 7.11a0.33 0.33 84.84 0 1-0.4 0.48q-10.71-4.18-24.57-7.85c-12.11-3.22-34.03-4.14-43.91 6.4a2.27 2.22 80 0 0-0.35 0.51l-2.91 6.11a1.11 1.09-81.73 0 1-0.83 0.63c-11.36 1.88-22.24 0.83-33.56 0.21a0.13 0.13 44.97 0 0-0.14 0.12 0.13 0.12-82.67 0 0 0.1 0.14c10.79 1.84 21.58 3.63 32.34 2.11a0.32 0.32 1.88 0 1 0.36 0.38l-2.32 10.57a0.1 0.08-65.3 0 0 0.02 0.08l0.26 0.23a0.27 0.27 28.42 0 0 0.45-0.13q1.05-4.04 1.82-6.05c2.35-6.15 6.42-13.21 12.54-15.91q9.85-4.34 21.38-3.46 15.53 1.18 30.4 7.33c6.52 2.69 12.52 6.52 17.27 10.07q4.96 3.7 8.67 8.12a0.23 0.23-1.99 0 1-0.31 0.33q-7.41-5.35-16.53-6.55-2.26-0.3-7.22 0.6-4.08 0.75-4.97 5.85a2.44 2.34-51.99 0 0 0.13 1.27q3 7.7 9.48 13.14 5.93 4.99 11.48 8.08a0.47 0.47 35.85 0 1 0.12 0.72q-6.4 6.97-14.67 11.06a1.12 1.11-31.04 0 1-1.4-0.34q-14.64-20.09-39.55-24.72c-8.16-1.52-19.41-1.23-26.88 2.48-1.55 0.77-2.26 2.19-3.49 3.38a1.32 1.27-67.51 0 1-0.85 0.37q-8.38 0.32-14.73-0.78-4.71-0.82-9.57-1.48a0.07 0.07-29.43 0 0-0.04 0.13q11.89 4.39 23.3 3.84a0.65 0.65 10.41 0 1 0.63 0.91q-3.63 8.44-3.17 17.63z" fill="#5a463a"/>
  <path d="m677.77 893.92q2.22-3.6 5.22-7.18 6.99-8.36 16.5-18.86a1.02 1.01-67.93 0 1 0.8-0.34q12.69 0.53 23.37-3.24a1.13 1.12 86.14 0 1 1.47 1.29q-2.03 9.85-9.61 15.94-4.83 3.88-8.89 6.44a0.49 0.49-49.75 0 0 0.07 0.86l10.73 4.54a0.45 0.45-33.36 0 1-0.18 0.86h-39.3a0.21 0.2 15.45 0 1-0.18-0.31z" fill="#5a463a"/>
  <path d="m860.69 896.37q-1.11 0.65-2.57 0.01-1.79-0.79-9.87-5.14-3.22-1.74-12.06-3.95c-3.17-0.79-4.72-2.01-5.91-4.78a1.5 1.49 66.29 0 1 0.76-1.96q3.67-1.66 7.68-0.5c8.79 2.56 18.04 6.42 22.35 15.03a0.98 0.97 61.64 0 1-0.38 1.29z" fill="#fff"/>
  <path d="m869.97 913.82a0.14 0.14-9.71 0 1-0.01 0.2l-0.03 0.03a2.79 1.38 47.9 0 1-2.89-1.15l-0.26-0.28a2.79 1.38 47.9 0 1-0.84-2.99l0.03-0.03a0.14 0.14-1.98 0 1 0.19 0.01z" fill="#333"/>
  <path d="m879.72 938.54a1.36 1.36 16.61 0 1-1.91 1.03q-3.08-1.42-11.31-6.1c-5.39-3.07-10.22-7.16-15.36-10.2-3.87-2.28-9.18-12.69 0.15-13.14 6.21-0.29 10.37 2.64 15.27 6.08 6.37 4.47 14.44 13.78 13.16 22.33z" fill="#fff"/>
  <path d="m601.97 925.9a0.1 0.1-36.94 0 1-0.14 0.01l-0.01-0.01a6.09 2.01-48.5 0 1 2.53-5.89l0.21-0.24a6.09 2.01-48.5 0 1 5.54-3.23l0.01 0.01a0.1 0.1 83.29 0 1 0.01 0.14z"/>
  <path d="m937.38 936.3q0.65 1.6 1.37 2.45c5.59 6.62 10.83 12.96 17.82 17.84a0.48 0.48 39.73 0 1 0.07 0.74l-4.91 4.91a0.25 0.24-45.8 0 0 0 0.35l0.24 0.24a0.23 0.23 42.61 0 0 0.34-0.01q1.22-1.39 4.02-3.2 10.62-6.83 23.69-10.62 10.08-2.93 20.22-0.25 2.65 0.71 5.47 2.8 13.42 9.96 22.97 23.08a0.38 0.38 77.41 0 1-0.38 0.6c-9.13-1.74-13.14 2.89-9.93 11.47 3.14 8.37 9.8 14.82 16.09 21.18a1.12 1.11-44.46 0 1-0.02 1.59q-12.32 11.87-30.12 12.12a1.37 1.37 80.28 0 1-1.31-0.93q-1.47-4.34-3.82-8.43a9.48 9.27 22.12 0 1-0.84-1.93q-1.24-4.14-1.64-4.97-8.29-17.28-24.5-26.48c-5.07-2.88-11.99-5.23-17.71-3.88q-4.05 0.96-8.22 2.74a2.45 2.42-46 0 1-1.85 0.04q-7.33-2.79-13.33-7.34a0.25 0.25-87.03 0 0-0.36 0.33c2.37 4.04 7.03 6.26 11.1 8.09a0.61 0.6-52.43 0 1 0.13 1.02l-8.92 7.31a0.12 0.11-43.21 0 0-0.01 0.16l0.19 0.23a0.37 0.36-31.72 0 0 0.45 0.1q2.6-1.39 5.42-3.45c4.15-3.05 8.44-4.45 12.72-6.14q3.66-1.45 6.93-1.03c14.54 1.89 27.18 14.79 34.09 27.26a0.38 0.37-87.1 0 1-0.54 0.49c-3.66-2.55-11.49-5.4-14.89-0.7-4.38 6.06 1.66 15.26 6.31 19.38a0.89 0.89-41.56 0 1-0.09 1.4c-13.29 9.13-29.79 14.8-46.07 14.26-10.48-0.35-17.97-10.79-22.2-19.28a0.28 0.28 26.8 0 0-0.52 0.17q1.02 5.77 4.53 11a0.61 0.61-19.7 0 1-0.45 0.95c-8.56 0.8-13.93-1.65-20.9-7.55q-13.49-11.41-24.1-21.13a0.33 0.33-46.72 0 1-0.01-0.48q16.92-17.07 30.68-37.7 8.51-12.76 18.6-26.66 2.84-3.92 7.2-8.15c3.46-3.35 5.32-5.89 8.41-9.23a0.67 0.67-43.2 0 1 1.02 0.03q7.42 9.22 17.26 14.84c3.78 2.15 7.7 6.77 12.4 4.34 8.95-4.62 18.73-11.8 27.56-4.73a0.25 0.25 61.2 0 1-0.13 0.45q-1.55 0.14-6.65 0.49-3.89 0.26-10.63 2.68-3.97 1.42-14.47 6.36a1.7 1.61 36.22 0 1-1.02 0.13q-1.41-0.28-3.25-1.52-8.16-5.5-14.89-11.99a0.22 0.21 44.11 0 0-0.31 0l-0.22 0.21a0.01 0.01 90 0 0 0 0.02q5.1 5.76 8.07 7.96c5.03 3.73 8.01 6.62 11.01 7.09a2.13 2.08-53.56 0 0 1.3-0.21q6.78-3.49 16.72-6.31c9.9-2.81 19.7-5.24 28.11 1.95q11.28 9.66 19.21 21.31a0.73 0.72-43.82 0 1-0.02 0.83q-1.09 1.51-1.64 3.6a0.2 0.2-57.66 0 1-0.35 0.08q-8.51-10.35-18.95-18.11c-3.79-2.82-9.95-6.71-14.92-6.51q-4.8 0.19-10.74 1.72-11.25 2.89-21.13 8.27a3.14 3.13 33.63 0 1-1.86 0.37c-6.25-0.67-11-4.89-15.24-9.44q-6-6.45-6.51-7.28-0.45-0.75-0.99-1.48a0.091788 0.091788-74.15 0 0-0.16 0.09z" fill="#5a463a"/>
  <path d="m607.83 923.14a3.42 0.7-52.9 0 1-1.5 3.15 3.42 0.7-52.9 0 1-2.62 2.31 3.42 0.7-52.9 0 1 1.5-3.15 3.42 0.7-52.9 0 1 2.62-2.31z"/>
  <path d="m621.83 940.9c-6.16 2.9-17.23 1.16-15.14-8.34a0.21 0.21-47.75 0 1 0.41-0.02q2.35 7.06 10.19 7.6 2.17 0.15 4.45 0.29a0.25 0.25 34.28 0 1 0.09 0.47z"/>
  <path d="m871.48 964.88a2.06 2.06 13.69 0 1-2.67 1.62q-13.78-4.43-25.19-14.12c-3-2.55-13.47-13.25-5.1-15.95 5.19-1.68 10.74-0.7 15.67 2.04q12.8 7.1 16.92 22.44 0.64 2.37 0.37 3.97z" fill="#fff"/>
  <path d="m871.58 951.81a0.37 0.37-36.75 0 1-0.7-0.1q-1.57-8.41-4.7-14.99a0.31 0.31 9.03 0 1 0.5-0.36q4.4 4.16 8.5 5.96a1.06 1.06 25.31 0 1 0.52 1.45z" fill="#333"/>
  <path d="m855.35 964.88a1.18 1.18-57.11 0 1 1.49-0.32l7.93 4.27a1.09 1.08-60.79 0 1 0.42 1.5c-3.99 6.9-11.2 13.45-17.63 18.24q-0.92 0.68-1.87 1.03a0.72 0.72 0 0 1-0.92-0.44l-4.32-12.22a0.43 0.42 68.09 0 1 0.22-0.53q9.25-4.4 14.68-11.53z" fill="#333"/>
  <g fill="#fff">
   <path d="m1051.9 994.34a0.23087 0.23087-62.5 0 1-0.44 0.14q-5.75-11.71-16.69-17.28a3.14 3.08-6.49 0 1-1.01-0.79q-2.98-3.5-3.17-8.15a1.6 1.6 81.71 0 1 1.2-1.61c3.37-0.87 9.84 5.63 12.28 8.5 4.58 5.39 6.78 12.33 7.83 19.19z"/>
   <path d="m841.5 1000.9q-1.01 0.24-2.92-0.41-0.32-0.11-7.6-3.08c-7.46-3.05-12.89-8.7-15.97-15.67q-0.59-1.34-1.23-4.78c-1.29-6.98 8.4-4.86 11.78-3.33q15.51 7.03 18.09 23.94a2.98 2.85 79.16 0 1-2.15 3.33z"/>
   <path d="m1051.2 1012.4a1.28 1.28-76.08 0 1-1.49 0.9q-6.5-1.31-11.57-5.41c-7.28-5.87-15.75-15.38-17.98-24.57-1.68-6.92 6.47-5.83 10.32-4.51 11.43 3.9 18.91 14.82 21.08 26.68q0.64 3.45-0.36 6.91z"/>
  </g>
  <path d="m677.99 1066q1.24-0.48 6.69-2.15c6.98-2.14 13.22-5.89 18.87-10.61q0.89-0.75 1.56-1.64a0.9 0.9 28.59 0 0-0.41-1.39c-10.08-3.69-20.87-9.37-28.12-15.45q-2.54-2.13-3.82-4.88a0.52 0.52 72.52 0 1 0.38-0.73c5.57-1.01 12.89-2.2 18.21-4.22q9.86-3.73 18.06-10.3a0.5 0.49-52.1 0 0-0.1-0.83q-6.43-2.99-18.7-8.96-9.45-4.6-15.16-9.49-0.58-0.5-0.85-1.07a0.37 0.36 83.58 0 1 0.41-0.52q26.24 6.06 49.35 14.02c10.61 3.66 19.96 5.64 29.62 6.1a1.19 1.18-16.13 0 1 0.9 0.49c2.77 3.91 8.72 7.2 12.92 9.29a0.44 0.44-44.46 0 1-0.01 0.79q-3.63 1.77-8.05 2.99-12.37 3.43-24.69 4.47a0.38 0.38-39.2 0 0-0.08 0.74c12.4 3.59 23.39 8.71 32.01 18.48a0.97 0.97 61.58 0 1-0.47 1.58q-13.88 3.8-25.13 6.35-10.95 2.48-25.6 4.3-17.96 2.23-37.63 3.36a0.37 0.37 32.55 0 1-0.16-0.72z" fill="#5a463a"/>
  <path d="m795.34 1016.9q16.12-5.85 27.41-19.6a1.36 1.35 31.18 0 1 1.57-0.38l9.39 3.97a0.6 0.6 34.75 0 1 0.18 0.99q-11.26 10.7-27.65 14.35-6.96 1.55-10.85 1.12a0.23 0.23-51.6 0 1-0.05-0.45z" fill="#333"/>
  <path d="m1000.1 1032.6c-2.96 0.45-10.12-6.04-14.12-9.43q-5.63-4.76-7.72-11.64c-1.81-5.93 2.61-10.06 8.23-6.74q11.66 6.88 15.51 20.23 0.78 2.69 0.09 5.61a2.64 2.35-86.43 0 1-1.99 1.97z" fill="#fff"/>
  <path d="m1004.1 1034.4a0.49 0.49-82.66 0 1-0.5-0.65c1.22-3.27 0.68-5.67 0.54-8.96a0.63 0.62 82.92 0 1 0.49-0.64c7.28-1.55 13.21-2.57 19.17-4.82 4.66-1.76 8.63-5.44 11.96-8.88a1.01 1 37.91 0 1 1.25-0.15l7.16 4.51a0.87 0.87-52.85 0 1 0.18 1.32q-8.98 9.84-21.04 14.12-9.31 3.29-19.21 4.15z" fill="#333"/>
  <path d="m994.23 1033.2q-9.36 7.27-17.5 9.49-17.65 4.83-35.1-1.32a0.51 0.51 54.19 0 1 0.16-0.99c15.3-0.22 30.75-5.84 43.28-14.48a0.77 0.77 46.76 0 1 0.92 0.03l8.25 6.71a0.36 0.36-44.49 0 1-0.01 0.56z" fill="#333"/>
 </g>
</svg>
