<svg width="512" height="512" version="1.1" viewBox="0 0 512 512" xmlns="http://www.w3.org/2000/svg">
 <g transform="matrix(.42641 0 0 .42641 .4674 .59017)">
  <path d="m972.16 102.29q16.55 3.24 22.35 3.49c16.11 0.69 29.18-6.54 42.95-14.83q5.51-3.32 14.25-4.56a2.26 2.22 49.89 0 1 1.06 0.1q9.68 3.33 8.16 14.69c-2.75 20.52-12.3 40.02-24.53 56.33-3.98 5.31-7.18 7.93-13 13.59a0.33 0.33 23.67 0 0 0.22 0.56q7.63 0.2 14.72 1.77 9.96 2.2 14.92 11.04c8.86 15.81 10.29 36.25 6.73 53.49-2.78 13.47-7.74 26.7-15.63 37.79-3.06 4.31-5.02 7.88-8.04 11.17q-12.24 13.33-21.39 19.57c-26.41 18-58 21.35-88.41 11.8a0.72 0.7 23.33 0 0-0.83 0.32c-6.11 10.56-14.74 16.99-24.65 25.78a0.28 0.28 28.11 0 0 0.15 0.49c5.95 0.91 13.28 4.47 15.82 10.31q2.41 5.54 2.45 11.8 0.02 3.96 0.39 17.88a0.64 0.63 3.81 0 0 0.54 0.61q17.89 2.85 28.87 5.24 20.04 4.36 39.61 12.41 53.75 22.09 98.74 56.76 19.7 15.18 38.58 36.67 6.7 7.63 8.49 10.5c0.98 1.58 2.29 2.4 3.06 3.94a2.6 2.59 1.71 0 0 1.03 1.09q7.11 4.2 11.78 9.61c2.95 3.43 2.43 7.21 0.64 11.52-1.89 4.55-4.82 11.54-10.67 10.47a0.42 0.42-12.2 0 0-0.42 0.65q2.51 3.76 1.2 6.97-2.25 5.52-5.68 10.26a0.9 0.9-51.23 0 0 0.13 1.2q4.68 4.17 9.8 8.38c10.75 8.83 18.72 20.35 25.45 33.08 6.3 11.89 11.6 26.01 11.03 39.07-0.51 11.86-4.01 20.87-10.46 31.02q-11.46 18.02-29.13 31.98c-8.19 6.47-19.18 10.97-28.3 16.17q-2.95 1.68-12.76 5.88c-20.14 8.61-37.02 15.04-57.84 23.52q-157.63 64.12-190.8 77.59c-7.34 2.98-10.34 8.38-12.72 15.66-39.61 121.02-60.78 184.82-73.29 224.45q-4.07 12.88-10.32 30.9-3.27 9.43-6.6 16.54c-3.55 7.57-6.05 14.97-10.19 21.48q-9.94 15.63-24.97 28.68c-8 6.94-18.33 13.95-27.86 16.2-7.61 1.8-14.26 2.51-22.42 1.26q-15.77-2.43-32.24-10.74c-10.05-5.07-19.23-10.43-26.37-17.83-9.49-9.83-17.15-16.98-25.54-27.35q-4.29-5.32-12.31-15.34-12.92-16.15-63.58-78.77a0.69 0.68-31.13 0 0-0.82-0.2q-4.24 1.92-9.23 3.88-17.94 7.02-36.52 6.59-10.39-0.25-20.22-1.37a1.93 1.93 19.93 0 0-1.82 0.85q-3.06 4.6-8.35 5.45c-6.66 1.07-10.71-3.04-12.66-8.92a4.08 3.96-73.49 0 0-0.56-1.07q-1.78-2.39-3.08-5.59a0.59 0.59 70.86 0 0-0.7-0.34q-15.89 4.18-31.02-1.52a0.67 0.66 34.84 0 0-0.65 0.11q-6.05 4.95-11.52 2.01c-6.53-3.5-8.74-13.14-8.7-20.57a1.06 1.04-68.49 0 0-0.34-0.8l-3.2-2.93a0.65 0.65 49.56 0 0-0.92 0.04c-4.97 5.38-11.08 2.32-14.15-3.08-7.29-12.84-4.57-30.32 2.1-43.08a2.68 2.55-27.6 0 0 0.28-0.82q0.63-3.47-0.05-6.33-0.86-3.62-1.02-5.84c-0.93-12.77 2.84-28.48 14.01-36.06a0.22 0.22 27.49 0 0-0.13-0.41q-40.18 0.51-189.56 3.22-4.81 0.09-9.51 0.15-16.31 0.21-25.63 0.3-10.13 0.1-18.17-0.63-12.84-1.16-18.17-1.55-6.13-0.45-15.14-3.24c-15.84-4.92-31.34-12.69-43.83-23.72-7.55-6.66-13.89-16.71-16.07-25.78-4.42-18.36-2.64-38.38 2.19-56.83q1.87-7.15 7.17-17.65 8.68-17.2 10.57-20.47c8.71-15.11 23.37-37.63 30.46-48.92q35.9-57.21 116.09-185.27c1.19-1.89 3.39-7.99 3.14-11.16q-0.28-3.63 0.01-5.1 0.36-1.82-0.15-6.19c-0.35-3.1-0.71-7.76-1.96-11.69q-22.32-70.44-58.69-185.62c-5.55-17.57-12.62-38.16-18.15-57.8q-3.95-14.02-7.16-32.39-0.72-4.12-0.83-6.74c-0.69-16.88 1.58-33.76 7.51-49.76q4.16-11.22 10.57-18.33 8.58-9.53 19.47-14.22 23.54-10.14 49.82-10.18 8.98-0.01 17.84 2 1.06 0.24 12.7 2.17 5.42 0.9 12.53 2.74c25.28 6.52 45.05 12.49 69.94 19.3q34.26 9.38 90.15 24.95a0.3 0.3 8.37 0 0 0.38-0.28c0.39-13.89 2.44-25.45 5.25-41.86q0.74-4.32 5.25-8.73 8.25-8.07 19.7-10.19a0.78 0.77 88.52 0 0 0.63-0.67q2.84-23.92 25.08-29.89c3.77-1.01 10.44-1.5 13.75-0.91q1.76 0.32 3.04 0.22a2 1.92-63.9 0 0 0.99-0.36q18.09-12.93 39.04-6.21a1.48 1.45-52.84 0 0 1.28-0.19c9.74-6.72 24.4-5.62 35.03-1.6a0.7 0.69-65.49 0 0 0.86-0.33c0.46-0.87 0.61-2.01 1.21-3.15q9.15-17.5 27.9-23.58a1.06 1.05-0.61 0 0 0.68-0.69c2.36-7.96 7.91-15.35 17.34-10.69 2.35 1.17 6.07 5.05 7.6 7.27q7.67 11.14 9.64 25.36a5.75 5.14 34.64 0 0 0.22 0.91q3.01 9.12 3.42 14.64 1.48 19.85 0.9 39.77a0.35 0.34-17.62 0 0 0.55 0.28c30.86-22.63 51.77-37.43 79.02-57.66q18.56-13.77 31.91-23.15c11.57-8.14 19.7-12.49 33.37-20.47q4.76-2.77 15.15-5.87c15.07-4.49 30.65-6.49 46.27-4.97 12.86 1.25 24.55 7.52 33.29 16.7 6.15 6.47 10.63 12.93 14.74 19.52a1.19 1.19 75.58 0 0 0.96 0.57q14.17 0.58 27.11 3.06a1.99 1.93-49.6 0 0 1.06-0.1q8.96-3.42 18.2-3.57 10.64-0.18 18.95 0.88 11.81 1.51 16.58 1.2 10.28-0.65 17.92-4.76c10.03-5.39 15.87-9.06 21.3-10.9 10.86-3.7 18.79 2.92 17.26 14.18q-0.82 6.05-3.9 12.96c-6.58 14.77-17.25 27.81-29.11 38.87a0.29 0.29 29.17 0 0 0.14 0.49z"/>
  <path d="m627.86 191.36a0.21 0.21 34.27 0 1-0.37 0.07l-6.63-9.25a1.26 1.23 30.7 0 1-0.23-0.86q1.03-10.03 1.44-18.83c0.4-8.49-1.06-18.2-5.09-25.69a1.02 1.01 57.77 0 1 0.29-1.3q35.43-25.94 101.99-74.23 4.32-3.13 16.12-10.9 7.22-4.75 14.4-8.35c21.33-10.71 42.1-18.99 65.23-17.72 17.08 0.95 27.63 11.13 36.48 24.58a0.55 0.55 72.42 0 1-0.44 0.85q-37.02 0.94-70.99 15.6-9.77 4.21-18.77 9.71-3.66 2.24-15.65 10.75c-1.17 0.83-3.3 1.99-4.82 2.54-7.22 2.62-12.11 5.1-16.57 10.93-2.89 3.76-6.28 7.16-6.58 11.11q-0.2 2.54-0.34 11a0.76 0.75-68.98 0 1-1.25 0.56c-6.39-5.64-4.74 9.49-4.36 11.08q0.32 1.38 2.34 4.27a0.76 0.74 35.33 0 1 0.12 0.65l-2.18 7.86a1.73 1.72-0.34 0 1-1.17 1.18l-11.94 3.54a4.58 4.53-47.76 0 1-2.04 0.11c-2.89-0.52-8.01-2.53-11.39-3.13q-8.89-1.57-18.4 0.14a8.93 8.72-47.64 0 1-2.25 0.13c-7.61-0.49-12.27-0.76-18.4 1.63-8.29 3.25-8.48 9.87-9.24 17.46a3.57 3.56 61.98 0 1-0.4 1.32q-5.47 10.52-8.91 23.19z" fill="#006172"/>
  <path d="m588.1 48.81q0.25 0.84 2.34 4.59a0.43 0.43 1.43 0 1-0.6 0.57q-5.88-3.63-12.94-3.59a0.51 0.51-83.77 0 1-0.5-0.63c2.23-9.15 7.81-14.08 15.33-5.22q6.74 7.93 8.96 18.62a0.26 0.26 17.4 0 1-0.44 0.23l-7.8-8.21a1.51 1.36-87.14 0 1-0.18-0.22l-3.82-6.29a0.19039 0.19039 21.59 0 0-0.35 0.15z" fill="#fff"/>
  <path d="m960.02 101.94q2.4-6.72 3.78-13.67 1.48-7.47 1.08-12.12-0.48-5.64-2.76-11.87-1.3-3.53-4.31-6.76a0.83 0.83 59.86 0 1 0.36-1.36c4.21-1.29 8.92-2.69 13.39-5.24q8.73-4.97 12.76-7.11 4.99-2.64 7.64-3.01c10.78-1.47 7.13 11.72 5.02 16.95-7.26 17.96-20.48 33.28-36.11 44.82a0.55 0.55-8.34 0 1-0.85-0.63z" fill="#533617"/>
  <path d="m576.36 112.6q-2.43-0.3-5.98-1.03-1.7-0.35-9.97 0.01a3.3 3.21 54.66 0 1-1.41-0.26q-7.51-3.21-10.02-12.47c-1.28-4.73-2.49-8.71-2.61-12.49q-0.49-15.09 10.9-24.61 8.89-7.43 19.09-9.38c6.33-1.2 12.92 1.98 17.42 6.13 4.08 3.75 6.08 11.35 6.11 16.75q0.05 11.13-4.72 21.44-5.44 11.79-17.47 15.77a3.12 3.03 38.22 0 1-1.34 0.14z" fill="#ae566f"/>
  <path d="m903.39 93.45c7.46-5.39 14.58-11.77 18.08-19.7a2.37 2.31 53.04 0 0 0.17-1.32c-1.42-8.48-13.74-12.93-20.85-14.9a0.27 0.26-45.16 0 1 0-0.51q13.16-3.84 26.93-1.42 14.14 2.49 28.18 1.32a1.21 1.19 65.88 0 1 0.98 0.38q4.71 4.97 5.78 11.89 1.91 12.35-0.56 22.71-0.56 2.34-3.09 10.27a0.77 0.77 10.02 0 1-0.76 0.53c-3.82-0.15-8.47-0.94-13.15-0.15a2.67 2.62 52.38 0 1-1.58-0.22q-19.07-9.04-40-8.51a0.21 0.2 26.25 0 1-0.13-0.37z" fill="#d4a54e"/>
  <path d="m1002.3 112.29 3.67 6.05q1.82 6.7 1.98 9.23 1.71 26.45-10.98 49.52a3.29 3.28 5.46 0 1-1.88 1.55q-12.47 4.07-24.21 10.71-3.45 1.95-9.32 4.15-2.48 0.93-10.55 0.49-7.12-0.39-18.46-2.26-6.58-1.08-13.56-0.14c-5.21 0.7-10.05 3.22-15.06 6.06a0.69 0.68 69.85 0 1-1.01-0.47q-1.9-9.78-5.57-20.08-6.37-17.88-6.5-18.28-3.53-10.89-7.46-17.86c-8.66-15.32-21.33-26.95-37.73-34.38-13.69-6.2-28.27-10.51-42.9-6.8-8.75 2.21-14.41 7.38-16.51 15.99a1.94 1.87 75.54 0 1-0.52 0.92q-9.8 9.68-21.03 15.22c-5.2 2.57-11.51 2.38-15.14-2.72-4.97-6.99-4.2-19.29-2.39-27.38a12.68 12.2-38.72 0 0 0.3-2.32l0.16-4.4a1.25 1.24-16.39 0 1 0.52-0.95q2.66-1.83 8.51-6.98 5.07-4.46 14.58-9.64c36.64-19.96 79.6-25.4 120.99-18.21 8.48 1.48 19.93 4.66 25.08 11.45a2.59 2.58-48.73 0 1 0.18 2.87q-0.77 1.34-3.05 3.79-1.36 1.46-8.74 8.61c-3.38 3.26-6.71 5.17-11.17 8.25-3.14 2.16-8.18 3.08-11.94 5.4a0.24 0.23-66.71 0 0 0.17 0.43c9.24-1.89 18.76-1.72 28.27-1.1 15.38 1.01 29.02 5.36 43.67 13.04q2.17 1.14 4.12 2.88a2.35 2.34 26.08 0 1 0.75 2.18c-1.92 10.35-11.55 19.84-19.06 26.31-4.48 3.86-7.53 7.73-12.02 12.31q-5.84 5.97-13.67 9.36-0.03 0.01-0.19 0.03c1.56 0.12 5.39-1.09 6.84-1.68q2.71-1.1 5.76-3.89 11.63-10.65 21.69-20.67c7.05-7.02 11.25-11.22 13.44-19.32q1.55-5.74-3.01-8.63-3.84-2.44-6.34-4.05a0.21 0.21-29.28 0 1 0.11-0.38c11.06-0.47 19.21 1.7 34.17 4.42q5.22 0.94 14.07 0.89a1.05 1.03-24.01 0 1 0.68 0.25z" fill="#d4a54e"/>
  <g fill="#533617">
   <path d="m600.08 65.92c5.92 7.81 7.4 18.48 7.27 28q-0.27 20.15 0.46 35.54a0.45 0.44-72.1 0 1-0.72 0.37c-4.5-3.52-9.29-5.36-17.12-8.82a1.78 1.73-1.85 0 1-0.81-0.74c-1.95-3.5-6.12-5.13-10.09-6.43a0.27 0.27-43.94 0 1 0.01-0.51c9.63-2.65 15.87-10.76 19.28-20.48q2.35-6.7 2.47-11.45c0.16-5.71 0.08-10.74-1.25-15.23a0.28 0.28 18.31 0 1 0.5-0.25z"/>
   <path d="m532.73 132.99q-3.23 1.27-6.45 1.07-0.21-0.66-0.2-1.31 0.15-5.63-1.78-12.62c-1.84-6.69-7.14-9.4-13.36-5.62a4.4 4.37 5.38 0 0-0.9 0.74q-5.79 6.23-6.12 15.7a0.56 0.55-80.61 0 1-0.71 0.51q-5.24-1.55-8.42-5.45a0.82 0.75 49.15 0 0-1.15-0.14q-0.13 0.12 0.06 0.38-0.5-0.19-0.94-0.75-1.78-9.78 0.98-19 2.43-8.1 7.28-16.06c7.7-12.62 23.01-15.36 36.55-11.61q2.31 0.64 5.87 3.36a1.33 1.32 13.02 0 1 0.49 0.78l4.76 21.75a1.06 0.96 42.14 0 1 0.02 0.2q0.11 9.25-1.55 16.04-0.78 3.2-3.7 5.5-5.48 4.31-12.26 6.08a0.26 0.26-43.2 0 0-0.02 0.5q0.55 0.17 1.55-0.05z"/>
   <path d="m454.03 126.91q-0.83-1.21-1.11-0.62-0.52-4.4-0.25-8.85c0.6-9.67 4.12-18.62 10.92-25.6 6.92-7.1 17.16-12.14 27.01-12.2q6.57-0.05 13.79 1.93a0.65 0.64 30.71 0 1 0.28 1.09q-5.05 4.85-8.02 11.19-4.58 9.75-5.77 18.16-1.05 7.41 0.56 18.38a0.53 0.53-15.65 0 1-0.31 0.55l-4.79 2.11a0.16 0.16 80.2 0 1-0.22-0.16q0.62-9.51-3.91-16.16-0.28-0.41-2.32-2.33a2.41 2.25 77.98 0 0-0.6-0.42c-7.04-3.62-11.61 2.47-13.61 8.43q-1.58 4.73-1.53 10.23a1.06 1.06-77.27 0 1-1.52 0.96q-5.24-2.56-7.82-7.38a0.44 0.44-45.37 0 0-0.78 0.01q-0.14 0.28 0 0.68z"/>
   <path d="m437.14 123.3-0.89-0.1q0.17-0.14 0.24-0.27a0.33 0.32-70.59 0 0-0.22-0.48c-2.37-0.36-7.82-2.93-7.81-5.94q0.04-15.37 11.69-23.52c7.09-4.97 14.91-5.71 23.44-4.86a0.54 0.53 25.85 0 1 0.32 0.92q-3.29 3.13-5.43 6.14-6.38 8.96-7.48 19.23a0.38 0.38-62.14 0 1-0.67 0.21c-3.01-3.57-6.29-5.37-9.63-0.71q-2.94 4.12-3.56 9.38z"/>
   <path d="m1006 118.34-3.67-6.05q0.3-0.32 0.62-0.56 0.3-0.22 0.75-0.28c13.75-2.01 23.78-7.98 36.94-15.34q1.25-0.7 4.07-1.88c3.08-1.29 6.22-3.09 8.77-0.68q2.75 2.58 2.26 6.72-1.44 12.07-6.23 23.22-6.96 16.19-16.98 29.75c-6.86 9.27-16.76 15.97-26.11 21.39q-3.63 2.1-7.84 3a0.27 0.27-54.99 0 1-0.3-0.38q2.81-6.05 4.65-10.23c2.3-5.22 2.91-9.28 4.48-15.07 2.1-7.76 2-17.14 1.3-25.19q-0.43-5.02-2.71-8.42z"/>
   <path d="m738.53 120.78a0.25 0.25 48.45 0 1-0.49-0.03q-0.64-4.79-4.44-5.28c-2.94-0.38-5.97 2.45-7.96 4.67a0.19144 0.19144 4.39 0 0 0.25 0.29c2.74-1.82 5.69-3.62 8.73-2.36a1.4 1.39-1.07 0 1 0.75 0.72c1.64 3.6 2.22 6.72 0.8 10.82q-2.1 6.06-3.11 8.42a0.49 0.49 44.25 0 1-0.89 0.01c-2.06-4.59-5.17-5.26-9.36-7.15a0.88 0.87-78.1 0 1-0.51-0.8c0-1.29 0.44-2.98 0.19-4.15q-0.62-2.98-0.27-9.93 0.45-9.03 8.11-12.9 5.46-2.76 8.24 2.56c2.84 5.45 1.41 9.45-0.04 15.11z"/>
   <path d="m557.96 112.79q-1.57 0.96-2.14 1.8a1.14 1.11-74.79 0 1-0.81 0.48q-1.64 0.17-3.17-0.83a1 0.99 13.28 0 1-0.43-0.69l-0.82-6.17a0.35 0.35 24 0 1 0.63-0.24c1.96 2.82 4.05 3.47 6.7 4.82a0.48 0.47 42.67 0 1 0.04 0.83z"/>
  </g>
  <path d="m452.81 136.71c-0.79 4.5-4.21 11.62-9.35 4.32-5.06-7.16-6.75-20.58-0.3-27.49a2.79 2.69-55.43 0 1 3.19-0.65q2.17 1.05 3.54 3.7 0.76 1.47 0.36 5.02-0.78 6.95 2.38 13.7a2.36 2.34-52.55 0 1 0.18 1.4z" fill="#fff"/>
  <path d="m557.28 118.7q2.67 2.31 4.01 2.53 11.59 1.99 17.34 3.15c2.92 0.6 5.19 1.51 7.98 0.01a0.34 0.34 82.49 0 1 0.49 0.38q-0.18 0.72-1.73 2.52a1.31 1.3 14.27 0 1-0.73 0.43c-3.28 0.67-7.18-1.54-10.44-1.97q-1.35-0.18-12.02-2.32c-2.61-0.52-7.89-1.65-5.89-5.26a1.57 1.51-34.21 0 0 0.19-0.91q-0.1-0.96 0.4-2.16a1.56 1.47 86.86 0 1 0.59-0.7c3.59-2.25 8.74-1.81 12.68-1.76a5.62 5.18-35.25 0 1 1.23 0.16q5.89 1.45 10.93 3.6 3.15 1.33 4.97 3.77a2.12 1.63 51.16 0 1 0.06 2.55q-2.25 2.05-4.41 1.7c-3.79-0.62-7.33-1.74-10.72-2.13q-6.4-0.71-11.4-2.07-1.73-0.46-3.25-1.84a0.21 0.2-46.02 0 0-0.28 0.01l-0.01 0.01a0.21 0.2-47.69 0 0 0.01 0.3z" fill="#333"/>
  <path d="m961.55 195.87a0.12 0.12 17.47 0 1 0.11 0.2c-7.74 7.06-15.01 15.32-23.62 23.3q-8.35 7.73-10.31 9.36c-2.4 2-6.05 4.77-9.45 3.98-13.41-3.13-27.75-3.91-39.54 1.98a0.22 0.21 65.35 0 0-0.1 0.28 0.26 0.25 69.98 0 0 0.31 0.15q8.28-2.57 9.82-2.67 12.33-0.84 17.93-0.09 5.96 0.81 17.15 2.8a0.4 0.4 68.42 0 0 0.31-0.72q-0.15-0.1-0.23-0.18a0.66 0.65-38.37 0 1 0.13-1.07q3.9-2.06 9.18-6.71 9.15-8.07 17.47-16.19 12.64-12.34 17.76-15.82 15.91-10.82 33.31-14.7c13.29-2.97 28.14-3.33 41.33 1.63q1.73 0.66 3.42 3.34 9.07 14.4 9.01 33.01-0.05 16.24-3.8 30.29-0.9 3.38-3.59 9.38-1.74 3.88-7.67 13.89c-8.2 13.84-17.72 23.54-31.97 32.96q-21.18 14.01-46.31 14.34-22.98 0.31-44.77-8.78-10.86-4.53-18.46-12.84a1.35 1.34-60.91 0 1-0.33-1.17l2.22-11.58a3.59 3.48 47.47 0 0 0.03-1.09l-0.83-6.23a0.56 0.55-88.51 0 1 0.65-0.62q9.77 1.74 18.76 0.57 2.07-0.28 3.53-0.11a2.18 2.06-25.26 0 1 0.85 0.28q14.26 8.55 17.81 10.29c24.53 12.07 55.5 12.13 75.75-8.3q6.64-6.69 11.69-15.9c8.3-15.1 13.11-33.04 12.06-50.59-0.32-5.44-2.66-15.02-9.58-15.53q-7.3-0.55-13.33 2.05c-12.76 5.51-24.54 15.64-33.08 26.6q-10.81 13.88-15.23 18.54-4.42 4.65-12.14 11.84-8.53 7.95-19.17 12.07-14.07 5.45-26.38 5.93-10.38 0.41-22.35-5.28-17.79-8.45-23.85-27.51a2.24 2.23-12.68 0 0-2.43-1.53q-13.56 1.86-29.14 4.21-22.29 3.36-42.58 0.66-11.75-1.56-24.14-5.77c-11.92-4.05-17.99-12.98-19.83-25.04q-0.1-0.64-2.25-15-0.92-6.12-4.26-13.99c-3.65-8.6-10.59-14.86-18.56-18.99a0.53 0.52 32.37 0 1-0.18-0.78c2.69-3.53 6.16-8.25 8.14-12.52q6.01-12.99 7.71-18.94 2.23-7.79 4.98-19.22a0.42 0.42 46.92 0 1 0.82 0.03c0.8 4.54 0.89 8.44 2.84 12.95 4.67 10.77 15.48 8.45 23.82 2.87q8.17-5.46 14.96-11.44a0.52 0.51 52.59 0 1 0.77 0.11c2.43 3.66 5.95 2.96 9.72 0.84 3.63-2.05 7.22-4.2 10.94-5.15 13.57-3.48 24.94-0.83 37.86 3.74 16.83 5.94 30.98 18.89 40.41 34.33q3.76 6.16 7.58 16.46 5.64 15.22 8.5 29.37a1.34 1.33 67 0 1-0.55 1.37q-10.07 6.88-15.76 17.41a0.29 0.28-60.13 0 0 0.1 0.38l0.22 0.12a0.07 0.07 45.36 0 0 0.1-0.02c2.67-3.55 5.73-7.78 8.97-10.8q8.46-7.9 18.81-12.03c6.55-2.61 13.65-2.17 20.6-0.96q8.79 1.54 14.28 2.32 6.41 0.92 13.05-0.37z" fill="#533617"/>
  <path d="m474.39 150.95c-1.32-0.89-2.66-1.98-3.58-3.43q-8.93-14.05-1.65-28.68 0.52-1.06 4.13-3.93a1.74 1.7-65.21 0 1 0.97-0.37c8.37-0.42 10.53 11.62 9.9 17.69q-1.14 10.84-8.23 18.54a1.2 1.2 38.16 0 1-1.54 0.18z" fill="#fff"/>
  <path d="m515.5 150.51a1.35 1.34-51.5 0 1-1.16 0.14q-5.08-1.79-6.65-7.42c-2.3-8.23-3.15-16.88 1.32-23.94 1.98-3.12 7.07-6.32 10.6-3.34q1.87 1.58 2.97 4.86 4.51 13.49-2.63 25.09-1.81 2.94-4.45 4.61z" fill="#fff"/>
  <path d="m548.7 125.57a0.6 0.6 9.65 0 1-0.6-0.84q1.42-3.17 1.66-6.95a1.22 1.21-87.97 0 1 1.21-1.13h2.72a1 0.99 90 0 1 0.99 1v2.67a0.94 0.91 24.28 0 0 0.25 0.63q2.58 2.87 4.84 3.28 10.99 1.99 22.68 4.95c3.29 0.83 5.8-2.9 6.39-5.64a0.51 0.51 16.17 0 1 0.68-0.37q4.96 1.86 10.86 4.67 15.39 7.3 15.8 24.48 0.36 14.98-1.11 28.6a0.5 0.5 21.84 0 1-0.8 0.34c-2.99-2.32-6.94-2.46-10.5-2.04a0.37 0.36 89.42 0 1-0.4-0.4q0.57-6.01 0.26-12.61-0.37-8.09-1.93-12.45-3.56-10.02-9.6-16.04-4.11-4.1-12.25-6.78-11.24-3.71-24.48-5.28-3.18-0.38-6.67-0.09z" fill="#333"/>
  <path d="m597.74 248.04q0.01 0.01 0.21 0.31a0.04 0.03-52.02 0 1 0 0.05q-4.75 7.13-7.17 10.64-2.12 3.08-5.27 3.52-16.81 2.33-34.01 2.67-57.77 1.11-117.68-2.44c-6.24-0.38-11.69-1.09-17.05-2.35-4.13-0.98-9.66-2.89-10.84-7.42q-4.17-16.05-4.52-19.19c-0.6-5.38-1.72-10.58-2.31-16.48q-1.62-15.99-1.62-34.94 0-10.91 1.13-21.27 1.93-17.71 2.67-21.15c2.66-12.34 12.24-17.99 23.59-21.06a1.41 1.41 79.2 0 1 1.78 1.21q1.29 11.97 11.88 17.63a3.25 3.14-4.16 0 1 0.97 0.81c1.96 2.46 7.13 10.63 11.13 6.46 1.69-1.77 2.91-3.77 5.26-3.95a0.57 0.57 23.6 0 1 0.4 1.02c-7.34 5.85-13.21 13.6-17.46 21.81q-3.2 6.19-4.75 12.03-4.37 16.51-2.14 32.98c2.42 17.9 18.41 34.25 33.62 41.99 6.42 3.26 14.63 5.4 22.21 5.87q22.71 1.39 44.09-7.95 7.58-3.31 13.91-8.77a0.87 0.86 51.93 0 1 1.26 0.16c1.55 2.2 2.64 3.76 5.01 5.26 9.49 6.03 21.88 9.15 33.03 6.35a0.42 0.42 17.53 0 1 0.38 0.73c-2.21 1.92-4.75 2.38-7.14 3.56a0.22 0.21-55.26 0 0 0.07 0.41q4.55 0.45 8.13-2.18a0.95 0.39-67.5 0 0 0.12-0.12l2.05-2.42a2.17 2.16 12.19 0 1 1.04-0.67q2.73-0.76 6.77-2.32 0.55-0.22 0.92-0.75a0.23 0.22-50.71 0 1 0.33-0.04z" fill="#333"/>
  <path d="m436.25 123.2 0.89 0.1 0.93 11.25a0.27 0.26-74.35 0 1-0.42 0.24q-7.12-5.3-8.71-13.95a0.35 0.35-73.77 0 1 0.58-0.32q2.9 2.67 6.73 2.68z" fill="#ae566f"/>
  <path d="m788.71 155.95a0.59 0.59-63.74 0 0-0.35-1.04q-7.04-0.23-13.07 1.58-1.24 0.38-2.86 0.23a0.67 0.67 24.82 0 1-0.42-1.14q5.3-5.38 13.12-7.7 2.25-0.67 4-1.41a1.76 1.76-86.66 0 0 0.82-0.73q7.48-12.9 20.13-21.22a0.26 0.26 25.15 0 0-0.17-0.47q-4.73 0.53-8.22 2.58a0.28 0.28-81.57 0 1-0.33-0.45c3.92-3.66 10.17-4.15 15.37-4.03q19.29 0.46 34.62 10.94 4.33 2.97 12.19 10.32a0.14 0.13-46.59 0 1 0 0.19v0.01a0.16 0.16-11.45 0 1-0.23 0.01c-14.01-11.73-30.21-20.42-48.96-19.81a2.33 2.3-61.56 0 0-1.15 0.35c-8.17 5.13-15.05 12.63-20.81 20.66a0.65 0.64-76.99 0 0 0.63 1.02q11.73-2 23.2-0.48 32.41 4.31 50.16 30.9c2.24 3.36 3.92 7.75 5.34 10.59a3.33 3.28-7.06 0 0 2.29 1.76l7.97 1.66a2.36 2.25 46.34 0 0 0.64 0.03l5.11-0.47a0.66 0.66 41.83 0 1 0.62 1c-2.36 3.82-5.26 8.4-9.47 11.25q-8.15 5.49-17.67 6.42a4.68 4.67-70.97 0 0-2.93 1.43q-5.03 5.3-7.99 8.09-9 8.49-19.29 13.04c-13.87 6.12-29.04 5.66-43.75 4.14q-10.92-1.12-20.34-6.12a6.99 6.9 64.46 0 0-1.83-0.66q-1.56-0.31-7.35-1.38c-2.44-0.44-5.59-1.93-4.88-4.83 0.75-3.06 6.21-2.37 6.77-6.9q1.17-9.53 5.37-20.33 7.5-19.29 19.71-35 1.54-1.99 4.01-4.03z"/>
  <path d="m493.7 126.25q3.88 4.4 9.56 6.3a0.74 0.74-80.48 0 1 0.51 0.72q-0.07 6.34 2.71 11.41a0.27 0.27-6.78 0 1-0.31 0.39c-7.84-2.03-12.62-12.1-13.41-19.57q0.44 0.56 0.94 0.75z" fill="#ae566f"/>
  <path d="m454.03 126.91q3.77 6.27 9.72 7.8a0.65 0.63 88.94 0 1 0.46 0.46l2.71 10a0.12 0.11-87.51 0 1-0.15 0.14q-9.06-3.39-12.77-12.32-0.91-2.21-1.08-6.7 0.28-0.59 1.11 0.62z" fill="#ae566f"/>
  <path d="m595.86 179.37-0.39 0.29a1.68 1.66 26.14 0 1-0.89 0.3q-3.12 0.1-6.84-0.49-10.67-1.69-20.28 2.7a0.37 0.37-18.47 0 1-0.51-0.25q-5.14-21.06-19.73-37.06c-2.35-2.58-5.15-4.51-7.33-6.06a0.54 0.53 39.66 0 1-0.08-0.8q4.64-4.92 6.99-10.84a1.16 1.15 12.69 0 1 1.16-0.73q9.75 0.66 21.39 2.97c5.69 1.13 11.51 3.3 16.42 5.6q3.8 1.77 6.46 5.02c3.64 4.44 6.27 8.74 7.85 14.61q2.8 10.43 2.02 20.87-0.16 2.04-0.49 3.66a0.82 0.82 9.4 0 1-0.91 0.65l-4.28-0.58a0.79 0.78 30.35 0 0-0.56 0.14z" fill="#333"/>
  <path d="m526.28 134.06q3.22 0.2 6.45-1.07 6.55-1.7 11.58-5.86a0.17 0.17 83.57 0 1 0.26 0.21q-4.04 8.02-10.07 11.91-3.26 2.11-8.77 5.2-1.27 0.71-2.56 0.76a0.36 0.36 7.84 0 1-0.36-0.47z" fill="#ae566f"/>
  <path d="m420.35 252.61c-5.66-0.75-8.26-6.42-9.84-11.35q-1.88-5.88-2.69-11.04-2.24-14.41-2.62-23.1-0.55-12.73-0.82-17.34c-0.45-7.97 0.23-16.04 0.61-24.09q0.63-13.31 3.78-23.77 1.51-5.04 3.52-7.87 2.21-3.1 6.7-5.07a0.22 0.22 62.68 0 1 0.27 0.09l0.16 0.28a0.15 0.14-24.88 0 1-0.08 0.2c-5.69 2.17-8.25 6.6-9.64 12.36q-2.62 10.85-3.31 21.84-1.3 20.82 0.28 44.57 0.78 11.76 2.59 21.94 1.68 9.43 4.45 15.48 1.78 3.9 6.73 6.59a0.15 0.15 63.07 0 1-0.09 0.28z"/>
  <path d="m482.73 145.09 3.04-10.93a0.56 0.55 5.02 0 1 0.5-0.41q2.06-0.16 5.21-1.87a0.58 0.58-25.76 0 1 0.81 0.28l2.45 5.55a1.32 1.32-33.96 0 1-0.29 1.48q-4.48 4.32-11.53 6.09a0.16 0.16-56.72 0 1-0.19-0.19z" fill="#ae566f"/>
  <path d="m715.55 159.42a0.29 0.28-83.5 0 1-0.3 0.25h-0.02a0.39 0.38 4.45 0 1-0.36-0.41c0.44-7.08 2.56-14.05 5.01-20.81a1.6 1.58 9.92 0 1 1.5-1.04h1.99a0.63 0.63 18.15 0 1 0.51 1q-6.83 9.43-8.33 21.01z" fill="#fff"/>
  <path d="m203.54 514.53a0.27 0.27 41.38 0 1-0.52 0.03c-11.19-37.33-23.49-74.34-35.42-112.04q-37.51-118.54-40.35-127.52-0.78-2.47-4.18-13.94-8.42-28.37-8.25-60.31 0.08-15.39 5.49-30.41c4.55-12.65 12.96-20.71 25.64-25.63 10.75-4.17 22.16-5.93 33.43-6.08 17.2-0.23 33 0.83 49.16 4.77 6.19 1.51 14.72 3.36 22.64 5.57q42.28 11.79 70.37 19.32a0.38 0.38-42.09 0 1-0.04 0.75q-4.05 0.66-8.45 0.32-6.34-0.5-17.54-1.87-4.73-0.58-7.59 1.21-4.17 2.59-0.45 6.52 4.77 5.05 8.61 9.59c2.77 3.26 4.68 8.25 0.86 11.6q-4.31 3.76-7.59 5.45c-3.67 1.89-8.12 3.46-8.29 6.49-0.24 4.12 5.03 4.37 8.35 5q2.93 0.56 6.47 3 3.42 2.36 1.99 6.25c-1.04 2.83-3.34 6.47-5.48 9.02q-7.83 9.35-17.44 17.59c-3.53 3.03-2.41 8.05 2.94 6.73q13.48-3.31 25.34-4.23 5.24-0.41 9.45 0.38 4.6 0.86 4.68 5.65 0.05 3.36-0.93 5.71c-1.67 3.99-4.1 7.72-1.64 10.29 1.72 1.8 4.95 0.66 6.61-0.37q7.1-4.4 14.02-5.33c3.97-0.54 6.3 2.89 7.45 6.35q1.98 5.98 2.64 10.58c0.61 4.26 2.34 8.62 7.34 5.95 1.91-1.02 3.5-3.58 4.75-5.91q6.31-11.87 9.92-17.25 4.36-6.51 11.48-10.56c2.28-1.3 2.95-4.59 0.05-5.77-4.94-2.01-12.04-5.12-17.17-9.09-11.88-9.18-20.42-23.05-24.49-36.97-3.03-10.34-2.2-19.63-1.79-32.26a0.63 0.62-81.21 0 1 0.79-0.58l55.59 15.44a0.77 0.76-82.64 0 1 0.56 0.74q-0.17 34.98 9.19 69.17a0.65 0.59-76 0 0 0.14 0.26l3.58 3.57a0.38 0.38 68.65 0 1-0.28 0.65q-6.69-0.24-12.83 1.43c-5.93 1.62-8.98 4.73-10.69 10.61q-4.5 15.46-4.46 32.16c0.02 5.99 0.16 14.84 0.9 21.74a0.39 0.39-69.34 0 1-0.68 0.31c-12.23-13.11-24.59-27.18-42.08-33.12q-1.55-0.52-2.51-1.78c-6.19-8.03-18.45-5.31-27.16-2.56-7.26 2.3-15.76 5.57-21.27 10.47-1.85 1.65-1.44 4.68-1.2 6.75a1.27 1.27 72.33 0 1-0.65 1.26c-13.66 7.5-26.49 15-38.46 24.6a1.08 1.07 50.58 0 1-1.5-0.15q-2.36-2.84-5.37-1.15c-10.03 5.66-19.39 13.09-25.63 22.83q-5.56 8.69-2.37 17.52a4.96 4.87 37.35 0 1 0.28 1.95q-0.7 12.11 1.7 25.29 4.26 23.48 14.15 46.67 3.47 8.13 7.56 14.88a0.76 0.76 9.39 0 1-0.26 1.04c-4.23 2.56-6.96 4.84-9.26 9.59q-1.89 3.91-6.54 7.61-0.91 0.72-5.22 5.72c-6.61 7.67-6.87 20.1-8.09 28.5z" fill="#006172"/>
  <path d="m721.45 153.35q-1.62-0.8-1.31-2.82 1.01-6.61 5.15-11.14a1.41 1.41 37.01 0 1 1.79-0.25q3.42 2.08 2.21 6.42-1.13 4.02-6.67 7.72a1.19 1.17 41.15 0 1-1.17 0.07z" fill="#fff"/>
  <path d="m560.63 185.75a0.6 0.6-17.86 0 1-0.9-0.46q-1.1-11.25-6.54-20.73-5.57-9.68-11.55-16.7-2.05-2.4-6.43-5.01a0.64 0.64-50.09 0 1-0.09-1.03l1.87-1.59a1.22 1.22 43.11 0 1 1.52-0.05c1.03 0.77 2.08 1.15 3.15 2.03q8.83 7.26 14.38 17.5c3.94 7.28 8.02 14.88 9.07 22.76a0.98 0.97 71.8 0 1-0.48 0.97z" fill="#333"/>
  <path d="m475.44 152.5q3.28-0.91 5.05-3.93a2.17 2.16 8.66 0 1 1.37-1q7.49-1.73 13.47-6.97a1.18 1.18-42.15 0 1 1.64 0.08q5.26 5.61 10.67 7.3a3.01 3-15.08 0 1 1.15 0.66l3.49 3.2a1.38 1.19 73.35 0 0 0.42 0.27c3.12 1.29 5.37-1.73 8.11-4.19a2.4 2.38 19.31 0 1 1.24-0.59q4.66-0.78 9.07-3.09c2.12-1.11 5.06 1.71 7.12 3.53 10.42 9.2 17.15 24.21 19.58 37.75a4.55 4.54 61.82 0 1-1.19 3.95q-4.55 4.71-7.35 10.49-7.07 14.64-5.69 30.39a2.88 2.87-36.27 0 1-0.21 1.35q-0.69 1.65-1.88 2.85-15.47 15.67-34.55 18.56-5.72 0.87-15.32 0.54c-12.93-0.44-24.59-4.09-34.52-11.89-12.47-9.79-20.36-20.9-22.19-36.59-1.42-12.21 0.61-27.7 6.22-38.92q6.23-12.47 16.6-21.51a2.5 2.49 42.31 0 1 3.1-0.14q2.92 2.12 6.91 2.81a1.78 1.74-15.14 0 1 1 0.56c1.93 2.18 2.98 3.32 5.71 4.47a1.5 1.5 48.43 0 0 0.98 0.06z" fill="#333"/>
  <path d="m533.98 194.79a43.78 43.78 0 0 1-43.78 43.78 43.78 43.78 0 0 1-43.78-43.78 43.78 43.78 0 0 1 43.78-43.78 43.78 43.78 0 0 1 43.78 43.78z"/>
  <path d="m713.09 160.45-11.38-4.98a0.43 0.43-39.47 0 1 0.08-0.81l11.42-2.65a0.23 0.23 83.02 0 1 0.28 0.22v7.96a0.28 0.28-77.93 0 1-0.4 0.26z" fill="#533617"/>
  <path d="m660.5 153.05-6.22 2.09a0.22 0.22 7.36 0 0-0.14 0.28l0.1 0.27a0.07 0.06 72.98 0 0 0.08 0.05c5.84-1.38 13.97-3.68 20.9-3.17q6.69 0.5 15.29 2.91 16.41 4.61 30.82 12.17c1.95 1.03 3.37 1.32 4.72 2a8.19 8.16 76.69 0 1 1.34 0.83q14.29 10.71 16.87 28.78c1.85 12.87 2.33 28.16 14.55 36.16q5.05 3.31 9.69 4.81 23.61 7.65 47.02 6.58c14.24-0.66 27.57-2.92 44.24-5.67q2.34-0.39 4.41-0.19a0.72 0.69 82.76 0 1 0.6 0.48q4.21 12.41 9.45 19.19c6.25 8.09 14.13 11.67 23.6 15.12a0.73 0.73 11 0 1 0.48 0.71q-0.38 10.3-5 22.33-4.13 10.75-7.2 16.05-8.35 14.43-22.05 23.11a0.22 0.22 3.9 0 1-0.28-0.32q5.4-6.52 9.5-15.15c10.38-21.82-7.73-43.86-25.64-54.12-10.19-5.84-21.26-10.83-32.87-11.49-8-0.45-14.66 0.58-22.11 1.97a0.85 0.85-24.05 0 1-0.84-0.32c-6.36-8.36-16.98-12.76-27.31-14.19q-5.9-0.82-10.95 2.06a0.39 0.39-52.19 0 0 0.09 0.72l11.24 3.12a0.8 0.8 39.61 0 1 0.14 1.48q-6.29 3.17-20.11 10.93-0.46 0.26-8.58 4.23c-9.34 4.55-18.94 8.77-28.98 3.51-13.52-7.07-27.61-14.51-43.2-16.43q-13.26-1.63-16.45-2.08-1.95-0.27-3.69-2.1-6.78-7.11-9.72-16.81c-5.91-19.49-3.38-38.57 4.06-57.19a0.3311 0.3311 59.75 0 1 0.64 0.17l-1.52 11.39a0.23 0.23 72.06 0 0 0.39 0.2c6.72-6.35 5.71-15.9 5.31-25.1-0.21-4.94 3.64-8.57 8.34-9.47 1.55-0.3 7.16-0.79 8.96-0.43a0.28 0.27-48.53 0 1 0.03 0.53z" fill="#d4a54e"/>
  <path d="m720.19 163.58a0.43 0.43 6.43 0 1-0.64 0.51l-1.78-1.19a1.98 1.96 14.34 0 1-0.86-1.44q-0.38-3.62 0.84-7.24a1.13 1.12 26.32 0 1 1.7-0.57l0.42 0.28a0.91 0.91 25.45 0 1 0.37 1.04q-1.52 4.81-0.05 8.61z" fill="#fbdba6"/>
  <g fill="#fff">
   <path d="m812.24 231.88a0.35 0.35 52.83 0 1-0.09 0.67q-18.94 2.08-37.52-3.09-3.71-1.03-5.08-1.81c-3.17-1.8-5.64-2.96-6.84-6.9q-0.5-1.63-0.35-4.57 0.51-10.31 4.53-19.78c6.33-14.88 13.01-28.52 24.67-39.22a3.29 3.21-75 0 1 1.16-0.69q3.39-1.18 7.55-0.48 5.34 0.91 18 3.6a0.17 0.17-58.92 0 1 0.07 0.3c-15.86 13.83-29.45 37.44-19.7 58.67q4.36 9.49 13.6 13.3z"/>
   <path d="m843.26 174.26c-3.52 10.32-11.66 17.34-21.65 21.47-6.8 2.81-15.69 1.93-16.43-6.9q-0.39-4.65 0.99-7.87 5.4-12.64 16.25-20.18a1.39 1.38 37.53 0 1 1.27-0.16q10.09 3.72 19.09 11.81a1.71 1.7 30.52 0 1 0.48 1.83z"/>
   <path d="m478.53 176.99q-0.5 1.54-3.63 5.21a12.96 11.63-82.97 0 0-1.05 1.44c-2.9 4.59-5.41 8.51-9.31 11.33-4.5 3.25-9.28 1.74-10.64-3.93-2.12-8.8 2.69-19.12 9.34-24.5 3.99-3.23 10.29-3.33 13.98 0.64q3.35 3.61 1.31 9.81z"/>
  </g>
  <path d="m338.42 220.36c7.8 14.95 22.86 26.22 38.78 31.71a0.27 0.27-50.14 0 1 0.04 0.5q-10.27 5.56-16.55 15.91c-2.79 4.61-5.42 11.8-9.5 17.24a0.4 0.4-29.31 0 1-0.72-0.2q-0.74-8.28-4.66-16.39-3.05-6.3-9.57-5.87-8.85 0.58-16.02 6.2a0.57 0.57-7.97 0 1-0.88-0.66c2.48-6 6.34-14.5-0.07-19.61q-2-1.59-6.32-2.08c-11.24-1.27-20.8 1.09-32.41 3.73a0.22 0.19 57.89 0 1-0.2-0.06q-0.05-0.05-0.08-0.1-0.02-0.04-0.03-0.11a0.22 0.19 67.04 0 1 0.06-0.2c8.82-8.01 16.22-14.5 21.62-24.44q2.07-3.82 1.91-6.37c-0.52-8.18-9.7-9.88-16.04-11.29a0.57 0.57-47.11 0 1-0.03-1.1q8.71-2.66 14.25-9.58 4.09-5.1 0.67-11.21-4.4-7.85-10.77-13.2a0.4 0.4-25.77 0 1 0.25-0.71c6.8-0.23 14.2 1.73 19.57 2.09q12.08 0.77 22.52-4.46a0.27 0.27-4.93 0 1 0.38 0.32c-4.61 16.19-3.99 34.99 3.8 49.94z" fill="#fbdba6"/>
  <path d="m611.19 195.19a0.18 0.18-84.78 0 0 0.27-0.23q-4.91-7.65-13.23-10.84a0.27 0.27 46.55 0 1 0.01-0.51q2.97-0.96 9.66-0.56 8.48 0.5 12.64 8.04 5.48 9.92 4.75 19.41a3.21 3.19 62.71 0 1-0.43 1.36c-4.57 7.53-11.15 14.87-15.52 20.92q-5.73 7.95-8.02 9.08-4.23 2.1-7.73 3.34-2.8 0.98-8.2-0.01-13.84-2.56-21.51-14.38a1.24 1.24-39.6 0 1 0.15-1.53q4.45-4.64 8.09-10.68 1.91-3.17 2.43-5.69a3.94 3.73-43.44 0 0 0.06-1.1q-0.42-4.15-5.4-4.08-5.95 0.09-10.78 4.2a0.89 0.89-29.23 0 1-1.42-0.4q-0.48-1.45-0.52-3.03-0.27-9.78 2.96-17.27 0.77-1.78 3.12-3.44 10.03-7.04 22.19-5.57c4.12 0.51 9.01 2.64 13.16 4.38q7.87 3.28 13.27 8.59z" fill="#533617"/>
  <path d="m682.19 192.69q7.53-8.12 17.61-8.85c4.4-0.32 8.9 3.03 11.66 6.32a0.27 0.27 36.8 0 1-0.36 0.4q-3.53-2.37-7.98-3.72c-8.03-2.42-14.21 1.72-20.71 6.11a0.17029 0.17029-85.29 0 1-0.22-0.26z"/>
  <path d="m802.22 185.15a0.24 0.24-33.9 0 1 0.46 0.09q0.12 3.8 0.24 4.8c0.89 7.47 6.85 9.74 13.57 9.06a0.65 0.64-89.6 0 1 0.7 0.72c-1.11 10.72 3.86 22.54 14.55 26.24a0.37 0.36-46.83 0 1 0.02 0.68l-8.8 3.88a2.71 2.63 33.76 0 1-1.2 0.22q-11.69-0.62-17.73-8.99c-7.69-10.65-7.11-25.3-1.81-36.7z" fill="#d4a54e"/>
  <path d="m556.1 194.9c-1.19 6.9-1.9 12.92-0.69 18.72a1.56 1.56 61.4 0 1-0.42 1.43q-4.75 4.78-7.44 12.01a0.68 0.68 33.47 0 1-1.13 0.23q-0.32-0.34-0.32-0.99-0.04-17.59 9.62-31.55a0.21 0.21-23.21 0 1 0.38 0.15z" fill="#ae566f"/>
  <path d="m677.4 213.94a1.07 1.07-81.78 0 1-1.16-1.56q5.06-9.34 12.32-15.1 5.02-3.99 11.32-1.17 10.7 4.77 18.17 13.31c1.4 1.61 4.21 5.57 2.96 7.18a2.1 2.07-55.84 0 1-2.69 0.54q-15.55-9.12-33.04-5.63c-2.82 0.57-5.52 1.92-7.88 2.43z"/>
  <path d="m842.09 201.17a7.83 7.61-36.4 0 1-1.78 10.78 7.83 7.61-36.4 0 1-10.82-1.48 7.83 7.61-36.4 0 1 1.78-10.78 7.83 7.61-36.4 0 1 10.82 1.48z" fill="#fff"/>
  <path d="m977.41 274.61q1.26-0.43 7.27-5.22c11.7-9.33 5.02-26-10-24.46a0.39 0.39-71.22 0 1-0.32-0.66q5.87-6.41 12.58-15.3c6.74-8.94 13.23-16.19 21.31-21.97 4.71-3.38 23.44-13.82 28.1-5.61 3.59 6.35 3.74 13.78 3.23 21.47-1.34 20.27-11.62 46.97-28.68 59.82q-16.31 12.29-37.9 11.09c-10.91-0.61-21.44-3.19-31.75-8.49q-8.52-4.38-15.16-8.87a0.58 0.57 53.01 0 1 0.14-1.02c2.85-0.92 6.61-1.84 9.55-3.14 13.07-5.77 25.37-14.38 35.61-24.69a1.72 1.7-65.44 0 1 1.32-0.5c5.9 0.35 12.63 3.13 13.59 9.39 0.9 5.81-4.42 13.69-9.09 17.82a0.2 0.2 14.68 0 0 0.2 0.34z" fill="#ae566f"/>
  <path d="m484.27 212.93a9.42 9.42 0 0 1-9.42 9.42 9.42 9.42 0 0 1-9.42-9.42 9.42 9.42 0 0 1 9.42-9.42 9.42 9.42 0 0 1 9.42 9.42z" fill="#fff"/>
  <path d="m549.83 234.53a0.57 0.57-8.28 0 1-0.68-0.5c-0.77-8.67 11.58-25.39 21.42-24.13a2.17 1.79 3.22 0 1 1.88 1.74c0.09 1.78-0.6 3.02-1.35 4.57-4.41 8.98-11.39 16.43-21.27 18.32z" fill="#fff"/>
  <path d="m571.48 294.63a0.19 0.19 15 0 1-0.17-0.29q6.07-10.06 13.26-20.28 27.68-39.28 35.94-50.54 3.29-4.49 6.27-9.28a0.37 0.37-28.72 0 1 0.69 0.2q-0.29 19.12 10.95 34.41 3.28 4.46 6.55 6.19a0.51 0.51-58.24 0 1 0.17 0.74c-9.98 13.74-18.31 29.55-20.82 46.3a0.47 0.47-74.81 0 1-0.64 0.37q-20.32-8.05-41.93-7.77-3.19 0.04-10.27-0.05z" fill="#52ae47"/>
  <path d="m586.78 247.42a0.43 0.42-44.31 0 1-0.01 0.81c-11.27 3.48-23.31 0.97-33.05-4.96q-2.84-1.73-4.61-4.65a0.63 0.63 70.62 0 1 0.46-0.96q6.85-0.82 12.41-6.36a0.74 0.74-36.65 0 1 1.17 0.17q6.03 10.98 17.64 14.56c2.08 0.64 4.26 0.82 5.99 1.39z" fill="#ae566f"/>
  <path d="m534.84 244.2a0.12093 0.12093 15.85 0 1-0.12-0.21q5.3-3.65 9.31-8.57a0.55 0.55-46.92 0 1 0.83-0.03q0.58 0.64 0.4 1.79a1.22 1.17 75.66 0 1-0.43 0.76q-4.99 4.14-9.99 6.26z" fill="#333"/>
  <path d="m676.41 292.91c-4.31 2.12-7.33 7.74-9.16 12.28q-1.3 3.21-1.02 7.61a1.96 1.96 63.09 0 1-0.45 1.38q-1.65 1.99-5 7.09-1.26 1.92-0.93 4.47a0.37 0.37 17.54 0 1-0.62 0.32q-14.25-13.18-31.19-21.99a0.8 0.8-72.24 0 1-0.42-0.82c1.33-9.6 4.98-19.38 9.06-28.87 2.62-6.07 6.05-13.77 10.61-18.42a1.28 1.26 25.6 0 1 1.07-0.37l6.38 0.86a1.03 1.01-6.08 0 1 0.83 0.66c1.37 3.64 7.79 17.71 13.05 14.12q1.3-0.89 1.65-2.81a0.51 0.5 43.76 0 1 0.99-0.02l5.52 23.72a0.7 0.7-20.09 0 1-0.37 0.79z" fill="#38812d"/>
  <path d="m658.62 256.81 12.89 1.72a0.52 0.52-66.56 0 1 0.33 0.84q-2.49 3.03-3.43 7.9a3.35 3.08-26.68 0 1-0.34 0.9l-0.51 0.92a1.25 1.25-53.1 0 1-1.96 0.28q-5.02-4.91-7.38-12.08a0.37 0.37-5.41 0 1 0.4-0.48z" fill="#fff"/>
  <path d="m721.88 278.15q1.39-2.49 3.1-3.23c2.18-0.96 6.59-2.22 9.14-3.56q4.53-2.37 7.2-3.48 1.94-0.81 7.1-3.67 8.13-4.51 15.35-6.68 3.45-1.04 8.55-0.27a0.78 0.77-88.59 0 1 0.65 0.69c0.35 3.79-5.3 12.92-6.84 14.78a0.55 0.55 41.19 0 1-0.8 0.05q-6-5.54-13.92-4.14c-7.45 1.32-13.53 7.43-18.99 13.7a1.37 1.35 32.11 0 1-1.57 0.35l-8.73-3.82a0.52 0.52 60.56 0 1-0.24-0.72z" fill="#533617"/>
  <path d="m762.55 292.06a0.53 0.53-69.56 0 1-0.37-0.81q7.13-10.87 15.22-21.85c1.86-2.53 4.8-5.54 8.07-3.85q4.72 2.43 5.19 2.52a4.31 3.11 21.61 0 0 3.66-0.93q0.68-0.76 0.03-3.04-0.58-2.01-0.99-2.92a0.53 0.53-18.85 0 1 0.36-0.73q11.49-2.93 23.34-1.89a3.25 3.15-23.84 0 1 1.57 0.58q6.05 4.33 8.66 7.34c18.07 20.86 15.57 52.28 0.3 73.74a1.5 1.49 18.26 0 1-1.26 0.63q-11.29-0.37-19.45-0.99c-5.11-0.4-9.16 0.36-13.82 1.38a0.49 0.49 87.95 0 1-0.59-0.55c2.83-18.5-16.07-38.16-29.24-48.44a0.68 0.6 64.84 0 0-0.33-0.14z" fill="#fbdba6"/>
  <path d="m828.41 340.48c0.4-0.92 2.04-2.54 2.86-3.9q9.91-16.26 9.72-35.3c-0.17-16.58-6.62-32.81-20.79-41.96a0.28 0.27-22.46 0 1 0.21-0.5c22.12 4.69 48.58 20.64 54.01 43.98 1.43 6.15 0.64 12.39-1.99 18.43q-4.22 9.7-9.94 16.25c-5.03 5.77-23.42 4.05-33.69 3.61a0.44 0.44 12.85 0 1-0.39-0.61z" fill="#fbdba6"/>
  <path d="m684.77 295.88a0.68 0.68-43.24 0 1-1.33-0.04c-1.96-11.96-4.17-23.57-10.03-34.56a1.08 1.07-1.44 0 1 1.41-1.48q1.06 0.51 2.48 1.9c6.87 6.77 9.23 16.25 9.4 25.68a0.85 0.76-41.94 0 1-0.03 0.28z" fill="#52ae47"/>
  <path d="m681.62 262.17a0.32 0.32 82.84 0 1 0.38-0.49l19.62 9.46a1.48 1.43-89.94 0 1 0.7 0.73l3.14 7.13a0.53 0.53 69.1 0 1-0.32 0.72q-4.89 1.55-8.62 5.31a0.93 0.93 30 0 1-0.9 0.24l-3.38-0.94a0.95 0.92-88.61 0 1-0.66-0.71q-2.58-12.74-9.96-21.45z" fill="#533617"/>
  <path d="m673.02 262.97c4.87 9.64 7.23 20.69 8.67 31.69a0.11 0.11 11.89 0 1-0.17 0.11l-3.19-1.83a0.64 0.62 11.04 0 1-0.3-0.43q-1.19-6.21-3.78-17-1.2-5-2.72-7.84a2.32 2.3 38.81 0 1-0.19-1.69l0.82-2.92a0.46 0.46-50.8 0 1 0.86-0.09z" fill="#38812d"/>
  <path d="m521.08 282.37a0.37 0.37 4.87 0 0 0.55-0.46q-2.74-5.77-3.12-11.85a0.79 0.79 88.29 0 1 0.79-0.84q33.14 0.03 38.2-0.11 14.6-0.4 27.36-2.83a0.32 0.32 11.86 0 1 0.32 0.49q-7.22 10.6-16.93 25.72c-1.16 1.81-2.85 2.46-5.22 2.77q-18.88 2.45-37.45 10.81a1.52 1.51-40.81 0 1-1.44-0.1q-5.81-3.72-7.63-4.92-24.26-16.06-49.81-25.48a4.04 4.01 88.09 0 1-2.28-2.15l-2.18-4.94a0.52 0.52-10.08 0 1 0.51-0.73q29 1.5 54.3 1.5a0.4 0.4 9.73 0 1 0.38 0.53q-2.85 8.07 3.65 12.59z" fill="#533617"/>
  <path d="m419.22 268.05v-0.02a0.29 0.28 4.28 0 1 0.3-0.25q20.65 1.43 40.04 8.17 25.19 8.76 47.32 21.68 5.89 3.45 14.6 9.85a0.08 0.08-41.29 0 1-0.01 0.13l-7.86 4.53a0.49 0.48-40.66 0 1-0.55-0.04c-26.8-21.89-59.38-38.69-93.62-43.76a0.26 0.26 7.97 0 1-0.22-0.29z" fill="#52ae47"/>
  <path d="m474.66 343.66c-1.87-2.49-3.81-5.48-6.2-8.03q-5.86-6.27-15.76-14.07-23.83-18.78-52.21-29.53-1.81-0.69-3.88-1.19a0.39 0.39 10.43 0 0-0.48 0.33q-0.69 6.86 0.03 15.64 2.17 26.46 9.5 54.3 10.25 38.9 36.35 69.56a1.37 1.36-65.27 0 1 0.32 0.88v7.79a0.56 0.56-0.52 0 1-0.55 0.56c-6.21 0.1-11.46 4.82-15.24 9.5a0.55 0.55 79.47 0 1-0.86 0q-2.69-3.43-5.29-7.5-20.67-32.34-29.76-67.52-2.32-9-5.71-31.33-3.64-23.97-2.16-46.8 0.75-11.52 4.93-22.04 0.96-2.4 2.88-3.16c12.38-4.9 26.46-2.51 39.42 0.39 30.4 6.82 57.59 22.35 82.14 41.08a0.3 0.3-41.76 0 1-0.03 0.5q-20.67 11.86-36.35 30.67a0.7 0.69 46.42 0 1-1.09-0.03z" fill="#52ae47"/>
  <path d="m717.7 295.86 0.11 0.09a0.16 0.15-35.78 0 0 0.16 0.02q12.74-6.64 22.13-16.85c5.85-6.36 15.71-10.58 23.69-5.27a0.41 0.41-40.54 0 1-0.06 0.71l-5.57 2.65a2.62 2.61 9.1 0 0-0.68 0.49c-2.49 2.61-2.17 8.98-2.25 13.07a1.98 1.98-81.46 0 1-2.53 1.87q-5.24-1.51-9.87-1.23a4.15 4.14 13.22 0 0-3.32 2.05c-2.82 4.86-2.73 13-2 18.14a1.16 1.16-26.13 0 1-0.34 0.99l-3.5 3.51a0.89 0.88-43.89 0 1-1.27-0.02c-5.82-6.19-9.13-10.03-14.37-13.54-5.67-3.81-10.03 7.12-10.74 10.89a0.47 0.47 38.53 0 1-0.89 0.1l-1.09-2.47a1.52 1.47 89.08 0 0-0.78-0.78c-3.36-1.46-6.98 3.22-8.52 5.74a1.83 1.8-78.89 0 1-1.23 0.84q-5.04 0.85-9.19-1.07a2 1.99 29.28 0 1-0.82-2.91l4.58-6.89a1.76 1.62-20.82 0 0 0.19-0.38c3.36-9.45 7.01-18.62 16.88-22.83a1.24 1.23-32.88 0 1 1.4 0.29c3.89 4.22 8.24 6.55 11.16-0.54a1.42 1.41-70.98 0 1 1.68-0.82l8.85 2.46a0.62 0.62 30.59 0 1 0.27 1.04q-6.32 6.15-12.06 10.22a0.28 0.27 47.92 0 0-0.02 0.43z" fill="#ae566f"/>
  <g fill="#fff">
   <path d="m720.61 276.65-4.25 7.37a2.22 2.22-55.75 0 1-3.3 0.63q-5.12-4.04-8.09-10.99a0.35 0.35-87.41 0 1 0.48-0.44q7.42 3.85 14.79 2.87a0.38 0.37-78.69 0 1 0.37 0.56z"/>
   <path d="m757.29 287.14v-6.21a2.64 2.63 78.25 0 1 1.58-2.42l4.86-2.15a0.25 0.24-86.83 0 1 0.31 0.35l-6.12 10.6a0.34 0.34-29.88 0 1-0.63-0.17z"/>
   <path d="m689 298.33a0.29 0.29 48.91 0 1-0.57-0.04q-0.9-5.74 1.48-10.24a2.42 2.4 17.58 0 1 2.45-1.26l0.61 0.08a0.99 0.99 22.79 0 1 0.65 1.59q-2.79 3.58-4.62 9.87z"/>
  </g>
  <path d="m330.16 293.85a0.35 0.35 70.06 0 1-0.28 0.6c-15.17-1.13-28.22 5.09-42.39 12.69a1.13 1.12 78.79 0 1-1.65-1.11l0.02-0.24a4.34 4.31-14.36 0 1 1.88-3.15c9.91-6.72 21.8-12.11 33.75-12.23q5.31-0.05 8.67 3.44z" fill="#333"/>
  <path d="m399.62 293.07q0.4-0.11 0.63-0.02 34.01 14.07 60.91 39.52c4.82 4.56 7.82 8.39 11.4 13.6a1.35 1.34 46.9 0 1-0.05 1.58q-6.69 8.71-11.5 18.02c-8.42 16.31-14.93 32.01-16.88 49.71q-0.07 0.59-0.68 0.46-0.09-0.02-0.2-0.16-23.54-31.62-34.18-69.59-7.31-26.09-9.41-52.15a0.36 0.36 58.72 0 0-0.39-0.33h-0.02a0.41 0.41 83.88 0 0-0.37 0.46c0.48 4.15 0.3 8.75 0.96 13.45q4.62 33.15 15.01 59.58 10.38 26.41 27.91 49.88a5.1 5.06-59.74 0 1 0.96 3.7l-0.75 5.58a1 1-59.7 0 1-1.79 0.47q-8.51-11.36-14.11-20.43c-8.55-13.84-14.95-29.02-19.31-45.31q-7.5-27.97-10.22-57.27-0.28-2.95-0.27-5.65 0.01-4.8-0.44-5.73a0.34 0.34 85.68 0 1 0.41-0.48q0.93 0.29 1.72 0.97a0.74 0.73-32.39 0 0 0.66 0.14z" fill="#38812d"/>
  <path d="m664.07 326.55c4.14 6.64 10.02 10.63 17.84 12.15 14.24 2.78 27.54 0.04 39.72-7.73q7.49-4.78 10.04-7.12 2.97-2.73 5.91-5.2c9.15-7.7 16.97-16.43 23.9-26.39a0.54 0.54 36.79 0 1 0.79-0.11c11.11 9.05 21.3 20.21 26.99 33.12q2.75 6.25 2.66 15.68a0.74 0.73-8.62 0 1-0.52 0.7c-12.19 3.9-22.06 9.34-33.77 15.73q-5.66 3.08-24.95 14.56c-5.98 3.55-12.32 3.3-19.62 2.23q-13.93-2.05-27.36-8.82-2.96-1.5-6.37-5.41-12.51-14.32-15.82-33.18a0.31 0.3 24.34 0 1 0.56-0.21z" fill="#fbdba6"/>
  <path d="m740.77 308.96a0.53 0.53 61.58 0 1-0.93-0.28q-0.77-6.54 1.35-13.72a2.09 2.08-81.81 0 1 2-1.5h9.63a0.5 0.5-69.92 0 1 0.38 0.82z" fill="#fff"/>
  <path d="m670.32 304.53q1.42-4.44 5.54-8.59a2.61 2.6-45.08 0 1 3.7-0.01l6.14 6.14a1.39 1.38-58.89 0 1 0.34 1.39q-1.36 4.28-4.66 7.89a0.42 0.42-32.07 0 1-0.71-0.16c-0.96-3.22-3.05-8.63-6.87-8.23-1.51 0.16-2.11 1.66-3.07 1.98a0.33 0.32 89.65 0 1-0.41-0.41z" fill="#fff"/>
  <path d="m391.15 399.29q-5.47-2.54-6.9-3.72-2.17-1.78-9.82-7.91-17.57-14.09-38.33-6.11-5.62 2.16-14.08 6.75-21.37 11.59-38.32 26.43-11.42 10-12.75 25.47-0.27 3.13 0 8.01c0.43 7.74 3.5 16.5 3.34 23.09a0.32 0.32 23.92 0 1-0.55 0.21q-1.85-1.91-4.11-3.15c-10.14-5.62-22.03-9.84-33.33-6.73a0.79 0.78 66.94 0 1-0.9-0.37q-4.06-6.91-7.29-14.87-8.32-20.45-13.17-40.59c-2.27-9.44-4.01-22.06-2.4-32.02 0.95-5.93 5.44-12.37 10.04-17.21q14.78-15.55 33.99-28.51 21.36-14.4 43.73-25c9.52-4.51 20.12-7.72 30.52-5.71q7.16 1.38 15.43 6.94c12.54 8.41 22.78 19.88 32.23 30.29a2.63 2.63-69.51 0 1 0.66 1.45q3.23 26.84 9.41 52.57c0.82 3.39 2.46 7.48 3.05 10.34a0.32 0.32 6.85 0 1-0.45 0.35z" fill="#327dcf"/>
  <path d="m482.06 477.09q-4.56-1.91-8.36-2.56a10.25 10.21 63.16 0 1-2.97-0.98q-2.27-1.15-6.28-3.8c-6.75-4.45-14.08-8.54-16.29-16.98q-3.69-14.11-2.19-26.77 0.52-4.33 2.18-14.03c3.13-18.24 10.26-35.15 20.59-51.26q5.91-9.23 10.17-13.55c6.99-7.09 15.67-16.45 23.58-22.7q20.03-15.8 42.8-21.88c31.18-8.34 66.7-5.7 94.46 11.3q10.6 6.49 19.13 14.22a4.47 4.42 15.58 0 1 1.37 2.4c0.62 3.06 1.45 6.9 2.73 9.57q6.99 14.58 15.82 23.38 3.91 3.91 12.85 8.19a0.29 0.29-46.43 0 1 0.01 0.51c-11.12 6.17-16.81 22.48-17.07 34.42-0.17 8.02-1.08 16.2 2.14 23.26a0.06 0.06 87.39 0 1-0.07 0.08l-14.27-6.89a0.79 0.78 32.7 0 1-0.27-1.21c8.1-9.71 11.13-27.12 7.74-39.17q-3.62-12.83-10.76-22.74-4.36-6.04-10.73-9.01c-8.35-3.87-16.46 3.64-19.02 10.74-5.28 14.63 0.68 32.86 8.29 46.16q2.86 5 5.85 9.51a0.28 0.28 76.64 0 1-0.27 0.44q-4.77-0.58-5.41-0.63-18.91-1.69-31.94 9.9-5.3 4.71-12.35 17.55-5.08 9.25-9.51 19.37a0.07 0.07 57.88 0 1-0.13-0.03q0.99-21.29-8.78-40.89-10.38-20.83-33.11-27.86c-11.22-3.47-22.87 2.58-29.97 11.14q-9.59 11.53-12.27 26.37a0.66 0.66 6.06 0 1-0.67 0.54q-0.71-0.03-3.48-0.28-6.57-0.58-12.23 3.29a1.76 1.76 68.33 0 1-0.93 0.31c-4.33 0.21-8.53 1.07-8.17 6.44q0.04 0.68 1.52 2.87a1 0.98 40.02 0 1 0.09 0.94q-1.23 2.93-1.3 3.85c-0.87 10.36 0.24 18.5 7.75 26.07a0.25 0.25-11.02 0 1-0.27 0.4z" fill="#52ae47"/>
  <path d="m837.88 365.96q0.52-1.22 1.8-2.79 8.44-10.35 18.46-18.99a2.56 2.53 16.95 0 1 1.03-0.54c20.56-5.4 30.94-24.55 37.6-43.04a0.26 0.26-61.6 0 1 0.4-0.12q11.1 8.54 24.75 13.38a0.52 0.52 26.15 0 1 0.27 0.78q-4.1 6.27-10.2 11.35-8.19 6.81-16.73 13.78c-4.86 3.96-10.08 9.48-10.45 16.04a2.15 2.14 83.54 0 1-1.55 1.95q-22.1 6.42-44.96 8.78a0.42 0.41-81.48 0 1-0.42-0.58z" fill="#d4a54e"/>
  <path d="m679.98 312.9a0.31 0.31 88.01 0 1-0.4 0.43c-2.38-1.15-5.73-2.24-7.89-0.46a0.44 0.44 21.47 0 0 0.34 0.78q2.16-0.3 4.81 0.79c6.62 2.72 10.78 4.73 16.91 4.43a0.56 0.56-1.46 0 1 0.59 0.56v0.61a0.35 0.34 60.38 0 0 0.64 0.18q1.93-3.3 4.7-6.53 1.09-1.28 1.84-1.4a2.82 2.6 75.48 0 1 2.89 1.86q1.41 3.94 2.36 9.18a0.42 0.41-46.26 0 0 0.82-0.02q1.18-8.48 5.02-16.42c0.98-2.01 2.68-3.42 4.81-1.91 5.08 3.59 9.29 9.04 13.99 12.54a0.37 0.36-48.83 0 1 0.03 0.55q-19.1 18.97-46.43 15.12-7.74-1.09-13.47-5.97c-4.88-4.16-3.56-18.16 2.22-21.93a1.51 1.5-31.43 0 1 2.12 0.51z" fill="#fff"/>
  <path d="m318.05 306.85a6.91 6.4-109.7 0 1 8.36 4.35 6.91 6.4-109.7 0 1-3.7 8.67 6.91 6.4-109.7 0 1-8.36-4.35 6.91 6.4-109.7 0 1 3.7-8.67z"/>
  <path d="m319.12 307.68a5.7 5.26-102.5 0 1 6.37 4.42 5.7 5.26-102.5 0 1-3.91 6.7 5.7 5.26-102.5 0 1-6.37-4.42 5.7 5.26-102.5 0 1 3.91-6.7z" fill="#333"/>
  <path d="m561.31 314.66c3.36 2.27 8.54 6.01 9.84 9.35a0.69 0.69-6.92 0 1-0.73 0.93q-1.51-0.19-2.8-1.31-4.31-3.74-8.11-6.31-3.8-2.58-8.87-5.19-1.52-0.78-2.25-2.11a0.69 0.69 75.14 0 1 0.59-1.03c3.59-0.03 8.98 3.39 12.33 5.67z"/>
  <path d="m336.64 312.3a6.87 6.39-105.9 0 1 8.03 4.86 6.87 6.39-105.9 0 1-4.27 8.36 6.87 6.39-105.9 0 1-8.03-4.86 6.87 6.39-105.9 0 1 4.27-8.36z"/>
  <path d="m337.72 313.3a5.54 5.21-98.3 0 1 5.96 4.73 5.54 5.21-98.3 0 1-4.36 6.23 5.54 5.21-98.3 0 1-5.96-4.73 5.54 5.21-98.3 0 1 4.36-6.23z" fill="#333"/>
  <path d="m743.63 342.86q2.99 10.55 0.85 20.92-0.12 0.6-0.37 0.86a0.25 0.25 72.56 0 1-0.43-0.23q2-10.83-0.96-21.29t-10.35-18.63a0.25 0.25 75.81 0 1 0.25-0.42q0.35 0.09 0.76 0.53 7.26 7.71 10.25 18.26z"/>
  <path d="m314.76 326a6.85 6.4-105.6 0 1 8 4.88 6.85 6.4-105.6 0 1-4.32 8.32 6.85 6.4-105.6 0 1-8-4.88 6.85 6.4-105.6 0 1 4.32-8.32z"/>
  <path d="m316.57 326.8a5.65 5.22-89.8 0 1 5.2 5.67 5.65 5.22-89.8 0 1-5.24 5.63 5.65 5.22-89.8 0 1-5.2-5.67 5.65 5.22-89.8 0 1 5.24-5.63z" fill="#333"/>
  <path d="m276.82 329.85a8.66 8.42-70.6 0 1 5.06 10.97 8.66 8.42-70.6 0 1-10.82 5.37 8.66 8.42-70.6 0 1-5.06-10.97 8.66 8.42-70.6 0 1 10.82-5.37z"/>
  <path d="m332.97 330.47a6.84 6.39-106.3 0 1 8.05 4.78 6.84 6.39-106.3 0 1-4.21 8.36 6.84 6.39-106.3 0 1-8.05-4.78 6.84 6.39-106.3 0 1 4.21-8.36z"/>
  <g fill="#333">
   <path d="m276.97 331.05a7.57 7.17-66.8 0 1 3.61 9.78 7.57 7.17-66.8 0 1-9.57 4.14 7.57 7.17-66.8 0 1-3.61-9.78 7.57 7.17-66.8 0 1 9.57-4.14z"/>
   <path d="m334.13 331.47a5.55 5.17-97.4 0 1 5.84 4.83 5.55 5.17-97.4 0 1-4.42 6.17 5.55 5.17-97.4 0 1-5.84-4.83 5.55 5.17-97.4 0 1 4.42-6.17z"/>
   <path d="m210.33 369.42c-1.13-6.19 3.1-13.16 7.19-17.9q8.21-9.55 20.44-16.84a2.83 2.81-45.2 0 1 2.86-0.02l0.16 0.09a1.13 1.13 41.41 0 1 0.12 1.87q-10.91 8.4-13.15 10.33-11.03 9.5-17.22 22.52a0.21 0.21-37.73 0 1-0.4-0.05z"/>
  </g>
  <path d="m294.2 339.62a5.2 4.7-97.1 0 1 5.3 4.58 5.2 4.7-97.1 0 1-4.02 5.74 5.2 4.7-97.1 0 1-5.3-4.58 5.2 4.7-97.1 0 1 4.02-5.74z"/>
  <path d="m294.5 340.58a4.04 3.63-95.4 0 1 3.99 3.68 4.04 3.63-95.4 0 1-3.23 4.36 4.04 3.63-95.4 0 1-3.99-3.68 4.04 3.63-95.4 0 1 3.23-4.36z" fill="#333"/>
  <path d="m596.22 350.99q3.45 4.65 6.27 10.85 0.49 1.07 0.22 1.96a0.84 0.84-51.05 0 1-1.54 0.16q-3.27-5.88-7.26-11.26t-8.68-10.21a0.84 0.84-22.12 0 1 0.61-1.42q0.93 0 1.81 0.77 5.12 4.5 8.57 9.15z"/>
  <path d="m776.23 352.67a0.23 0.23-70.34 0 0-0.29 0.14 0.26 0.26-65.06 0 0 0.12 0.33q2.68 1.34 10.27 3.52 20.87 6 41.38 3.99a0.32 0.32-65.78 0 1 0.22 0.58l-9.68 6.94a2.89 2.84 25.25 0 1-1.55 0.54l-32.42 1.72a1.18 1.18-24.9 0 1-0.88-0.32c-6.46-6.02-15.97-7.11-24.51-7.57a0.26 0.26-59.22 0 1-0.12-0.48q6.25-3.93 7.95-4.91 7.62-4.39 11.58-6.35c6.21-3.06 12.4-5.4 19.86-6.49q3.79-0.55 12.2 0.52c4.93 0.62 11.63 1.49 17.57 1.52q14.97 0.07 27.77-2.05a0.18 0.18 19.72 0 1 0.15 0.31l-13.36 11.42a0.53 0.47-70.31 0 1-0.2 0.11l-7.7 2.26a0.36 0.36 11.96 0 1-0.38-0.58q3.89-4.59 6.03-10.64a0.38 0.38 70.84 0 0-0.68-0.33q-4.12 6.58-8.82 11.52a4.05 4.04 18.25 0 1-2.41 1.21c-17.74 2.24-35.06-1.31-52.1-6.91z" fill="#fbdba6"/>
  <path d="m890.24 354.62 2.29-5.22a1.01 1.01 15.14 0 1 1.05-0.6q3.24 0.4 9.62 2.51 9.35 3.1 9.88 12.82 0.55 10.2 0.55 22.79a0.31 0.3 4.11 0 1-0.35 0.3c-14.63-2.39-28.98-3.26-43.36-1.86q-0.19 0.02-12.24 0.79c-5.63 0.36-12.28-1.14-16.68-1.11-23.5 0.15-48.86 8.18-65.08 25.61a0.54 0.54-34.11 0 1-0.9-0.17q-3.68-9.4-1.73-19.8 1.64-8.73 8.42-15.09a1.77 1.77-67.95 0 1 1.08-0.46q3.13-0.18 39.95-3.16 14.46-1.17 31.35-3.93 15.02-2.45 31.68-8.54 5.56-2.03 9.48-4.88a0.54 0.54 54.34 0 0 0.12-0.74l-0.14-0.21a0.08 0.06 62.25 0 0-0.07-0.03l-4.26 1.67a0.52 0.52-88.75 0 1-0.66-0.69z" fill="#327dcf"/>
  <path d="m316.23 349.64a14.64 13.66-105.4 0 1 17.06 10.48 14.64 13.66-105.4 0 1-9.28 17.74 14.64 13.66-105.4 0 1-17.06-10.48 14.64 13.66-105.4 0 1 9.28-17.74z"/>
  <path d="m629.29 369.93c0.39-8 4.57-17.25 13.09-18.62q3.15-0.51 6.63 1.38c6.95 3.77 10.87 10.2 14.51 17.07q11.88 22.45 1.08 45.59-1.6 3.44-4.09 6.24a0.81 0.81 30.65 0 1-0.87 0.22q-3.02-1.02-7.44-1.98c-5.41-1.17-8.8-7.03-11.36-11.68-5.42-9.85-12.14-25.32-10.37-36.71q0.53-3.39 2.86-6.85c3.2-4.74 10.47-3.18 14.63-0.44 10.16 6.67 16.06 20.2 15.13 31.45q-0.74 8.99-3.85 16.86-0.66 1.66-3.28 7.21a0.39 0.38 17.69 0 0 0.28 0.54l0.26 0.05a0.13 0.12 17.92 0 0 0.14-0.06q5.92-9.95 7.3-21.38c1.69-14.13-4.76-30.25-17.84-36.89-5.89-2.99-12.89-1.51-15.13 5.17q-0.81 2.42-1.11 2.99a0.3 0.3 60.53 0 1-0.57-0.16z" fill="#38812d"/>
  <path d="m318.62 351.4a12.18 11.44-96.4 0 1 12.73 10.82 12.18 11.44-96.4 0 1-10.01 13.38 12.18 11.44-96.4 0 1-12.73-10.82 12.18 11.44-96.4 0 1 10.01-13.38z" fill="#333"/>
  <path d="m316.35 353.6a9.52 8.99-109.2 0 1 11.62 6.03 9.52 8.99-109.2 0 1-5.36 11.95 9.52 8.99-109.2 0 1-11.62-6.03 9.52 8.99-109.2 0 1 5.36-11.95z"/>
  <path d="m318.44 354.49a8.02 7.53-96.6 0 1 8.4 7.1 8.02 7.53-96.6 0 1-6.56 8.84 8.02 7.53-96.6 0 1-8.4-7.1 8.02 7.53-96.6 0 1 6.56-8.84z" fill="#333"/>
  <path d="m267.01 356.52a5.13 4.81-130.7 0 1 7 0.75 5.13 4.81-130.7 0 1-0.3 7.03 5.13 4.81-130.7 0 1-7-0.75 5.13 4.81-130.7 0 1 0.3-7.03z" fill="#333"/>
  <path d="m824.75 368.25a0.31 0.31 19.85 0 1-0.25-0.53l8.4-7.69a2.1 2.09 14.27 0 1 0.73-0.43l7.96-2.68a0.27 0.27 11.28 0 1 0.29 0.43q-3.61 4.19-5.74 8.94a0.96 0.95-81.41 0 1-0.74 0.55z" fill="#fbdba6"/>
  <path d="m233.9 364.61a15.65 14.62-112.9 0 1 19.56 8.73 15.65 14.62-112.9 0 1-7.38 20.11 15.65 14.62-112.9 0 1-19.56-8.73 15.65 14.62-112.9 0 1 7.38-20.11z"/>
  <path d="m712 436.88q-5.78-17.43-3.84-31.68c1.56-11.41 6.96-18.08 15.93-25.07q3.54-2.76 10.57-5.6 8.28-3.34 15.31-7.12 4.21-2.27 4.96-2.59a3.11 3.09-54.4 0 1 1.48-0.25q8.74 0.64 16.89 3.87c3.88 1.53 2.68 4.5 1.06 7.44q-3.05 5.55-3.79 9.25c-1.59 7.95-1.76 20.1 3.45 26.75a0.83 0.82-42.19 0 1-0.06 1.08q-7.77 7.99-12.54 17.69-0.69 1.39-3.5 7.29-1.55 3.26-4.47 6.67-4.19 4.89-7.15 6.96c-13.42 9.35-25.38 17.03-35.88 28.29a0.27 0.27-24.75 0 1-0.47-0.17q-0.61-12.99-5.91-22.47c-4.72-8.43-12.38-16.49-20.31-22.48a3.53 3.45 4.54 0 1-0.96-1.1c-8.79-15.81-6.31-39.53 5.21-53.89 2.55-3.19 5.39-5.9 9.39-5.89a3 2.72 51.59 0 1 0.91 0.15q10.85 3.49 22.47 3.87a0.25 0.25-62.65 0 1 0.14 0.45q-11.36 8.73-15.08 22.89c-1.7 6.46-0.84 13.89 0.02 20.27 0.67 5.02 2.49 11.42 5.91 15.53a0.15 0.15 16.25 0 0 0.26-0.14z" fill="#327dcf"/>
  <path d="m237.2 365.93a13.02 12.24-101.8 0 1 14.64 10.24 13.02 12.24-101.8 0 1-9.32 15.24 13.02 12.24-101.8 0 1-14.64-10.24 13.02 12.24-101.8 0 1 9.32-15.24z" fill="#333"/>
  <path d="m234.73 368.38a10.15 9.56-116.1 0 1 13.06 4.9 10.15 9.56-116.1 0 1-4.12 13.32 10.15 9.56-116.1 0 1-13.06-4.9 10.15 9.56-116.1 0 1 4.12-13.32z"/>
  <path d="m236.85 369.1a8.52 8.04-105.2 0 1 9.99 6.11 8.52 8.04-105.2 0 1-5.53 10.33 8.52 8.04-105.2 0 1-9.99-6.11 8.52 8.04-105.2 0 1 5.53-10.33z" fill="#333"/>
  <path d="m616.53 390.68q2.79 7.22 3.19 12.8a0.6 0.58-84.66 0 1-0.73 0.62q-0.58-0.16-0.79-0.84-2.12-6.82-4-11.67-1.88-4.86-4.91-11.33-0.3-0.64 0.02-1.15a0.6 0.58 42.31 0 1 0.95-0.03q3.48 4.39 6.27 11.6z"/>
  <path d="m275.5 461.9a0.14 0.14 40.43 0 1-0.27 0.02c-4.31-14.78-4.71-30.25 5.73-42.39q6.17-7.17 14.12-12.93 17.34-12.57 34.37-21.14 4.4-2.22 10.73-4.17c10.39-3.21 20.34-1.42 29.47 4.71q5.43 3.64 11.37 9.06a0.19 0.19 73.23 0 1-0.17 0.32q-2.67-0.66-4.03-1.4-2.55-1.39-12.14-4.34-13.27-4.07-27.16 1.13-12.05 4.51-21.63 10.13-14.44 8.48-25.69 20.55c-2.49 2.67-5.18 5.52-6.62 8.89q-0.13 0.29-2.83 5.89c-3.6 7.49-4.2 16.78-5.25 25.67z" fill="#333"/>
  <path d="m290.14 404.66c-0.05 3.35-6.54 7.76-9.6 6.1a1.65 1.62-0.49 0 1-0.59-0.57l-3.4-5.56a1.3 1.3 57.63 0 0-1.81-0.41c-2.49 1.62-6.25 4.91-8.22 2.68q-2.66-3.02-4.03-6.41a2.69 2.69-26.02 0 1 1.15-3.34l5.31-3.07a1.71 1.7 64.04 0 0 0.73-2.12q-0.64-1.6-2.53-4.25c-2.72-3.82 2.78-6.8 6.08-7.73a2.1 2.09-22.73 0 1 2.37 0.97l2.88 4.97a1.67 1.67 57.9 0 0 2.39 0.55c1.56-1.08 5.38-5.23 8.46-3.27a1.3 1.27-89.35 0 1 0.43 0.45l3.13 5.42a3.24 3.22-30.02 0 1-1.19 4.41l-4.3 2.49a1.77 1.77 60.11 0 0-0.65 2.42l3.2 5.55a1.47 1.41-61.15 0 1 0.19 0.72z"/>
  <path d="m263.46 400.53a1.8 1.78-30.08 0 1 0.66-2.44l5.72-3.3a2.19 2.18 59.96 0 0 0.79-2.98l-2.95-5.11a2.39 2.39 60.12 0 1 0.88-3.27l3.75-2.17a2.22 2.21-29.15 0 1 3.06 0.86q1.78 3.27 2.47 4.25c1.48 2.11 2.37 1.93 4.27 0.48q1.8-1.38 3.68-2.7a2.61 2.61-32.58 0 1 3.77 0.83l2.48 4.3a2.2 2.19-27.64 0 1-0.97 3.08q-1.32 0.62-4.56 2.87-1.97 1.36-0.94 3.39 0.05 0.08 2.8 4.84a2.82 2.81 58.54 0 1-0.9 3.77l-3.91 2.52a2.19 2.19 61.14 0 1-3.17-0.92q-0.35-0.75-2.89-4.78-1.38-2.19-3.85-0.6-2.67 1.73-4.36 2.79a2.12 2.12 58.99 0 1-2.96-0.74z" fill="#333"/>
  <path d="m1062.3 490.36q-18.26-14.45-38.03-25.38-30.32-16.77-65.12-20.35c-8.45-0.87-20.11-0.38-27.7-0.32a1.03 1.01 77.93 0 1-0.93-0.61q-3.81-8.73-10.67-18.41-4.84-6.83-11.22-12.05-20.74-16.95-46.11-24.67a0.23 0.23-34.95 0 1 0.08-0.45q10.34 0.51 18.42 0.72 10.54 0.27 18.38 1.21 23.58 2.83 45.25 7.3c28.06 5.8 53.79 16.95 80.36 31.13q22.94 12.23 44.73 27.51 34.89 24.45 61.75 58.74 1.57 2.01 1.96 4.53a2.77 2.73 50.74 0 1-0.13 1.4q-3.08 8.49-8.82 15.11-17.16 19.78-35.55 36.31c-9.55 8.59-17.16 15.42-26.5 21.9-7.63 5.29-16.55 10.03-26.08 9.59a3.39 3.39-8.38 0 1-3.03-2.25q-2.2-6.26-5.75-17.01c-4.83-14.69-12.1-28.72-20.54-40.65q-15.56-22-34.59-41.4c-8.33-8.5-18.75-16.47-30.49-20.18a1.07 1.06 4.51 0 1-0.73-0.85q-1.95-12.85-6.01-25.28a0.53 0.53 85.18 0 1 0.58-0.69c21.44 3.28 41.62 13.48 59.35 25.33q17.77 11.89 33.54 25.93 5.19 4.62 17.12 15.81a0.21 0.19-44.92 0 0 0.27-0.01 0.2 0.2 47.21 0 0 0.01-0.27q-20.55-22.56-45.58-40.86c-19.22-14.07-42.45-26.39-66.39-29.68a0.48 0.46 81.09 0 1-0.38-0.29l-1.83-4.13a0.13 0.13-9.79 0 1 0.13-0.18q18.76 0.31 26.43 1.11 28.7 2.99 55.8 15.39 26.8 12.26 47.96 27.03a0.05 0.05-8.33 0 0 0.06-0.08z" fill="#327dcf"/>
  <path d="m720.52 540.26q-1.27-3.6-4.73-8.75-6.8-10.11-8.88-11.94-5.25-4.63-11.44-7.59a0.87 0.87-62.6 0 1-0.38-1.21q4.39-7.99 6.63-11.8c7-11.97 15.19-21.45 26.09-29.77 9.01-6.87 18.91-12.72 25.4-21.42a0.14089 0.14089-16.55 0 1 0.25 0.13l-2.68 6.82a0.12 0.12 19.74 0 0 0.08 0.16 0.18 0.17 27.28 0 0 0.24-0.07c4.11-7.3 7.5-14.01 10.84-19.11q0.9-1.38 7.96-10.53c12.34-15.99 30.47-27.22 49.58-32.68 22.74-6.49 45.91-0.08 66.22 10.98q7.46 4.06 13.29 9.63 9.54 9.12 14.47 15.42c10.89 13.93 17.42 31.8 21.21 49.17q2.41 10.99 2.92 16.51 0.59 6.29-1.2 16.68c-3.55 20.61-8.49 40.24-17.22 59.24-9.75 21.22-19.22 37.3-32.44 59.11-10.06 16.58-15.16 37.34-14.35 56.67 0.68 15.93 0.61 32.08-1.24 47.53-3.09 25.71-13.08 50.79-25.54 73.42q-6.81 12.38-11.86 18.61-29.07 35.93-67.4 60.35-12.61 8.03-31.96 18.8-30.58 17.02-69.99 27.51-34.61 9.22-70.37 6.81a0.46 0.45-59.27 0 1-0.21-0.84q15.07-9.58 31.4-19.39c11.33-6.8 20.57-14.59 27.04-26.41 6.97-12.74 5.15-27.93-2.13-40.04a0.29 0.29-12 0 1 0.28-0.43q13.02 1.47 26.06-1.14a2.1 2.06-39.08 0 1 1.18 0.11q26.67 10.57 55.16 8.63c14.7-1 30.86-5.83 44.41-11.95q9.57-4.33 16.45-9.29c16.73-12.06 31.4-27.75 41.7-45.58q1.83-3.16 5.26-15.33a0.19 0.02-77.61 0 0 0.01-0.09q0-0.02 0-0.03a5e-3 0 0 0 0-0.01 0q-2.77 6.34-4.95 10.78c-10.69 21.81-29.28 37.43-50.32 49.65-20.17 11.72-46.89 17.94-70.6 16.39q-6.71-0.44-20.38-3.37c-16.14-3.46-30.65-11.54-44.26-21.63-11.66-8.63-21.2-21.01-28.62-33.24q-0.83-1.38-0.13-3.58c3.56-11.21 8.2-25.95 10.86-40.15q2.45-13.03 0.72-23.44c-2.14-12.86-10.6-25.02-20.17-35.24q-4.98-5.31-14.13-12.41-9.05-7.03-15.49-11.8a0.01118 0.01118 10.58 0 0-0.02 0.01q1.43 2.04 3.27 3.72c7.58 6.89 15.91 13.69 22.98 21.58a1.31 1.31 33.5 0 1 0.27 1.32c-2.94 8.55-8.33 16.66-13.78 23.87q-20.28 26.83-51.87 36.42c-14.81 4.49-29.02 4.68-43.29 0.22q-5.23-1.63-5.86-1.73a1.19 1.19 77.64 0 1-0.81-0.52q-1.37-2.12-1.84-2.96c-9.27-16.7-15.87-36.18-17.15-55.64-0.74-11.11 0.45-22.45 1.8-33.6 0.42-3.43 1.18-7.65 2.87-11.43q4.98-11.13 11.59-20.79c3.68-5.37 9.19-8.29 15.52-11.02q10.01-4.31 16.05-6.46c24.92-8.85 50.86-10.14 76.37-6.11a6.61 6.59-22.39 0 1 2.82 1.17c7.89 5.7 18.56 13.54 29.48 19.53q16.03 8.79 32.52 12.19 16.4 3.38 32.98 8.01c9.86 2.76 21.44 3.36 30.65-1.82a2.01 1.99-47.2 0 1 1.81-0.08c13.41 6.08 24.9 14.25 34.63 25.86q11.05 13.17 16.88 21.22 2.19 3.02 3.51 5.25a0.1 0.1-72.09 0 0 0.17-0.09q-1.88-4.61-4.83-10.03a0.61 0.61-31.15 0 1 0.2-0.8q5.11-3.34 6.41-9.2c2.19-9.85 1.09-25.07 1.17-30.95 0.16-11.56 6.4-20.04 16.37-25.26q14.17-7.41 20.51-11.21 15.63-9.38 27.17-21.84c3.55-3.83 7.16-9.14 9.65-14.79 4.02-9.12 7.81-15.8 5.93-24.22a0.22 0.21-2.74 0 1 0.24-0.26l5.64 0.75a0.25 0.25 60.69 0 0 0.13-0.48q-4.3-1.95-8.59-4.12c-1.73-0.87-3.1-0.51-4.94-0.36q-12.75 1.03-22.59 4.89-13.58 5.32-26.29 14.67a12.05 11.88-88.57 0 0-2.32 2.24c-8.1 10.2-17.52 18.45-27.91 28.14-9.89 9.21-19.85 16.85-30.62 24.74a13.27 13.27-85.37 0 0-2.92 2.92c-11.01 14.97-24.04 26.72-44.32 22.27q-10.69-2.35-20.08-4.24-1.63-0.33-3.34-1.76a2.51 2.44-84.5 0 1-0.57-0.71q-4.31-8.12-5.49-12.75-6.37-25.11-3.98-51.36 0.69-7.59 2.74-14.7c4.73-16.43 16.71-29.31 31.96-36.65a0.92 0.92 49.33 0 1 0.92 0.07q3.25 2.21 5.04 4.63 5.64 7.66 9.25 13.98a0.71 0.71-69.67 0 0 1.28-0.59z" fill="#d4a54e"/>
  <path d="m406.45 429.6a0.21 0.21 87.44 0 1-0.27 0.3q-16.98-9.75-29.99-17.31-3.69-2.15-7.52 0.07-7.42 4.29-60.19 34.78c-3.19 1.84-4.1 4.95-3.95 8.88q0.07 1.71-0.03 26.51a0.53 0.53-76.89 0 1-0.77 0.48q-10.51-5.21-22.65-8.51a1.54 1.54 2.96 0 1-1.12-1.24q-2.2-13.35 1.21-28.1 2.13-9.25 8.09-17.51 6.5-9.03 13.03-14.4 10.29-8.48 22.3-14.28 14.09-6.81 21.08-8.07 11.1-1.99 22.3 2.14 8.38 3.09 13.92 6.04 4.55 2.42 7.2 3.69a4.62 4.56 57.61 0 0 2 0.46h1.41a1.08 1.07 78.39 0 1 0.99 0.66c3.7 8.89 7.62 17.63 12.96 25.41z" fill="#006172"/>
  <path d="m502.73 428.42q0.43-3.95 5.07-13.37c4.76-9.67 16.14-19.07 27.4-18.76 13.27 0.37 24.6 8.88 32.39 19.6q16.32 22.46 12.92 50.1-0.24 2-2.36 7.77c-2 5.46-6.95 9.92-11.53 12.8a1.2 1.2 58.44 0 1-1.67-0.4l-0.04-0.07a1.29 1.28 57.31 0 1 0.37-1.71q12.49-8.7 12.46-23.53-0.01-6.85-2.19-16.41-5.29-23.19-24.95-34.99-7.79-4.68-17.32-4.91-9.13-0.22-16.76 6.41-10.02 8.7-13.51 17.54a0.15 0.15 58.81 0 1-0.28-0.07z" fill="#38812d"/>
  <path d="m563.42 483.62q-4.95-3.37-15.86-10.41c-4.95-3.19-12.11-7.92-15.17-13.06-4.31-7.23-6.86-12.79-12.72-17.3q-7.7-5.93-16.5-8.83a0.66 0.65 18.7 0 1-0.42-0.84c4.01-11.12 11.8-21.42 22.87-25.82 10.94-4.35 25.95 2.02 33.76 10q9.15 9.36 13 20.5c3.26 9.41 5.85 22.98 2.41 32.41q-2.82 7.71-10.5 13.34a0.74 0.74 44.22 0 1-0.87 0.01z" fill="#38812d"/>
  <path d="m314.34 447.14 56.1-32.38a0.33 0.33 77.31 0 1 0.49 0.28v24.93a0.33 0.33-59.29 0 1-0.29 0.33l-56.09 7.45a0.33 0.33 62.97 0 1-0.21-0.61z" fill="#ae566f"/>
  <path d="m410.67 435.67 7.06 9.84a0.33 0.33-66.25 0 1-0.31 0.52l-43.1-5.76a0.33 0.33 40.91 0 1-0.29-0.33v-24.89a0.33 0.33-39.27 0 1 0.49-0.28l36.05 20.8a0.33 0.33-46.4 0 1 0.1 0.1z" fill="#ae566f"/>
  <path d="m662.42 426.25-1.53-1.4a0.27 0.26 77.6 0 1 0.28-0.44q12.72 5.29 23.22 13.68 10.79 8.61 17.96 23.23c1.88 3.85 2.49 7.92 3.74 12.86q1.43 5.65-0.3 10.92a5.54 5.4 72.73 0 1-0.78 1.53q-4.99 6.87-9.31 14.57-2.29 4.08-3.4 8.53a0.56 0.56 15.55 0 1-0.71 0.4q-6.56-2.01-14.6-2.79a1.35 1.35-12.29 0 1-1.06-0.68l-2.89-5a0.92 0.91 50.31 0 1 0.09-1.03q4.67-5.54 6.33-9.42 5.88-13.73 7.11-28.43c0.33-3.98 0.3-8.82-2.03-11.91q-3.64-4.84-10.76-4.58-1.72 0.06-4.47 2.79-14.21 14.11-32.08 20.4-1.72 0.61-9.29 2.53c-5.26 1.33-7.78 2.47-10.26 6.81-2.7 4.74 0.04 10.79 4.08 13.69 10.95 7.89 26.01 11.28 39.26 12.09q3.53 0.22 7.31-0.63a1.07 1.07 66.17 0 1 1.1 0.43l1.48 2.05a0.38 0.38 21.75 0 1-0.32 0.6q-12.81-0.34-32.1-0.24c-18.51 0.09-31.37-0.9-50.89-1.86a2.42 2.41-19.56 0 1-1.67-0.79c-6.82-7.58-6.84-20.87-3.6-29.84 4.78-13.28 7.95-22.13 14.63-32.52a0.26 0.26 60.09 0 1 0.48 0.13l0.42 7.91a0.44 0.44 88.64 0 0 0.44 0.42h0.35a0.52 0.52 0 0 0 0.52-0.52v-9.83a5.63 5.62 62.13 0 1 0.97-3.16q13.15-19.4 37.11-18.15 3.12 0.16 6.91 1.22c2.7 0.75 6.45 1.34 9.1 2.55q2.44 1.11 8.85 4.32a0.27 0.27-10.07 0 0 0.31-0.44z" fill="#52ae47"/>
  <path d="m389.78 438.57-0.72-0.09a3.3 3.27-7.94 0 1-2.56-1.92l-3.12-7.08a0.8 0.79-8.01 0 0-0.62-0.46l-2.17-0.29a1.41 1.41-45.42 0 1-0.02-2.79q2.85-0.42 4.72 0.84a2.45 2.42 5.74 0 1 0.87 1.05l4.32 9.8a0.67 0.67 81.77 0 1-0.7 0.94z"/>
  <path d="m362.89 426.9a8.03 3.9-48.4 0 1-2.41 8.59 8.03 3.9-48.4 0 1-8.25 3.41 8.03 3.9-48.4 0 1 2.41-8.59 8.03 3.9-48.4 0 1 8.25-3.41z"/>
  <path d="m396.59 437.06 4.1 0.79a2.29 2.29-15 0 1 1.3 0.75l0.57 0.67a0.64 0.64-15.86 0 1-0.58 1.04c-3.98-0.62-9.58-0.97-10.23-4.12a1.03 1-26.74 0 1 0.34-0.99l2.88-2.46a1.3 1.3 39.34 0 0-0.21-2.12q-2.16-1.22-3.85-0.95a1.79 1.79 73.42 0 1-1.92-1.04l-0.2-0.46a0.86 0.85 79.13 0 1 0.81-1.2q5.25 0.21 8.4 3.37c2.56 2.57 1.43 4.67-1.5 5.96a0.4 0.4 38.57 0 0 0.09 0.76z"/>
  <path d="m348.29 432.06a0.29 0.29-5.69 0 0-0.44-0.36q-0.87 0.68-0.96 0.68a0.91 0.91 24.41 0 1-0.6-1.59q3.03-2.69 5.74-2.87a0.75 0.75 11.15 0 1 0.72 1.07l-4.89 10.14a2.15 2.14 12.62 0 1-1.94 1.22h-0.56a0.67 0.67-77.14 0 1-0.6-0.96z"/>
  <path d="m359.84 429.17a4.41 1.6-58.6 0 1-0.93 4.59 4.41 1.6-58.6 0 1-3.67 2.93 4.41 1.6-58.6 0 1 0.93-4.59 4.41 1.6-58.6 0 1 3.67-2.93z" fill="#ae566f"/>
  <path d="m665.69 430.82a4.02 0.45-129.3 0 1 2.9 2.82 4.02 0.45-129.3 0 1 2.2 3.4 4.02 0.45-129.3 0 1-2.9-2.82 4.02 0.45-129.3 0 1-2.2-3.4z"/>
  <path d="m498.9 436.38q-4.7 1.44-5.98 2.92a0.98 0.98 33.24 0 1-1.17 0.24l-4.83-2.33a0.2 0.2 77.93 0 1 0-0.36q5.69-2.91 11.97-1.18a0.37 0.37 44.25 0 1 0.01 0.71z" fill="#ae566f"/>
  <path d="m473.82 566.44q-0.9-0.21-5.54-0.31c-3.44-0.07-6.41-0.93-9.18-3.44-2.09-1.9-4.01-3.74-6.93-5.34q-4.93-2.7-11.27-7.2-6.45-4.59-9.45-9.27-5.36-8.36-6.42-19.38a0.31 0.31 89.22 0 1 0.33-0.34q0.32 0.01 0.56 0.2 10.78 8.43 22.11 13.45a8.14 8.12-4.36 0 1 3.56 3.05q2.07 3.26 6.19 6.82 5.47 4.71 12.98 1.44a0.19 0.19-54.53 0 0-0.06-0.36q-1.37-0.1-3.67 0.03-5.75 0.31-9.42-3.89-3.79-4.34-5.49-6.05-1.78-1.8-6.8-4.45c-8.68-4.57-16.6-8.99-21.73-16.95-2.95-4.57-2.63-13.53-1.36-18.65q0.58-2.34 1.98-8.87a0.53 0.53 25.69 0 1 0.86-0.3q6.24 5.13 11.72 9.84c4.67 4.01 4.38 13.3 12.03 16.09q4.1 1.49 6.68 1.87a0.25 0.25-28.79 0 0 0.14-0.48c-4.78-2.06-7.85-2.97-10.67-7.86q-2.63-4.56-5.08-9.05a3.33 3.23 8.58 0 0-0.64-0.84q-5.55-5.32-12.71-11.44c-2.06-1.75-3.97-4.63-4.34-7.59q-1.06-8.53 1.34-15.85c2.47-7.57 10.52-16.88 18.06-19.79a0.64 0.63 74.65 0 1 0.85 0.49c1.54 9.3 3.12 16.35 11.15 22.24q10.82 7.92 15.65 10.61 3.68 2.04 11.74 3.71c3.83 0.79 6.74 2.2 10.05 4.86q8.24 6.62 9.34 8.04a0.33 0.32-57.36 0 0 0.57-0.13q0.16-0.68-0.64-1.71-1.31-1.69-3.58-3.63-6.56-5.6-11.46-10.53-2.17-2.19-2.77-4.67-2.46-10.21 1.46-19.26a0.76 0.75-70.73 0 1 0.89-0.43c3.82 1.05 6.9 2.27 10.87 1.29a2.25 2.18-74.02 0 0 1.01-0.58c4.04-4.06 0.14-8.46-3.38-10.96a0.56 0.56 49.82 0 1 0.08-0.96c4.59-2.17 7.83-3.71 12.8-1.96q7.33 2.59 12.5 6.58c3.93 3.04 6.82 8.76 9.37 13.45 3.03 5.58 7.41 9.77 12.15 13.52 6.66 5.29 18.45 13.15 24.32 21.18q4.47 6.11 8.52 11.71 3.1 4.29 5.03 6.26a0.26 0.26 7.78 0 0 0.41-0.31l-1.05-1.83a0.65 0.64-13.44 0 1 0.6-0.97q20.2 1.28 32.6 1.89c17.58 0.86 40.38 0.59 52.29 0.73 12.13 0.14 22.06 0.91 32.41 5.45q4.83 2.11 8.38 5.37a0.55 0.55 57.71 0 1-0.21 0.94q-2.99 0.9-4.98 2.13-20.57 12.68-26.79 32.88-4.27 13.87-4.03 32.1 0.21 15.5 3.59 30.88c1.47 6.67 3.59 11.7 6.75 17.84a0.36 0.36-7.82 0 1-0.39 0.51q-7.89-1.51-16.06-3.44-16.77-3.95-31.35-12.36c-8.21-4.74-16.87-10.65-26.13-17.54q-17.64-13.12-33.41-22.67-8.23-4.98-16.02-8.28a7.43 7.38-33.37 0 0-2.97-0.6q-24.02 0.07-42.35-0.04-2.28-0.01-4.3 0.24c-6.93 0.87-13.59 2.34-20.45 2.3-5.82-0.04-11.37-1.51-18.68-2.76q-0.95-0.16-7.74-4.01a4.22 3.87-4.73 0 1-0.94-0.73q-2.66-2.83-8.6-6.27c-2.51-1.46-4.3-4.71-5.76-6.15q-1.46-1.45-2.79-3.16a0.29 0.29 89.42 0 1 0.4-0.41q6.96 5.28 14.76 8.64a4.32 4.28 80.25 0 1 1.43 1.02c2.75 3 4.4 5.45 8.26 5.9q2.08 0.24 8.8-1.04a0.24 0.23-42.94 0 0 0.02-0.46z" fill="#533617"/>
  <path d="m476.52 440.52a10.71 4.84-156 0 1 11.75-0.06 10.71 4.84-156 0 1 7.81 8.78 10.71 4.84-156 0 1-11.75 0.06 10.71 4.84-156 0 1-7.81-8.78z" fill="#fff"/>
  <path d="m672.22 439.88 1.4 2.8a0.38 0.35 42.8 0 1 0.02 0.26q-0.17 0.56-0.7 0.19a0.54 0.52-84.48 0 1-0.19-0.24q-0.85-2.45-0.86-2.93a0.17 0.17 31.17 0 1 0.33-0.08z" fill="#333"/>
  <g fill="#ae566f">
   <path d="m333.02 506.14-10.23-9.37a0.32 0.32 53.88 0 1-0.09-0.14l-14.98-44.54a0.32 0.32 21.49 0 1 0.26-0.42l61.03-8.11a0.32 0.32 43.62 0 1 0.32 0.47l-35.82 62.03a0.32 0.32 64.69 0 1-0.49 0.08z"/>
   <path d="m418.36 472.76a0.5 0.5-11.46 0 1 0.71 0.47q-0.3 5.96 3.36 10.33a1.08 1.07 35.83 0 1 0.18 1.08q-3.14 8.05-4.96 18.48a3.74 3.22 52.02 0 0-0.04 0.84l0.35 5.27a1.78 1.76-37.59 0 1-0.1 0.74l-1.37 3.61a0.38 0.38 39.97 0 1-0.69 0.06l-40.26-69.73a0.26 0.25-10.96 0 1 0.26-0.38l44.17 5.9a1.41 1.4-19.71 0 1 0.75 0.35l2.92 2.68a0.68 0.68 38.75 0 1 0.1 0.88q-3.19 4.55-4.1 10.54a0.35 0.35-59.14 0 1-0.63 0.16c-1.68-2.24-4.47-6.74-7-5.14q-1.15 0.73-1.3 1.98a0.9 0.9 17.67 0 0 0.46 0.89q2.21 1.23 3.79 4.09a1.17 1.17-15.51 0 1-0.98 1.73c-1.74 0.07-5.22-1.66-8.98-3.17-2.67-1.08-5.58 1.41-3.69 4.26q0.59 0.89 6.35 9.12a2.2 2.19-32.42 0 0 2.9 0.64l0.33-0.19a1.6 1.6 57.25 0 0 0.5-2.32l-3.3-4.61a0.32 0.32-4.66 0 1 0.4-0.47c3.01 1.48 6.7 3.42 9.87 1.91z"/>
   <path d="m335.76 508.14 36.37-62.99a0.4 0.4 85.48 0 1 0.7 0l40.93 70.91a0.4 0.4 14.36 0 1-0.34 0.6h-70.55a0.4 0.4 24.11 0 1-0.3-0.14l-6.77-7.93a0.4 0.4-11.49 0 1-0.04-0.45z"/>
  </g>
  <path d="m633.57 471.74q8.38-2.49 17.38-7.13c3.17-1.64 5.36-3.57 9.04-6.12q4.42-3.07 10.29-8.72 4.24-4.08 9.45-1.21c4.37 2.42 5.41 6.25 5.2 11.4q-0.67 16.78-7.61 31.82c-1.8 3.89-6.02 10.07-10.34 10.93q-3.53 0.7-8.84 0.06c-11.98-1.45-25-5.01-35.2-11.42q-2.43-1.52-3.99-4.89c-2.32-5.03 0.24-9.9 5.11-12.18 2.89-1.36 6.63-1.68 9.51-2.54z" fill="#333"/>
  <path d="m483.24 451.22c-3.31 4.46-3.53 12.96-2.59 18.12a0.35 0.34 25.04 0 1-0.64 0.23q-5.08-8.83-3.5-19.07 0.26-1.7 0.69-2.32a0.68 0.68-59.55 0 1 0.84-0.22l4.99 2.41a0.57 0.57 31.24 0 1 0.21 0.85z" fill="#ae566f"/>
  <path d="m342.61 471.6c-2.41 3.92-7.59 8.17-11.32 3.1-0.54-0.74-0.56-2.37-0.78-3.28a0.63 0.62-13.27 0 0-0.76-0.46c-2.11 0.54-3.25 0.91-5.16-0.6-2.81-2.24-1.17-7.15 0.35-9.62s5.16-6.15 8.42-4.65c2.22 1.02 2.4 2.2 2.87 4.33a0.63 0.62 76.42 0 0 0.75 0.47c0.92-0.22 2.38-0.94 3.29-0.79 6.2 1.03 4.75 7.58 2.34 11.5z"/>
  <path d="m600.56 457a5.19 0.64-110.2 0 1 2.39 4.65 5.19 0.64-110.2 0 1 1.19 5.09 5.19 0.64-110.2 0 1-2.39-4.65 5.19 0.64-110.2 0 1-1.19-5.09z"/>
  <path d="m307.1 461.23a0.25 0.25 35.66 0 1 0.49-0.08l10.46 31.12a0.41 0.41 3.11 0 1-0.66 0.44q-4.66-4.09-9.63-6.68a1.24 1.23 14.11 0 1-0.66-1.09z" fill="#ae566f"/>
  <path d="m331.56 461.46a2.89 2.54-54.8 0 1 0.41 3.82 2.89 2.54-54.8 0 1-3.75 0.9 2.89 2.54-54.8 0 1-0.41-3.82 2.89 2.54-54.8 0 1 3.75-0.9z" fill="#ae566f"/>
  <path d="m230.36 471.22c3.53-6.81 11.69-8.52 18.95-7.45q9.59 1.41 18.56 7.16c3.25 2.09 7.36 5.21 8.35 8.58a1.36 1.36 79.06 0 1-1.18 1.75q-1.69 0.16-2.97-0.83c-10.01-7.83-21.94-12.05-34.26-10.65-2.63 0.3-4.56 1.08-7.08 1.89a0.32 0.31-84.95 0 1-0.37-0.45z" fill="#fff"/>
  <path d="m661.76 477.68q-2.17 1.36-4.19 2.36-6.9 3.45-14.42 4.73a0.37 0.35 79.32 0 1-0.41-0.29v-0.01a0.19 0.19 80.73 0 1 0.16-0.22c6.21-1.04 12.86-3.96 18.36-7.38 5.49-3.42 11.06-8.1 14.73-13.21a0.19 0.19 35.49 0 1 0.27-0.05l0.01 0.01a0.37 0.35 36.9 0 1 0.08 0.49q-4.47 6.18-10.62 10.86-1.79 1.36-3.97 2.71z"/>
  <path d="m339.15 465.59a3.37 2.97-55.8 0 1 0.57 4.46 3.37 2.97-55.8 0 1-4.35 1.12 3.37 2.97-55.8 0 1-0.57-4.46 3.37 2.97-55.8 0 1 4.35-1.12z" fill="#ae566f"/>
  <path d="m268.1 480.24c2.4 1.77 7.23 6.37 5.77 9.33-2.62 5.3-11.47 5.32-16.32 4.26q-8.82-1.93-15.98-4.72c-5.2-2.02-8.26-2.8-12.93-4.41-3.05-1.04-5.45-3.06-2.89-6.5 4.05-5.44 11.75-6.63 18.21-6.33 8.44 0.38 17.42 3.43 24.14 8.37z" fill="#fff"/>
  <path d="m608.81 473.4 3.97 4.33a0.11102 0.11102 81.5 0 1-0.13 0.18q-3.68-1.86-4.37-4.21a0.31 0.31-74.48 0 1 0.53-0.3z"/>
  <path d="m579.13 477.89q-0.03 0.59-1.22 4.88c-2 7.23-0.38 14.87 3.91 20.92a0.67 0.67 80.09 0 1-0.73 1.04l-4.28-1.19a4.84 4.84 82.76 0 1-2.9-2.25l-6.89-11.92a0.67 0.67 59.34 0 1 0.23-0.91q6.78-4.21 11.43-10.73a0.25 0.25 64.18 0 1 0.45 0.16z" fill="#52ae47"/>
  <path d="m338.29 534.16c-2.78-8.38-6.92-15.71-13.62-22.4q-20.1-20.05-46.52-29.21a1.03 1.03-76.96 0 1-0.69-1.11l0.19-1.37a0.87 0.86-79.05 0 1 1.07-0.73q12.94 3.22 22.27 8.7c12.17 7.16 21.04 14.94 31.18 24.65 6.9 6.6 7.66 12.39 6.52 21.43a0.21 0.21 39.22 0 1-0.4 0.04z" fill="#533617"/>
  <path d="m362.07 499.31h6.86a1.83 1.83-54.44 0 1 1.83 1.83v0.81a2.26 2.26 0 0 1-2.26 2.26h-12.08a1.17 1.17-18.56 0 1-0.93-0.46c-2.31-3.09-0.63-5.84 2.21-8.18q3.02-2.48 5.83-5.83a2.73 2.23-47.84 0 0 0.17-3.36c-1.68-1.69-4.26-0.9-6.51 0.22a1.2 1.2-13.23 0 1-1.73-1.07v-2.07a1.88 1.87 69.69 0 1 0.65-1.42c4.43-3.82 15.78-1.35 14.1 6.77-1.03 4.92-5.87 7.32-8.4 9.88a0.36 0.36 22.26 0 0 0.26 0.62z"/>
  <path d="m382.95 480.16a12.44 9.84-89.8 0 1 9.8 12.47 12.44 9.84-89.8 0 1-9.88 12.41 12.44 9.84-89.8 0 1-9.8-12.47 12.44 9.84-89.8 0 1 9.88-12.41z"/>
  <path d="m208.56 533.43a0.14142 0.14142-36.47 0 1-0.28-0.04q-0.07-15.08 2.18-28.16c0.89-5.11 2.83-11.61 5.06-15.94q1.84-3.57 6.38-5.99a0.9 0.88-39.18 0 1 0.97 0.09c4.39 3.53 10.09 4.85 15.51 6.38a0.84 0.84-67.43 0 1 0.5 1.22q-4.65 8.27-4.64 19.08a1.26 1.25-7.55 0 1-0.93 1.21q-4.44 1.18-7.2 3.61a4.37 4.3 19.9 0 1-2.29 1.05c-3.65 0.5-6.85 1.89-9.15 5.05q-3.75 5.15-6.11 12.44z" fill="#ae566f"/>
  <path d="m382.92 485.24a7.36 3.68-89.9 0 1 3.67 7.37 7.36 3.68-89.9 0 1-3.69 7.35 7.36 3.68-89.9 0 1-3.67-7.37 7.36 3.68-89.9 0 1 3.69-7.35z" fill="#ae566f"/>
  <path d="m475.3 577.76q-0.42 0.91 0.52 1.62-0.53 0.3-0.25 0.61 19.01 20.61 46.22 27.32a0.33 0.33 42.46 0 1 0.03 0.63q-13.51 4.47-24.67 11.2c-3.79 2.29-5.86 4.72-9.01 8.67q-3.52 4.4-4.59 6.48c-4.3 8.33-7.53 14.04-9.98 20.88a7.72 7.68 58.22 0 0-0.41 1.77c-0.46 4.21-1.08 7.71-1.14 11.84q-0.17 12.82-0.03 23.23c0.06 4.61 0.44 6.91 0.97 11.95a0.57 0.57-72.96 0 1-0.94 0.5c-11.33-9.61-24.85-16.74-38.19-23.43q-26.15-13.12-55.42-21.08-36.54-9.93-72.91-7.97-24.21 1.3-45.71 6.28a2.17 2.16 60.72 0 1-2.01-0.57c-1.95-1.92-3.71-4.58-4.77-7.07q-5.57-13.01-7.04-27.77a0.79 0.79 2.76 0 1 0.94-0.85l4.91 0.94a0.07 0.06-72.98 0 0 0.08-0.05l0.05-0.28a0.23 0.22-73.77 0 0-0.13-0.25q-4.91-2.05-7.68-3.89c-3.92-2.62-6.86-10.21-8.17-14.63q-9.17-30.84-2.32-62.14c0.8-3.67 2.26-7.41 4.18-10.75a0.63 0.62-63.41 0 1 0.79-0.27c8.1 3.5 16.21 6.33 25.13 4.66q6.39-1.19 5.8-7.5a0.61 0.61-81.68 0 1 0.83-0.62c13.58 5.41 25.95 11.92 36.28 21.99q3.7 3.62 6.4 9c4.05 8.08 1.14 16.07-1.14 24.72q-2.16 8.19-2.65 15.46a0.36 0.36 59.82 0 0 0.68 0.18l1.12-2.33a0.97 0.96 19.93 0 1 1.1-0.51c8.28 2.11 7.52 7.13 9.94 13.67q0.61 1.65 2.77 3.73 8.88 8.55 18.92 15.67a0.42 0.42-59.14 0 0 0.63-0.16l0.14-0.27a0.23 0.23-59.33 0 0-0.07-0.28q-9.81-7.4-18.01-15.58-1.3-1.3-2.19-2.98a2.58 2.49-64.95 0 1-0.27-0.79c-0.66-3.75-0.55-9.78-4.48-12.33q-3.42-2.22-5.47-3.61a1.54 1.52-80.12 0 1-0.63-0.91q-0.73-3.05-0.07-5.28c3.58-12.07 7.63-21.28 0.68-32.2q-3.78-5.94-7.21-9.04-14.16-12.77-32.08-20.12-2.65-1.09-8.16-3.21a5.15 5.03-13.66 0 1-1.45-0.86q-3.34-2.85-5.08-4.01-10.56-6.99-23.54-6.34a0.81 0.81-0.32 0 1-0.85-0.84q0.29-7.57 2.25-14.14c0.5-1.64 1.6-3.16 1.83-4.78a0.65 0.65-74.65 0 1 0.89-0.51q8.66 3.64 18.38 5.63 6.47 1.32 12.71-1.37 5.22-2.26 4.29-8.34a0.71 0.7-85.39 0 1 0.91-0.78q30.59 9.86 50.99 34.79c4.94 6.04 8.51 13.2 7.72 21.28q-1.17 11.92-2.7 20.74-2.16 12.46-2.95 18.94a1.22 1.21 21.87 0 0 0.48 1.11l0.03 0.01a0.48 0.48 25.63 0 0 0.74-0.26q1.79-6.68 2.69-6.1 4.12 2.64 4.24 2.72a5.58 5.58-79.49 0 1 2.25 3.28q1.62 6.63 4.48 11.18 2.21 3.53 9.76 10.74 17.93 17.11 42.89 32.74 6.73 4.22 15.03 8.11a1.63 1.63-66.89 0 0 2.21-0.89c2.29-5.93 4.14-12.18 6.73-19.31q2.61-7.18 4.95-16.21c4.43-17.04 9.55-33.68 13.95-50.54a0.39 0.39-55.61 0 1 0.69-0.13c2.92 4.02 5.19 7.27 9.95 10.07q4.73 2.77 8.19 5.43a6.43 5.86 74.25 0 0 0.77 0.48q7.11 3.66 15.26 3.88z" fill="#533617"/>
  <path d="m887.55 641.95a0.36 0.35-19.94 0 0-0.3 0.63q5.75 4.22 12.33 7.06 26.45 11.42 54.62 13.35 13.17 0.91 25.17-2.11 4.75-1.2 8.36-3.87a0.71 0.71 64.69 0 1 1.11 0.4q1.66 6.42 0.61 13.92c-0.91 6.53-7.99 7.75-13.59 8.46a1.99 1.97-13.27 0 1-2.12-1.3q-1.59-4.4-2.07-5.27c-1.36-2.44-5.62-2.49-8.47-2.4-4.35 0.13-5.8 4.74-5.51 8.53a1.58 1.53-28.66 0 1-0.35 1.13q-2.44 3.01-4.52 3.45-6.13 1.31-11.55-0.68c-5.21-1.9-1.93-7.26-4.33-10.37-1.77-2.3-5.27-2.94-7.98-2.96a1.82 1.81-86.46 0 0-1.81 1.61c-0.41 3.52-0.97 7.84-5.72 7.62q-6.05-0.29-10.82-3.98a3.1 3.1-71.14 0 1-1.2-2.45v-6.95a3.13 3.13-70.75 0 0-1.18-2.45c-5.26-4.17-7.75 1.97-9.13 5.82-0.88 2.42-2.58 2.88-4.88 2.43q-6.78-1.31-10.89-6.47a2.6 2.59 38.35 0 1-0.32-2.74q1.46-3.09 1.47-3.12 2.01-5.36-3.35-6.39a0.39 0.39-76.11 0 1-0.3-0.5q2.16-6.57 5.15-10.66a1.35 1.33 61.91 0 0 0.26-0.88q-0.04-0.78 0.94-3.12 2.27-5.39 6.03-11.09c6.97-10.56 13.04-21.39 16.8-28.33q10.92-20.13 18.53-39.45 2.76-7.03 5.9-19.34 4.95-19.49 7.42-39.91 0.74-6.16 0.26-12.24a0.42 0.42-80.9 0 1 0.58-0.42l6.92 2.79a1.54 1.54-8.28 0 1 0.62 0.46c8.76 10.87 12.61 24.19 14.57 37.82q2.03 14.08 2.57 29.63a0.38 0.38-87.54 0 0 0.38-0.35q1.88-26.68-5.25-48.28-3.15-9.53-8.84-16.78a0.34 0.34 88.53 0 1 0.46-0.49q7.49 5.33 14.48 12.43 18.59 18.85 33.46 39.8 1.2 1.69 1.72 4.51 1.26 6.79 1.58 14.58 1.59 38.17-9.95 73.09-2.97 8.97-8.07 16.47c-1.51 2.21-3.59 3.44-6.42 4.37q-8.3 2.74-21.17 2.9c-15.06 0.19-29.77-2.44-43.22-6.12q-2.83-0.78-16.51-6.33-2.5-1.02-6.04-3.05-2.57-1.47-6.44-2.41z" fill="#327dcf"/>
  <path d="m230.02 523.43c-4.98-3.26-3.14-8.84 2.63-9.47q12.62-1.39 24.86 4.39c3.53 1.67 11.34 7.57 9.3 12.27-1.44 3.33-9.54 3.3-11.81 2.84q-13.86-2.76-24.98-10.03z" fill="#fff"/>
  <path d="m422.32 518.27a0.28 0.28 84.04 0 1-0.34 0.41l-2.8-0.95a0.78 0.78 14.83 0 1-0.51-0.88q0.22-1.16 0.84-2.23a0.36 0.36 44.9 0 1 0.61 0z" fill="#ae566f"/>
  <path d="m1030.4 604.2a0.24 0.23 19.73 0 1 0.41-0.19c5.01 5.4 16.47 2.35 22.43-0.51q8.59-4.11 12.62-7.13 34.02-25.51 61.59-58.65 7.28-8.74 9.22-19.37a0.45 0.45-69.37 0 1 0.67-0.31c2.08 1.26 8.87 6.16 9.85 9.08a1.81 1.79-41.44 0 1-0.09 1.33l-4.45 9.22a1.41 1.41-62.16 0 1-1.97 0.61l-4.87-2.81a1.87 1.85 39.68 0 0-2.15 0.19q-3.29 2.81-4.05 5.52a1.76 1.75 29.31 0 0 0.5 1.76l5.29 4.85a1.57 1.55-55.88 0 1 0.34 1.83q-3.65 7.38-7.76 12.54a1.05 1.04-50.44 0 1-1.5 0.15l-5.09-4.31a2.15 2.14-46.39 0 0-2.84 0.07l-3.56 3.29a1.88 1.88 46.15 0 0-0.05 2.7q0.73 0.73 3.08 4.45 2.03 3.2 0.06 5.83-2.81 3.76-6.12 6.33c-3.04 2.36-6.95-1.54-9.22-3.51a1.37 1.36 41.49 0 0-1.9 0.11l-3.34 3.64a1.24 1.23-18.04 0 0-0.3 0.58c-0.66 2.95 2.3 5.62 3.29 7.98a0.94 0.94 53.07 0 1-0.13 0.94q-5.11 6.49-10.84 9.84a2.1 2.1-38.77 0 1-2.48-0.27l-4.34-3.98a2.75 2.75-41.51 0 0-3.45-0.21l-4.89 3.46a3.61 3.59 68.14 0 0-1.48 3.49q0.23 1.52 1.65 3.95a0.6 0.59-33.28 0 1-0.17 0.78q-6.77 4.89-13.44 7.42-1.3 0.49-3.19-0.49a1.2 1.14 86.04 0 1-0.44-0.4l-2.88-4.51a1.47 1.45-26.32 0 0-1.74-0.58q-2.28 0.85-4.3 2.86a1.18 1.17 63.78 0 0-0.33 0.99l0.45 3.39a2.63 2.63 75.83 0 1-1.67 2.8c-2.81 1.07-10.94 2.32-12.93-1.11-2.32-3.99-2.77-8.74-3.49-13.64z" fill="#327dcf"/>
  <g fill="#ae566f">
   <path d="m237.32 613.52a0.18 0.18 2.03 0 1-0.26 0.24c-7.99-5.16-13.32-10.74-17.53-19.56q-10.36-21.73-9.79-46.19c0.23-9.77 3.11-19.48 9.79-26.69q1.22-1.32 3.62-1.96a0.61 0.6 75.4 0 1 0.74 0.44c1.31 5.42 7.15 8.54 12.44 10.21a0.53 0.53-63.41 0 1 0.27 0.82q-3.11 4.31-4.6 9.93c-5.46 20.43-4.77 42.12 1.07 62.42q1.51 5.26 4.25 10.34z"/>
   <path d="m412.74 519.57a0.28 0.27-68.25 0 1 0.19 0.46l-39.79 43.37a0.91 0.91 45.4 0 1-1.35-0.01l-26.67-29.1a1.64 1.62-68.93 0 1-0.41-0.94q-0.1-1.17 0.16-5.6 0.17-2.84-0.99-7.52a0.53 0.53 83.09 0 1 0.51-0.66z"/>
   <path d="m381.39 559.46a0.22 0.22-83.59 0 1-0.27-0.34l35.32-38.49a1.47 1.46 33.05 0 1 1.68-0.35l4.01 1.75a1.56 1.56-76.16 0 1 0.93 1.54q-0.44 5.8 0.85 10.77a0.68 0.67 68.58 0 1-0.32 0.75z"/>
  </g>
  <path d="m366.08 529.89q2.6 0.14 4.67-0.07c3.7-0.36 5.31 2.29 2.71 5.15q-3.37 3.71-6.29 6.65a2.27 2.22-77.06 0 1-0.81 0.52q-2.19 0.79-4.36 0.09a2.39 2.38 8.87 0 1-1.66-2.27v-5.98a0.71 0.7-5.42 0 0-0.84-0.69q-1.18 0.22-1.23 0.21a1.93 1.83-48.18 0 1-0.1-3.53q0.17-0.07 1.28-0.06a0.92 0.91-1.75 0 0 0.92-0.97q-0.11-1.82 0.47-2.07 0.7-0.31 3.44-0.09a1.01 1.01 81.59 0 1 0.86 0.64q0.28 0.67 0.22 1.67a0.76 0.75 3.36 0 0 0.72 0.8z"/>
  <path d="m383.67 538.2 1.24-0.55a1.59 1.59-23.72 0 1 2.09 0.81l0.18 0.41a1.55 1.54-25.6 0 1-0.71 1.99q-3.42 1.76-6.7 1.58a2.12 2.11 1.58 0 1-2-2.11v-12.26a1.4 1.4 45 0 1 1.4-1.4h1.77a1.96 1.96 45 0 1 1.96 1.96v9.07a0.55 0.55-11.94 0 0 0.77 0.5z"/>
  <path d="m405.71 536.8q-1.09-0.4-0.29-1.58 1.65-2.43 3.74-1.87a0.93 0.92-60.16 0 0 0.9-0.25l4.94-4.93a1.65 1.65 65.95 0 1 2.82 1.08l0.3 5.71a1.37 1.34 59.47 0 1-0.2 0.81q-1.19 1.96-3.35 3.32a1.76 1.73 36.15 0 1-1.38 0.2l-4.22-1.17a0.89 0.88 33.76 0 0-0.78 0.15l-1.75 1.39a0.85 0.85-86.69 0 1-1.13-1.27l0.62-0.62a0.59 0.59 32.41 0 0-0.22-0.97z"/>
  <path d="m202.61 529.44a0.32 0.32-39.42 0 1 0.62 0.06q0.79 8 0.51 15.82-0.32 9.26 0.32 15.36 2.03 19.32 10.96 37.39c2.17 4.4 6.16 10.4 9.18 13.03q5.88 5.13 8.37 6.98a1.09 1.08 22.37 0 1 0.42 1c-0.2 1.49-0.91 3.18-1.1 4.79q-2.3 19.63 4.68 38.08a0.56 0.56-20.15 0 1-0.34 0.73q-27.49 9.49-51.67 24.39-7.19 4.44-15.07 10.69-22.21 17.62-32.54 44.22-0.49 1.26-1.56 7.14c-2.14 11.72 6.2 17.85 17.33 14.91q6.95-1.84 17.14-4.58 11.61-3.11 17.22-4.2 21.67-4.2 45.17-4.44 26.54-0.26 48.52 4.37 24.96 5.27 48.66 14.9c5.8 2.35 13.31 5.99 19 9.89 4.09 2.81 9.89 6.1 15.35 9.88 16.54 11.45 32.69 25.87 47.44 40.68 14.7 14.76 30.9 30.47 42.55 41.95q2.36 2.32 4.55 4.14a0.62 0.62 54.2 0 1-0.17 1.05q-13.77 5.44-26.46 10.95-1.56 0.67-4.81-0.51-8.51-3.1-15.23-5.23-9.01-2.86-18.16 0.62-15.21 5.79-25.88 17.95a3.74 3.72-69.8 0 1-2.7 1.26q-85.52 1.87-213.88 3.84-10.01 0.15-22.18-0.12c-20.68-0.47-42.56-4.34-60.4-10.82q-15.77-5.72-26.97-15.85t-12.8-25.76q-1.83-17.84 3.1-35.48 6.11-21.86 14.51-38.46 5-9.9 16.01-27.79 6.66-10.81 83.86-133.76c11.55-18.39 29.12-45.8 45.02-71.75 1.26-2.05 2.71-4.02 4.15-6.12q1.05-1.53 1.9-2.31 3.65-3.34 5.38-8.89z" fill="#006172"/>
  <path d="m412.14 534.92a0.25 0.25 10.23 0 1-0.15-0.32l0.05-0.13a2.69 1.12-69.6 0 1 1.98-2.14l0.23 0.09a2.69 1.12-69.6 0 1 0.11 2.91l-0.05 0.13a0.25 0.25-39 0 1-0.32 0.15z" fill="#ae566f"/>
  <path d="m365.12 537.67v-3.45a0.91 0.91 86 0 1 0.78-0.9q1.36-0.19 2.77 0.09a0.42 0.41-63.93 0 1 0.23 0.68l-3.2 3.79a0.33 0.33-24.79 0 1-0.58-0.21z" fill="#ae566f"/>
  <path d="m348.6 554.56a0.43 0.43-71.85 0 1 0.65-0.33q13.47 7.84 18.88 10.87c3.54 1.97 6.13 1.48 9.86-0.66q30.3-17.44 45.69-26.38a0.66 0.65-24.78 0 1 0.94 0.34q1.38 3.8 3.45 6.4c1.99 2.49 2.77 5.03 4.91 7.31a2.34 2.31-61.71 0 1 0.59 2.01q-1.88 10.41-4.98 20.79c-6.03 20.15-11.63 40.48-17.72 60.69a0.7 0.7 24.19 0 1-1.04 0.39q-11.23-6.98-23.55-15.28c-6.57-4.43-14.72-11.29-22.09-17.46-6.36-5.33-11.48-11.09-15.37-18.09-2.85-5.14-3.34-10.63-3.23-16.62 0.09-4.77 2.56-9.4 3.01-13.98z" fill="#006172"/>
  <path d="m363.48 559.39-13.82-7.98a1.61 1.6-86.47 0 1-0.68-0.77c-1.46-3.48-5.01-7.64-4.63-12a0.3 0.3-63.91 0 1 0.52-0.18l18.87 20.61a0.21 0.21-6.12 0 1-0.26 0.32z" fill="#ae566f"/>
  <path d="m339.09 547.14a0.18 0.18-58.46 0 1 0.32-0.08c3.71 4.85 4.46 9.03 2.31 15.5q-2.16 6.47-2.94 12.36a0.95 0.95-69.02 0 1-1.48 0.66l-2.05-1.38a2.21 2.2-67.71 0 1-0.93-2.24z" fill="#533617"/>
  <path d="m789.65 590.83a0.32 0.32-57.9 0 1-0.12-0.53q8.51-8.5 17.35-18.41c8.11-9.09 18.66-14.06 29.47-18.58q11.98-5.01 24.63-5.04 1.9-0.01 3.07 1.94c1.5 2.5-0.65 11.2-1.42 14.54q-1.14 4.88-4.22 10.09-8.58 14.48-22.49 24.42a1.68 1.66 27.9 0 1-1.03 0.31q-23.6-0.91-45.24-8.74z" fill="#fbdba6"/>
  <path d="m1007.2 552.76q-0.12-0.25-0.07-0.66a0.2 0.2-69.08 0 1 0.31-0.14q0.51 0.37 0.23 0.8a0.29 0.26-42.44 0 1-0.47 0z" fill="#333"/>
  <path d="m903.88 672.14q0.02 5.17 2.92 7.34 6.74 5.07 15.2 5.3c3.97 0.1 7.9-2.04 9.11-6.05q0.69-2.32 0.94-2.8a0.37 0.37 54.55 0 1 0.7 0.12c0.29 2.02 0 4.59 0.49 6.01 2.34 6.76 9.62 7.66 16.32 7.63q9.12-0.03 13.28-8.15a1.4 1.3-31.52 0 0 0.14-0.5l0.36-4.22a1.26 1.25-87.28 0 1 1.26-1.15q1.71 0.01 2.48 0.45a1.1 1.09-78.85 0 1 0.54 0.81q0.19 1.44 1.01 3.67c2.65 7.17 11.29 4.37 16.42 2.76 10.3-3.25 11.92-13.57 9.57-22.74q-0.8-3.15-1-4.59a1.59 1.57 56.99 0 1 0.2-0.97q4.56-7.76 6.68-13.78 10.69-30.37 11.11-64.06 0.07-5.69-0.48-12.32a0.36 0.36 28.37 0 1 0.67-0.2c5.76 10.59 8.94 21.01 13.26 34.26a8.77 8.53 35.83 0 1 0.42 2.39q0.06 2.02-0.01 5.64c-0.12 5.87 1.83 15.98 8.46 17.98 4.17 1.27 15.64 1.16 18.46-3.02q1.06-1.56 0.59-4.35a0.43 0.43-68.35 0 1 0.76-0.33q2.5 3.36 5.94 3.65c6.01 0.5 14.84-5.49 19.49-8.82a4.45 4.44 68.51 0 0 1.82-4.2l-0.68-5.11a0.37 0.37-74.79 0 1 0.59-0.34c4.12 3.18 6.97 5.79 12.36 2.21q8.17-5.44 12.23-11.67 1.69-2.58-0.01-6.51a0.34 0.33 88.31 0 1 0.42-0.45c0.67 0.25 1.02 0.8 1.82 1.02 6.27 1.7 13.08-6.6 15.86-11.12q1.7-2.76 0.89-6.45a0.26 0.25 15.11 0 1 0.42-0.24q17.63 15.57 31.15 34.16 11.43 15.72 14.6 33.62 1.01 5.74-0.57 13.41-1.2 5.81-4.96 12.49-8.24 14.67-22.56 26.12-14.82 11.84-28.52 19.76c-7.47 4.31-15.15 7.51-23.74 11.54q-3.83 1.79-9.7 4.18c-50.93 20.72-115.9 47.44-180.29 73.01q-18.7 7.43-51.96 21.43a0.44 0.44 8.54 0 1-0.51-0.69q2.34-2.82 4.1-6.08 7.25-13.39 14.09-28.24 1.12-2.43 1.21-2.67 9.71-24.05 11.74-46.12 1.48-16.06 1.31-35.46c-0.09-10.1-1.4-20.62-1.17-30.77a0.31 0.31-61.59 0 1 0.56-0.17c3.75 5.34 10.65 7.59 16.82 7.93 4.13 0.23 5.16-1.82 7.06-4.65a0.18 0.18-27.92 0 1 0.33 0.1z" fill="#006172"/>
  <path d="m475.82 579.38q-0.94-0.71-0.52-1.62 10.09 0.73 17.95 0.39c2.14-0.09 4.86-0.84 7.11-0.98 15.66-0.96 31.62-1.98 47.43-0.77 8.39 0.64 13.91 3.85 22.13 8.78q12.28 7.37 25.57 17.17a0.19 0.19 69.02 0 1-0.15 0.34c-10.32-2.13-21.13-2.57-31.88-2.12a0.62 0.61-86.21 0 1-0.63-0.72q1.1-6.11-0.98-11.91a0.53 0.53-56.51 0 0-1.03 0.21q0.35 5.77-1.58 11.55a1.62 1.62-82.97 0 1-1.42 1.11q-16.22 1.25-31.12 5.37a3.77 3.75-49.13 0 1-1.46 0.11q-3.79-0.47-5.37-0.89c-17.55-4.63-31.34-13.38-44.05-26.02z" fill="#d4a54e"/>
  <path d="m833.62 600.13a0.44 0.44 27.1 0 1 0.26 0.8c-9.45 6.4-15.6 9.61-29.86 17.59q-1.35 0.76-6.96 4.82-9.13 6.6-11.28 17.78a0.29 0.29-63.23 0 1-0.48 0.16q-10.07-9.21-16.85-13.74-6.7-4.47-14.7-6.03a0.57 0.57-57.35 0 1-0.22-1.02c3.75-2.71 8.36-4.91 12.22-8.13q10.61-8.84 21.94-20.19a0.79 0.78-57.53 0 1 0.84-0.19c14.31 5.28 29.81 8.52 45.09 8.15z" fill="#fbdba6"/>
  <path d="m256.61 658.6a0.18 0.17-31.13 0 1-0.07 0.28l-12.37 4.15a0.6 0.59 68.77 0 1-0.74-0.33q-6.5-14.89-6.23-31.45 0.09-5.21 1.72-10.75a1.21 1.2-69.92 0 1 1.64-0.77l3.71 1.63a1.02 1-79.59 0 1 0.61 0.9c0.46 11.46 3.79 27.6 11.73 36.34z" fill="#ae566f"/>
  <path d="m778.18 682.67a0.42 0.41 48.48 0 1-0.62-0.04c-5.06-6.46-9.64-13.21-14.89-18.64q-12.8-13.22-28.9-22.12a0.65 0.65 36.91 0 1-0.15-1.03l17.98-17.98a0.73 0.69-57.46 0 1 0.73-0.18q7.49 2.46 11.1 3.95c7.36 3.03 15.78 10.71 21.6 16.97a1.5 1.48 25.86 0 1 0.4 1.13c-0.83 10.23-0.84 20.16-2.61 28.81q-1.12 5.5-4.64 9.13z" fill="#fbdba6"/>
  <path d="m535.73 673.49c-5.62 5.25-12.96 8.87-20.01 11.71a0.18 0.17-24.11 0 1-0.21-0.08v-0.01a0.19 0.19-28.47 0 1 0.08-0.25c6.54-3.73 13.21-8.26 18.46-13.17 5.25-4.9 10.22-11.26 14.38-17.53a0.19 0.19-57.66 0 1 0.26-0.06h0.01a0.18 0.17-62.03 0 1 0.06 0.22c-3.3 6.83-7.41 13.91-13.03 19.17z"/>
  <g fill="#fbdba6">
   <path d="m282.9 658.83q4.05-0.38 12.13-1.25 31.63-3.41 62.78 2.14a4.5 4.46-15.12 0 1 2.62 1.49c13.3 15.44 18.99 35.92 16.08 56.15a0.29 0.28-77.72 0 1-0.36 0.24q-37.47-10.75-76.11-12a0.62 0.62 4.93 0 1-0.6-0.71c2.3-16.95-5.16-33.56-16.79-45.39a0.4 0.39-24.83 0 1 0.25-0.67z"/>
   <path d="m224.4 716.6a0.44 0.43 81.55 0 1-0.57-0.43q0.29-20.51-15.57-32.59a0.37 0.37-39.76 0 1 0.06-0.63q34-16.74 71.08-23.5a1.24 1.23-25.03 0 1 1.17 0.42c10.76 12.85 18.33 28.22 16.05 45.24a0.5 0.49-85.99 0 1-0.49 0.43q-13.51-0.17-27.15 1.13-11.96 1.14-18.13 2.66-15.12 3.72-26.45 7.27z"/>
   <path d="m363.31 660.62q37.29 7.73 71.11 24.63a3.95 3.94 86.58 0 1 1.56 1.39q16.06 24.59 14.8 53.84-0.19 4.38-1.04 8.24a0.36 0.36-68.23 0 1-0.53 0.23q-15.87-9.55-32.1-16.5-9.61-4.13-37.61-14.1a0.58 0.56 14.26 0 1-0.38-0.62c2.9-20.13-2.35-41.4-16.02-56.75a0.22 0.22-14.89 0 1 0.21-0.36z"/>
   <path d="m206.7 684.44c9.91 7.83 14.73 20.6 14.27 33.01a0.39 0.38 82.76 0 1-0.27 0.36c-12.94 4.27-26.95 9.6-38.6 17.03q-18.07 11.52-34.17 23.77a2.08 2.07-38.7 0 1-2.84-0.31c-3.74-4.42-1.52-11.54 0.52-16.44 8.13-19.52 22.2-34.48 39.88-45.86q10.62-6.84 20.25-11.66a0.91 0.91 50.83 0 1 0.96 0.1z"/>
   <path d="m439.18 688.03a0.16 0.16 86.1 0 1 0.2-0.23q18.2 9.01 33.83 22.86a1.82 1.82 15.1 0 1 0.59 1.02q5.49 26.74 20.02 50.57a3.91 3.88 28.49 0 1 0.56 1.86q0.25 7.07-1.79 14.33a0.36 0.36 28.87 0 1-0.59 0.17c-11.77-10.36-26.13-19.2-39.44-27.5a0.84 0.84-68.99 0 1-0.38-0.86c3.92-21.32-0.74-44.21-13-62.22z"/>
  </g>
  <path d="m391.47 1009q-1.12-0.43-2.27-0.33 1.61-4.99 3.17-10 2.56-8.22 2.72-15.15c0.17-7.1-5.61-12.25-12.69-10.33-7.86 2.13-11.48 10.56-14.96 17.41q-1.29 2.51-1.94 4.49-0.43 1.3-1.89 4.54a0.4 0.4-33.9 0 1-0.77-0.15l-0.26-6.99a0.63 0.62 53.94 0 1 0.04-0.27l1.08-2.72a1.23 1.2-41.8 0 0 0.05-0.73q-0.49-1.94 0.1-4.89 2.33-11.74 4.69-20.86c1.51-5.86 3.92-10.72 6.73-16.12 8.38-16.09 22.82-31.72 40.35-37.78 4.98-1.72 13.14 0.14 17.73 1.92q2.27 0.88 9.23 4.11 9.81 4.54 19.82 10.93 3.29 2.11 6.14 3.66a0.28 0.28-8.47 0 0 0.33-0.44q-4.3-4.19-9.7-7.97c-1.72-1.2-4.04-2.12-5.63-3.33a0.74 0.74 56.33 0 1 0.26-1.31q5.94-1.53 11.62-5.29 12.17-8.03 23.9-19.32a0.16 0.16 90 0 0 0.01-0.23v-0.01a0.16 0.16-39.55 0 0-0.22-0.02c-9.44 6.8-21.51 16.82-33.77 22.52q-2.48 1.16-4.98 1.19a2.62 2.49-30.83 0 1-1.11-0.25c-5.68-2.77-11.43-5.52-18.81-8.02-7.17-2.44-12.7-2.34-19.05 0.42-15.41 6.7-27.88 19.74-36.48 34.24-3.61 6.09-6.06 12.45-9.46 19.9a0.37 0.37 40.24 0 1-0.64 0.05q-0.26-0.36-0.17-1.02 0.08-0.62-0.12-1.11-2.03-4.89-3.04-5.81c-3.73-3.39-7.55-1.39-11.05 0.98a0.35 0.35-14.68 0 1-0.55-0.32q0.39-4.34 1.12-6.09c1.55-3.69 2.44-7.15 4.34-10.82q4.54-8.75 10.77-17.31 10.44-14.36 25.77-22.76c3.01-1.65 7.56-2.37 11.31-2.13q14.84 0.93 28.52 6.11 6.13 2.32 14.56 6.44a0.28 0.28-61.92 0 0 0.36-0.11l0.13-0.22a0.06 0.05 32.3 0 0-0.02-0.07l-7.21-4.86a0.51 0.51 54.43 0 1 0.15-0.91q4.04-1.13 7.62-2.29 10.05-3.26 18.74-10.02a0.28 0.28 30.37 0 0-0.13-0.49q-0.26-0.04-0.44 0.07-12.28 7.3-25.85 10.72c-2.73 0.69-4.49 0.8-7.2-0.3q-6.74-2.75-15.93-5.01c-9.7-2.38-19.28-2.96-28.23 2.23q-11.43 6.64-20.68 17.51a1.33 1.33-52.74 0 1-1.75 0.24l-0.22-0.15a0.95 0.95-57.27 0 1-0.28-1.29q2.78-4.46 9.46-11.26 6.63-6.76 16.46-11.57c11.1-5.43 17.95-2.81 29.04 1.08q0.76 0.27 8.23 1.69a6.32 6.2-46.5 0 0 2.75-0.1q4.8-1.26 12.93-2.95c2.34-0.48 3.97-1.3 6.88-2.44q15.32-5.97 45.04-19.67 2.18-1 10.86-5.89c7.37-4.14 17.23-11.31 21.53-19.15q3.04-5.52 3.65-7.41c2.64-8.13-0.26-16.53-3.84-24.47q-4.61-10.24-11.18-20.36-11.62-17.9-22.11-34.39a0.45 0.45 85.32 0 1 0.56-0.66q5.65 2.41 13.19 3.67c10.36 1.73 19.33 1.93 29.92-0.77q20.09-5.11 37.01-17.37 5.3-3.84 8.5-7.27c3.38-3.62 7.17-6.74 10.21-10.86q7.46-10.11 13.22-20.64a6.68 6.03 71.13 0 0 0.45-1.05q0.96-2.94 2.03-4.78a0.65 0.65-50.94 0 1 1.05-0.11c9.53 10.66 18.5 25.23 18.49 39.91q-0.01 14.27-4.51 29.94-2.59 9.01-5.52 18.21c-3.46 10.89-5.55 23.19-4.06 34.53 0.75 5.71 5.55 10.13 9.99 13.32 10.07 7.25 19.11 15.26 24.1 26.56q8.62 19.53-3.04 36.56-6.34 9.27-16.84 15.41-13.64 7.98-28.78 16.95-24.32 14.41-45.27 34.18-18.59 17.53-28.95 39.8c-0.86 1.84-2.29 1.96-3.81 2.77q-35.78 19.16-76.86 14.67a0.98 0.98-78.59 0 1-0.83-1.25q0.58-1.93 1.7-4.91 3.32-8.85 3.07-18.27c-0.16-5.77-2.34-11.09-8.46-11.09-6.4 0.01-12.53 6.41-15.71 11.75q-4.57 7.66-6.9 16.09a1.45 1.45-70.37 0 1-1.98 0.94l-1.45-0.64a2.41 2.4 14.97 0 1-1.43-2.46q1.42-13.26 9.9-28.5 10.06-18.08 25.64-30.41 6.44-5.1 12.71-8.04c4.24-1.99 9.63-4.37 13.81-1.27 3.2 2.38 7.11 4.05 10.41 6.97q7.05 6.25 12.65 13.9a0.15207 0.15207 17.12 0 0 0.27-0.14q-1.11-2.94-2.96-5.38-5.89-7.78-13.79-14.23a0.44 0.43-28.41 0 1 0.23-0.77q1.83-0.19 3.06-0.67 18.11-7.11 31.54-22.85a0.15 0.14 35.78 0 0-0.04-0.22l-0.42-0.24a0.03 0.03 0 0 0-0.04 0q-6.69 6.2-9.42 8.46c-7.66 6.32-17.02 11.93-26.67 14.06a1.37 1.36 53.81 0 1-1-0.16l-4.39-2.66a2.07 1.7-16.85 0 0-0.48-0.2q-5.21-1.37-10.33 0.6c-4.89 1.88-10.59 5-14.95 8.22-20.1 14.84-36.94 38.88-39.26 64.39a1.2 1.19-89.97 0 1-1.08 1.09q-8.56 0.83-16.43-2.61-2.12-0.92-1.61 0.34z" fill="#533617"/>
  <path d="m152.05 758.12a0.21 0.21 16.02 0 1-0.2-0.36q14.2-11.65 29.84-20.26 15.79-8.7 30.11-14.45 5.92-2.37 10.64-3.5a3.12 2.98 21.54 0 0 0.86-0.35q1.07-0.63 2.54-1.08 11.81-3.62 22.82-5.48c22.59-3.81 44.8-6.08 67.31-4.55q8.57 0.58 21.97 2.88 13.95 2.39 21.81 4.04c17.62 3.71 33.21 10.39 51.98 17.51q8.63 3.27 32.16 15.34 0.66 0.34 4.65 2.89 1.69 1.08 4.66 2.83c15.59 9.17 30.45 21.48 43.44 32.27q17.75 14.74 30.93 33.3c3.29 4.62 2.16 12.47 0.54 17.18-2.52 7.33-10.88 14.51-17.32 18.71-13.58 8.83-28.65 15.2-42.71 21.26a0.6 0.59-35.53 0 1-0.63-0.1q-4.07-3.59-7.38-7.02-15.44-15.95-31.49-32.26c-9.18-9.33-18.91-18.15-29.28-27.7q-24.41-22.46-51.24-38.78-5.47-3.33-14.33-6.96-24.85-10.18-50.83-15.17-52.05-10-104.21 1.06-7.57 1.6-13.19 3.88-5.65 2.29-13.45 4.87z" fill="#d4a54e"/>
  <g fill="#fbdba6">
   <path d="m524.01 809.2c-8.86-10.19-18.82-19.65-29.51-28.62a1.17 1.17-61.89 0 1-0.37-1.22q1.89-6.48 1.89-12.99a0.21 0.21-61.78 0 1 0.39-0.12q9.31 14.59 13.77 20.56 9.53 12.73 14.03 22.25a0.13 0.12-78.88 0 1-0.2 0.14z"/>
   <path d="m630.85 832.21q-1.45-0.77-7.06-5.46-7.29-6.09-6.76-15.5 0.34-6.15 1.6-10.31a0.39 0.39 37.61 0 1 0.7-0.09c1.32 2.07 2.63 3.97 3.5 5.91q5.27 11.71 8.47 25.11a0.31 0.31 7.38 0 1-0.45 0.34z"/>
   <path d="m627.71 812.77c12.89 15.64 27.44 27.86 45.98 36.26a0.33 0.33-34.23 0 1-0.12 0.63q-12.65 0.72-24.96-0.74a1.49 1.46-14.35 0 1-0.99-0.57q-5.74-7.56-13.34-13.55a1.45 1.44 14.53 0 1-0.54-0.91c-1.13-6.6-4.02-15.06-6.3-20.96a0.16 0.16-75.43 0 1 0.27-0.16z"/>
  </g>
  <path d="m828.62 841.76a0.24 0.23-14.89 0 1 0.4 0.23q-5.73 16.66-13.78 41.63-8.51 26.38-14.84 45.77-22.53 69.01-48.03 147.01-0.84 2.57-7.38 20.49-4.39 12.05-8.67 19.97c-11.53 21.36-24.19 41.45-45.23 52.9q-12.76 6.95-28.8 3-15.84-3.91-28.43-12.31-19.26-12.85-32.34-25.99c-8.8-8.83-18.32-20.2-27.42-31.5q-29.63-36.79-59.52-73.95a0.82 0.82-34.71 0 1 0.22-1.21q7.85-4.66 12.66-12.35c4.97-7.94 8.93-17.14 13.4-24 11.81-18.09 28.68-33.24 46.36-45.48q1.54-1.07 3.79-0.88 34.3 2.85 67.23-4.89 18.22-4.28 40.62-12.19c27.59-9.74 52.66-23.28 76.35-39.54q29.26-20.08 53.41-46.71z" fill="#006172"/>
  <path d="m606.73 882.77q0.31-0.32 3.86-3.42c6.43-5.62 9.35-13.69 5.01-21.56q-2.62-4.76-6.15-9.23-0.68-0.86-0.73-2.05a0.22 0.22 25.15 0 1 0.39-0.14q6.11 8 7.22 9.52c4.83 6.66 4.99 16.62-1.45 22.13q-3.3 2.82-7.99 4.97a0.14 0.14-43.37 0 1-0.16-0.22z"/>
  <path d="m490.1 891.12a0.15 0.09-44.7 0 1-0.05 0.17 0.15 0.09-44.7 0 1-0.17 0.05 0.15 0.09-44.7 0 1 0.05-0.17 0.15 0.09-44.7 0 1 0.17-0.05z"/>
  <g fill="#fff">
   <path d="m346.28 951.09q-0.39-0.5-0.43-1.35c-0.61-13.73 4.4-26.75 16.46-33.91q1.18-0.7 2.28-0.14a0.82 0.82-57.49 0 1 0.27 1.24c-5.65 7.19-9.88 13.66-13.6 22.4q-3.28 7.7-4.62 11.7a0.21 0.21 35.12 0 1-0.36 0.06z"/>
   <path d="m347.33 1006.8q-1.83-1.41-3.04-3.9c-6.01-12.37-2.23-27.42 3.57-39.04 1.53-3.09 5.94-9.9 9.92-9.6 3.74 0.29 4.86 6.33 4.69 9.2-0.55 9.11-2.24 19.68-6.05 28.63-1.52 3.55-3.66 10.89-7.04 14.55a1.52 1.52 40.49 0 1-2.05 0.16z"/>
   <path d="m370.02 1029.3c-2.82-1.62-4.51-5.88-5.09-8.97-2.5-13.32 3.93-30.12 12.32-40.47 2.86-3.52 8.11-5.89 12.06-2.78q2.84 2.23 2.82 5.95c-0.03 8.04-3.36 17.71-5.39 24.54-1.91 6.4-5.3 12.67-8.82 17.34-1.47 1.95-5.32 5.87-7.9 4.39z"/>
   <path d="m422.88 1042.7c-4.78-4.11-3.84-17.14-2.9-22.66q2.32-13.53 9.9-25.26c4.66-7.2 17.69-14.77 17.43 1.51-0.2 12.28-4.74 21.52-10.39 33.39-1.67 3.51-8.21 18.05-14.04 13.02z"/>
  </g>
  <g fill="#ae566f">
   <path d="m361.11 1007.8a0.56 0.56-82.59 0 1-0.8 0.62q-2.53-1.28-4.96-4.1a1.24 1.23-53.58 0 1-0.19-1.31q1.51-3.39 3.78-10.25 0.18-0.54 0.32-0.66a0.4 0.4 70.34 0 1 0.67 0.32q-0.38 8.27 1.18 15.38z"/>
   <path d="m524.81 1004.5a0.24 0.24-4.21 0 1 0.35 0.3q-3.61 8.29-9.62 14.82-2.03 2.21-8.73 5.67c-13.52 6.99-29.33 12.41-43.31 12.57q-12.5 0.14-25.25-0.84-0.22-0.02-0.37-0.06a0.56 0.55-71.13 0 1-0.37-0.76l6.5-14.82a1.39 1.38-74.25 0 1 1.45-0.82c19.49 2.58 38.58 0.23 57.01-5.82q12.26-4.03 22.34-10.24z"/>
   <path d="m389.2 1008.7q1.15-0.1 2.27 0.33c5.02 3.03 12.09 3.75 17.82 3.6a0.88 0.87-89.1 0 1 0.9 0.93q-0.45 6.94 1.21 13.11a0.64 0.63-17.51 0 1-0.4 0.76c-10.07 3.64-20.28 2.95-30.36 0.3a0.51 0.51 24.03 0 1-0.3-0.78q5.6-8.49 8.86-18.25z"/>
   <path d="m415.41 1028.5q-1.58-6.9-1.49-15.51a0.7 0.7-81.8 0 1 0.89-0.67l2.2 0.6a0.97 0.97-78.23 0 1 0.69 1.06l-1.94 14.51a0.18 0.18 42.86 0 1-0.35 0.01z"/>
  </g>
 </g>
</svg>
