<svg width="512" height="512" version="1.1" viewBox="0 0 512 512" xmlns="http://www.w3.org/2000/svg">
 <g transform="matrix(1.0703 0 0 1.0703 -17.817 -11.561)">
  <path d="m333.86 86.41c-1.2051 1.3482-12.233 9.5089-25.502 15.125-11.784 7.8103-24.621 3.9961-23.968 2.255 0.94-3.24 1.79-9.65-3.7-8.06-2.32 0.67333-4.2833 1.6967-5.89 3.07-5.1267 4.3667-5.6567 9.01-1.59 13.93 0.31086 0.0746-0.22871 1.056-0.55 0.88-10.27-3.33-22.34 1.12-30.62 7.39-15.753 11.953-26.88 26.973-33.38 45.06-1.1699 5.6366-16.13 3.6615-15.48 1.63l-0.02-4.57c-5e-3 -1.4197-1.0082-2.6399-2.4-2.92-1.32-0.26667-2.7833-0.28333-4.39-0.05-5.4267-0.15333-4.4168 1.337-11.192 5.7325-6.958 6.6333-16.033 12.695-25.972 15.71-6.6612 5.9495-29.216 25.392-30.275 22.858l-4.31-4.6c-0.91257-0.97013-1.4236-2.253-1.43-3.59-0.01-1.77-0.08-4.02 0.4-6.28 0.77-3.7 0.63-6.25-1.99-8.96-1.5733-1.6267-3.2367-3.3-4.99-5.02-0.28309-0.28299-0.49855-0.6284-0.63-1.01-0.98-2.9-0.69-7.68 2.31-9.23 2.83-1.46 6.69-0.87 9.05-1.01 0.67176-0.0465 1.3381-0.15705 1.99-0.33 2.9933-0.82 4.9733-1.12 5.94-0.9 2.8133 0.62667 5.84 0.86667 9.08 0.72 0.32028-0.0131 0.62916-0.11726 0.89-0.3 1.54-1.06 2.5033-2.2633 2.89-3.61 1.34-4.6267 1.7033-9.06 1.09-13.3-0.83-5.77-8.2-11.65-14.38-14.35-3.32-1.44-6.34-4.16-9.29-7.49-5.02-5.6467-10.373-10.017-16.06-13.11-3.1733-1.7267-7.9967-3.6133-14.47-5.66-0.53849-0.17282-1.0547-0.40076-1.54-0.68-3.05-1.79-5.04-5.03-8.32-7.28-5.12-3.51-5.86-10.06-3.3-15.29 1.88-3.86 5.36-7.43 9.42-8.96 4.38-1.66 11.1 0 15.46 1.55 2.1867 0.77333 5.2467 2.6533 9.18 5.64 3.1 2.3467 8.6933 6.0067 16.78 10.98 6.64 4.09 14.17 11.14 17.27 18.56 1.64 3.91 3.31 7.06 6.76 8.54 2.44 1.04 5.04 0.12 7.26 0.02 10.86-0.52 6.98 13.99 12.76 18.3 4.34 3.24 8.9633 4.2633 13.87 3.07 0.8-0.2 1.61-0.91667 2.43-2.15 0.1495-0.22719 0.22305-0.49336 0.21-0.76l-0.13-3.62c-7e-3 -0.12575-0.0337-0.24442-0.08-0.35-1.7333-4.1-2.8-6.7833-3.2-8.05-0.31333-0.98 0.12-2.3 1.3-3.96 1.2667-1.7733 3.5033-1.62 6.71 0.46 0.59336 0.37831 1.3719 0.2677 1.83-0.26l0.96-1.1c0.16315-0.18952 0.37468-0.32823 0.61-0.4l3.23-1.03c0.42307-0.13663 0.7969-0.40565 1.07-0.77 2.19-2.89 1.4-6.3-0.52-9.33-1.3333-2.1067-2.08-3.32-2.24-3.64-0.27229-0.53133-0.47719-1.0923-0.61-1.67l-1.78-7.8c-0.0662-0.29802-0.1776-0.58149-0.33-0.84-3.06-5.1867-5.0733-8.4-6.04-9.64-5.63-7.16-10.78-14.8-11.72-22.72-0.18-1.52-0.01-3.3967 0.51-5.63 0.88-3.77 2.62-6.05 6.39-6.12 4.88-0.1 11.63 7.11 13.29 10.04 5.61 9.9 7.76 19.84 9.4 31.24 0.36667 2.54 1.4867 4.57 3.36 6.09 0.086 0.06612 0.18062 0.11682 0.28 0.15l7.74 2.4c0.83473 0.26014 1.7332-0.12129 2.12-0.9 2.37-4.75 0.62-13.78-0.77-18.84-0.42667-1.5533-1.3267-3.2633-2.7-5.13-3.06-4.1933-5.16-8.5667-6.3-13.12-2.08-8.35-4.06-15.4-7.81-21.94-0.23276-0.40569-0.50068-0.78412-0.8-1.13-4.47-5.17-9.23-11.53-5.9-18.47 0.14418-0.30788 0.36884-0.57055 0.65-0.76 6.02-4.18 10.65 5.17 11.62 9.88-0.06 0.24667-0.05 0.48667 0.03 0.72 0.04 5.84-0.38 11.55 3.3 16.52 2.6067 3.5333 4.2967 7.6 5.07 12.2 0.31 1.85 1.63 4.76 2.31 5.96 2.14 3.72 4.17 7.3433 6.09 10.87 0.45862 0.84536 1.1305 1.5586 1.95 2.07 2.95 1.83 4.83 5.11 7.28 7.53 0.29907 0.30574 0.6311 0.57739 0.99 0.81 2.2867 1.48 3.7333 2.7833 4.34 3.91 2.31 4.29 5.47 11.45 10.02 11.98 3.97 0.46 4.56-3.77 5.75-6.45 0.14398-0.32732 0.37551-0.61069 0.67-0.82 1.1533-0.83333 2.5867-1.16 4.3-0.98 0.25079 0.01973 0.49898 0.09113 0.73 0.21 0.4 0.21333 1.5 0.76333 3.3 1.65 3.53 1.73 5.61-1.86 5.97-5.1 0.51-4.47 1.06-7.37 1.04-11.46-0.0333-9.1067-0.0367-15.607-0.01-19.5 0.04-4.82-0.87-9.74-2.73-14.04-1.32-3.05-0.22-8.49-0.33-11.48-0.0132-0.35173-0.0738-0.70149-0.18-1.04-1.45-4.56-2.48-6.44-1.81-10.54 0.93333-5.6667 4.3567-8.17 10.27-7.51 1.6467 0.18667 2.67 0.47667 3.07 0.87 0.23773 0.21797 0.43124 0.47938 0.57 0.77l1.33 2.7c0.0725 0.13858 0.11671 0.29508 0.13 0.46 0.37333 4.2733 0.0433 9.3967-0.99 15.37-1.53 8.89-2.32 15.81-1.2 23.8 0.76 5.35 2.69 8.7 5.4 12.72 0.3103 0.45562 0.52779 0.96875 0.64 1.51 0.37 1.82-0.1 4.68 0.67 6.37 0.50273 1.0934 1.9265 1.3771 2.81 0.56 1.89-1.73 2.88-2.8 5.33-2.61 1.54 0.12 2.78 2.09 3.87 2.9 0.25339 0.18973 0.58322 0.2557 0.9 0.18 1.62-0.4 2.7967-1.1767 3.53-2.33 3.88-6.14 8.53-11.03 16.02-10.62 1.3267 0.07333 2.5867-0.29333 3.78-1.1 4.62-3.14 8.61-5.87 13.92-6.09 5.04-0.20667 7.73 2.2267 8.07 7.3 0.44667 6.6733-1.4667 12.387-5.74 17.14z" fill="#fe78a3"/>
  <path d="m203.43 31.72q-0.12-0.35-0.03-0.72z"/>
  <path d="m304.1 43.59a3.69 3.56-61.13 0 1 3.84-1.18q3.53 1.08 6.6 2.03c1.89 0.58 2.1 2.7 2.27 4.75 0.39 4.96-2.93 6.85-7.38 7.81q-1.51 0.32-5.26 1.61a1.29 1.28 66.95 0 1-1.57-0.64q-0.86-1.7-0.57-3.98c0.53-4.18 0.49-8.5 2.07-10.4z" fill="#fe78a3"/>
  <path d="m333.86 86.41c-2.9067 3.16-4.9267 5.9633-6.06 8.41-1.1267 2.44-0.73 4.6467 1.19 6.62 0.20182 0.21471 0.46749 0.36153 0.76 0.42l2.77 0.56c0.82987 0.17196 1.4552 0.85782 1.55 1.7 0.45333 3.8067 2.3967 5.8733 5.83 6.2 1.3333 0.12 2.3167 0.83667 2.95 2.15 1.96 4.1 4.92 9.27 9.02 10.65 7.43 2.49 9.33-5.26 15.38-5.32 1.0667-7e-3 1.7233 0.65 1.97 1.97 1.19 6.3 0.79 15.55 10.69 13.19 1.66-0.4 4.49-3.33 5.97-5.52 2.2067-3.2667 4.84-5.95 7.9-8.05 0.2327-0.16621 0.44726-0.3573 0.64-0.57l10.05-11.54c0.74049-0.85638 2.145-0.27964 2.07 0.85-0.31 5.04-5.59 12.32-8.71 16.97-0.94 1.3867-2.0733 4.2167-3.4 8.49-0.17952 0.5717-0.42089 1.1248-0.72 1.65-1.4867 2.6133-3.6533 5.52-6.5 8.72-0.52667 0.58667-1.0767 2.0167-1.65 4.29-0.11875 0.47532-0.14253 0.97141-0.07 1.46 0.44 2.9467 0.4 5.8533-0.12 8.72-0.0613 0.33205 0.07 0.67177 0.34 0.88l3.95 2.97c2.6311 8.3335-34.613 17.524-34.83 13.95-1.0533-9.1133-3.3733-17.917-6.96-26.41-1.62-3.84-4.0633-7.7733-7.33-11.8-3.5733-4.4133-7.9967-7.32-13.27-8.72-0.57294-0.14606-0.55792-0.96506 0.02-1.09 2.2133-0.50667 3.8967-1.6633 5.05-3.47 3.31-5.2 0.38-12.17-3.81-15.93-0.85316-0.76298-2.1506-0.74562-2.99 0.04-4.93 4.61-5.55 14.53 0.1 18.97 0.40701 0.32084 0.26413 0.96978-0.24 1.09-14.333 3.4133-24.78 11.713-31.34 24.9-5.9 11.84-8.48 23.18-10.23 36.2-1.0667 7.9267-0.75667 15.713 0.93 23.36 1.8959 5.1625-19.036 18.895-24.67 18.27-5.0133-0.1-8.6567 0.15-10.93 0.75-10.353 2.74-19.317 7.62-26.89 14.64-4.64 4.3067-8.46 8.7167-11.46 13.23-0.20389 0.3164-0.56078 0.50245-0.94 0.49-4.76-0.12-9.4767 0.53667-14.15 1.97-14.48 4.43-26.06 12.86-32.52 26.9-5.8403 16.116-40.364 27.698-42.37 25.19-1.6-2.11-7.43-1.6-11.28-1.84-0.62667-0.0333-1.74-0.73667-3.34-2.11-0.30942-0.26441-0.703-0.40979-1.11-0.41-14.33 0.05-20.11 15.05-34.07 16.47-5.6867 0.58667-10.373-0.45-14.06-3.11-5.2933-3.8-6.5533-9.6567-3.78-17.57 1.78-5.08 5.24-8.8933 10.38-11.44 2.38-1.18 9.44-1.92 12.64-1.87 5.1 0.08 12.687 0.18667 22.76 0.32 1.2067 0.02 2.51-0.66333 3.91-2.05 0.25036-0.25064 0.39374-0.5876 0.4-0.94 0.08-5.04 4.32-5.02 7.73-6.76 4.64-2.39 2.03-7.27-1.04-9.48-3.6933-2.6667-6.48-4.3733-8.36-5.12-1.48-0.58667-4.0333-0.97667-7.66-1.17-0.23299-0.0133-0.46036-0.0434-0.68-0.09l-4.15-0.92c-0.47916-0.10647-0.9508-0.25365-1.41-0.44l-7.45-2.98c-0.59284-0.24362-1.2349-0.3529-1.88-0.32-7.16 0.34667-14.243-0.20333-21.25-1.65-1.3224-0.27221-2.7011-0.0964-3.92 0.5-5.67 2.78-11.43 5.97-17.8 3.07-4.26-1.94-4.24-8.18-2.76-11.71 0.78-1.86 2.2733-3.4067 4.48-4.64 3.83-2.12 7.22-3.06 11.21-1.38 5.3733 2.2667 10.207 4.0033 14.5 5.21 6.52 1.84 12.54 0.15 18.08-3.41 5.15-3.3 9.77-4.23 15.84-2.24 1.3 0.42667 2.9567 0.68 4.97 0.76 5.13 0.2 14.14-7.01 14.93-12.33 0.32-2.1533 0.22-4.4067-0.3-6.76-0.99-4.47-7.51-7.6-4.21-12.95 2.2-3.57 11.01-4.06 6.78-11 0.64-1.43 1.89-4.14 3.21-4.96 0.31333-0.18667 1.0967-0.42333 2.35-0.71 3.2067-0.72 5.3433-2.16 6.41-4.32 2.6133-5.28 6.3467-9.9067 11.2-13.88 2.17-1.77 3.81-2.38 6.73-2.55 7.68-0.45 14.48-4.34 20.22-9.12 0.13333-0.11333 1.3633-1.31 3.69-3.59 3.66-3.6 8.2033-5.3233 13.63-5.17-2.38 1.4267-4.2033 3.0067-5.47 4.74-1.9867 2.7133-2.54 5.6967-1.66 8.95 0.0856 0.31647 0.239 0.61302 0.45 0.87 2.2067 2.6733 4.69 3.24 7.45 1.7 2.9067-1.62 4.92-4.5267 6.04-8.72 4.54 1.9733 9.7 1.43 15.48-1.63-4.91 18.77 0.58 35.91 16.75 46.29 7.17 4.6 17.95 4.65 25.71 2.1 4.82-1.5867 9.3333-4.5 13.54-8.74 5.04-5.0867 9.0233-10.873 11.95-17.36 5.23-11.6 8.95-22.11 10.5-34.54 0.68667-5.5667 0.70667-10.453 0.06-14.66-1.3933-9.08-5.6067-17.15-12.64-24.21-0.47333-0.48-1.0967-0.92333-1.87-1.33 0.06-0.28667 0.24333-0.58 0.55-0.88 5.44 1.44 9.81-4.43 11.18-8.94 4.6867 2.3067 9.4367 2.47 14.25 0.49 3.6467-1.5067 6.5733-3.2967 8.78-5.37 2.0933-1.9667 4.1433-3.9967 6.15-6.09 1.1667-1.22 2.54-1.97 4.12-2.25 0.13954-0.02657 0.28051-0.03664 0.42-0.03l5.86 0.08c0.13194 7.2e-5 0.26457-0.02713 0.39-0.08zm-146.87 99.69c-12.72 1.5-24.39 8.74-33.21 18.13-5.83 6.2-10.43 13.31-11.18 21.8-1.08 12.07 3.32 27.73 15.64 32.21 6.7133 2.4467 13.93 3.4867 21.65 3.12 15.74-0.74 26.65-11.45 27.92-26.98 1.26-15.29-1.87-36.05-15.05-46.01-2.2533-1.7-4.1767-2.4567-5.77-2.27z" fill="#fff"/>
  <path d="m420.46 88.59c2.34 1.76 2.66 5.93 1.35 8.16a1.7 1.59-1.43 0 1-0.6 0.59l-7.06 4.08a2.84 2.79-65.14 0 1-0.85 0.32q-1.04 0.2-1.32 0.24-1.23 0.16-1.55-0.08t-0.5-1.46q-0.04-0.28-0.13-1.34a2.84 2.79-40.9 0 1 0.07-0.9l1.97-7.92a1.7 1.59 75.38 0 1 0.4-0.73c1.78-1.88 5.88-2.72 8.22-0.96z" fill="#fff"/>
  <path d="m94.53 152.71a5.53 3.58-40.8 0 1-1.85 6.32 5.53 3.58-40.8 0 1-6.53 0.9 5.53 3.58-40.8 0 1 1.85-6.32 5.53 3.58-40.8 0 1 6.53-0.9z" fill="#fe78a3"/>
  <path d="m422.02 160.92c0.45-5.48 4.84-9.35 9.86-5.74q2.41 1.73 1.33 4.36c-1.52 3.69-7.09 3.28-10.46 2.41a0.98 0.98 9.82 0 1-0.73-1.03z" fill="#be16d5"/>
  <path d="m448.94 157.38a4.48 3.69-24.2 0 1-2.58 5.21 4.48 3.69-24.2 0 1-5.6-1.53 4.48 3.69-24.2 0 1 2.58-5.21 4.48 3.69-24.2 0 1 5.6 1.53z" fill="#be16d5"/>
  <path d="m75.89 179.04-6.69 0.24a1.2 1.18-63.99 0 0-0.62 0.22q-2.16 1.54-5.32 0.84a2.12 2.1 87.24 0 1-1.55-1.42l-2.47-7.71a3.07 3.06 42.08 0 1-0.08-1.54l1.44-7.01a3.35 3.35-0.83 0 1 2.52-2.59c4.19-0.97 7.04 0.26 9.53 3.9q2.89 4.2 2.95 4.3a4.15 4.15 29.52 0 1 0.53 1.91q0.06 2.1 0.99 5.27 0.52 1.8-0.69 3.32a0.77 0.76 17.94 0 1-0.54 0.27z" fill="#fe78a3"/>
  <path d="m436.45 237.02c4.3193 1.9933-17.462 19.5-26.392 26.535-9.1933 6.9286-30.222 15.991-29.878 12.185-2.3-15.54-7.12-28.36-19.03-38.99-0.98418-0.87412-2.2356-1.3888-3.55-1.46-6.83-0.37-12.98 1.82-18.55 5.73-16.14 11.33-35.43 36.66-19.26 56.2 1.1 1.32 2.2633 2.61 3.49 3.87l0.43588 0.35765-6.0059 2.1405-0.29996-0.43812c-4.0867-6.56-9.3967-11.9-15.93-16.02-0.29532-0.18881-0.48144-0.50522-0.5-0.85-0.95-16.03-5.23-28.87-15.35-41.48-3.05-3.79-8.11-7.29-11.91-9.48-4.12-2.3667-8.6633-3.5933-13.63-3.68l10.8-8.46c2.2667-1.7733 4.3933-2.82 6.38-3.14 1.52-0.24 2.6833-0.58667 3.49-1.04 0.1973-0.11176 0.36498-0.26575 0.49-0.45l3.51-5.18c0.82 2.12 1.52 4.61 2.47 6.37 3.52 6.5133 8.4633 11.497 14.83 14.95 4.6733 2.5267 9.9833 3.57 15.93 3.13 12.19-0.91 23.56-8.01 30-18.58 3.8533-6.3267 6.0833-13.66 6.69-22 0.58-7.9267 0.63-14.93 0.15-21.01 1.4533-0.8 2.8767-1.6867 4.27-2.66 2.2-1.53 7.41-2.28 10.95-1.55 1.9867 0.40667 3.9 0.16333 5.74-0.73 1.02-0.49333 2.5667-1.6733 4.64-3.54 2.66-2.3867 5.7367-4.21 9.23-5.47 3.96-0.54 7.1733 0.42333 9.64 2.89 1.64 1.64 2.59 2.5567 2.85 2.75 0.32315 0.25193 0.7276 0.37965 1.14 0.36 5.75-0.23 16.41-1.02 20.29 3.41 0.36 0.41333 0.58333 1.1467 0.67 2.2 0.42 5.36-3.22 9.31-7.52 12.18-2.1733 1.4467-4.0767 3.1667-5.71 5.16-0.32732 0.39454-0.33148 0.96896-0.01 1.38 0.59333 0.76667 1.4833 1.4433 2.67 2.03 0.28125 0.14416 0.51622 0.3584 0.68 0.62 0.9 1.4067 1.9167 2.6 3.05 3.58 2 1.72 5.98 0.99 8.01 1.93 2.24 1.04 3.45 2.9733 3.63 5.8 0.0262 0.39461-0.0389 0.78827-0.19 1.15-1.1267 2.7-1.9533 4.2767-2.48 4.73-1.62 1.3867-2.8167 2.91-3.59 4.57-0.23683 0.50637 0.0404 1.1039 0.58 1.25 3.59 0.97 6.42 2.14 8.17 5.74 0.19027 0.39373 0.27634 0.83099 0.25 1.27-0.10667 2.1867-0.22 4.43-0.34 6.73-0.15 2.72 3.08 3.65 5 5.01zm-65.64-24.51c-3.4534-9e-3 -6.2613 4.1871-6.27 9.37-9e-3 5.178 2.7799 9.381 6.23 9.39 3.4534 9e-3 6.2613-4.1871 6.27-9.37 9e-3 -5.178-2.7799-9.381-6.23-9.39z" fill="#be16d5"/>
  <path d="m436.03 219.45 1.03-0.33a1.47 1.23-50.06 0 1 0.28-0.05l9.65-0.66a12.31 11.86-55.28 0 0 2.94-0.59c3.81-1.15 10.82-5.29 16.25-5.9 3.14-0.35 7.41-0.48 10.83 0.77 3.85 1.41 3.5 4.72 0.97 7.26-2.67 2.68-7.75 4.48-11.47 4.52q-7.12 0.07-11.65-0.01a1.04 0.75-27.65 0 1-0.28-0.04l-3.44-1.07a1.78 1.62-33.61 0 0-0.52-0.08l-9.34-0.09a1.57 1.5-33.83 0 1-0.52-0.09l-4.76-1.62a1.07 1.06-44.29 0 1 0.03-2.02z" fill="#be16d5"/>
  <path d="m421.55 350.2c0.18351 0.59274-8.8893 6.1031-9.64 5.45-2.32-1.7067-3.9367-3.11-4.85-4.21-2.05-2.48-8.27-8.85-11.52-8.35-0.67999 0.10641-1.2031 0.7499-1.26 1.55-0.3 4.06 2.11 7.55 4.67 11.1 2.62 3.64 4.18 8.29 6.42 12.39-0.97135 1.0516-13.651-1.6031-14.36-2.63l-6.02-5.19c-0.28437-0.24459-0.52144-0.53585-0.7-0.86-1.32-2.4-6.76-11-10.17-8.63-2.77 1.94-3.43 4.75-2.34 8.25 0.87 2.8-0.23 5.16 0.73 8.01 0.51333 1.5267 0.68333 3.5 0.51 5.92-0.14667 2.1333-1.25 3.05-3.31 2.75-0.32121-0.0525-0.62123-0.18697-0.87-0.39-2.3-1.91-6.98-4.55-9.76-1.8-2.21 2.19-2.16 5.99-2.07 9.81 4.6e-4 1.4205-10.432 10.614-17.18 8.4498l-0.41966-0.51979c-2.1267-2.4-5.14-3.96-9.04-4.68-3.54-0.65-6.16-4.17-8.84-5.11-1.88-0.66-3.7933-0.89333-5.74-0.7-0.2369 0.0263-0.46627 0.10845-0.67 0.24-7.4463 4.0974-9.7224 12.948-8.37 21.24 0.0266 0.12629 0.0668 0.25031 0.12 0.37l3.75 7.43c-0.82925 5.3623-10.296 7.8387-11.074 0.13033-2.2144-7.9113-3.5488-9.7641-5.756-11.13-1.7733-1.9067-3.6233-4.02-5.55-6.34-0.68-0.81333-1.95-1.2667-3.81-1.36-0.54667-0.0267-1.89-0.68667-4.03-1.98-0.12602-0.0796-0.2405-0.17724-0.34-0.29l-4.51-5.13c-0.17207-0.19854-0.37832-0.3676-0.61-0.5-6.16-3.48-8.97 6.94-16.79 3.5-1.8667-0.82667-3.5633-0.83-5.09-0.01-2.4 1.2933-4.51 3.6333-6.33 7.02-1.8067 3.36-4.12 7.98-6.94 13.86-0.47405 0.98789-0.72336 2.0705-0.73 3.17-0.0133 2.8067-0.0233 6.4633-0.03 10.97-0.01 4.26-2.6 9.44-5.36 16.09-0.14623 0.35898-0.25353 0.7345-0.32 1.12-1.0067 6.2667-1.3667 12.367-1.08 18.3-3.8419 7.0229-16.626 6.2467-18.16 0.82 0.25333-1.4333 0.64333-3.0233 1.17-4.77 0.0398-0.13938 0.06-0.28076 0.06-0.42l-0.68-18.22c-7e-3 -0.16979 0.0351-0.33645 0.12-0.48 3-5.4 5.5-8.8 6.73-14.16 1.3933-6.0467 1.4233-12.27 0.09-18.67-1.86-8.93-7.58-12.96-15.12-17.02-0.35166-0.18577-0.67471-0.41796-0.96-0.69-0.0333-0.0333-1.3633-1.34-3.99-3.92-3.62-3.54-5.66 0-4.94 3.53 0.37333 1.8067 1.1933 4.72 2.46 8.74 0.0133 0.0267 0 1.08-0.04 3.16-0.02 0.91333-0.34333 1.9067-0.97 2.98-0.7 1.1933-1.28 3.76-1.74 7.7-0.60667 5.1533-3.65 7.24-9.13 6.26-4.2-0.75-6.05-5.7-5.8-9.48 0.4-5.78 1.5767-11.527 3.53-17.24 0.10197-4.6418 4.8625-15.658 13.245-21.508 27.163-11.896 41.008-17.295 45.885-14.092 2.5467 1.6733 4.2233 2.89 5.03 3.65 11.1 10.41 21.65 18.7 37.18 20.48 8.36 0.97 14.4 0.59 20.75-4.7 7.34-6.1 11.74-13.38 15.56-22.69 6.04-14.72 3.92-30.53-5.14-43.62l5.87-2.06c7.2933 6.04 15.373 9.9233 24.24 11.65 4.41 0.86 9.23-0.14 13.42-2.45 8.2067-4.5267 14.077-11.28 17.61-20.26 0.65333-1.66 1.0233-3.9167 1.11-6.77 0.0933-2.9333 0.26667-5.44 0.52-7.52 1.3133-4.26 3.5167-6.8233 6.61-7.69 4.8933-1.38 9.8767-2.3267 14.95-2.84 0.45682-0.0482 0.83561-0.37512 0.95-0.82 0.69333-2.84 2.3367-4.7433 4.93-5.71 0.75501-0.28382 1.3832-0.8304 1.77-1.54 1.86-3.3867 3.1867-5.5667 3.98-6.54 2.82-3.43 11.36-10.68 15.43-5.38 0.30667 0.39333 0.54333 0.66 0.71 0.8 0.23914 0.19881 0.60255 0.10796 0.72-0.18 0.04-0.10667 0.23333-1.0333 0.58-2.78 0.53333-2.7 2.4133-4.7133 5.64-6.04 5.12 1.2667 7.3667 4.34 6.74 9.22-0.4 3.07-2.79 5.34-5 6.95-3.66 2.66-8.1533 5.4967-13.48 8.51-3.16 1.7867-5.58 4.0167-7.26 6.69-0.78368 1.2562 0.0806 2.8906 1.56 2.95l4.36 0.17c0.16515 7e-3 0.32848 0.0475 0.48 0.12 1.0467 0.51333 1.7033 1.0267 1.97 1.54 0.55879 1.0561 0.0163 2.3619-1.13 2.72-0.3 0.1-1.0467 0.37333-2.24 0.82-0.32173 0.12113-0.45938 0.50085-0.29 0.8l0.66 1.15c0.0958 0.16664 0.12102 0.36467 0.07 0.55-0.64667 2.34-1.6267 3.9967-2.94 4.97-0.71645 0.54151-0.32183 1.6838 0.57 1.65l5.09-0.19c1.0691-0.0408 1.95 0.82628 1.92 1.89-0.08 3.26-1.15 5.38-4.19 7.2-2.62 1.57-4.66 2.99-6.51 5.19-0.27956 0.3319-0.44752 0.7448-0.48 1.18-0.0667 1.1-0.03 1.92 0.11 2.46 0.93 3.6-1.68 7.54-2.62 9.53-0.2033 0.42206-0.0723 0.92922 0.31 1.2 2.46 1.75 5.78 1.22 10.6 1.21 1.4667-7e-3 3.46 0.71333 5.98 2.16 0.59438 0.34592 1.0766 0.85245 1.39 1.46 1.2267 2.42 2.92 4.54 5.08 6.36 2.95 2.48 3.83 5.24 2.66 8.57-0.27333 0.77333-0.99667 1.27-2.17 1.49-7.5933 1.4533-14.39 0.41-20.39-3.13-2.7667-1.6267-4.6267-2.4533-5.58-2.48-2.8667-0.08-5.1467 1.2167-6.84 3.89-0.18756 0.29754-0.26537 0.65122-0.22 1 0.81 5.6 8.83 9.32 13.72 11.82 1.52 0.77333 2.5767 1.96 3.17 3.56z"/>
  <path d="m163.2 289.62c-3.4029 8.3592-4.6533 19.073-4.08 27.36 0.12667 1.84 0.69333 4.7567 1.7 8.75 2.45 9.75 9.25 14.29 18.54 18 9.3533 3.7333 18.92 4.6933 28.7 2.88 8.5867-1.5933 17.137-2.36 25.65-2.3 1.0577 7e-3 2.0924 0.31908 2.98 0.9l7.34 4.82c-3.1667 0.0467-5.97 0.68667-8.41 1.92-1.5533 0.78-3.0833 2.0767-4.59 3.89-3.16 3.8-6.5 5.88-11.49 7.76-6.36 2.4-9.6367 3.6333-9.83 3.7-0.76821 0.23435-1.4454 0.69864-1.94 1.33l-0.44 0.55c-0.29289 0.36992-0.79968 0.49353-1.23 0.3-1.7-0.78-2.9767-1.2533-3.83-1.42-3.88-0.76667-6.9867 0.18333-9.32 2.85-0.21859 0.25169-0.3942 0.53537-0.52 0.84-0.22667 0.53333-0.83667 2.23-1.83 5.09-0.84 2.42-2.74 5.35-5.7 8.79 0.30667-4.3733 0.0533-7.63-0.76-9.77-0.44667-1.1733-2.25-4.0833-5.41-8.73-0.21556-0.31315-0.51796-0.55646-0.87-0.7-1.8-0.72667-3.4667-0.66-5 0.2-0.17641 0.0917-0.32213 0.23048-0.42 0.4l-3.12 5.07c-0.10588 0.17876-0.23757 0.33746-0.39 0.47-4.3933 3.9733-8.9567 4.4067-13.69 1.3-2.82-1.85-1.38-5.65-1-8.15 0.0507-0.33984-0.0602-0.68387-0.3-0.93-2.48-2.51-5.82 1.17-8.04 3.37-3.14 3.1133-6.9133 7.0033-11.32 11.67-0.62 0.65333-2.93 2.4767-6.93 5.47-2.3733 1.78-4.9167 3.2533-7.63 4.42-2.74 1.1867-6.9667 3.3033-12.68 6.35-13.767 7.32-22.783 18.22-27.05 32.7-1.58 5.35-3 12.62-5.82 18.33-0.21708 0.42783-0.52825 0.80054-0.91 1.09-5.88 4.46-12.187 5.48-18.92 3.06-5.84-2.1-7.85-6.25-7.75-12.01 0.06-3.0467 0.58667-5.7867 1.58-8.22 2.2-5.38 4.79-8.39 9.66-12.21 3.83-3.01 9.13-8.35 11.09-11.6 5.34-8.85 8.72-15.33 15.27-19.72 2.4267-1.62 6.1767-3.5167 11.25-5.69 0.29563-0.12607 0.48542-0.41866 0.48-0.74-0.16-5.27 6.83-9.15 10.95-11.17 6.64-3.26 12.51-5.54 17.02-9.5 4.84-4.2467 8.3567-9.2067 10.55-14.88 0.31333-0.81333 0.44333-1.3633 0.39-1.65-0.1807-0.94782-1.2101-1.4675-2.08-1.05-2.82 1.3467-5.1067 1.2133-6.86-0.4-0.24293-0.22329-0.38386-0.53405-0.39-0.86l-0.11-2.73c-0.0123-0.35781 0.12534-0.70548 0.38-0.96 3.19-3.18 5.61-5.92 4.75-10.45-0.0846-0.4318-0.56971-0.65135-0.95-0.43l-3.08 1.78c-0.10616 0.0597-0.20373 0.13369-0.29 0.22-1.6333 1.6733-3.4267 2.9367-5.38 3.79-1.0744 0.47454-2.2933 0.26675-3.05-0.52-1.59-1.64-1.33-6.98-0.41-8.84 1.37-2.75 3.91-4.75 3.17-8.6 0.91333 0.14 1.73-0.21333 2.45-1.06 5.64-6.63 12.32-8.13 20.56-9.44 0.76354-0.12069 1.4392-0.55657 1.86-1.2l4.15-6.32s3.0956-3.5342 5.8735-5.0284c3.0383-1.6343 7.4765-2.1416 7.4765-2.1416z" fill="#be16d5"/>
  <path d="m92.29 345.68 3.19-0.26a1.26 1.25-82.66 0 0 1.07-0.83q2.44-7.09 10.51-6.34 3.05 0.28 2.7 3.76c-0.39 3.87-2.7 5.5-6.32 7.48a3.87 3.84-82.83 0 0-0.88 0.69c-1.43 1.55-1.61 4.06-3.22 5.36-2.9 2.34-8.41 4.16-8.55-1.81-0.07-2.61-1.85-5.12 0.46-7.51a1.53 1.5-72 0 1 1.04-0.54z" fill="#be16d5"/>
  <g fill="#2f39ad">
   <path d="m457.77 352.5q-2.52 2.71-6.53 3.26c-3.1 0.42-4.75-1.12-6.2-4-1.58-3.14-4.62-6.91-0.34-8.93q4.37-2.06 9.46 0.78 4.87 2.72 4.06 7.96a1.86 1.85-19.23 0 1-0.45 0.93z"/>
   <path d="m421.55 350.2q1.33 3.86-1.02 7.12a1.33 1.29 10.83 0 1-0.79 0.52q-4.48 1.01-7.83-2.19c1.92-2.45 6.13-5.78 9.64-5.45z"/>
   <path d="m405.37 368.13q3.19 1.95 4.73 5.4a3.26 3.02 32.19 0 1 0.26 0.97c0.41 4.35 1.2 11.54-5.48 10.77q-5.61-0.65-8.32-5.83-2.4-4.58-4.32-11.9-0.13-0.53-1.23-2.04 8.13-1.56 14.36 2.63z"/>
   <path d="m349.43 369.96a5.24 4.93-49 0 1 0.28 7.18 5.24 4.93-49 0 1-7.16 0.72 5.24 4.93-49 0 1-0.28-7.18 5.24 4.93-49 0 1 7.16-0.72z"/>
   <path d="m357.01 383.37 0.29 0.91c0.21 0.7 0 0 0.21 0.7 0.93 5.6 1.23 11.36 2.78 16.59 1.52 5.12 2.93 9.2667 4.23 12.44 2.2 5.38 6.18 12.16 11.02 18.2 3.8 4.74 6.5433 8.25 8.23 10.53 3.66 4.97 6.46 10.1 6.5 16.14 0.02 3.35-1.73 11.05-5.47 12.68-13.08 5.68-19.57-10.37-21.14-19.88-0.42-2.56-1.1333-7.78-2.14-15.66-0.56-4.4133-2.76-9.1767-6.6-14.29-2.43-3.25-4.86-7.94-6.56-12.68-2.12-5.91-4.53-12.39-8.95-17.75l6.11-0.48c0.88038-0.0657 1.6382-0.6468 1.93-1.48 1.4133-4.06 4.6-6.05 9.56-5.97z"/>
   <path d="m310.62 410.09q0.14 4.94 0.08 9.42c-0.06 3.28 2.44 7.71 3.19 11.49v5.67c-1.03 4.63-6.38 6.67-10.64 6.58-4.76-0.09-6.66-2.87-7.36-7.52q-1.26-8.39 0.21-16.6c1.28-7.12 1.94-13.67-2.31-20.04q0.75-1.81 3.12-2.02c2.58-0.23 4.12 1.91 4.48 4.11q0.84 5.16-0.88 8.96a2.47 2.46-62.92 0 0 1.01 3.14l1.99 1.14a2.65 2.64-59.28 0 0 3.59-0.92q1.3-2.17 3.52-3.41z"/>
   <path d="m256.74 431.51c-0.1-1.66 0.07-3.23 1.3-5.15q1.67-2.59 2.97-6.35 0.91-2.64 3.79-2.15a0.97 0.96 81.43 0 1 0.71 0.53q2.09 4.21-0.04 9.93-2.01 5.42-7.74 4.31a1.24 1.23-86.64 0 1-0.99-1.12z"/>
  </g>
  <path d="m313.89 436.67v-5.67z"/>
  <path d="m232.27 457.51q0.52 11.87-3.12 20.15-2.68 6.08-9.87 5.88c-9.27-0.24-8.28-12.93-6.64-18.65q0.9-3.14 1.47-6.56 1.03-2.22 4.41-1.18a2.27 2.16-15.5 0 1 0.77 0.41c1.2 1 2.88 1.65 3.66 3.06q0.42 0.76 1.34 1.18a0.71 0.7 32.86 0 0 0.81-0.17q1.79-2.04 2.35-2.46 2.25-1.67 4.82-1.66z" fill="#2f39ad"/>
 </g>
</svg>
