<svg width="512" height="512" version="1.1" viewBox="0 0 512 512" xmlns="http://www.w3.org/2000/svg">
 <g transform="matrix(1.0006 0 0 1.0006 .73459 3.4005)">
  <path d="m279.59 59.87c0.89992 2.3546-11.8 5.9996-12.34 3.41-0.0667-5.2333-0.11667-10.41-0.15-15.53-0.02-3.46-0.53-6.5667-1.53-9.32-0.89333-2.4467-1.3533-3.73-1.38-3.85-0.15938-0.6708-0.23662-1.3592-0.23-2.05 0.02-1.8 0.11333-4.5633 0.28-8.29 0.0467-0.98-0.45333-2.8933-1.5-5.74-1.64-4.44-1.3-11.62 3.08-14.38 1.6733-1.0533 3.71-1.56 6.11-1.52 3.26 0.06 5.24 1.4567 5.94 4.19 1.81 7.05-0.2 15.97-1.46 23.11-0.94 5.3-0.62 11.2-0.62 16.6 7e-3 4.7333 1.2733 9.19 3.8 13.37z" fill="#06836b"/>
  <path d="m235.05 86.48c0.33208 2.1162-19.733 8.1841-21.89 6.05 1.16-7.3 0.57667-14.493-1.75-21.58-0.14583-0.45757-0.35806-0.89214-0.63-1.29-3.85-5.74-6.65-9.66-8.24-16-2.23-8.93-4.71-17.83-9.16-25.08-0.19289-0.31928-0.4139-0.61731-0.66-0.89-3.6-3.9733-5.9167-7.7067-6.95-11.2-1.31-4.43 1.12-12.46 7.5-9.14 0.292 0.15263 0.5612 0.34444 0.8 0.57 2.72 2.6667 4.6233 5.95 5.71 9.85 0.0996 0.34512 0.15336 0.69815 0.16 1.05 0.0867 4.4867 0.21667 8.2067 0.39 11.16 0.11 1.81 1.5 4.62 2.88 6.56 2.68 3.78 3.84 5.98 4.93 10.43 1.16 4.74 2.25 7.9467 3.27 9.62 2.4867 4.0933 4.6 7.8067 6.34 11.14 0.3499 0.67336 0.82566 1.2681 1.4 1.75 1.53 1.29 3.52 2.44 4.75 4.36 1.7067 2.66 4.1033 4.9233 7.19 6.79 1.4 0.84667 2.72 2.7967 3.96 5.85z" fill="#06836b"/>
  <path d="m306.08 47.21c-0.57-1.07-1.09-3.26-0.83-4.34q0.39-1.56 0.71-6.71c0.16-2.42 1.36-5.3 4.05-5.7 1.81-0.27 5.32 1.26 8 2.02 2.88 0.83 2.87 2.71 3 5.49 0.24 5.32-2.86 6.99-7.85 8.18q-1.96 0.46-5.48 1.69a1.32 1.31 66.36 0 1-1.6-0.63z" fill="#24c1a5"/>
  <path d="m208.82 93.17c-0.2958 2.3289-16.957 8.6141-19.43 6.71-0.44667-0.94-0.86-1.8867-1.24-2.84-1.33-3.34-1.41-7.82-2.67-10.02-3.08-5.4133-7.0133-11.203-11.8-17.37-1.5733-2.0333-3.33-5.45-5.27-10.25-2.38-5.8667-2.3533-11.25 0.08-16.15 0.13249-0.26503 0.30448-0.50785 0.51-0.72 5.41-5.65 12.45 0.63 16.45 4.84 1.86 1.9467 3.6333 4.7733 5.32 8.48 2.8133 6.1667 4.7367 12.38 5.77 18.64 0.82667 5.04 1.5367 8.9 2.13 11.58 1.23 5.57 5.83 5.47 10.15 7.1z" fill="#06836b"/>
  <path d="m341.46 101.18c0.16102 0.49251-6.0571 1.7766-7.31 0.65-1.9867-1.48-3.7567-1-5.31 1.44-2.7858 3.6238-39.155 26.936-41.66 22.21-2.38-6.3667-5.86-12.05-10.44-17.05-0.31102-0.33746-0.67634-0.61822-1.08-0.83-1.9867-1.0467-3.54-1.6633-4.66-1.85-8.88-1.45-18.69 1.58-25.69 6.1-6.5933 4.2467-13.54 10.363-20.84 18.35-5.5467 6.0667-10.79 14.227-15.73 24.48-2.3067 4.7733-3.66 8.6067-4.06 11.5-0.67333 4.8867-0.86 10.47-0.56 16.75 0.1 2.1333 0.79333 4.95 2.08 8.45 0.0884 1.1607-14.585-3.2128-17.86-5.1-1.5533-0.93333-3.29-1.62-5.21-2.06-0.56047-0.13191-1.1428-0.14554-1.71-0.04-10.467 1.8533-19.77 6.2167-27.91 13.09-7.51 6.34-13.39 13.28-17.11 22.22-10.84 10.384-22.417 28.448-28.269 35.025-8.0022 4.5342-26.206 13.914-33.321 15.005l-7.61-2.93c-0.2509-0.0925-0.52238-0.13662-0.8-0.13-7.6667 0.32-15.397-0.29667-23.19-1.85-1.2607-0.24664-2.5702-0.0856-3.74 0.46-4.48 2.1-7.5233 3.43-9.13 3.99-4.4 1.54-12.36 0.65-13.55-5-0.64667-3.1067-0.40667-6.0433 0.72-8.81 0.15851-0.3897 0.38923-0.74595 0.68-1.05 4.15-4.33 9.73-7.01 15.5-4.82 9.28 3.5267 14.723 5.4867 16.33 5.88 0.52482 0.12619 1.0619 0.18997 1.6 0.19 1.2933 7e-3 3.19 0.05 5.69 0.13 4.86 0.16 10.14-3.29 15.28-6.25 1.0624-0.61379 2.2425-1.0083 3.47-1.16 3.9-0.49333 7.7533-0.10667 11.56 1.16 1.1067 0.36667 2.9933 0.46667 5.66 0.3 0.4429-0.0264 0.8801-0.13482 1.29-0.32 4.43-2.05 11.56-7.17 12.44-12.37 0.4-2.34 0.32333-4.8667-0.23-7.58-0.48-2.39-3.52-5.86-4.59-7.55-0.75333-1.2-0.91333-2.9433-0.48-5.23 0.0589-0.30128 0.20051-0.58449 0.41-0.82 1.3467-1.5 3.03-2.7367 5.05-3.71 0.15271-0.0797 0.29721-0.18049 0.43-0.3l2.3-2.2c0.11887-0.10579 0.21729-0.23476 0.29-0.38 0.99333-1.88 0.78333-3.63-0.63-5.25-3.93-4.48-7.23-6.7-6.11-12.39 0.48-2.4533 0.82-5.2667 1.02-8.44-2.2985-8.7778 10.97-22.242 15.27-22.4 4.56 0.67 8.29 0.85 10.19-3.58 4.8428-13.646 17.058-33.152 29.98-25.2 4.4067 3.8267 9.4467 5.1967 15.12 4.11 0.82-0.15333 1.76-0.80667 2.82-1.96 0.22521-0.24478 0.35015-0.56248 0.35-0.89v-4.56c-4e-5 -0.0987-0.0205-0.19422-0.06-0.28l-3.12-7.4c-0.0665-0.16621-0.11673-0.3404-0.15-0.52-0.30667-2.0733 0.16333-3.7667 1.41-5.08 1.0296-1.0958 2.6416-1.4206 4.02-0.81 0.38667 0.17333 1.3933 0.71667 3.02 1.63 0.75213 0.42209 1.7049 0.18609 2.18-0.54 1.36-2.11 3.48-1.58 5.15-2.71 1.6933-1.14 2.43-2.95 2.21-5.43-1.2073-16.325 16.848-9.9287 23.122-13.091 9.5802-6.2319 19.882-3.5035 24.018-0.70901 2.37 2.61 6.71 3.65 8.34-0.04 0.54-1.2133 0.92667-2.1733 1.16-2.88 1.77-5.41 6.71-3.93 10.28-1.53 0.82667 0.55333 2.25 0.50333 4.27-0.15 3.5325-5.6035 3.3538-7.3179 4.7138-11.471 0.63881-4.2964 0.96902-9.8618 4.1693-10.056 2.3283-0.11936 9.5702 2.7907 10.627 5.337 1.3133 0.26 2.0933 0.27 2.34 0.03 2.13-2.11 3.31-3.6 6.7-2.98 0.32575 0.05867 0.6287 0.21537 0.87 0.45 0.98667 0.96 1.49 1.4567 1.51 1.49 1.33 1.88 4.23 0.77 5.35-0.79 5.04-7.05 8.89-12.39 18.54-11.91 0.32 0.02 1.1-0.24667 2.34-0.8 0.88-0.38667 1.5967-0.78667 2.15-1.2 4.53-3.33 9.85-6.46 15.82-5.57 6.95 1.04 6.37 7.12 6.32 13.2-7e-3 0.51748-0.084 1.0322-0.23 1.53-1.9 6.2733-5.1833 11.577-9.85 15.91-0.64 0.59333-1.3767 1.79-2.21 3.59-2 4.3-1.09 8.31 4.49 8.77 0.92694 0.07729 1.6798 0.78048 1.82 1.7 0.26 1.66 0.90667 3.2867 1.94 4.88zm-54.39-11.33c-0.12-1.62-1.64-2.87-3.33-2.58-2.96 0.51333-5.7633 1.94-8.41 4.28-3.01 2.66-3.83 5.1-3.55 8.97 0.53 7.51 7.96 5.96 11.31 1.84 3.0067-3.7 4.3333-7.87 3.98-12.51zm-99.12 67.45c-2.5067-1.52-5.1067-1.4567-7.8 0.19-4.2867 2.6333-6.4367 6.28-6.45 10.94-0.01 3.11 1.73 5.92 4.75 6.14 4.24 0.31 6.75-2.44 8.89-6.03 1.69-2.83 1.48-5.92 1.45-9.75 1.5e-4 -0.60776-0.31825-1.1725-0.84-1.49z" fill="#24c1a5"/>
  <path d="m279.59 59.87q3.45 4.88 3.97 13.01-4.5-0.26-8.76-3.86a1.71 1.64 69.07 0 0-0.74-0.35q-1.64-0.31-2.93 0.49a0.95 0.95-16.29 0 0-0.44 0.8q0.03 3.94-1.27 7.92-2.04 6.23-5.37 11.19 2.01-3.36 2.14-4.64 0.37-3.45 0.77-6.9 0.38-3.24 0.28-6.93-0.09-3.7 0.01-7.32c4.65-2.78 7.34-4.37 12.34-3.41z" fill="#0f967b"/>
  <path d="m156.32 123c-0.0204 4.4546-25.107 14.643-30.12 11.05-2.5067-2.6733-5.7633-4.9133-9.77-6.72-2.7267-1.2333-5.2167-3.0033-7.47-5.31-4.4533-4.56-7.6167-7.8067-9.49-9.74-0.71333-0.74-3.0033-2.4067-6.87-5-2.4667-1.6533-4.9967-3.0167-7.59-4.09-5.2067-2.16-9.2933-3.6867-12.26-4.58-1.0469-0.31614-2.0104-0.8628-2.82-1.6l-9.11-8.27c-0.03321-0.02661-0.06339-0.05679-0.09-0.09-7.41-9.2-0.13-20.23 8.99-24.3 0.35681-0.16526 0.74325-0.26356 1.14-0.29 9.23-0.68 16.19 1.82 24.19 7.74 4.5867 3.4067 10.76 7.4767 18.52 12.21 9.64 5.8867 16.437 13.917 20.39 24.09 0.1127 0.28508 0.26439 0.54802 0.45 0.78 1.5333 1.9467 3.1667 3.3167 4.9 4.11 2.34 1.07 6.11 0.06 7.91 0.05 3.2467-0.0133 5.5133 1.04 6.8 3.16 1.1267 1.86 1.8933 4.1267 2.3 6.8z" fill="#06836b"/>
  <path d="m431.96 79.73c2.69 2 3.66 8.63-0.07 10.24-3.69 1.6-6.09 4.44-10.58 4.55q-0.15 0.01-0.24-0.06-0.1-0.07-0.14-0.21c-1.2-4.33 0.81-7.46 1.26-11.45 0.45-4.04 7.08-5.06 9.77-3.07z" fill="#90d9bc"/>
  <path d="m235.05 86.48 4.95 7.19q-5.57 2.77-11.4-1.08c-3.55-2.34-8.58 1.25-11.16 3.38-5.08 4.18-12.28 4.68-18.34 2.53a1.94 1.94 14.46 0 0-2.56 1.51q-0.64 3.88-3.68 7.46-0.45-3.87-3.47-7.59 3.15-2.28 6.02-4.45c3.8-2.87 8.11-2.91 13.41-2.26q2.6 1.4 4.34-0.64 9.31-8.36 21.89-6.05z" fill="#0f967b"/>
  <path d="m405.66 159.3c-5.0206 14.302-27.218 10.068-32.19 7.88-0.32132 2.3614-1.2133 1.3467-1.28 2.54-1.0928 2.2437-9.4991 11.897-10.06 10.64-0.38-4.73-0.52-9.77-1.49-14.11-1.0467-4.7333-2.4367-9.7667-4.17-15.1-1.6267-5.0267-3.5533-9.2033-5.78-12.53-4.95-7.38-10.94-13.97-19.76-15.23-0.84364-0.12529-1.7025-0.0708-2.52 0.16-14.7 4.1533-25.32 13.073-31.86 26.76-5.84 12.2-8.42 23.3-10.57 36.89-0.82 5.16-0.49 10.37-0.32 16.29 0.16667 6.0067 1.54 11.657 4.12 16.95 0.0612 0.75515-2.0665 1.3142-3.1132 1.3275-3.791 0.90456-6.1762 1.9416-8.6942 4.4393-1.94 3.0267-4.8706 9.6354-6.7126 8.7932-10.78-4.25-23.78-2.14-34.05 2.91-5.8267 2.8533-10.467 5.76-13.92 8.72-3.9867 3.4067-7.5867 6.95-10.8 10.63-1.44 1.64-3.0267 3.73-4.76 6.27-0.19643 0.28491-0.5077 0.46801-0.85 0.5-1.98 0.16-4.45-0.15-6.71 0.22-8.8533 1.4333-17.153 4.52-24.9 9.26-5.1821 2.9512-8.9593 5.6936-13.699 10.414-4.55 4.52-9.239 7.4536-14.679 10.334-5.28 2.79-5.4274 8.8807-9.0517 12.543-4.0778 13.326-16.03 10.024-19.82 9.2-1.9933 2.62-4.1867 4.4567-6.58 5.51-2.74-1.2467-6.2233-1.7533-10.45-1.52-1.6333 0.0933-3.16-0.58333-4.58-2.03-0.23225-0.23819-0.54618-0.38089-0.88-0.4-2.86-0.14667-4.7833-0.0867-5.77 0.18-4.01 1.09-7.64 3.08-11.44 6.19-4.82 3.95-10.24 8.75-15.6 10.03-5.16 1.24-9.8933 1.2533-14.2 0.04-13.06-3.69-13.01-16.86-6.73-26.51 2.9-4.4533 7.0667-7.2067 12.5-8.26 4.5733-0.88667 9.13-1.2067 13.67-0.96 6.86 0.37 15.53 0.36 20.53 0.17 1.4733-0.06 2.7733-0.76667 3.9-2.12 0.20681-0.24567 0.32015-0.55735 0.32-0.88-0.01-4.76 4.98-5.97 9.31-7.82 1.323-0.56272 2.0368-2.0073 1.68-3.4l-0.7-2.77c-0.0327-0.12456-0.0945-0.23794-0.18-0.33-3.7267-3.96-7.8967-6.8167-12.51-8.57-0.06657-0.02-0.1334-0.0367-0.2-0.05l-15.3-2.98c2.8467-2.16 4.9667-4.3967 6.36-6.71 0.88667-1.4667 2.1667-2.37 3.84-2.71 4.23-0.86 5.58-4.67 10.71-4.08 10.281-0.31638 13.129-0.80218 14.439-9.99-0.23333-3.1867 0.0972-5.7767-0.12949-7.77-0.1413-1.1943 0.95368-2.7315 2.1468-2.8824 4.7126-0.97322 7.4532-11.179 9.999-13.305 4.58-1.2717 10.223-2.0284 13.904-1.8628-3.1133 12.647-0.91667 24.127 6.59 34.44 1.74 2.3933 3.78 4.1433 6.12 5.25 6.0667 2.8667 12.553 4.39 19.46 4.57 5.1067 0.13333 8.8633-0.01 11.27-0.43 7.62-1.3267 14.077-5.3333 19.37-12.02 3.19-4.03 5.54-11.9 5.58-16.5 0.06-6.64 0.41-13.8-0.96-20.63-1.1067-5.4667-2.78-10.75-5.02-15.85l-0.26597-0.54227 12.278 1.0656 0.29793 0.56671c2.62 3.66 5.71 6.9267 9.27 9.8 4.2733 3.4467 9.41 5.4533 15.41 6.02 7.0667 0.66667 13.797-0.54333 20.19-3.63 10.3-4.99 18.54-16.92 23.18-27.5 7.84-17.88 14.68-39.33 8.69-58.24l-0.18-0.55c3.7406-3.7406 5.289-5.7927 6.7708-10.819 0.69333-2.9867 3.1267-4.6297 6.5267-4.2964 4.7388 0.43635 7.38 0.0361 12.004-1.9744 4.07-2.17 8.8512-6.0591 14.099-6.3106l2.08 0.64c-2.48 4.42-3.41 10.35-1.16 15.08 1.82 3.81 5.66 5.01 8.73 1.44 5.09-5.9 2.13-12.62-2.26-17.96 0.69333-0.0267 1.3833-0.01 2.07 0.05 0.74 0.0667 1.4233 0.0333 2.05-0.1 1.06-0.23333 2.1233-0.43333 3.19-0.6 1.5667 1.3333 3.2933 2.0033 5.18 2.01 0.84507 6e-3 1.608 0.50717 1.95 1.28 1.36 3.0933 3.17 6 5.43 8.72 3.2933 3.9533 7.1233 4.9433 11.49 2.97 2.46-1.11 8.09-7.46 11.13-4.46 0.24702 0.24741 0.41123 0.56535 0.47 0.91 0.54 3.0667 0.91 5.43 1.11 7.09 0.28 2.3533 0.76 3.8833 1.44 4.59 1.72 1.79 2.81 3.16 5.45 3.23 6.41 0.17 9.1-5.2 12.12-9.3 0.27882-0.39172 0.60481-0.74459 0.97-1.05 5.1867-4.4333 10.197-9.65 15.03-15.65 0.84-1.0467 1.7933-1.73 2.86-2.05 0.54329-0.169 1.0817 0.27439 1.02 0.84l-0.31 3.07c-0.0199 0.14595-0.0603 0.2874-0.12 0.42-2.0667 4.5133-4.7333 9.14-8 13.88-1.59 2.29-2.88 5.11-3.52 7.22-0.92 3.0467-1.7433 5.1833-2.47 6.41-0.0133 0.0134-0.0268 0.0302-0.04 0.05l-6.83 8.99c-0.6228 0.82414-0.95984 1.8318-0.96 2.87v11.82c0 0.14779 0.0612 0.29178 0.17 0.4 2.44 2.3 3.5 3.21 7.04 3.28 1.2867 0.0333 2.4833 0.22667 3.59 0.58z" fill="#90d9bc"/>
  <path d="m326.76 102.63c-5.81 0.65-9.56 5.5-13.63 7.67a4.29 4.18-82.6 0 0-1.24 0.98c-3.65 4.16-6.22 5.17-10.4 0.52a1.6 1.58-18.14 0 0-1.02-0.51q-5.1-0.5-6.14 3.98-0.98 4.22-1.52 5.75a1.68 1.62 77.76 0 1-0.36 0.58l-4.91 4.98-0.36-1.1c4.79-3.59 6.29-8.19 7.75-13.55a1.87 1.85-89.13 0 1 1.35-1.32q7.04-1.7 15.44-3.25c5.13-0.94 9.47-4.48 15.04-4.73z" fill="#4fcbae"/>
  <path d="m156.32 123c0.76 3.04 1.28 6.5 3.59 8.91q-5.14 1.93-10.99 0.35a0.97 0.97-61.46 0 0-0.98 0.29q-0.97 1.1-1.84 3.38c-0.55 1.43 0.15 3.25 0.32 4.91a2.37 2.37-38.12 0 1-0.13 1.07q-0.56 1.56-1.93 2.7a1.53 1.52-33.58 0 0-0.38 1.85c1.01 2.02 2.35 7.43-0.45 8.77q-3.6 1.72-6.06-0.7a1.22 1.2 64.23 0 0-0.98-0.35q-3.66 0.33-6.56 2.93 2.99-9.08 0.52-17.81-0.5-1.78-4.25-5.25 14.48-7.04 30.12-11.05z" fill="#0f967b"/>
  <path d="m151.92 136.42c2.38-0.47 5.41 1.23 4.42 4.18q-1.06 3.15-5.07 2.19a1.4 1.39-3.56 0 1-0.99-0.87q-1.12-2.94 0.63-4.91a1.79 1.76 14.37 0 1 1.01-0.59z" fill="#0f967b"/>
  <path d="m83.25 148.34a5.83 3.8-43 0 1-1.67 6.76 5.83 3.8-43 0 1-6.85 1.2 5.83 3.8-43 0 1 1.67-6.76 5.83 3.8-43 0 1 6.85-1.2z" fill="#06836b"/>
  <path d="m433.86 157.64q-0.03-3.77 0.76-4.85 3.7-5.01 9.14-2.03 3.65 2.01 1.36 5.83c-1.8 3.01-7.14 2.58-10.68 1.77a0.76 0.75 6.49 0 1-0.58-0.72z" fill="#eceef2"/>
  <path d="m459.9 151.17a2.24 2 79.63 0 1 2.12 1.65c1.49 5.34-3.12 8.92-7.76 5.61a1.91 1.83-84.71 0 1-0.65-0.82c-1.91-4.68 2.96-6.2 6.29-6.44z" fill="#eceef2"/>
  <path d="m46.15 164.41c0.88-2.25 0.21-6.85 3.09-7.74 4.35-1.33 8.54-0.22 10.77 3.86q1.1 2.01 2.41 3.24a2.28 2.2-76.22 0 1 0.62 1.07q1.43 5.56 1.72 8.91 0.28 3.29-3.27 3.02-1.47-0.12-4.38-0.2a2.4 2.31-60.16 0 0-1.37 0.4c-2.1 1.41-6.81 2.27-7.61-1.12q-0.99-4.19-2.37-7.29a1.93 1.93 34.14 0 1-0.17-0.88q0.07-2.04 0.56-3.27z" fill="#06836b"/>
  <path d="m405.66 159.3 6.84 5.52c0.16137 0.13546 0.36435 0.20669 0.57 0.2l8.71-0.16 1.5 0.07 7.4 1.05c0.14998 0.0197 0.28994 0.0862 0.4 0.19l4.83 4.38c0.24169 0.22263 0.3764 0.53575 0.37 0.86-0.14 4.44-2.09 8.0533-5.85 10.84-3.2133 2.38-6.0167 4.7233-8.41 7.03-0.63904 0.62064-0.57256 1.6654 0.14 2.2l3.11 2.37c0.26363 0.1978 0.48188 0.45015 0.64 0.74 1.6 2.82 3.8567 4.32 6.77 4.5 2.32 0.15333 3.8167 0.38333 4.49 0.69 7.17 3.3 3.28 10.98-1.06 14.93-0.25333 0.22667-0.52333 0.55667-0.81 0.99-0.3 0.46-0.56 0.79667-0.78 1.01-0.69583 1.694-9.9424 16.643-21.36 22.083-10.563 6.0205-30.734 11.247-36.62 8.1967l-8.51-9.04c-0.22896-0.24214-0.52278-0.41844-0.85-0.51-8.46-2.35-17.81 1.96-24.47 7.01-10.68 8.1067-18.473 18.367-23.38 30.78-1.1671 4.4878-13.973 16.14-15.45 12.91-0.12-4.59-1.38-9.87-2.08-13.12-1.74-8.05-4.79-14.38-9.42-21.66-3.16-4.9667-6.6867-9.02-10.58-12.16-2.862-3.1186 0.725-12.038 0.47833-18.038 1.2108-0.95241 1.9189-1.8642 4.1417-2.0323 1.0467-0.0133 2.1667-0.24333 3.36-0.69 0.82 1.68 2.3767 3.8867 4.67 6.62 8.59 10.23 20.1 14.58 33.13 11.71 8.45-1.86 15.24-6.14 21.45-12.31 7.19-7.16 11.29-18.38 12.53-28.2 0.24667-1.9867 0.5-6.6633 0.76-14.03 0.53833-2.9091 6.0822-11.072 9.87-14.51 0.0667-1.1933 0.49333-2.04 1.28-2.54 0.29493-0.18591 0.6531-0.25038 1-0.18 4.48 0.96 9.31 1.4 12.08-2.74 0.68617-1.0268 2.1566-1.1304 2.98-0.21 3.04 3.38 6.26 4 9.66 1.86 0.79333-0.50667 1.9-1.5767 3.32-3.21 0.99333-1.1533 2.0433-2.2867 3.15-3.4zm-26.73 53.14c-3.6739-0.0524-6.7145 4.3719-6.79 9.88-0.0762 5.5049 2.8382 10.009 6.51 10.06 3.6739 0.0524 6.7145-4.3719 6.79-9.88 0.0762-5.5049-2.8382-10.009-6.51-10.06z" fill="#eceef2"/>
  <path d="m119.74 160.69q-1.41 5.01-4.01 6.53c-4.99 2.92-7.11 3.54-8.45 8.8q-1.04 4.1-2.81 7.07-2.74-4.89-7.74-9.38a3.16 3.12-83.29 0 1-0.67-0.86c-2.21-4.28-0.8-9.61 4.1-11.23a1.57 1.5 33.83 0 1 0.52-0.09l7.31-0.05a3.68 3.58-54.91 0 0 1.32-0.25q5.11-2.02 10.43-0.54z" fill="#0f967b"/>
  <path d="m423.28 164.93-1.5-0.07q0.82-0.11 1.5 0.07z" fill="#a6e0ca"/>
  <path d="m372.19 169.72q-0.24 2.07-1.25 3.96a2.51 2.46 57.12 0 0-0.28 1.37c0.29 3.59 2.11 7.62-1.37 10.8a1.83 1.78 17.36 0 1-0.87 0.44q-2.73 0.57-6.1-2.06l-0.19-3.87c3.08-4.51 5.52-8.33 10.06-10.64z" fill="#a6e0ca"/>
  <path d="m206.2 191.38 4.6 8.75-12.31-1.09q-3.49-7.27-10.15-12.76 9.17 1.35 17.86 5.1z" fill="#4fcbae"/>
  <path d="m447.95 221.42a2.11 1.97-6.13 0 1 2.06-2.38c6.57-0.14 9.67 0.4 15.16-1.67 4.42-1.66 10.14-4.73 15.04-5.53 4.65-0.75 9.63-0.79 14.12 1.66a1.49 1.48 2.02 0 1 0.67 0.71c2.71 5.97-7.13 9.97-11.27 10.64q-9.86 1.61-19.5-0.87a7.19 6.7 49.89 0 0-1.65-0.2c-5.34 0.04-9.36 0.38-13.5-1.56q-1.07-0.5-1.13-0.8z" fill="#75a7df"/>
  <path d="m434.52 216.71c-0.42 1.1733-0.27 1.83 0.45 1.97 4.2733 0.79333 7.1867 2.7833 8.74 5.97 0.26193 0.5304 0.37594 1.1212 0.33 1.71l-0.56 7.25c-0.0321 0.4269 0.0845 0.85105 0.33 1.2 1.95 2.77 7.3 4.63 9.59 5.83 0.40154 0.21071 0.7501 0.50801 1.02 0.87 2.0533 2.8 2.4033 5.83 1.05 9.09-1.27 3.08-5.41 5.65-8.77 8.03-3.56 2.54-8.75 4.8-11.65 6.93-2.6333 1.9333-4.7 3.93-6.2 5.99-1.06 1.46-0.88667 2.68 0.52 3.66 0.2468 0.16895 0.53708 0.25639 0.83 0.25 1.49-0.06 5.1-0.26 6.78 1.1 0.97116 0.79425 1.053 2.2135 0.17 2.95-0.9 0.75333-1.9767 1.2-3.23 1.34-0.31262 0.0425-0.48872 0.3792-0.34 0.65 0.11333 0.20667 0.25333 0.64667 0.42 1.32 0.28 1.14 0.32667 1.9067 0.14 2.3-0.78 1.66-2.01 3.3933-3.69 5.2-3.2348 6.9653-12.176 18.852-14.037 24.44-5.0508 6.5351-48.183 37.562-70.353 22.06-5.5733-0.18-10.667 1.3267-15.28 4.52 0.62-11.827-2.5333-22.71-9.46-32.65-4.2133-6.0467-8.6233-10.823-13.23-14.33-3.6636-7.4087 5.3193-14.283 9.59-8.65 0.61 17.07 15.93 28.25 31.18 32.67 8.55 2.48 15.1 1.83 22.25-3.09 9.26-6.38 16.75-16.27 17.32-27.79 0.75333-14.953-3.21-28.457-11.89-40.51l5.01-6.73c0.40397-0.54921 1.0335-0.88421 1.71-0.91 3.8333-0.18 6.4767-1.4867 7.93-3.92 0.18653-0.31092 0.56757-0.44217 0.9-0.31 3.19 1.26 5.08 1.7 7.75-0.94 0.45811-0.45527 1.2294-0.31644 1.5 0.27 0.68667 1.4733 1.3633 2.6933 2.03 3.66 1.93 2.79 8.3 0.86 9.79-1.62 1.7933-2.98 3.2667-5.6533 4.42-8.02 0.43-0.86 0.4-2.07 0.82-2.9 0.12584-0.25182 0.39492-0.3964 0.67-0.36 3.3067 0.40667 5.3667-1.0333 6.18-4.32 0.13784-0.56184 0.65745-0.94735 1.24-0.92 2.56 0.13333 5.2367-0.95333 8.03-3.26z" fill="#75a7df"/>
  <path d="m136.4 219.49q-0.06 0.51-0.32 0.72-6.22 2.98-13.09 2.27a0.69 0.69 11.11 0 0-0.73 0.49c-1.41 4.79-2.84 9.09-6.93 12.27a1.55 1.47-66.41 0 1-0.76 0.32l-2.27 0.27a2.19 2.19-6.99 0 0-1.9 2.43q0.34 2.99 0.69 7.77 0.52 7.16-5.94 10.63-5.03 2.69-9.43-0.64 7.39-0.49 13.05-5.14a0.98 0.97 68.35 0 0 0.35-0.83q-0.26-2.84-0.44-6.76c-0.23-5 1.79-7.8 4.72-11.48 3.49-4.38 3.78-8.68 9.69-10.85q3.88-1.42 13.31-1.47z" fill="#4fcbae"/>
  <path d="m286.42 221.13q-1.76 0.2-2.65 1.09a1.17 1.14-24.1 0 0-0.34 0.86q0.37 9-1.63 18.12-5.07-3.84-10.54-6.2 2.98-4.5 5.89-9.04 2.73-4.27 9.27-4.83z" fill="#a6e0ca"/>
  <path d="m397.85 239.1a1.86 1.61-162.6 0 1 2.25-0.98 1.86 1.61-162.6 0 1 1.29 2.1 1.86 1.61-162.6 0 1-2.25 0.98 1.86 1.61-162.6 0 1-1.29-2.1z" fill="#eceef2"/>
  <path d="m175.27 273.51c-6.0533 4.3-10.817 8.9567-14.29 13.97-2.5467 3.6733-4.6033 8.3233-6.17 13.95-0.77307 2.9332-1.3904 5.2754-2.09 7.93-0.26 0.76-0.34333 1.5967-0.25 2.51-1.5748 7.7856-10.701 6.4085-14.63-5.07 1.65-6.13 2.62-10.74 7.9-13.53 5.44-2.88 9.8-5.32 14.35-9.84 4.74-4.72 8.66-9.47 15.18-9.92z" fill="#a6e0ca"/>
  <path d="m319.33 275.23-1.65 10.48q-3.25 1.73-5.65-0.68a0.86 0.85-65.61 0 0-1.46 0.55q-0.13 2.32-1.93 3.39a1.6 1.6 68.78 0 0-0.74 1.68q0.43 2.16 0.19 3.71l-3.28-1.9a1 1 11.48 0 1-0.5-0.75l-0.43-3.57q6.79-3.59 11.01-10.18 1.05-1.65 4.44-2.73z" fill="#b0cae7"/>
  <path d="m430.45 290.32c1.8733 0.72 4.1167 0.78 6.73 0.18 1.073-0.24733 2.1165 0.5128 2.21 1.61 0.3 3.43-1.09 6.01-4.36 8.06-3.47 2.18-5.56 3.45-7.47 6.06-1.03 1.42 0.66 5.25 0.02 7.11-0.41333 1.2067-1.37 3.3233-2.87 6.35-0.27089 0.55037-0.13981 1.214 0.32 1.62 0.73333 0.65333 1.7333 0.99333 3 1.02 4.4733 0.0933 7.8967 0.29667 10.27 0.61 1.5 0.2 3.0567 0.86 4.67 1.98 0.85841 1.6285-9.8477 17.369-12.57 16.74-2.34-1.7-4.53-2.86-6.57-3.48-2.52-0.76667-4.8233-0.28-6.91 1.46-2.4333 2.0333-2.6533 4.3167-0.66 6.85 2.6333 3.3467 5.87 5.8667 9.71 7.56 0.26972 1.2262-9.5554 4.5038-11.68 2.91-1.64-1.5-7.8-6.99-9.97-4.5-0.77 0.88-0.56 2.28-0.58 3.49 0.5052 3.1981-7.7858 14.789-9.94 14-0.90667-1.4667-1.91-2.97-3.01-4.51-1.6333-2.28-3.3233-4.08-5.07-5.4-0.94911-0.71688-2.2507-0.74509-3.23-0.07-3.3533 2.32-3.4952 6.0001-2.4 10.3 0.35053 2.0537 0.072 4.2306 0.05 6.32 1.02 3 2.45 8.92-1.4 10.21-0.32543 0.11435-0.68209 0.0852-0.98-0.08-2.92-1.62-4.56-3.14-8.01-3.53-4.77-0.53-5.94 5.25-5.51 8.77-0.39066 2.4804-20.886 9.1607-22.92 8-3.58-1.1-8.13-1.86-10.96-4.35-1.68-1.48-2.84-2.3233-3.48-2.53-3.3467-1.0867-6.3433-1.1467-8.99-0.18-0.70667 0.26667-2.0667 1.5433-4.08 3.83-0.23198 0.26521-0.42408 0.56515-0.57 0.89-2.13 4.78-3.72 8.74-3.5 14.14 0.1 2.34 0.59667 4.2567 1.49 5.75 0.70667 1.1733 1.4933 2.2667 2.36 3.28l0.13935 0.75846-14.351 10.124 0.14154-0.62281c0.77-5.99 1.28-13.47-2.26-18.08-2.29-2.99-5.06-6.8-7.85-8.81-0.2876-0.20903-0.62438-0.33055-0.97-0.35-2.1533-0.13333-4.3333-0.98667-6.54-2.56-0.29833-0.21215-0.56124-0.46494-0.78-0.75-2.78-3.59-4.67-7.24-9.27-6.07-0.25757 0.0594-0.50197 0.16804-0.72 0.32-2.56 1.7733-4.16 2.8833-4.8 3.33-2.6733 1.88-5.6133 2.05-8.82 0.51-4.49-2.16-9.26 3.87-11.26 7.65-3.0867 5.8267-5.69 11.023-7.81 15.59-0.30347 0.66651-0.47009 1.3874-0.49 2.12l-0.31 14.5c-0.0132 0.73347-0.16242 1.4559-0.44 2.13l-4.57 11.21c-0.0133 0.0401-0.0267 0.0835-0.04 0.13-1.5 6.2267-2.19 12.527-2.07 18.9 0.13333 7.3 0.13 11.43-0.01 12.39-0.66 4.64-1.6833 8.7233-3.07 12.25-1.54 3.94-4.4233 6.1833-8.65 6.73-8.71 1.13-11.51-8.88-9.99-15.46 1.7-7.32 4.87-16.67 3.84-23.99-0.56667-4.0067-0.78-7.7333-0.64-11.18 0.0526-1.322 0.46379-2.6075 1.19-3.72 3.39-5.2 5.58-10 6.64-15.98 0.62-3.54 0.32-6.92 0.41-10.82 0.13-5.2-1.83-10.78-4.43-15.22 0.38348-1.1104 11.751-6.5516 19.111-1.6616 2.0149-3.3502-0.91859-1.6011 7.0828-6.8009 5.2368-3.9751 10.752-6.7943 16.721-9.3155 7.2121-3.0821 13.245-5.3903 16.805-5.712 5.5467 1.8667 11.707 2.9767 18.48 3.33 7.2267 0.36667 13.293-1.8733 18.2-6.72 6.78-6.7067 11.58-13.86 14.4-21.46 4.46-6.7184 14.797-19.436 19.45-20.66 6.16 1.23 9.24 3.32 16.16 0.42 0.19789-0.0858 0.37508-0.21183 0.52-0.37l5.56-6.13c0.12578-0.13287 0.31949-0.17636 0.49-0.11 3.17 1.22 10.24 1.96 10.32-2.84 1e-3 -0.37431 0.41818-0.59707 0.73-0.39 2.1667 1.42 5.0333 2.3633 8.6 2.83 3.02 0.39 5.61-1.3 6.53-3.87 0.40346-1.1269-0.091-2.3116-1.06-2.54-0.80667-0.18667-1.6367 3e-3 -2.49 0.57-0.23891 0.16421-0.54782 0.17594-0.79 0.03-1.5133-0.86-2.1567-2.1833-1.93-3.97 0.25-1.94 1.83-2.46 3.18-1.12 0.59333 0.58 1.0367 0.95 1.33 1.11 0.31862 0.16569 0.69189 0.19106 1.03 0.07l1.18-0.42c0.28696-0.10308 0.60422 0.0379 0.72 0.32 0.64 1.5067 1.7633 2.1333 3.37 1.88 0.39889-0.0651 0.71009-0.38031 0.77-0.78 0.39333-2.7267 1.2567-4.92 2.59-6.58 0.36186-0.44747 0.61519-0.97467 0.74-1.54l0.95-4.13c0.13266-0.58522 0.53263-1.0741 1.08-1.32 3.76-1.66 6.38-2.43 8.8-4.69 0.74667-0.70667 1.7167-1.22 2.91-1.54 4.24-1.13 6.95-5.99 7.54-10.07 0.10059-0.7007 0.64722-1.2554 1.35-1.37 1.5067-0.24 2.91-0.22333 4.21 0.05z" fill="#4d45c6"/>
  <path d="m416.75 294.44a2.17 1.84-67.3 0 1 0.86 2.71 2.17 1.84-67.3 0 1-2.54 1.29 2.17 1.84-67.3 0 1-0.86-2.71 2.17 1.84-67.3 0 1 2.54-1.29z" fill="#4d45c6"/>
  <path d="m154.81 301.43-2.09 7.93-1.5-2.94a1.43 1.42-6.92 0 0-0.94-0.73l-2.54-0.58a0.71 0.69 6.83 0 1-0.55-0.68v-0.4a0.65 0.65-45 0 1 0.65-0.65h3.97a0.98 0.97 13.37 0 0 0.87-0.53q0.67-1.3 2.13-1.42z" fill="#eceef2"/>
  <path d="m152.47 311.87c0.13333 0.76667 0.17333 1.39 0.12 1.87-0.86 7.96 0.15333 15.763 3.04 23.41 1.59 4.22 4.41 7.43 8.3 10.06 7.6267 5.14 16.083 8.2533 25.37 9.34 1.4874 0.81195-4.5077 6.1214-5.421 6.6214-7.68 4.2-12.011 9.3083-17.729 15.509-1.4 2.9867-2.7467 4.96-4.04 5.92-4.84 3.59-11.64 3.68-15.48-1.58-0.2173-0.29997-0.30388-0.67514-0.24-1.04 0.41333-2.3933 0.69-4.0767 0.83-5.05 0.16984-1.233-0.62943-2.3474-1.75-2.44-2.57-0.2-4.41 1.88-7.17 4.24-1.0333 0.88667-2.1433 1.9933-3.33 3.32-4.9667 5.5733-9.63 10.133-13.99 13.68-6.15 5.01-14.19 8.26-21.41 11.69-3.8557 1.5955-7.6973 2.8539-11.137 4.6139-3.6333 1.8667-9.6418 5.16-17.095 9.88-4.9733 3.1467-15.899 2.6249-15.338-0.98387 4-6.6333 6.86-11.167 8.58-13.6 4.77-6.76 10.85-9.97 19.99-13.91 0.27088-0.1178 0.45535-0.37912 0.48-0.68 0.24667-3.2 1.8267-5.77 4.74-7.71 5.94-3.96 9.63-5.81 16.24-9 9.64-4.65 15.82-10.67 20.12-20.66 0.38667-0.9 0.60333-1.9333 0.65-3.1 0.0114-0.29459-0.21564-0.54384-0.51-0.56-1.88-0.13-3.27 1.13-5.03 1.12-1.8-0.0133-3.1767-0.63333-4.13-1.86-0.21495-0.28037-0.34041-0.61839-0.36-0.97-0.1-1.7267 0.24333-3.0433 1.03-3.95 2.46-2.82 5.98-7.26 4.4-10.45-0.29882-0.6018-1.0536-0.81146-1.62-0.45-1.7067 1.08-3.8633 2.7067-6.47 4.88-0.75333 0.62667-2.1 1.0367-4.04 1.23-0.36235 0.0375-0.71666-0.10952-0.94-0.39-2.51-3.09-2.14-6.21-1.07-9.9 0.053-0.19224 0.13395-0.37427 0.24-0.54l3.38-5.59c1.0099-2.0173 5.1777-6.5568 6.34-8.84 0.27333-1.58 1.9867-2.3867 5.14-2.42 3.1067-0.04 5.13-0.2 6.07-0.48 3.58-1.0733 6.45-3.1733 8.61-6.3 0.28-0.58667 0.59-0.9 0.93-0.94 0.42-0.04 0.69333 0.26 0.82 0.9 0.26667 1.2867 0.77667 2.3 1.53 3.04 1.56 1.55 1.4 3.82 3.17 5.13 3.3133 2.44 6.04 1.42 8.18-3.06z" fill="#eceef2"/>
  <path d="m118.02 316-1.41 7.53a1.31 1.25-16.22 0 1-0.43 0.74q-1.92 1.64-4.5 0.57 0.27-1.45-0.24-3.33 3.59-1.58 6.58-5.51z" fill="#a6e0ca"/>
  <path d="m430.4 341.66c4.7-5.13 10.52-9.76 12.57-16.74q1.92 1.99 3.14 4.46a4.47 4.4 9.06 0 0 0.89 1.21c2.95 2.83 5.94 4.99 5.97 9.42q0.02 3.49-3.04 4.01-10.2 1.71-19.53-2.36z" fill="#4232a4"/>
  <path d="m369.16 333.77a4.07 3.76-82.3 0 1 3.18 4.53 4.07 3.76-82.3 0 1-4.28 3.53 4.07 3.76-82.3 0 1-3.18-4.53 4.07 3.76-82.3 0 1 4.28-3.53z" fill="#75a7df"/>
  <path d="m346.06 336.82c0.81501 0.17107 1.6352 18.912-3.8697 21.2-4.98 2.32-11.02 3.43-15.58-0.54 2.3667-5.2067 3.7567-10.587 4.17-16.14 4.6133-3.1933 9.7064-4.7004 15.28-4.5204z" fill="#5e71d0"/>
  <path d="m85.73 353.49 1.05-2.85a0.87 0.83-9.99 0 1 0.25-0.34c3.51-2.95 8.05-5.45 11.95-2.72a1.45 1.44 10.7 0 1 0.57 0.83q1.25 5.18-2.89 8.26c-2.96 2.2-5.24 2.28-6.4 6.68a2.05 2.04-16.39 0 1-0.5 0.91c-2.74 2.95-9.52 6.59-10.19-0.47q-0.18-1.83-0.5-2.98c-1.06-3.84 0.29-6.78 4.97-6.27a1.61 1.61 13.09 0 0 1.69-1.05z" fill="#eceef2"/>
  <path d="m461.8 365.12c-2.42-0.55-4.13-5.09-5.24-7.28-1.4-2.75-1.74-4.71 1.35-6q6.06-2.52 11.65 1.97c1.89 1.51 4.16 6.47 1.69 8.66q-4.31 3.82-9.45 2.65z" fill="#3d1977"/>
  <path d="m275.53 382.33c0.0267 0.69333-0.31 1.1667-1.01 1.42-3.0672 0.37887-5.1212 0.85883-6.1412 1.1521-13.32 4.2946-21.507 7.2316-32.644 17.561-0.01 0.61016-1.2414 1.4337-1.7699 1.1285-3.7731-1.2369-7.183-2.3485-11.858-0.69393-2.3333 0.87333-6.4447 2.1592-7.3171 1.6526-3.2267-3.26-6.89-5.8467-10.99-7.76-0.47602-0.21819-0.90644-0.51981-1.27-0.89l-5.52-5.49c-0.27356-0.27368-0.62204-0.45837-1-0.53-1.5867-0.32-2.7033 0.27667-3.35 1.79-0.18 0.41333-0.22667 1.69-0.14 3.83 0.0132 0.37831 0.0772 0.7517 0.19 1.11 0.87333 2.8667 1.5633 5.1433 2.07 6.83 0.22667 0.76667 0.27333 2.51 0.14 5.23-0.0199 0.39537-0.12566 0.78106-0.31 1.13-0.93333 1.7467-1.55 3.7967-1.85 6.15-0.73 5.69-1.63 10.58-8.27 10.31-9.67-0.39-9.05-12.36-6.89-19.57 2.12-7.04 4.03-14.3 1.09-20.84-0.81333-1.8133-2.7467-4.8033-5.8-8.97-3.0065-3.453 20.79-19.448 24.94-20.29 4.56-0.35333 9.1233-0.92333 13.69-1.71 7.5133-1.2933 14.873-1.7233 22.08-1.29 0.70847 0.0393 1.3961 0.25593 2 0.63 5.0333 3.12 9.9767 6.6933 14.83 10.72 0.46 0.38 2.71 2.3867 6.75 6.02 5.42 4.8733 11.537 8.6633 18.35 11.37z" fill="#75a7df"/>
  <path d="m414.29 356.96c4.14 0.73 7.96-0.82 11.68-2.91q4.56 1.83 5.48 3.02 3.54 4.57 0.79 9.72a1.28 1.26 4.68 0 1-0.73 0.61q-4.17 1.4-7.3-0.88-4.05-2.95-9.92-9.56z" fill="#4232a4"/>
  <path d="m403.74 355.95c0.5 2.6 1.6733 5.1133 3.52 7.54 2.7067 3.56 4.7067 7.2167 6 10.97l0.33337 0.65128-10.824 5.5557-0.22966-0.93702c-1.97-5.27-5.12-6.57-8.74-9.78 6.32-3.2 3.69-7.29 2.13-12.29-0.11532-0.37065 0.13445-0.75492 0.52-0.8z" fill="#4232a4"/>
  <path d="m197.83 356.59q-2.48 5.15-7.9 7.65c-3.17 1.46-8.01 2.35-11.07 4.87q-3.77 3.08-5.97 7.77-4.51-1.33-6.74 1.8c5.02-7.48 9.7-13.17 17.38-17.37q1.37-0.75 5.77-4.76z" fill="#b0cae7"/>
  <path d="m402.54 379.73 10.72-5.27q2.15 4.36 5.9 7.61a3.32 3.3-83.08 0 1 0.77 0.99q2.97 5.88 0.2 12.2a1.97 1.94-89.08 0 1-1.07 1.05c-5.16 2.06-9.84-0.91-12.56-5.34q-2.07-3.37-3.96-11.24z" fill="#3d1977"/>
  <path d="m274.52 383.75c-5.12 1.69-10.65 2.99-15.33 4.99q-3.14 1.35-7.55 3a13.01 12.52-71.3 0 0-2.74 1.42c-1.92 1.31-4.09 3.31-6.78 5.07-3.77 2.45-4.48 3.74-6.7 6.7a0.58 0.58 35.41 0 1-0.79 0.13c-7.36-4.89-11.34-1.95-18.82 0.76l-1.02-1.27q3.59-0.72 7.09-2.03c4.97-1.87 7.86-1.84 12.08 0.58a0.8 0.8-74.49 0 0 1.2-0.68q0.07-3.46 0.99-5.93a2.44 2.43-79.78 0 1 2.28-1.59h5.56a0.99 0.98 11.98 0 0 0.9-0.58q1.87-4.14 6.31-8.05a0.97 0.97-60.8 0 1 0.81-0.23q5.79 0.98 16.04-1.96 1.53-0.44 6.47-0.33z" fill="#5e71d0"/>
  <path d="m364.24 391.96 0.03 3.95c7e-3 0.41186 0.0603 0.81794 0.16 1.21 0.64 2.4133 1.1167 5.98 1.43 10.7 0.0733 1.04 0.63 3.34 1.67 6.9 0.32881 1.0726-11.393 10.806-11.88 9.57-3.4-9.16-6.3-18.08-14.33-24.33 8.2-0.93333 15.84-3.6 22.92-8z" fill="#4232a4"/>
  <path d="m19.16 410.16c-2.97-1.65-4.94-3.28-4.3-6.92a2.16 2.14-22.97 0 1 0.36-0.88q3.57-5.08 9.26-2.12a1.98 1.88 87.32 0 1 0.75 0.72l1.83 3.15a0.85 0.77 28.26 0 1 0.12 0.34q0.35 2.88-0.57 4.96a1.75 1.73 87.28 0 1-0.71 0.79q-3.23 1.9-6.74-0.04z" fill="#eceef2"/>
  <path d="m99.57 407.42-9.73 5.84c-3.2797 1.4205-3.9917 1.5747-9.1517 5.3747-5.5068 3.9441-9.0194 6.6726-14.447 11.128-5.06 3.9-15.17-1.2374-13.551-4.7731l3.31-4.06c4.7867 3.26 9.6667 3.3167 14.64 0.17 7.4533-4.72 12.997-8.0133 16.63-9.88 3.44-1.76 7.54-3.0267 12.3-3.8z" fill="#b0cae7"/>
  <path d="m89.84 413.26q-14.02 10.12-20.25 26.1-1.05 2.69-3.95 13.32-11.03 4.68-21.61 9.31c-2.97 1.3-5.59 1.82-8.72 2.44q-1.91-2.93-2.31-4.67-0.44-1.88-0.44-6c-0.01-4.95 2.59-10.38 5.15-14.18q1.12-1.67 7.01-6.71 4.24-3.63 7.97-7.88c3.56 4.44 8.08 6.7 13.14 2.8q7.06-5.46 8.72-6.73a1.47 1.44-62.84 0 1 0.87-0.29h0.27a0.43 0.34-58.15 0 0 0.23-0.08c5.16-3.8 8.4-6.4 13.92-7.43z" fill="#75a7df"/>
  <path d="m355.65 424.29q6.6-3.97 11.88-9.57 1.63 5.39 3.62 10.5 4.68 12.04 11.16 20.21 7.02 8.86 11.37 14.72c6.27 8.47 8.43 18.5 1.91 27.69a2.7 2.52 0 0 1-0.75 0.7q-5.28 3.34-10.62 1.27c-7.62-2.94-11.86-14.87-13.09-22.46q-0.65-3.98-2.37-17.33-0.42-3.24-2.83-7.79-0.84-1.57-4.53-6.95-3.52-5.12-5.75-10.99z" fill="#3d1977"/>
  <path d="m318.37 448.85c-0.0605 1.5316-19.959-0.47844-20.02-2.1-0.36-5.6067 0.03-10.84 1.17-15.7l14.07-10.26c0.89333 4.6933 1.2267 9.48 1 14.36-0.0133 0.30472 0.0205 0.60514 0.1 0.89z" fill="#4232a4"/>
  <path d="m257.08 446.68q-0.29-2.98 0.46-4.13 2.98-4.59 4.17-8.51a3.23 2.9 10.92 0 1 3.35-2.01q1.01 0.11 1.45 1.4 2.18 6.45-1.95 12.31-2.34 3.31-6.86 1.74a0.95 0.94-83.22 0 1-0.62-0.8z" fill="#4d45c6"/>
  <path d="m409.9 433.81a1.6 1.6 14.26 0 1 2.33-1.38q4.97 2.55 10.64 5.47 9.35 4.81 8.34 15.6c-0.19 2.1-3.06 5.71-5.01 6.96-7.06 4.55-9.26-6.26-10.59-10.76q-0.26-0.87-2.67-4.16-0.84-1.14-1.4-5.62a7.8 7.59 27.98 0 0-0.84-2.62q-0.85-1.58-0.8-3.49z" fill="#3d1977"/>
  <path d="m318.37 448.85q0.06 4.87-2.85 7.17c-4.77 3.75-13.73 5.06-16.01-2.06q-1.15-3.57-1.16-7.21 3.16 0.16 10.03-0.83 4.49-0.65 9.99 2.93z" fill="#3d1977"/>
  <path d="m65.64 452.68-3.34 10.08a2.98 2.97 81.15 0 1-1.09 1.5q-13.07 9.47-25.9 0.17c3.13-0.62 5.75-1.14 8.72-2.44q10.58-4.63 21.61-9.31z" fill="#4d45c6"/>
 </g>
</svg>
