<svg width="512" height="512" version="1.1" viewBox="0 0 512 512" xmlns="http://www.w3.org/2000/svg">
 <g transform="matrix(1.0238 0 0 1.0238 .95411 3.6397)">
  <path d="m291.53 70.82c0.0336 3.3201-1.1898 6.1676-4.6646 10.133-2.0933 1.4733-6.191 3.0828-9.381 3.4335-3.243 0.63462-5.7401 2.2977-9.5294 5.8044-1.54 1.7933-2.203 3.5264-2.8769 6.4088-0.51484 1.9756-1.3008 3.8911-3.1925 6.1894l-0.92563 0.37063c-2.7-0.17333-5.5167 0.12333-8.45 0.89-6.1267 1.62-11.353 4.0467-15.68 7.28-7.15 5.35-14.69 12.04-20.68 19.95-5.0333 6.66-9.2967 13.72-12.79 21.18-5.3434 11.673-18.302 7.5972-18.69 4.95-0.1-5.76-5.51-5.71-9.08-3.05-5.4933 4.0733-7.08 8.83-4.76 14.27 2.1268 2.1588 0.64958 11.924-5.13 14.67-5.2533 2.26-10.147 5.1733-14.68 8.74-4.5044 2.6159-11.609 8.5051-16.634 15.981-4.09 7.39-12.139 13.915-19.139 17.925-2.1 1.2067-10.366 2.1539-10.478 0.74375-0.0733-1.78-0.66-3.52-1.76-5.22-1.98-3.05-5.78-6.59-3.29-10.63 1.38-2.25 3.61-2.9 5.87-4.48 5.64-3.96 0.39-8.59-2.76-11.64-3.07-2.96-2.1-8.43-1.03-12.2 2.63-9.25-12.32-10.26-8.24-20.99 1.22-3.23 4.03-4.02 7.44-3.93 3.13 0.09 4.45 0.32 6.98-0.52 2.8067-0.93333 5.7767-1.0233 8.91-0.27 8.52 2.04 10.11-1.76 11.39-9.23 0.84-4.91 0.66-9.87-2.59-13.87-2.2867-2.8067-4.8833-5.1767-7.79-7.11-0.23921-0.16614-0.49418-0.30369-0.76-0.41-5.1267-2.06-9.5133-5.1267-13.16-9.2-5.68-6.36-11.76-11.71-18.2-14.71-5.08-2.3667-9.77-4.1867-14.07-5.46-1.7467-0.52-3.27-1.5167-4.57-2.99-1.9067-2.1667-4.34-4.3567-7.3-6.57-0.60667-0.44667-1.2567-1.26-1.95-2.44-5.09-8.66 2.47-18.87 10.34-22.01 0.4239-0.16561 0.87274-0.26348 1.33-0.29 7.5467-0.43333 14.18 1.2367 19.9 5.01 3.21 2.12 8.03 6.11 12.29 8.65 12.33 7.35 23.28 14.32 28.58 27.86 1.38 3.51 4.9 6.95 8.71 6.86 2.49-0.06 5.02-0.93 7.34-0.35 5.66 1.42 6.32 8.35 7.54 13.8 1.14 5.1 6.7 7.81 11.45 8.74 5.82 1.14 11.09-1.8 8.2-8.5-1.0733-2.5-2.0833-4.9633-3.03-7.39-0.1436-0.37209-0.17828-0.77788-0.1-1.17 0.57-2.75 3.01-5.46 6.03-4.07 0.58667 0.26667 1.5833 0.79667 2.99 1.59 0.42817 0.2416 0.97318 0.12663 1.28-0.27 0.99333-1.3 2.1567-2.0667 3.49-2.3 1.2667-0.21333 2.1533-0.63333 2.66-1.26 3.44-4.23 0.53-8.3-2.16-12.44-0.21937-0.33906-0.40042-0.69781-0.54-1.07-0.92667-2.44-1.3967-3.7833-1.41-4.03-0.16-2.9067-0.83667-5.46-2.03-7.66-6.21-11.43-16.25-19.76-17.93-32.75-0.4-3.04 0.43-8.59 2.84-10.82 6.27-5.83 16.22 4.99 19.02 10.09 3.6067 6.5667 6.04 13.56 7.3 20.98 1.0467 6.1467 1.67 9.71 1.87 10.69 0.77 3.75 2.14 6.08 6.44 7.01 1.4667 0.31333 3.2467 0.91 5.34 1.79 0.26297 0.10886 0.56107 0.10886 0.83 0 4.86-1.91 1.35-17.65 0.17-21.64-0.14593-0.49078-0.36143-0.95882-0.64-1.39-1.76-2.72-3.3933-5.2367-4.9-7.55-1.18-1.8-2.27-4.5333-3.27-8.2-1.6-5.8667-2.6567-9.6633-3.17-11.39-0.90667-3.0733-2.55-7.0133-4.93-11.82-0.19932-0.39864-0.44437-0.77125-0.73-1.11-3.83-4.65-8.01-9.51-7.78-15.64 0.27-6.93 6.31-8.62 10.32-3.03 1.8533 2.5733 2.9733 4.5967 3.36 6.07 0.0865 0.33282 0.14672 0.66718 0.18 1 0.16667 1.9667 0.35667 5.7933 0.57 11.48 0.21 5.59 5.94 9.76 7.06 14.48 0.94 3.94 1.8433 7.2333 2.71 9.88 0.0666 0.19306 0.14679 0.38023 0.24 0.56l7.3 13.06c0.35653 0.6403 0.8323 1.201 1.4 1.65 1.1933 0.94667 2.01 1.5767 2.45 1.89 0.86 0.62 1.5567 1.3633 2.09 2.23 1.66 2.6933 3.9733 4.89 6.94 6.59 0.68 0.4 1.5 1.4233 2.46 3.07 2.04 3.5 5.41 11.4 10.08 11.96 5.53 0.66 4.03-6.5 7.8-8.16 1.4333-0.63333 2.8633-0.71333 4.29-0.24 1.47 0.49 2.89 1.77 4.52 2.06 3.77 0.67 5.47-4.81 5.51-7.84 0.06-3.76 0.92-7.26 0.89-11.65-0.0933-11.973-0.18667-18.913-0.28-20.82-0.21333-4.36-1.23-8.5467-3.05-12.56-0.29333-0.65333-0.35667-2.0533-0.19-4.2 0.18-2.2133 0.27333-4.5033 0.28-6.87-6e-5 -0.51596-0.0915-1.0272-0.27-1.51l-2-5.47c-0.12619-0.34541-0.21014-0.7081-0.25-1.08-0.59-6.21 1.65-11.98 8.62-12.91 6.46-0.86 7.43 3.72 8.1 8.68 0.0665 0.50513 0.0765 1.0149 0.03 1.52-0.54667 6.0933-1.5133 13.127-2.9 21.1-0.36667 2.08-0.33333 6.6733 0.1 13.78 0.26 4.2 1.75 8.3133 4.47 12.34 1.96 2.89 2.78 4.91 2.29 8.41-0.10667 0.79333 0.19667 1.5967 0.91 2.41 0.62261 0.71895 1.719 0.77355 2.41 0.12 1.96-1.87 3.09-3.19 6-2.67 0.33235 0.05878 0.64312 0.22289 0.89 0.47 1 1 2.76 3.58 4.99 2.25z" fill="#d52800"/>
  <path d="m299.59 46.77q-1.59-0.99-1.41-3.73 0.59-8.65 1.69-11.32a2.08 2.04 82.56 0 1 0.65-0.86q2.14-1.68 4.72-0.8 2.89 0.99 5.79 1.73a3.03 3.01 88.74 0 1 2.15 2.07c2.03 6.75-0.8 9.92-6.95 11.35q-2.75 0.64-5.36 1.68a1.44 1.44-1.52 0 1-1.28-0.12z" fill="#d52800"/>
  <path d="m350.86 114.32 0.31881 0.15159-14.366 13.513-0.54237-0.40508c-3.78-3.9267-8.2867-6.2633-13.52-7.01-0.33633-0.0528-0.67692-0.0358-1 0.05-16.35 4.11-26.99 14.44-33.67 29.77-4.69 10.77-7.28 22.35-8.79 33.36-0.48667 3.5867-0.71 7.2867-0.67 11.1 0.28213 4.4717-11.445 11.52-22.877 19.997-2.86 3.2333-6.37 7.0075-10.53 7.9141-4.6412 0.92911-11.94 9.0284-15.433 10.809-4.6067 2.26-8.93 5.06-12.97 8.4-4.7253 2.662-17.386 16.128-22.08 16.27-6.3267 1.1667-12.577 3.3167-18.75 6.45-8.2133 4.1533-14.66 9.9633-19.34 17.43-2.7133 4.32-4.72 9.4733-6.02 15.46-1.22 5.6133-1.7933 11.143-1.72 16.59-0.29804 7.1588-32.013 25.621-31.58 21.64 1.8-2.86 2.65-5.4333 2.55-7.72-0.0309-0.72601-0.8014-1.1777-1.45-0.85-3.65 1.84-5.95 5.33-10.42 6.16-0.36963 0.0701-0.75162-0.0208-1.05-0.25-4.75-3.6-1.28-10.56 1.48-14.42 1.18-1.66 1.35-4.54-1.01-5.42-2.58-0.96-5.9-0.65-8.89-0.56-1.08 0.0333-2.54-0.64667-4.38-2.04-0.39476-0.29607-0.85317-0.4979-1.34-0.59-4.86-0.86-11.04 2.33-14.87 5.34-5.35 4.21-11.07 9.81-17.7 11.03-7.81 1.45-16.91 0.72-21.54-6.54-3.63-5.71-1.63-13.48 1.93-19.09 3.09-4.87 7.44-7.79 13.03-8.56 1.4733-0.2 2.83-0.45 4.07-0.75 0.57811-0.13955 1.1685-0.21335 1.76-0.22 6.5-0.0533 13.497 0.12 20.99 0.52 2.86 0.14667 5.4267-0.1 7.7-0.74 1.44-0.40706 2.4548-1.5629 2.52-2.87 0.13333-2.5133 1.58-4.25 4.34-5.21 1.7733-0.61333 3.3567-1.32 4.75-2.12 1.1768-0.66698 1.8112-2.0117 1.59-3.37-0.36-2.24-1.5033-4.0667-3.43-5.48-4-2.94-6.9967-4.79-8.99-5.55-1.0267-0.38667-3.23-0.81-6.61-1.27-3.045-1.2921 11.196-21.134 14.5-24.24 4.9-3.71 8.77-7.6 7.92-14.31 4.26 0.27333 7.44-0.19333 9.54-1.4 7-4.01 15.33-10.16 19.42-17.55 0.73333-1.3133 1.8333-3.5133 3.3-6.6 0.19254-0.39834 0.43458-0.76812 0.72-1.1 3.48-4 7.9033-6.6667 13.27-8-6.7067 5.2133-12.04 11.53-16 18.95-1.86 3.5-2.93 7.4233-3.21 11.77-0.53333 8.4 1.2533 16.107 5.36 23.12 2.9067 4.9533 7.35 8.3133 13.33 10.08 10.87 3.21 22 4.07 32.54-0.42 3.04-1.3 6.1367-3.6067 9.29-6.92 5.1-5.35 7.21-13.27 7.68-20.61 0.63333-10.08-0.82-19.81-4.36-29.19-2.59-6.9-7.39-14.63-13.53-17.63-1.7467-0.85333-3.0333-1.2667-3.86-1.24-3.08 0.12667-7.2667 1.2433-12.56 3.35 1.8867-1.72 3.25-3.64 4.09-5.76 1.14-2.8867 1.4867-5.8567 1.04-8.91 2.0867 1.86 4.1267 2.3733 6.12 1.54 5.1467-2.1733 7.72-6.4267 7.72-12.76 4.0467 1.6133 7.8733 1.85 11.48 0.71 2.42-0.76667 4.8233-2.6533 7.21-5.66-1.24 3.23-2.62 6.61-3.26 9.79-3.2133 15.867 0.65 29.187 11.59 39.96 14.04 13.83 35.62 10.96 48.3-2.59 3.86-4.12 7.45-8.97 10.01-14.11 6.16-12.34 10.97-25.97 12.71-39.54 1.8333-14.233-1.6367-26.74-10.41-37.52-2.92-3.5933-6.7-5.3567-11.34-5.29l3.41-5.48c0.20421-0.32956 0.33389-0.69813 0.38-1.08 0.34667-2.6667 1.29-4.8967 2.83-6.69 1.19-1.37 1.36-2.9 1.74-4.01 0.11976-0.33982 0.3931-0.60578 0.74-0.72 0.24667-0.07333 0.59667-0.09 1.05-0.05 0.34049 0.03839 0.68363-0.05454 0.96-0.26 1.2867-0.94 3.0133-1.3667 5.18-1.28 2.5933 0.11333 4.9367-0.56667 7.03-2.04 3.74-2.64 6.1567-6.2167 7.25-10.73 1.3467-0.9 2.6733-2.42 3.98-4.56 2.0933-3.4267 5.35-6.0933 9.77-8 0.0728-0.033 0.15411-0.05332 0.24-0.06l5.18-0.34c1.4232-0.09834 2.7999-0.55955 4-1.34 5.98-3.91 10.87-7.5 18.42-5.67 2.18 0.52 3.7 2.76 4.18 5.03 1.63 7.74-0.96 13.51-5.43 20.09-0.17282 0.25924-0.37395 0.5006-0.6 0.72-3.5067 3.38-5.6767 6.5967-6.51 9.65-0.49333 1.78 0.14333 3.5 1.91 5.16 1.37 1.29 4.75-0.1 5.23 3.06 0.58 3.8 2.28 5.52 6.05 6.23 1.2667 0.24 2.08 0.68 2.44 1.32 3.09 5.45 5.13 10.21 10.47 12.21zm-71.18-19.96c1.25-3.08 2.13-11.07-4.34-8.45-5.9 2.4-11.19 6.61-9.49 13.66 0.89 3.69 4.18 4.83 7.56 2.96 3.24-1.79 4.8-4.55 6.27-8.17zm39.75 11.47c-0.69 3.84-0.85 7 0.93 10.24 1.85 3.38 5.24 4.18 7.96 1.54 5.19-5.04 2.98-11.42-0.72-16.59-4.06-5.67-7.58 1.54-8.17 4.81z" fill="#fd9954"/>
  <path d="m410.98 91.63q-0.7-4.48 1.12-7.78 0.16-0.29 0.26-2.24c0.12-2.51 1.16-3.54 3.69-4.24q5.47-1.52 7.53 3.02c3.01 6.67-3.43 8.35-7.66 10.98q-1.64 1.01-4.34 0.81a0.66 0.65-2.19 0 1-0.6-0.55z" fill="#fff"/>
  <path d="m403.61 161.72c4.8822-0.50404-6.8919 27.583-33.633 40.789-4.8091 5.4964-24.357 26.541-31.523 31.375-3.37 1.99-9.6993 5.27-13.159 9.67-4.7667 6.0467-9.0067 12.381-12.72 18.361-4.29 6.92-16.147 16.137-16.485 12.795-0.94-4.02-1.62-8.51-2.92-12.11-4.56-12.58-12.11-24.22-23.93-30.96-4.3533-2.48-9.24-3.8467-14.66-4.1-8.5933-0.40667-16.86 1.6033-24.8 6.03 3.2267-5.6 7.63-9.75 13.21-12.45 0.27225-0.13277 0.56128-0.23023 0.86-0.29 4.16-0.90667 7.67-2.9767 10.53-6.21 3.8267-4.3133 7.0567-8.68 9.69-13.1 0.38871-0.64883 1.1009-1.0356 1.86-1.01 4.5867 0.12667 8.8167-1.76 12.69-5.66 0.28667 6.3333 0.92 11.047 1.9 14.14 3.3733 10.627 10.07 18.18 20.09 22.66 11.77 5.27 26.07 1.49 35.82-6.3 7.6267-6.08 12.697-14.077 15.21-23.99 2.76-10.89 2.56-23.19 1.37-34.38-0.36667-3.42-1.2267-7.3767-2.58-11.87-1.9867-6.6267-3.1967-10.507-3.63-11.64-2.0933-5.4733-5.6033-10.77-10.53-15.89l14.59-13.26c6.2 1.37 9.15-3.76 13.41-5.55 3.12-1.3 4.14 0.6 4.57 3.46 0.17333 1.1467 0.49 3.3967 0.95 6.75 0.0399 0.26579 0.11031 0.52747 0.21 0.78 1.1133 2.72 2.95 4.3633 5.51 4.93 5.8 1.3 9.48-5.09 12.97-9.81 0.31854-0.42475 0.69183-0.80477 1.11-1.13 5.79-4.49 10.21-9.91 15.51-16.14 0.74771-0.86753 2.162-0.53848 2.45 0.57 0.0733 0.26667-0.02 0.91-0.28 1.93-0.8 3.1867-2.5833 6.7267-5.35 10.62-3.28 4.6333-5.6733 9.5533-7.18 14.76-0.16603 0.56457-0.40109 1.1086-0.7 1.62-1.32 2.26-3.1967 4.7667-5.63 7.52-2.96 3.35-2.96 5.69-2.57 10.71 0.19333 2.4133 0.0333 4.22-0.48 5.42-0.14245 0.33518-0.0583 0.72375 0.21 0.97 1.14 1.0133 2.1833 1.8633 3.13 2.55 0.54 0.39333 1.82 0.66 3.84 0.8 4.1133 0.28 7.8033 2.4933 11.07 6.64z" fill="#fff"/>
  <path d="m81.7 145.08a5.84 3.83-40.6 0 1-1.94 6.71 5.84 3.83-40.6 0 1-6.92 0.89 5.84 3.83-40.6 0 1 1.94-6.71 5.84 3.83-40.6 0 1 6.92-0.89z" fill="#d52800"/>
  <path d="m424.02 154.62a0.8 0.79 11.34 0 1-0.53-0.79q0.34-7.6 6.94-7.57c2.36 0.02 4.51 1.72 5.32 4.06a1.57 1.54 47.03 0 1-0.03 1.14c-2 4.73-7.67 4.59-11.7 3.16z" fill="#d261a3"/>
  <path d="m448.53 147.59a1.78 1.78 20.38 0 1 2.35 0.9l0.42 0.96a4.75 4.61 66.1 0 1-2.29 6.21l-0.05 0.03a4.75 4.61 66.1 0 1-6.14-2.48l-0.43-0.96a1.78 1.78 78.28 0 1 0.91-2.35z" fill="#d261a3"/>
  <path d="m45.85 155.57c0.49529-1.9162 2.4105-3.0793 4.3183-3.0884 2.5809-0.35005 5.4487 0.3134 7.1244 2.4399 1.6376 1.8466 2.8761 4.0117 4.4609 5.8949 0.82436 1.5428 0.77072 3.3302 0.97773 5.0075 0.59826 1.8612 1.3924 3.9223 0.55589 5.8469-0.80541 1.4838-2.6843 1.0464-4.0804 1.1092-1.1551 0.0325-2.3269-0.0658-3.4714 0.0505-1.5402 0.60646-3.0341 1.5006-4.7495 1.4721-1.718 0.0787-3.7876-0.75618-4.0955-2.6479-0.37591-2.2584-1.1334-4.4222-2.1046-6.4909-0.77083-2.0158-0.07719-4.1416 0.75953-5.9979 0.27037-1.1797 0.12261-2.4057 0.30461-3.5959z" fill="#d52800"/>
  <path d="m442.26 234.39c1.8672 3.5342-10.871 14.833-26.029 23.759-13.155 26.574-27.039 48.913-41.488 66.964-21.114 17.492-42.4 34.264-58.008 44.029-5.5467 3.3933-13.357 6.7286-15.194 3.7573 9.18-6.9 14.01-15.12 18.45-26.07 5.69-14.05 3.59-30.03-4.38-42.57-4.82-7.58-10.25-14.22-18.09-18.75-0.22649-0.1318-0.37548-0.36647-0.4-0.63l-1.03-10.17c7.03-3 10.91-7 15.2-13.92 3.7133-5.98 7.9533-11.993 12.72-18.04 3.46-4.4 9.95-7.68 13.32-9.67 3.4533-2.0333 6.8967-5.5633 10.33-10.59 0.39835-0.58419 0.86899-1.112 1.4-1.57 6.5533-5.6267 12.323-11.957 17.31-18.99 0.46484-0.66107 1.1009-1.1831 1.84-1.51 6.17-2.72 9.43-7.15 11.97-13.23 0.13321-0.33114 0.3986-0.58926 0.73-0.71 1.42-0.52 4.08-1.13 6.01-2.15 9.4933-4.98 15.057-12.517 16.69-22.61 3.2667-0.44667 6.48-0.67 9.64-0.67 3.08 0 6.13 0.60333 9.15 1.81 6.35 2.55 3.54 9.26 0.33 13.13-0.99333 1.1867-3.4533 3.15-7.38 5.89-0.1198 0.0865-0.2335 0.18351-0.34 0.29l-2.8 2.83c-0.63958 0.6593-0.52923 1.734 0.23 2.24l2.92 1.97c0.17744 0.11818 0.32494 0.2794 0.43 0.47 0.9 1.68 2.23 3.1033 3.99 4.27 0.27513 0.1835 0.59532 0.29367 0.93 0.32 4.68 0.41 9.27 0.43 10.27 6.24 0.52 3.01-3.16 7.6-5.54 9.82-0.11896 0.1122-0.21407 0.24468-0.28 0.39l-0.8 1.75c-0.14643 0.32956 9e-3 0.71277 0.34 0.84 1.0733 0.41333 2.31 0.85667 3.71 1.33 2.49 0.83 5.74 4.19 5.47 7.09-0.31 3.28-2 7.6 1.72 9.69 1.5267 0.84667 3.7467 1.8367 6.66 2.97zm-72.12-26.79c-3.5848-0.0454-6.5446 4.2621-6.61 9.62-0.066 5.3567 2.786 9.7354 6.37 9.78 3.5848 0.0454 6.5446-4.2621 6.61-9.62 0.066-5.3567-2.786-9.7354-6.37-9.78zm-11.58 24.36c-7.13-2.38-16.08 1.47-21.96 5.63-10.267 7.2733-17.98 16.537-23.14 27.79-7.65 16.7-0.03 32.12 15.28 40.47 6.1067 3.3267 11.757 5.4267 16.95 6.3 5.24 0.88667 10.323-0.18667 15.25-3.22 5.8067-3.5667 10.347-8.0267 13.62-13.38 3.0667-5.02 4.7267-9.7 4.98-14.04 1.06-18.35-6.1-36.74-19.83-48.89-0.33648-0.29683-0.72776-0.52138-1.15-0.66z" fill="#d261a3"/>
  <path d="m437.91 214.67 1.55-0.18q0.03 0 0.05 0l11.3-0.96a5.23 5.2-58.68 0 0 1.58-0.39q7.72-3.24 10.23-4.27c4.38-1.8 7.72-2.18 12.14-2.28 2.52-0.06 8.42 0.63 9.09 3.69 1.1 5.08-6.38 8.53-10.29 9.26q-10.36 1.96-19.81-0.56a9.03 8.84-36.52 0 0-2.1-0.29c-5.46-0.07-10.01 0.35-14.01-2.16a1.03 1.02 53.41 0 1 0.27-1.86z" fill="#d261a3"/>
  <path d="m272.71 388.86-0.46509-0.58158 13.677-11.666 1.2684 0.0479c5.26 0.38667 10.043-0.86667 14.35-3.76 4.28-1.6867 9.1933-4.2267 14.74-7.62 4.6333-2.8267 7.9333-5.5433 9.9-8.15 1.16-1.54 2.9333-4.1867 5.32-7.94 3.0067-4.7267 6.55-8.54 10.63-11.44 0.389-0.27684 0.83214-0.46773 1.3-0.56 1.06-0.21333 2.13-0.77 3.21-1.67 0.23916-0.19932 0.5009-0.37046 0.78-0.51 5.6133-2.7267 10.893-5.4367 15.84-8.13 1.53-0.83 2.66-1.86 4.15-2.76 0.28839-0.17699 0.52604-0.42498 0.69-0.72 0.22667-0.4 1.1533-1.6467 2.78-3.74 1.2533-1.6133 2.0667-3.3767 2.44-5.29 0.10213-0.54027 0.43469-1.008 0.91-1.28 9.86-5.8267 13.95-14.34 12.27-25.54-0.0611-0.37951 0.12229-0.75832 0.46-0.95l5.31-3.07c0.2996-0.1731 0.58374-0.36699 0.85-0.58 0.12667-0.1 2.91-3.1467 8.35-9.14 4.94-5.44 6.61-9.46 8.86-16.34 0.61-1.86 0.19-4.02 1.8-5.41 0.26356-0.23048 0.57764-0.40118 0.92-0.5 8.7467-2.3933 15.197-5.1167 19.35-8.17 2.8333-2.0867 5.66-4.1733 8.48-6.26 0.92667-0.68667 1.3867-1.6 1.38-2.74 3.2667 3.0933 4.2867 6.2767 3.06 9.55-0.96667 2.5667-3.3733 5.11-7.22 7.63-3.5667 2.3333-7.21 4.5367-10.93 6.61-2.27 1.26-8.2 5.62-8.79 8.26-0.28528 1.247 0.61755 2.454 1.9 2.54 2.82 0.19 6.23-0.07 7.3 2.07 0.39408 0.80942 0.12139 1.7937-0.64 2.31-0.80667 0.54-1.8133 0.90667-3.02 1.1-0.31709 0.0495-0.48733 0.40028-0.33 0.68l0.78 1.34c0.16019 0.28234 0.20327 0.61624 0.12 0.93-0.54 1.9733-1.7167 3.8167-3.53 5.53-0.43268 0.40574-0.20655 1.1317 0.38 1.22 1.91 0.29 5.1-1.09 6.64-0.38 2.54 1.18 1.14 5.06 0.07 6.88-1.43 2.45-6.47 4.56-7.75 5.82-0.61333 0.60667-1.4467 1.4633-2.5 2.57-0.27049 0.28315-0.42715 0.65698-0.44 1.05-0.06 1.42 0.17667 2.8633 0.71 4.33 0.14757 0.41056 0.12964 0.86242-0.05 1.26l-3.13 6.86c-0.18149 0.40599-0.0563 0.8817 0.3 1.14 1.1533 0.83333 2.3467 1.2767 3.58 1.33 3.4667 0.13333 6.7867 0.26667 9.96 0.4 0.66667 0.0267 1.9533 0.64333 3.86 1.85 0.85333 0.54 1.7 1.6167 2.54 3.23 2.29 4.41 9.05 6.59 7.15 13.75-0.10824 0.42001-0.38752 0.77546-0.77 0.98-4.53 2.45-12.53 1.41-17.38 0.09-3.26-0.9-6.15-3.11-9.19-4.55-0.29912-0.13961-0.61429-0.2469-0.94-0.32-3.8-0.82667-6.69 0.63667-8.67 4.39-0.1633 0.30888-0.17071 0.67923-0.02 1 2.82 6.11 7.58 8.21 13.92 11.4 3.36 1.6933 4.7467 4.4433 4.16 8.25-0.54 3.54-2.6933 4.8-6.46 3.78-4.3-1.17-8.65-6.57-12.52-10.64-1.2333-1.3-3.55-2.92-6.95-4.86-0.37316-0.21543-0.82439-0.25212-1.23-0.1-5.92 2.19 3.6 14.14 5.19 16.52 0.43142 0.64377 0.77444 1.3399 1.02 2.07 1.2333 3.68 2.9667 6.6333 5.2 8.86 1.8733 1.86 2.9967 3.3433 3.37 4.45 0.92667 2.7533 0.98333 5.75 0.17 8.99-0.63333 2.54-2.4433 3.6567-5.43 3.35-8.04-0.82-10.59-8.93-12.32-15.62-1.08-4.16-3.5767-7.3067-7.49-9.44-0.56667-0.31333-1.4267-1.3967-2.58-3.25-1.08-1.74-6.52-9.92-9.32-8.13-4 2.55-3.98 6.17-2.69 10.34 0.17149 0.56096 0.2293 1.1458 0.17 1.72l-0.31 3c-0.033 0.30912 5e-3 0.62038 0.11 0.91 1.1267 3.02 1.41 5.8867 0.85 8.6-0.3643 1.7738-2.4247 2.5958-3.91 1.56-13.98-9.77-13.54 5.58-11.38 13.54 0.15278 0.55787 0.23673 1.1321 0.25 1.71 0.11333 3.9733 0.56667 7.2733 1.36 9.9 1.6867 5.6 2.6 8.61 2.74 9.03 1.5 4.6067 3.8467 9.75 7.04 15.43 4.39 7.8 12.52 16.37 17.62 24.11 5.22 7.92 6.33 16.75 1.18 24.48-1 1.5067-2.57 2.5333-4.71 3.08-3.88 0.99333-7.2633 0.3-10.15-2.08-5.11-4.2-8.28-12.18-9.43-18.57-0.96667-5.3333-1.7-10.757-2.2-16.27-0.17333-1.9333-1.01-4.79-2.51-8.57-0.47333-1.1933-2.0533-3.7567-4.74-7.69-2.7933-4.1-4.7867-7.7767-5.98-11.03-3.28-8.94-5.52-15.5-11.08-21.44-1.87-2.01-4.27-3.07-7.56-3.8-2.9467-0.64667-5.49-2.05-7.63-4.21-0.25798-0.25803-0.55576-0.46783-0.88-0.62-5.72-2.5933-10.247-1.62-13.58 2.92-0.20564 0.27195-0.37061 0.56822-0.49 0.88-1.2733 3.2933-1.9867 5.1367-2.14 5.53-2.4533 6.3933-1.64 12.19 2.44 17.39 0.62 0.79333 0.89667 2.2733 0.83 4.44-0.10667 3.52-0.11 6.3433-0.01 8.47 0.0733 1.38 1.1033 4.6067 3.09 9.68 0.17894 0.46403 0.28682 0.95287 0.32 1.45 0.21333 3.34 0.26 5.3133 0.14 5.92-1.32 6.71-12.58 9.92-17.06 4.64-3.53-4.15-2.75-17.55-1.91-21.68 1.34-6.52 2.56-14.99-1.52-20.71-2.26-3.1667-4.72-5.99-7.38-8.47-0.24027-0.22054-0.54549-0.35737-0.87-0.39-4.1733-0.44667-7.29-2.3833-9.35-5.81z" fill="#a30061"/>
  <path d="m96.85 241q3.44 7.96-2.13 14.47-4.89 5.7-12.37 9.77-5.23-0.24-9.15-1.94c-4.02-1.74-6.71-2.94-10.46-2.94-6.12 0-12.78-0.21-19-1.55q-1.9-0.41-3.95-0.16a3.16 2.82 24.59 0 0-0.97 0.3c-6.25 3.15-12.3 6.65-19.47 3.15q-1.32-0.65-2.04-2-2.65-4.97-0.31-10.36c1.13-2.59 3.51-4.08 5.89-5.35q5.37-2.87 10.72-0.72 10.97 4.4 15.41 5.53c7.07 1.79 12.87-0.31 18.79-3.98q3.73-2.31 5.49-2.64 5.25-0.96 7.91-0.24 6.8 1.84 8.3 1.79 2.82-0.1 7.34-3.13z" fill="#d52800"/>
  <path d="m216.81 241.97c-4.86 4.68-10.09 9.64-13.63 15.35a1.5 1.47-74.81 0 1-1.2 0.7l-7.25 0.22q7.82-7.57 15.6-14.43 1.3-1.14 6.48-1.84z" fill="#fff"/>
  <path d="m148.9 314.17c0.7 9.67 2.88 19.59 11.47 25.21 11.667 7.6133 24.383 10.41 38.15 8.39 7.4333-1.0933 11.93-1.75 13.49-1.97 2.84-0.40667 7.4233-0.63 13.75-0.67 3.68-0.03 5.48 1.51 8.28 3.4 3.8815 2.625-27.392 19.15-40.913 26.776-8.7172 7.5344-13.87 17.742-17.297 12.324 1.57-7.61-2.21-12.46-6.18-18.4-0.27362-0.41654-0.67211-0.73813-1.14-0.92-6.25-2.44-6.11 3.55-9.15 6.43-4.4867 4.2533-9.39 4.63-14.71 1.13-2.27-1.49-1.4-5.06-0.73-7.72 0.21723-0.87257-0.22961-1.7994-1.08-2.24-1.89-0.97-4.14 1.13-6.21 2.8-1.4133 1.1467-2.5967 2.2533-3.55 3.32-7.08 7.91-14.61 15.47-23.2 19.86-0.79333 0.40667-4.4433 2.17-10.95 5.29-15.5 7.44-26.81 18.94-31.94 35.57-1.68 5.43-3.16 13.74-6.29 19.95-0.17108 0.33556-0.41717 0.62951-0.72 0.86-6.3333 4.88-13.337 5.86-21.01 2.94-5.77-2.21-7.52-7.42-7.14-13.34 0.36667-5.6133 2.4633-10.723 6.29-15.33 2.36-2.84 6.42-5.54 8.97-7.99 4.9267-4.7267 9.01-10.07 12.25-16.03 5.2333-9.6267 13.087-16.103 23.56-19.43 0.35191-0.10877 0.57227-0.46049 0.52-0.83-0.30667-2.1133 0.5-4.02 2.42-5.72 5.39-4.77 11.69-7.52 18.56-10.84 8.78-4.23 14.15-9.69 18.22-18.48 0.6-1.29 1.19-2.36 1.38-3.93 0.0928-0.76527-0.65704-1.3576-1.38-1.09-3.23 1.2-8.95 2.41-8.58-3.29 0.0197-0.30937 0.10844-0.6132 0.26-0.89 0.82-1.52 1.8267-2.6867 3.02-3.5 4.2533-2.6133 7.0433-6.3733 8.37-11.28 0.0793-0.28888 0.33133-0.49693 0.63-0.52 0.84-0.0733 1.8633-0.05 3.07 0.07 7.98 0.76 14.483-2.5433 19.51-9.91z" fill="#fff"/>
  <path d="m82.04 346.39a1.51 1.51 12.57 0 0 1.72-1.09q1.43-5.24 7.54-6.65c2.29-0.53 6.09-0.17 6.31 3.01q0.28 4.14-3.17 6.83-2.03 1.59-3.93 2.47-0.89 0.41-2.4 4.13a3.47 3.34 76.71 0 1-0.54 0.91c-2.27 2.72-9.7 6.16-9.73-0.77q0-0.84-0.87-4.01a2.81 2.77-50.53 0 1-0.09-1.02q0.48-4.66 5.16-3.81z" fill="#fd9954"/>
  <path d="m445.67 344.52c4.18-2.86 8.52-2.14 12.46 0.49 2.71 1.81 3.89 5.12 3.06 8.27a1.56 1.53-12.3 0 1-0.53 0.81c-3.52 2.79-8.45 4.81-12.02 0.89a3.5 3.25 13.13 0 1-0.58-0.86c-1.13-2.41-4.11-6.84-2.93-9a1.83 1.79-3.71 0 1 0.54-0.6z" fill="#a30061"/>
  <path d="m287.19 376.66-14.48 12.2c-1.92-2.48-4.67-5.1-7.88-2.99-2.89 1.89-5.4 4.16-9.07 4.64-0.87333 0.12-1.9667-0.13333-3.28-0.76-5.4-2.56-9.95 3.36-12.25 7.91-2.86 5.64-5.2667 10.51-7.22 14.61-0.18456 0.38248-0.28677 0.80154-0.3 1.23l-0.4 13.04c-0.42841 2.7975-7.8892 8.7152-10.256 11.842-1.7652 2.3251-14.168 20.166-14.224 15.418l-0.84-11.51c-0.11732-1.5639 0.23801-3.128 1.02-4.49 0.58-1.0133 1.5967-2.8433 3.05-5.49 6.04-11.02 5.97-25.98-0.84-36.57-2.09-3.23-7.42-6.07-11.55-8.36-0.45101-0.24535-0.86525-0.5552-1.23-0.92-2.64-2.63-6.59-8.24-9.01-3.98-1.41 2.48 0.83 7.88 2.19 12.7 0.48667 1.7267 0.0533 4.14-1.3 7.24-0.25925 0.59165-0.45371 1.2086-0.58 1.84-0.15333 0.80667-0.60333 3.3367-1.35 7.59-0.44 2.54-3.38 4.37-6.1 4.55-4.1267 0.26667-6.9867-1.66-8.58-5.78-0.1061-0.27855-0.17013-0.56838-0.19-0.86-0.34667-4.5933-0.23667-7.9033 0.33-9.93 1.1267-3.9667 2.12-8.0333 2.98-12.2 1.85-1.36 4.17-2.64 5.57-4.21 2.99-3.34 4.34-7.51 5-11.55 0.0771-0.49829 0.5409-0.8417 1.04-0.77 4.01 0.58 6.85 0.1 10.8-1.76 1.28-0.60667 4.12-1.7233 8.52-3.35 4.7933-1.7667 8.73-4.7267 11.81-8.88 0.38503-0.51786 0.83204-0.98167 1.33-1.38 2.04-1.6533 4.04-3.2767 6-4.87 1.0867-0.88667 3.8-1.6633 8.14-2.33 7.4 4.69 13 10.03 19.29 15.37 9.6133 8.1467 20.9 12.4 33.86 12.76z" fill="#d261a3"/>
  <path d="m23.97 391.05c3.37 2.12 4.74 10.56-1.29 10.45q-4.98-0.09-7.68-4.01-1.79-2.6 0.81-5.48 3.51-3.89 8.16-0.96z" fill="#fd9954"/>
  <g fill="#a30061">
   <path d="m259.54 422.02q0.01 0 0.4 0.4a2.27 2.15 14.47 0 1 0.5 0.8q2.15 6.03-1.41 11.61-2.47 3.88-6.98 2.51a2.07 2.06 20.78 0 1-1.28-2.83l4.92-10.79a3.17 3.16 21.04 0 1 3.85-1.7z"/>
   <path d="m400.25 423.94a1.76 1.76 12.74 0 1 2.52-1.59q5.29 2.53 10.98 5.67 9.04 5 7.41 15.66a2.74 2.73 62.03 0 1-0.25 0.82c-1.76 3.63-6.15 8.51-10.42 5.33-2.41-1.79-3.42-6.42-4.55-10.37a3.79 3.79-69.99 0 0-0.47-1.01l-2.48-3.74a3.56 3.49 26.04 0 1-0.58-1.64q-0.38-3.97-2.02-7.49a1.52 1.4 34.57 0 1-0.14-0.62z"/>
   <path d="m232.31 426.54c-0.6 5.81-2.75 9.83-5.19 15.69a6.4 6.37 59.49 0 0-0.43 1.68c-0.4 3.52-1.33 7.78-1.32 12.15q0 1.74 0.02 13.96 0 3.85-2.13 11.29-1.38 4.83-3.6 6.74c-3.33 2.85-9.04 3.81-12.58 0.7-3.58-3.14-3.94-10.75-2.83-15 1.65-6.26 3.8-13.15 3.58-19.95q4.03-2.93 5.25-5.49 5-10.46 7.27-13.45 3.55-4.69 11.96-8.32z"/>
  </g>
 </g>
</svg>
