<svg id="a" class="img-fluid" width="512" height="512" version="1.1" viewBox="0 0 512 512" xmlns="http://www.w3.org/2000/svg" xmlns:xlink="http://www.w3.org/1999/xlink">
 <defs>
  <linearGradient id="b" x1="83.064" x2="415.27" y1="80.433" y2="412.64" gradientUnits="userSpaceOnUse">
   <stop stop-color="#61cdf7" offset=".24"/>
   <stop stop-color="#f4a9b8" offset=".28"/>
   <stop stop-color="#f4a9b8" offset=".36623"/>
   <stop stop-color="#fff" offset=".4386"/>
   <stop stop-color="#fff" offset=".6"/>
   <stop stop-color="#f4a9b8" offset=".68"/>
   <stop stop-color="#f4a9b8" offset=".74"/>
   <stop stop-color="#61cdf7" offset=".78"/>
  </linearGradient>
 </defs>
 <g transform="matrix(1.0242 0 0 1.0242 .79671 3.4908)" fill="url(#b)">
  <path d="m424.54 213.28q0.06 0.03 3.52 1.21 3.4 1.15 5.49 5.04a2.27 2.23-60.17 0 1 0.27 1.03q0.08 2.51-0.35 4.6c-0.61 2.91-0.2 5.09 2.51 6.4q3.3 1.59 6.55 3.15a2.76 2.67 81.45 0 1 0.93 0.71c3.59 4.18 2.81 9.62-1.43 13.12q-5.16 4.27-14.85 9.64c-2.51 1.39-8.64 5.94-8.86 8.75a2.19 1.86 4.51 0 0 2.04 2.03q2.61 0.2 4.72 0.44c1.59 0.19 3.26 1.56 2.46 3.3q-0.49 1.06-3.47 1.74a0.6 0.6-21.34 0 0-0.39 0.89l0.66 1.13a1.43 1.42 40.58 0 1 0.1 1.2q-1.14 3.2-3.36 5.1a0.85 0.85 22.57 0 0 0.62 1.5c2.43-0.18 8.64-2.39 7.64 2.85-0.59 3.11-1.83 4.84-4.66 6.46q-3.98 2.27-6.45 4.95-1.39 1.49-0.69 3.75 0.83 2.67-0.04 4.71-1.1 2.6-2.69 5.57a0.84 0.83 34.65 0 0 0.19 1.03q1.69 1.44 3.92 1.47 5.06 0.05 9.53 0.45c3.24 0.28 5.21 2.42 6.87 5.25q1.31 2.22 4.65 5.28c2.68 2.44 4.86 9.05-0.67 10.08-5.88 1.09-14.12 0.61-19.53-2.69-5.25-3.2-10.53-5.59-14.39 1.22a1.24 1.2 50.37 0 0-0.08 1.01c2.12 5.61 7.87 8.96 13.54 11.32 3.97 1.65 5.67 6.13 4.16 10.04-1.35 3.53-5.66 2.95-8.14 1.39-6.67-4.22-10.18-11.38-17.68-14.67a1.28 1.28-43.64 0 0-0.95-0.02c-4.56 1.69 0.29 9.52 2.08 11.92q3.94 5.26 6.12 11.39 0.52 1.45 4.87 5.75a5.31 5.19 10.66 0 1 1.05 1.5q2.7 5.88 0.4 11.34-1.17 2.78-5.27 2.28c-7.77-0.96-10.39-9.01-12.05-15.58q-1.55-6.17-7.44-9.44-1.12-0.62-2.56-3.17c-1.72-3.04-3.72-5.21-6.32-7.57q-2.06-1.88-4.08 0.08c-3.04 2.93-2.86 5.34-1.71 9.53a5.43 5.35-50.12 0 1 0.17 2.08l-0.27 2.56a2.94 2.9-54.13 0 0 0.22 1.42q1.11 2.58 0.98 6.94-0.07 2.82-2.71 3.39a1.31 1.28 55.86 0 1-1.02-0.21q-3.58-2.52-5.39-3.09c-9.97-3.11-7.69 11.92-6.36 16.45a5.21 5.04 38.08 0 1 0.19 1.38q-0.03 5.11 1.38 10.09 2.39 8.51 4.68 14.39 0.98 2.52 5.42 10.61 2.07 3.78 6.84 9.66 3.2 3.96 8.43 10.97c5.97 8.01 9 16.52 4.03 26.11q-1.52 2.92-4.35 4c-12.33 4.71-18.93-10.84-20.79-20.13q-0.27-1.34-1.25-8.19c-0.52-3.61-0.58-7.83-1.46-10.92q-2.11-7.38-4.99-11.07c-5.72-7.31-8.29-15.09-11.57-23.43q-2.62-6.62-7.34-11.66c-1.76-1.88-4.16-2.89-7.39-3.62q-4.48-1-7.53-4.14a3.35 3.24 79.64 0 0-0.88-0.63q-8.41-4-13.54 2.52a5.08 4.86 77.44 0 0-0.69 1.14c-2.66 5.88-4.62 11.7-2.65 18.21a1.02 0.74-80.78 0 0 0.1 0.2l2.52 4.09a8.59 8.59 32.41 0 1 1.22 5.46q-0.91 8.11 1.82 14.51 1.53 3.59 1.67 5.57c0.25 3.72 0.38 6.69-2.63 9.27-2.3 1.96-6.79 3.34-9.74 2.8q-5.52-1-6.55-7.01-1.56-9.03 0.27-19.19c1.17-6.52 1.94-13.69-2.3-19.37q-3.4-4.54-6.86-7.8a1.7 1.66-20.52 0 0-1-0.44q-3.04-0.25-6.18-2.27c-3.34-2.16-4.63-8.02-9.46-7.2-2.04 0.34-5.1 3.29-7.43 4.45q-3.33 1.64-6.87-0.01c-4.86-2.27-9.52 3.53-11.42 7.26q-5.24 10.27-7.47 15.05a4.84 4.62-29.61 0 0-0.4 1.33q-0.46 3.11-0.45 12.98c0.01 5.33-2.47 9.42-5.2 15.99a6.36 6.02 61.05 0 0-0.42 1.63c-0.47 3.88-1.44 8-1.34 12.2q0.11 4.53-0.05 14.65-0.07 4.89-2.76 12.67-2.62 7.58-10.79 7.22c-8.41-0.36-8.78-11.37-7.3-17.69 1-4.24 3.43-11.58 3.36-17.64q-0.06-5.82-0.84-12.78-0.13-1.18 0.37-3.18a5.32 5.24 66.98 0 1 0.51-1.29q4.28-7.45 5-9.42c3.85-10.65 3.63-22.38-2.23-32.27-2.2-3.73-8.01-6.78-12.06-9.04a5.96 5.9-7.9 0 1-1.27-0.95c-2.77-2.76-6.39-7.95-8.77-4.04q-1.03 1.68-0.28 4.44 0.86 3.15 2.25 8 0.87 3.01-1.15 7.57a10.33 10.17 64.2 0 0-0.56 1.65c-1.06 4.25-0.36 11.74-6.8 12.36-11.97 1.17-10.29-12.31-8.19-20.14q1.1-4.13 1.97-8.21c1.66-7.74-2.03-12.83-6.17-18.87a1.95 1.95-6.13 0 0-0.87-0.7c-5.76-2.33-6.58 2.57-9.09 6.01a4.25 3.92-4.83 0 1-0.65 0.71q-5.87 5.1-12.78 1.73c-4.32-2.11-2.95-5.4-2.32-8.98a1.49 1.4-53.14 0 0-0.09-0.8c-1.9-4.42-9.42 3.49-11.08 5.36-6.86 7.7-14.9 15.6-22.83 19.44q-7.33 3.55-13.09 6.4-21.86 10.85-29.49 33.5c-1.93 5.74-3.32 14.36-6.59 20.93a2.6 2.55-5.44 0 1-0.75 0.89q-9.33 7.06-20.3 3.15c-12.35-4.41-8.05-20.13-2.45-27.9q1.11-1.54 7.7-7.17 8.81-7.52 14.52-18.01 7.8-14.33 23.45-19.27a0.77 0.76-13.19 0 0 0.52-0.83q-0.45-3.19 2.43-5.74c5.33-4.74 11.52-7.43 18.44-10.78q5.72-2.77 9.11-5.7c4.16-3.6 9.16-10.58 10.6-16.56a1.11 1.11-4.07 0 0-1.49-1.29c-2.83 1.14-7.12 2.15-8.29-1.44q-0.8-2.46 1.44-4.69 3.59-3.58 4.37-8.61a1.36 1.36-9.54 0 0-1.98-1.41q-1.86 0.98-5.84 4.34-1.45 1.23-3.62 1.67a2.48 2.47 68.84 0 1-2.62-1.16c-3.04-5.07-0.2-9.4 2.64-13.83 2.75-4.29-1.91-5.75-5.09-5.68-4.93 0.11-6.28 0.42-9.7-2.19a1.95 1.88 67.75 0 0-0.82-0.36c-8.61-1.51-17.86 7.62-23.45 11.9-3.09 2.36-6.33 4.07-10.25 4.63-5.49 0.8-12.17 0.59-16.62-2.54-7.82-5.51-6.91-14.73-2.52-22.47 3.01-5.31 7.81-8.71 13.83-9.41 2.19-0.25 4.65-1.01 7.41-0.97q10.58 0.16 20.1 0.58 3.76 0.17 6.92-0.85a3.36 2.96-9.37 0 0 2.31-2.83c0.19-6.67 9.47-4.47 10.68-9.66a2.35 2.3 47.43 0 0 0.03-0.93c-0.89-5.21-8.13-9.04-12.43-11.04q-1.48-0.69-11.33-1.83a6.01 5.6 56.51 0 1-1.41-0.34l-9.15-3.43a8.06 8.03-32.9 0 0-2.4-0.51c-5.93-0.36-13.94-0.09-20.97-1.63q-1.95-0.43-3.96-0.16a2.96 2.82 25.87 0 0-0.94 0.3c-6 3.19-13.03 6.77-19.66 3.02q-2.34-1.33-3.1-5.36c-1.49-7.91 5.18-12.82 12.04-13.91a5.06 5.03 45.17 0 1 1.64 0.01c1.34 0.23 3.18 0.7 4.81 1.34q13 5.07 15.66 5.48c6.67 1.04 12.06-0.74 17.45-4.25 4.26-2.77 9.09-3.98 13.33-2.91q5.24 1.32 7.76 1.67 1.32 0.19 3.97-0.83c4.12-1.58 10.34-6.62 11.63-11.1q1.2-4.16-0.26-8.56c-1.27-3.8-7.57-7.93-4.22-12.98 1.38-2.08 4.09-2.97 6.11-4.53 4.78-3.69 0.3-8.02-2.72-10.8-3.06-2.83-2.93-7.55-1.83-11.23 2.26-7.51-3.61-10.44-7.16-14.36a3.58 3.36 14.16 0 1-0.64-1c-1.55-3.62-0.87-8.75 3.19-10.5 3.44-1.48 7.61 0.21 11.5-1.18q3.38-1.2 7.98-0.24c4.48 0.93 7.69 1.5 9.99-2.23q1.13-1.82 1.94-6.65c0.74-4.41 0.81-9.27-1.78-13.05-3.05-4.45-7-7.49-13.07-10.43q-3.15-1.53-6.03-3.97c-3.13-2.65-6.5-7.23-10.02-10.26q-6.01-5.18-12.1-8.11-6.18-2.97-14.12-5.38c-1.03-0.31-3.37-1.89-4.32-3.11q-1.79-2.28-4.56-4.34-3.61-2.68-4.43-4.41c-4.05-8.59 0.98-16.93 8.65-21.2 5.91-3.29 17.51 0.32 22.98 3.93 3.17 2.09 8.23 6.24 12.71 8.91q9.3 5.54 14.41 9.5 7.65 5.93 12.81 15.67a4.44 4.14 24.59 0 1 0.28 0.68q1.64 5.53 6.15 7.85c2.15 1.11 4.28 0.8 6.66 0.42 9.16-1.48 9.95 6.95 11.5 13.98 1.48 6.69 12.55 10.66 18.2 7.72 2.67-1.39 2.41-5.33 1.42-7.61q-2.25-5.2-3.07-7.6a2.22 2.16-47.14 0 1-0.03-1.28q0.91-3.27 3.64-4.11a1.65 1.61 45.83 0 1 1.04 0.03l4.78 1.8a0.72 0.71-61.16 0 0 0.81-0.24q1.66-2.17 4.31-2.42a2.15 2.14 20.2 0 0 1.29-0.59c4.38-4.23 1.06-8.53-1.76-13.31-2.39-4.04-1.57-9.02-4.59-13.82q-4.37-6.93-10.77-15.52-2.69-3.6-5.32-10.94-2.46-6.85 0.22-13.52c1.43-3.57 5.31-4.74 8.94-3.14 3.67 1.62 8.69 5.96 10.76 9.57q5.41 9.44 7.43 18.95 1.04 4.95 2.56 14.22c0.59 3.59 2.41 6.25 6.44 6.99q1.68 0.31 5.32 1.77a1.53 1.53 27.4 0 0 1.83-0.58c3.17-4.83 0.82-15.63-0.79-20.97a7.08 7.07-69.6 0 0-0.8-1.75q-0.42-0.67-3.99-6.05c-2.15-3.24-3.62-7.14-4.47-10.78q-2.7-11.51-6.45-19.53c-3.15-6.74-10.54-11.19-9.65-19.9 0.32-3.1 2.3-6.04 5.67-5.5 3.51 0.55 6.69 5.87 7.86 9.15a5.31 5.3-57.48 0 1 0.3 1.36q0.17 2.28 0.55 11.35c0.22 5.6 5.89 9.72 7.05 14.5q1.34 5.52 2.46 9.13a7.6 6.97-69.09 0 0 0.42 1.06q0.96 2.01 7.05 12.64 1.19 2.09 2.88 3.24 2.97 2.04 5.25 5.81c1.3 2.15 5.54 3.6 7.54 7.04q2.03 3.5 4 6.98c1.71 3.02 6.07 7.02 9.28 4.02 1.74-1.62 1.72-5.61 3.87-6.83 2.6-1.49 4.79-0.99 7.18 0.47 8.12 4.93 7.88-8.82 8.43-12.66q0.29-2.05 0.31-5.86 0.04-7.89-0.3-20.8-0.17-6.47-3.02-12.53-0.24-0.5-0.24-2.99c0.01-2.76 0.79-7.46 0.23-9.04q-1.48-4.21-2.21-6.23a4.28 3.64-62.17 0 1-0.2-0.9c-0.79-8.17 3.6-14.55 12.81-12.49q1.65 0.37 3.02 3.65 1.04 2.5 0.83 6.3-0.4 6.95-2.63 19.59-0.8 4.49-0.16 14.16 0.55 8.48 5.82 15.13 0.26 0.32 0.98 2.82c0.46 1.59-0.03 3.22 0.26 5.08a1.92 1.91-20.25 0 0 2.91 1.34c1.52-0.95 2.77-3.43 5.61-2.93 2 0.35 2.79 2.43 4.47 3.2a1.33 1.29 47.28 0 0 0.95 0.05q2.65-0.89 4.64-4.33 3.22-5.55 9.58-8.42 1.07-0.48 5.59-0.56a5.84 5.74 35.18 0 0 1.58-0.26q2.22-0.69 2.58-0.94c6.37-4.38 11.35-7.66 18.63-5.88 5.93 1.45 5.08 12.17 3.64 15.97q-2.29 6.06-5.05 9.22c-3.44 3.94-5.06 5.47-6.64 9.49-1.42 3.6 0.92 6.63 4.6 6.82a2.45 2.4 88.57 0 1 2.26 2.2q0.54 5.56 6.41 6.33a3 2.99 79.36 0 1 2.23 1.53c4.28 7.83 9.33 17.1 19.51 9.02 2.1-1.66 5.41-4.17 7.62-2.41q0.73 0.58 1.16 3.2 0.29 1.81 0.95 6.77a3.47 3.29-61.85 0 0 0.21 0.77c1.76 4.31 6.09 6.46 10.33 4.16 3.33-1.8 4.86-4.55 7.76-8.53a7.2 6.93-2.47 0 1 1.23-1.29q7.1-5.72 13.84-14.42 0.65-0.83 2.58-2.39a1.1 1.1 73.13 0 1 1.79 0.96l-0.18 1.92a2.09 2.01 60.47 0 1-0.16 0.63q-2.99 6.91-4.38 8.79-5.15 7.01-7.3 13.52-1.55 4.69-2.8 6.27-2.82 3.53-4.73 5.84c-2.21 2.67-2.54 4.65-2.24 8.57 0.25 3.31 0.25 5.06-0.4 6.8a0.91 0.9-53.34 0 0 0.12 0.85q2.67 3.5 6.33 3.65 3.42 0.14 4.3 0.51c2.89 1.22 5.05 4.05 6.87 5.4a1.94 1.89-26.43 0 0 1.18 0.38c7.41-0.14 13.62-0.96 18.97 1.82 5.38 2.79 2.73 8.92-0.15 12.53q-1.56 1.96-7.67 6.2a2.04 1.57-3.97 0 0-0.27 0.24l-2.82 2.87a1.43 1.42 39.29 0 0 0.22 2.18l2.98 2.03a1.16 1.14-87.07 0 1 0.4 0.45q1.36 2.54 4.01 4.27a1.92 1.92-25.91 0 0 0.9 0.31c4.77 0.42 9.51 0.51 10.29 6.5a2.43 2.43-88.23 0 1-0.05 0.95q-1 3.91-3.53 6.48-2.43 2.47-3.15 4.37a0.57 0.57-66.23 0 0 0.27 0.71zm-155.11-124.06q-2.58 2.12-3.48 4.9c-1.3 4 0.08 10.6 5.81 9.08 5.59-1.47 8.87-9.18 8.77-14.25-0.13-6.94-8.83-1.6-11.1 0.27zm61.32 17.72c-0.91-2.79-5.39-11.96-9.22-6.17-2.8 4.22-4.16 12.48-0.23 16.72 4.03 4.35 8.72-0.48 9.77-4.55q0.73-2.83-0.32-6zm-61.52-1.63q-7.1-3.63-15.57-1.56-8.27 2.03-15.42 6.49-1.95 1.22-10.53 8.61c-9.83 8.46-17.65 19.9-23.17 31.19-7.26 14.89-7.91 30.7 1.08 44.88q5.55 8.77 13.94 13.04c11.87 6.04 27.92 3.43 37.75-5.72 9.87-9.18 14.82-20.01 19.53-32.72q4.34-11.67 5.92-24.26 2.56-20.39-10.18-36.5-2.31-2.92-3.35-3.45zm53.11 15.35q-1.16-0.11-4.68 1.13-19.37 6.81-28.1 25.41-5.4 11.49-7.96 23.67c-2.81 13.26-4.41 25.06-0.97 38.1 3.42 12.99 15.59 23.77 28.85 25q9.38 0.88 18.75-3.57c15.18-7.19 23.08-20.9 24.9-37.36 1.36-12.5 0.86-26.35-2.93-38.75q-3.3-10.83-4.3-12.91-3.66-7.59-9.57-13.72-6.05-6.28-13.99-7zm-139.88 32.61a9.74 6.49-58.1 0 0-10.66 4.84 9.74 6.49-58.1 0 0 0.36 11.7 9.74 6.49-58.1 0 0 10.66-4.84 9.74 6.49-58.1 0 0-0.36-11.7zm-3.78 26.8a3.3 3.27-44.56 0 0-1.17-0.01c-16.15 2.71-30.14 12.43-39.56 25.83q-5.62 7.99-6.14 17.07-0.86 14.79 7.66 26.15c5.11 6.82 17.62 9 26.12 9.45 11.03 0.57 21.46-2.8 28.41-11.98 5.27-6.97 6.47-16.96 6.09-26.06q-0.55-12.55-5.5-24.28c-2.76-6.54-8.57-14.84-15.91-16.17zm191.41 27.5a9.72 6.49-89.5 0 0-6.57 9.66 9.72 6.49-89.5 0 0 6.41 9.78 9.72 6.49-89.5 0 0 6.57-9.66 9.72 6.49-89.5 0 0-6.41-9.78zm-141.47 137.67q0.2 0.06 0.35 0.15 8.39 4.81 13.59 9.3 7.63 6.58 10.62 9.11 16.95 14.32 38.82 12.62c9.14-0.71 17.37-9.55 21.84-16.89q2.26-3.71 5.24-10.5 8.3-18.96 0.13-37.77c-4.21-9.71-12.26-20.73-21.69-25.66a0.7 0.69 13.11 0 1-0.38-0.6q-0.4-9.11-3.08-19.19-3.19-12.01-11.94-23.2-7.19-9.19-18.7-13.6-0.54-0.21-1.08-0.37t-1.11-0.27q-12.09-2.41-23.07 1.53-13.37 4.79-22.48 13.25-7.65 7.09-12.85 14.58a0.7 0.69 19.14 0 1-0.64 0.31c-10.6-0.87-23.29 4.15-32.04 10.12q-16.94 11.55-20.04 32.01-1.11 7.33-1.18 11.68c-0.13 8.59 2.11 20.46 9.46 25.94q17.59 13.11 39.56 10.04 3.88-0.54 13.85-2.04 6.79-1.02 16.46-0.61 0.17 0.01 0.36 0.06zm130.34-113.07c-6.93-2.78-16.27 1.15-22.09 5.22q-10.44 7.29-17.59 17.63c-5.17 7.5-9.48 16.59-8.73 25.3 0.99 11.48 8.03 19.89 17.67 25.28 7.43 4.15 19.19 8.97 27.15 5.92q13.27-5.08 20.42-18.06 4.39-7.96 3.89-17.72c-0.83-16.36-7.5-32.05-19.73-42.95a3.3 3.27 76.74 0 0-0.99-0.62z"/>
  <path d="m299.68 46.87q-1.7-0.64-1.46-4.17 0.58-8.62 1.68-11.12a1.63 1.62 85.71 0 1 0.63-0.74q2.45-1.59 4.3-0.94 3.54 1.24 5.29 1.64c2.61 0.61 3.03 1.48 3.49 4.11 1.04 5.89-2.08 8.38-7.41 9.57q-2.26 0.5-5.37 1.66a1.67 1.62 44.58 0 1-1.15-0.01z"/>
  <path d="m411.06 91.69q-0.66-3.61 0.16-5.56 1.14-2.72 1.22-5.25 0.05-1.54 1.13-2.31c3.3-2.35 8.49-2.42 10.09 2.04 2.47 6.91-3.3 7.86-7.54 10.73q-0.68 0.47-4.12 1.02a0.82 0.82 80.42 0 1-0.94-0.67z"/>
  <path d="m81.7 145.08a5.84 3.83-40.6 0 1-1.94 6.71 5.84 3.83-40.6 0 1-6.92 0.89 5.84 3.83-40.6 0 1 1.94-6.71 5.84 3.83-40.6 0 1 6.92-0.89z"/>
  <path d="m424.61 154.87a1.62 1.61-78.39 0 1-1.18-1.8q0.97-6.54 6.28-6.79 4.2-0.19 6.02 3.95a1.55 1.55-8.34 0 1 0 1.24c-2.01 4.55-6.97 4.5-11.12 3.4z"/>
  <path d="m448.53 147.59a1.78 1.78 20.38 0 1 2.35 0.9l0.42 0.96a4.75 4.61 66.1 0 1-2.29 6.21l-0.05 0.03a4.75 4.61 66.1 0 1-6.14-2.48l-0.43-0.96a1.78 1.78 78.28 0 1 0.91-2.35z"/>
  <path d="m60.33 172.88q-2.45-0.08-3.45-0.22a2.71 2.65 33.33 0 0-1.73 0.34c-2.31 1.35-5.6 2.08-7.65 0.02a1.96 1.95-72.82 0 1-0.54-1.03q-0.76-3.87-1.74-5.8c-1.14-2.25-0.92-4.34 0.09-6.36a3.7 3.62-32.46 0 0 0.38-1.62c0-2.81 0.49-5.03 3.36-5.55 7.84-1.44 8.54 3.36 12.68 8.01a2.11 2.08-69.8 0 1 0.52 1.15l0.56 4.52a0.37 0.05 82.03 0 0 0.02 0.07c1.38 2.49 1.61 6.59-2.5 6.47z"/>
  <path d="m438.09 214.64 1.11-0.12a0.39 0.14-25.67 0 1 0.09-0.01l11.54-0.98a5.12 5.07-58.77 0 0 1.56-0.39q8.25-3.5 12.24-5.03c4.69-1.81 12.43-2.27 17.34-0.11a2.43 2.41-9.68 0 1 0.74 0.52q2.95 3.09-0.47 6.56c-6.5 6.58-20.42 6.07-28.22 3.94a10.51 10.39 52.93 0 0-2.48-0.36c-5.58-0.1-9.29 0.31-13.82-1.99a1.08 1.08 55.34 0 1 0.37-2.03z"/>
  <path d="m83.54 345.68 1.2-2.79a2.71 2.56 80.77 0 1 0.59-0.87q4.64-4.57 10.05-3.2a3.02 3-84.53 0 1 2.26 2.76q0.19 3.23-2.21 6.16c-1.77 2.16-5.19 2.22-6.58 5.62q-1.19 2.91-2.09 3.6c-2.61 2-5.96 3.61-8.42 0.88a0.32 0.28-77.47 0 1-0.08-0.15l-1.39-7.2a1.33 0.6-69.18 0 1-0.01-0.17q0.43-4.84 5.31-3.91a1.23 1.23-73.02 0 0 1.37-0.73z"/>
  <path d="m445.7 344.48q4.15-2.8 8.77-1.24c4.72 1.59 7.55 4.41 6.84 9.77a1.65 1.62 75.76 0 1-0.64 1.1c-5.14 3.83-10.59 4.97-13.54-1.92-0.75-1.75-3.13-4.69-2-7.05a1.6 1.58-4.54 0 1 0.57-0.66z"/>
  <path d="m15.81 392.02c4.33-4.88 10.89-0.94 11.05 4.85q0.13 4.76-4.61 4.59-4.84-0.18-7.43-4.3-1.49-2.36 0.99-5.14z"/>
  <path d="m257.65 421.97a1.84 1.83 63.81 0 1 2.61 0.89q2.48 5.94-1.19 11.98-2.18 3.58-6.92 2.57a1.63 1.62-85.23 0 1-1.29-1.53q-0.12-2.43 1.14-4.44 2.46-3.91 3.75-7.96a1.32 1.31 83.47 0 1 0.6-0.76z"/>
  <path d="m402.29 422.27c2.15 0.5 5.91 2.78 11.41 5.75q9.26 5.01 7.38 15.99-0.35 2.04-3.88 5.21-3.37 3.02-6.87 0.52c-2.12-1.5-3.58-7.22-4.37-10.24a3.04 3.01 21.03 0 0-0.42-0.93l-2.37-3.54a1.02 0.93 23.97 0 1-0.14-0.32l-2.77-10.34a1.7 1.7 89.06 0 1 2.03-2.1z"/>
 </g>
</svg>
