<svg id="a" class="img-fluid" width="512" height="512" version="1.1" viewBox="0 0 512 512" xmlns="http://www.w3.org/2000/svg">
 <g transform="matrix(1.677 0 0 1.677 -184.57 -146.69)">
  <path d="m362.75 240.33c-5.9642 0.12627-12.463 3.1705-16.934 6.2969-7.1284 4.9776-13.134 10.996-18.016 18.057-5.2951 7.6815-9.7096 16.991-8.9414 25.912 1.014 11.758 8.2244 20.372 18.098 25.893 7.6098 4.2504 19.656 9.1863 27.809 6.0625 9.0608-3.4686 16.032-9.6334 20.914-18.496 2.9975-5.4351 4.3238-11.484 3.9824-18.148-0.85008-16.756-7.6811-32.826-20.207-43.99-0.29782-0.27077-0.64114-0.48575-1.0137-0.63476-1.7744-0.71182-3.7033-0.99327-5.6914-0.95118z" style="paint-order:stroke fill markers"/>
  <path d="m256.25 236.54c-3.938 0.26117-7.7807 1.065-11.529 2.4102-9.129 3.2706-16.805 7.7938-23.025 13.57-5.2234 4.8411-9.6096 9.8175-13.16 14.932-0.14188 0.21783-0.39387 0.34008-0.65625 0.31836-10.857-0.89105-23.853 4.2508-32.814 10.365-11.567 7.8864-18.409 18.815-20.525 32.785-0.75791 5.0049-1.1612 8.9908-1.209 11.961-0.13315 8.7979 2.1616 20.956 9.6894 26.568 12.01 8.9515 25.516 12.379 40.518 10.283 2.6493-0.36871 7.378-1.0656 14.186-2.0898 4.6362-0.69646 10.255-0.90495 16.857-0.625 0.11607 7e-3 0.2394 0.0284 0.36914 0.0625 0.13656 0.041 0.25695 0.0909 0.35937 0.15234 5.7287 3.2843 10.367 6.4596 13.918 9.5254 5.2098 4.4928 8.8354 7.6046 10.877 9.332 11.573 9.7777 24.827 14.085 39.76 12.924 9.3612-0.72718 17.791-9.7812 22.369-17.299 1.5431-2.5332 3.3305-6.1177 5.3652-10.754 5.6672-12.946 5.7132-25.84 0.13476-38.684-4.3119-9.945-12.557-21.232-22.215-26.281-0.23367-0.11913-0.38352-0.35438-0.39063-0.61328-0.27312-6.2203-1.3244-12.772-3.1543-19.654-2.1781-8.2004-6.254-16.121-12.229-23.762-4.9093-6.2749-11.293-10.919-19.152-13.93-0.36872-0.14339-0.73871-0.26966-1.1074-0.37891-0.36872-0.10925-0.74753-0.20224-1.1367-0.27734-4.1275-0.82277-8.1596-1.103-12.098-0.8418z" style="paint-order:stroke fill markers"/>
  <path d="m379.84 216.08c-3.6691-0.0294-6.6817 4.3994-6.7305 9.8945-0.049 5.5028 2.8922 9.9889 6.5664 10.016 3.6678 0.0278 6.679-4.3994 6.7285-9.8926 0.0497-5.5024-2.8905-9.9893-6.5644-10.018z" style="paint-order:stroke fill markers"/>
  <path d="m183 187.86c-0.13417 7e-3 -0.26787 0.022-0.40039 0.0449-16.541 2.7756-30.868 12.731-40.516 26.455-3.8373 5.4556-5.934 11.283-6.2891 17.482-0.58721 10.099 2.0282 19.027 7.8457 26.783 5.2337 6.985 18.046 9.2188 26.752 9.6797 11.297 0.5838 21.979-2.8693 29.098-12.271 5.3975-7.1387 6.6255-17.369 6.2363-26.689-0.37555-8.5692-2.253-16.858-5.6328-24.867-2.8268-6.6983-8.7773-15.2-16.295-16.562-0.26286-0.05-0.53103-0.0684-0.79883-0.0547z" style="paint-order:stroke fill markers"/>
  <path d="m185.11 159.77c-2.9258-3e-3 -6.2248 2.2307-8.3574 5.6582-2.9119 4.6768-2.7466 10.041 0.36914 11.982 3.1168 1.9425 8.006-0.27731 10.918-4.957 2.9119-4.6768 2.7466-10.041-0.36914-11.982-0.74087-0.46187-1.611-0.70013-2.5606-0.70117z" style="paint-order:stroke fill markers"/>
  <path d="m330.6 127.06c-0.86929 0.0351-2.356 0.42322-4.459 1.1641-13.226 4.6499-22.82 13.325-28.781 26.025-3.6871 7.8454-6.4044 15.926-8.1523 24.242-2.878 13.581-4.5154 25.666-0.99219 39.021 3.5028 13.304 15.966 24.346 29.547 25.605 6.4047 0.60086 12.807-0.61779 19.205-3.6562 15.547-7.364 23.638-21.405 25.502-38.264 1.3929-12.802 0.87976-26.989-3.002-39.689-2.2532-7.3947-3.7195-11.8-4.4023-13.221-2.499-5.1824-5.7674-9.8672-9.8027-14.053-4.1309-4.288-8.9067-6.6783-14.328-7.1699-0.099-9e-3 -0.2098-0.0109-0.33398-6e-3z" style="paint-order:stroke fill markers"/>
  <path d="m266.9 108.98c-2.0372-0.0173-4.1398 0.23951-6.3086 0.76953-5.6468 1.3861-10.911 3.6012-15.793 6.6465-1.3315 0.83302-4.9267 3.7725-10.785 8.8184-10.068 8.6647-18.077 20.382-23.73 31.945-7.4357 15.25-8.1021 31.442 1.1055 45.965 3.7895 5.9882 8.5486 10.442 14.277 13.357 12.157 6.1862 28.596 3.512 38.664-5.8594 10.109-9.4022 15.178-20.494 20.002-33.512 2.9634-7.9683 4.9856-16.251 6.0644-24.848 1.748-13.922-1.7288-26.383-10.428-37.383-1.5773-1.9938-2.7196-3.1713-3.4297-3.5332-3.0299-1.5491-6.2433-2.3384-9.6387-2.3672z" style="paint-order:stroke fill markers"/>
  <path d="m332.92 104.77c-0.93687-0.0121-1.8931 0.53591-2.8125 1.9258-2.8678 4.3221-4.2595 12.782-0.23437 17.125 4.1275 4.4553 8.9304-0.49166 10.006-4.6602 0.49843-1.9323 0.38881-3.98-0.32813-6.1445-0.71358-2.1878-3.5704-8.2067-6.6309-8.2461z" style="paint-order:stroke fill markers"/>
  <path d="m285.07 91.053c-2.8474 0.03531-6.8731 2.6194-8.3262 3.8164-1.7616 1.4475-2.948 3.1213-3.5625 5.0195-1.3315 4.0968 0.0806 10.856 5.9492 9.2988 5.7253-1.5056 9.0848-9.4011 8.9824-14.594-0.0499-2.6655-1.3346-3.5622-3.043-3.541z" style="paint-order:stroke fill markers"/>
 </g>
</svg>
