<svg id="l" class="img-fluid" width="512" height="512" version="1.1" viewBox="0 0 512 512" xml:space="preserve" xmlns="http://www.w3.org/2000/svg"><defs><filter id="k" x="0" y="0" width="1" height="1" color-interpolation-filters="sRGB"><feTurbulence baseFrequency="0.0060000000000000001" numOctaves="7" result="turbulence" seed="81"/><feComposite in="SourceGraphic" in2="turbulence" operator="out" result="composite1"/><feColorMatrix result="color" values="1 0 0 0 0 0 1 0 0 0 0 0 1 0 0 0 0 0 2 -0.1 "/><feFlood flood-color="rgb(255,255,255)" flood-opacity=".50255" result="flood"/><feMerge result="merge"><feMergeNode in="flood"/><feMergeNode in="color"/></feMerge><feComposite in2="SourceGraphic" operator="in" result="composite2"/></filter><linearGradient id="a" x1="5078.1" x2="5078.1" y1="2292.4" y2="7915.4" gradientUnits="userSpaceOnUse"><stop stop-color="#fff043" offset=".052632"/><stop stop-color="#998d22" offset=".96053"/></linearGradient></defs><g transform="matrix(.08448 0 0 .084645 -173.21 -176.14)"><g fill="url(#a)"><path d="m4911.1 7901.9c-358.23-14.669-565.7-343.52-820.9-546.37-615.1 185.5-1346.2-338.67-1298.2-996.93-80.28-357.17-509.15-540.4-504.43-931.54-65.096-390.56 69.336-839.86 415.22-1060.1 213.15-317.02-30.712-757.51 236.5-1052.9 227.42-359.96 695.07-574.54 1112.2-451.06 305.76-130.79 448.49-545.63 817.49-542.52 408.23-87.622 890.06 83.581 1082.4 470.1 311.35 148.98 721.54-62.775 983.01 215.11 347.43 249.18 530.73 717.77 418.62 1134.1 105.3 321.1 514.71 482.7 509.83 849.87 98.033 444.95-76.922 967.18-485.84 1197.1 86.337 568.39-372.01 1234.9-985.35 1178.2-403.67-80.981-602.86 297.69-875.33 481.18-191.07 78.213-403.42 73.02-605.32 55.659z"/><path d="m4906 7899c-358.23-14.669-565.7-343.52-820.9-546.37-615.1 185.5-1346.2-338.67-1298.2-996.93-80.28-357.17-509.15-540.4-504.43-931.54-65.096-390.56 69.336-839.86 415.22-1060.1 213.15-317.02-30.712-757.51 236.5-1052.9 227.42-359.96 695.07-574.54 1112.2-451.06 305.76-130.79 448.49-545.63 817.49-542.52 408.23-87.622 890.06 83.581 1082.4 470.1 311.35 148.98 721.54-62.775 983.01 215.11 347.43 249.18 530.73 717.77 418.62 1134.1 105.3 321.1 514.71 482.7 509.83 849.87 98.033 444.95-76.922 967.18-485.84 1197.1 86.337 568.39-372.01 1234.9-985.35 1178.2-403.67-80.981-602.86 297.69-875.33 481.18-191.07 78.213-403.42 73.02-605.32 55.659z" filter="url(#k)"/></g><g fill="#feff83" fill-opacity=".36364" stroke-linejoin="round" stroke-width="94.604"><path transform="matrix(.80189 -.59747 .59897 .80077 0 0)" d="m3261.3 5707.7s-0.5501 20.73-0.1816 42.688c0.3862 23.01 1.8491 47.434 9.0576 53.693 38.143 23.225 70.521 42.313 96.647 58.881 39.135 24.818 63.194 41.878 63.194 41.878l-5102 0.3523s3.8102-17.101 15.864-51.794c4.7843-13.77 14.553-39.834 20.286-54.202 6.5297-16.364 18.473-42.466 25.671-57.688 11.317-23.934 16.878-33.704 16.878-33.704z" style="paint-order:stroke fill markers"/><path transform="matrix(.80189 -.59747 .59897 .80077 0 0)" d="m-1704.1 6167 5418.5 0.1766s36.275 52.525 69.053 107.64c18.178 30.568 33.567 61.645 45.18 85.689 15.607 32.314 26.331 57.538 41.975 100.27 16.82 45.943 38.015 108.32 38.015 108.32l-5568.1 0.8611s-5.4536-30.206-12.189-74.162c-3.821-24.935-8.2762-53.94-12.351-83.294-2.0114-14.49-3.7371-29.525-5.6269-43.296-6.5213-47.519-10.782-104.27-12.77-143.04-1.9736-38.494-1.6967-59.168-1.6967-59.168z" style="paint-order:stroke fill markers"/><g transform="translate(1784.4 2597.5)"><path transform="matrix(.80189 -.59747 .59897 .80077 0 0)" d="m-1075 5705 4601.6 2.3507s-22.506 36.116-34.165 53.913c-11.61 17.721-23.513 35.252-35.629 52.631-11.382 16.327-22.999 32.492-34.816 48.507-10.57 14.325-32.273 42.554-32.273 42.554l-4393.9-0.1176s-13.628-30.661-19.918-46.21c-7.0899-17.525-13.784-35.215-20.079-53.041-5.9008-16.71-11.4-33.566-16.573-50.516-5.0627-16.589-14.149-50.073-14.149-50.073z" style="paint-order:stroke fill markers"/><path d="m3020.7 5437.2 3171.4-2361.2-57.315 127.61s-52.905 90.091-82.57 133.04c-23.008 33.317-48.112 65.188-73.842 96.465-34.425 41.85-70.764 82.131-107.62 121.86-39.721 42.819-122.28 125.51-122.28 125.51s-1.0274 80.632-3.7579 120.84c-2.7092 39.898-12.517 119.31-12.517 119.31l-1350.8 1004-36.54-4.4676s-12.833-1.772-19.246-2.6817c-3.1583-0.4477-6.2816-1.3377-9.4715-1.3671-2.8023-0.024-5.6453 0.2847-8.3415 1.0467-1.949 0.5517-3.7851 1.4877-5.5307 2.5135-1.8528 1.0892-3.5519 2.4334-5.1854 3.8285-1.861 1.5896-3.5631 3.3607-5.2307 5.1512-1.7209 1.8478-3.3393 3.7905-4.918 5.7607-2.8679 3.5788-8.2648 10.998-8.2648 10.998l-9.7609 14.145-89.13 117.9-374.14 280.22s-52.674 22.247-79.626 31.737c-29.663 10.446-59.775 19.698-90.193 27.691-31.28 8.2191-62.938 15.084-94.773 20.796-31.576 5.6654-63.393 10.143-95.315 13.338-41.189 4.1232-82.598 5.8384-123.96 7.5075-35.294 1.4239-70.637 3.1069-105.95 2.1395-33.563-0.9203-67.115-3.4726-100.44-7.5481-31.814-3.8905-94.793-16.113-94.793-16.113z" stroke-width="1" style="paint-order:stroke fill markers"/></g></g><path id="m" d="m4079 7532c-14-19-19-20-94-10-339.26 42.407-716.39-24.686-1038-361-260.15-269.67-313.01-527.99-324-891-371.21-351.15-512.34-537.92-501-1087 8.5212-310.17 40.344-588.49 515-998-21.867-291.56-12.627-493.6 24-630 99-379 410-703 791-826 202.32-59.258 414.79-49.008 623-41 227.18-352.52 557.32-473.26 735-514 93-21 403-30 493-14 287 50 551 217 731 462 55 75 57 77 89 70 407.44-48.502 707.37 25.25 1023 300 349.15 334.77 439 748.99 365 1193 246.05 181.4 406.22 434.84 496 724 34 129 44 417 19 557-39.384 340.87-262.68 581.68-493 812 0.2774 371.15-100.12 641.93-357 917-280.82 295.56-676.11 376.61-1066 320-22-5-30 2-60 47-161.4 240.39-446.4 484.47-940 494-591.46 41.906-941.26-395.14-1031-524zm1905-224c407 56.856 635.72 80.655 1003-197 320.14-277.27 344.25-567.72 355-957 309.82-198.08 500.95-473.16 502-909 2.2219-448.83-203.82-757.52-543-962-22.297-11.149 192.18-541.7-160-1010-397.72-527.59-956.52-411.47-1058-385-45 12-86 22-92 22s-20-19-32-43c-37.459-73.265-307.42-555.88-909-534-352.56 9.5134-729.6 239.88-873 570-1.3782 4.1346-375.09-78.157-592-19-386 104-674 412-755 806-45.853 217.2 2.1063 469.91 10 500 20 82 20 86 3 98-354.38 253.88-537 499.95-537 947 1.3807 207.1 23.528 587.26 506 920-32.69 270.39 35.725 528.48 180 758 58 85 187 212 279 273 360.99 239.9 776.54 154.18 826 129 62.654-12.55 76.327-30.144 127 71 148 254 424 441 712 483 634.4 89.713 928.93-358.33 1048-561z"/><g id="b" transform="matrix(.55737 .071193 -.071193 .55737 2500 2012.3)" fill="#f1f1f1" stroke="#000" stroke-width="142.37" style="paint-order:stroke fill markers"><path id="c" d="m5714 7764c-135-22-310-94-419-172-60-42-195-154-285-235-36-33-118-95-183-138-118-79-118-79-265-79-114 0-190 7-337 30-387 60-607 30-869-120-191-109-268-256-283-535-12-255 50-513 168-686 62-93 212-238 295-288 163-96 370-168 509-177 44-3 89-7 101-9 11-3 58-50 103-105 179-216 340-339 576-441 131-55 205-70 359-70 107 0 144 4 201 21 244 76 434 264 578 570 70 149 113 316 132 510 7 78 8 80 60 112 185 117 384 401 447 638 19 72 22 110 22 245 0 146-3 168-28 250-33 111-119 291-183 387-93 139-237 260-347 293-62 19-239 18-352-1z" style="paint-order:stroke fill markers"/><path id="d" d="m7005 6440c-38-11-130-50-202-86-112-55-145-77-214-142-114-107-150-160-182-267-62-204-17-393 151-644 112-168 317-354 466-426 122-58 254-81 322-55 43 17 158 121 187 170 15 25 49 81 77 125 161 258 225 652 141 876-66 174-214 337-389 426-71 36-80 38-181 40-81 2-123-2-176-17z" style="paint-order:stroke fill markers"/><path d="m3252 5345c-257-47-369-122-457-308-24-51-51-122-59-157-21-86-21-287-1-363 32-124 117-258 247-393 107-110 228-199 363-265 94-46 267-99 322-99 42 0 141 60 194 118 100 110 173 269 220 482 32 147 32 425 1 543-64 234-233 396-464 442-93 18-265 18-366 0z" style="paint-order:stroke fill markers"/><path id="e" d="m6270 4845c-30-9-93-34-140-57-69-33-101-57-176-132-78-78-98-105-137-186-61-127-79-212-85-397-5-166 2-231 49-467 37-184 91-349 162-499 70-148 108-204 201-299 113-115 223-184 385-242 66-24 79-25 130-16 87 16 157 56 236 134 128 127 199 254 270 482 25 81 54 197 65 258 41 243 34 566-16 765-44 177-145 348-267 454-168 146-308 204-512 212-81 4-125 1-165-10z" style="paint-order:stroke fill markers"/><path id="f" d="m7522 4680c-41-41-55-89-50-169 8-113 69-199 132-187 57 12 98 66 117 156 15 73-2 140-51 191-31 33-43 39-78 39-32 0-47-6-70-30z" style="paint-order:stroke fill markers"/><path id="g" d="m4655 4375c-239-53-448-270-529-549-22-74-26-109-26-216 0-140 14-223 56-340 75-211 246-482 408-649 82-85 251-233 319-280 160-110 374-173 519-152 97 14 133 35 198 116 276 348 278 787 7 1419-162 376-380 593-656 652-82 17-216 17-296-1z" style="paint-order:stroke fill markers"/><path id="h" d="m3537 3530c-36-31-37-34-37-100 0-60 4-73 33-116 42-63 102-105 160-111 39-5 49-2 71 20s26 35 26 85c0 113-88 237-177 249-34 4-45 1-76-27z" style="paint-order:stroke fill markers"/><path id="i" d="m6630 2495c-14-7-36-33-50-57-22-37-25-55-24-125 2-136 64-235 127-206 58 27 125 178 112 253-16 93-106 167-165 135z" style="paint-order:stroke fill markers"/><path id="j" d="m5498 2163c-40-47-51-124-25-186 26-61 132-138 207-151 56-10 75 12 73 84-2 99-68 216-145 256-37 19-92 18-110-3z" style="paint-order:stroke fill markers"/></g></g></svg>
