<svg width="512" height="512" version="1.1" viewBox="0 0 512 512" xmlns="http://www.w3.org/2000/svg">
 <g transform="matrix(1.0241 0 0 1.0241 .86389 3.5484)">
  <g fill="#0b0b0b">
   <path d="m270.88 53.99 0.20471 0.46977-9.8174 2.14-0.01728-0.5498c-0.08-2.8533-0.15333-5.7033-0.22-8.55-0.10667-4.5933-1.0833-8.94-2.93-13.04-0.56-1.26-0.29-4.47-0.14-6.29 0.28-3.2533 0.29-5.2267 0.03-5.92-0.92667-2.4933-1.66-4.56-2.2-6.2-0.0931-0.29262-0.15675-0.59075-0.19-0.89-0.77-7.77 3.61-14.11 12.12-12.52 3.47 0.64 4.15 4.82 4.64 8.48 0.0598 0.45191 0.0699 0.90798 0.03 1.36-0.59333 6.5333-1.5633 13.62-2.91 21.26-1.02 5.8067-0.55333 12.557 1.4 20.25z"/>
   <path d="m260.5 80.05 0.0884-1.6323 1.9416 24.742-0.55 0.02c-8.89-0.65-17.89 3.08-25.17 8.11-1.9267 1.3333-5.9567 4.7733-12.09 10.32-5.89 5.33-11.35 13.19-15.05 19.05-3.9333 6.2467-7.0633 13.05-9.39 20.41-0.24241 1.4349-16.063 0.30854-15.82-0.71 0.98667-5.5867-0.81667-8.12-5.41-7.6-0.29183 0.0332-0.57477 0.10727-0.84 0.22-4.12 1.72-6.7333 4.3533-7.84 7.9-1.69 5.43 0.50206 10.958 7.2921 9.238l-0.0484 9.8473c-1.62 0.38667-3.4737 0.74141-5.0337 1.1147-15.16 3.62-28.64 14.95-36.59 27.93-3.89 6.36-4.38 12.66-4.16 20.38 0.92072 5.5648-33.59 42.88-36.85 40.51-2.94-1.9067-4.8867-3.02-5.84-3.34-1.9733-0.66-5.7667-1.26-11.38-1.8-2.64-0.25-8.06-3.28-12.15-4.17-0.55864-0.11971-1.1248-0.18336-1.69-0.19-8.8733-0.14667-14.28-0.42333-16.22-0.83-3.94-0.82-6.3833-1.17-7.33-1.05-0.53651 0.0662-1.0566 0.21818-1.54 0.45-6.71 3.19-12.52 6.75-19.56 3.07-4-2.1-3.81-8.71-2.28-12.31 0.97-2.29 2.95-3.66 5.27-5 3.8133-2.2 7.5933-2.5567 11.34-1.07 7.8333 3.1 12.903 4.94 15.21 5.52 7.2 1.8 12.95-0.21 18.99-3.95 4.45-2.76 8.96-3.95 13.2-2.86 4.0067 1.0267 6.6767 1.5833 8.01 1.67 4.17 0.26 12.17-5.51 14.35-9.59 1.8-3.3467 2.0467-6.9733 0.74-10.88-0.92-2.77-3.99-5.63-4.96-8.15-0.12607-0.31189-0.21014-0.63806-0.25-0.97-0.63-4.67 3.92-6.05 6.83-8.19 5.5-4.04 0.19-8.42-3.01-11.65-3.01-3.04-1.86-8.67-0.82-12.65 1.04-4-2.28-7.33-5.81-10.38-3.2133-2.78-4.03-6.19-2.45-10.23 2.31-5.9 9.93-2.62 14.64-4.35 2.2133-0.81333 4.8433-0.91333 7.89-0.3 4.98 1.01 9 1.5 10.77-3.51 0.91333-2.6 1.4933-5.6633 1.74-9.19 0.33333-4.6267-1.1-8.5767-4.3-11.85-3.46-3.54-5.59-5.18-10.14-7.38-2.7-1.3067-4.9033-2.69-6.61-4.15-3.21-2.75-6.85-7.6-10.33-10.55-4.02-3.4133-7.92-6.04-11.7-7.88-3.8333-1.8667-8.6533-3.7233-14.46-5.57-1.13-0.36-3.32-1.81-4.32-3.08-1.1733-1.4933-2.6633-2.9167-4.47-4.27-2.4133-1.8-3.88-3.2233-4.4-4.27-4.45-8.95 1.31-18.04 9.51-21.85 2.63-1.23 6.56-0.74 9.4-0.33 4.6933 0.66 8.84 2.1967 12.44 4.61 3.4 2.27 8.41 6.41 12.73 8.92 5.9933 3.5 10.977 6.81 14.95 9.93 4.92 3.8533 9.0833 9.0167 12.49 15.49 0.10645 0.21287 0.19349 0.43717 0.26 0.67 0.81333 2.8467 2.3467 5.1033 4.6 6.77 5.29 3.91 9.85-1.14 15.1 2.88 1.1867 0.91333 2.1067 2.6433 2.76 5.19 1.12 4.36 1.49 9.48 4.93 12.12 3.97 3.05 9.66 5.05 14.61 3.09 5.74-2.26 0.18-11.44-1.03-14.93-0.39749-1.1371-0.2499-2.3916 0.4-3.4 2.09-3.23 4.36-3.08 7.11-1.29 0.57333 0.37333 1.1267 0.62667 1.66 0.76 0.32002 0.0793 0.65616-0.0433 0.85-0.31 1.1-1.52 2.59-2.3567 4.47-2.51 0.3955-0.0325 0.769-0.19814 1.06-0.47 3.87-3.55 2.05-7.48-0.64-11.69-1.56-2.4267-2.4767-4.6733-2.75-6.74-0.42-3.1467-1.0267-5.4433-1.82-6.89-2.4867-4.5333-6.37-10.263-11.65-17.19-1.8267-2.4-3.6333-6.11-5.42-11.13-1.68-4.7267-1.66-9.1033 0.06-13.13 1.9-4.4333 5.1733-5.4867 9.82-3.16 4.66 2.34 8.3267 5.9833 11 10.93 3.06 5.6733 5.1833 11.317 6.37 16.93 0.82667 3.9067 1.6867 8.6467 2.58 14.22 0.59 3.68 2.27 6.38 6.46 7.21 1.2933 0.26 3.0467 0.85 5.26 1.77 0.35681 0.14659 0.75543 0.13934 1.1-0.02 4.65-2.19 1.19-17.7-0.03-21.73-0.12604-0.41798-0.30774-0.81502-0.54-1.18-1.0533-1.64-2.7967-4.32-5.23-8.04-0.74-1.1333-1.6633-3.4633-2.77-6.99-0.16667-0.51333-1.0733-3.7867-2.72-9.82-1.4667-5.38-3.5033-10.387-6.11-15.02-0.1396-0.25259-0.30725-0.49065-0.5-0.71-3.7-4.3-7.76-9.33-7.52-14.99 0.28-6.58 5.75-9.12 10.05-3.61 1.6667 2.1333 2.86 4.2167 3.58 6.25 0.15257 0.4178 0.24352 0.85572 0.27 1.3 0.19333 3.06 0.38333 6.8567 0.57 11.39 0.23 5.68 5.78 9.65 7.03 14.49 0.9 3.47 1.97 8.89 4.37 13.05 1.26 2.1867 3.29 5.7467 6.09 10.68 0.21197 0.36437 0.47858 0.69172 0.79 0.97 1.0467 0.92 2.1567 1.8267 3.33 2.72 0.48 0.36667 1.5733 1.7567 3.28 4.17 1.87 2.64 5.71 3.77 7.84 7.47 2.18 3.78 3.5533 6.16 4.12 7.14 2.51 4.34 8.61 7.7 10.7 0.68 0.02-0.05333 0.37333-0.90333 1.06-2.55 0.138-0.32179 0.35463-0.60375 0.63-0.82 1.66-1.2867 3.45-1.6533 5.37-1.1 1.59 0.47 3.1 1.88 4.78 2.15 3.8 0.62 4.99-4.54 5.45-7.3z"/>
   <path d="m298.95 46.34c-1.57-2.39-0.42-7.86 0.05-11.08q0.41-2.81 1.09-3.94a2.11 2.08 89.59 0 1 0.69-0.71q2.2-1.4 4.59-0.53 3.21 1.17 5.71 1.72a2.71 2.69 87.07 0 1 1.99 1.81c2.37 7.32-0.98 10.25-7.21 11.69q-2.4 0.56-5.08 1.62a1.52 1.5-27.16 0 1-1.83-0.58z"/>
  </g>
  <path d="m326.01 91.13c2.421 1.002-18.107 24.824-28.14 36.818-4.1533 4.96-15.046 16.285-14.76 13.052 0.59333-11.973-2.9033-22.687-10.49-32.14-1.563-1.9326 14.07-14.836 20.57-21.496 10.48-10.76 22.938-31.823 28.79-35.244 3.31-1.79 9.77-2.89 13.19-0.1 3.67 2.99 2.8 11.37 1.58 15.03-1.3 3.8733-4.27 8.3033-8.91 13.29-3.5067 3.76-4.1167 7.3567-1.83 10.79z" fill="#989998"/>
  <path d="m321.98 52.12c-5.72 14.14-16.5 26.68-26.98 37.44-6.5 6.66-14.73 13.03-22.38 19.3-2.3333-3.4667-5.6967-5.3667-10.09-5.7 0.56-2.1467 1.5267-4.1133 2.9-5.9 0.45 6.4 4.87 7.84 9.49 4.15 1.6333-1.3 2.8833-2.91 3.75-4.83 1.4015-3.7804 13.142-12.132 17.778-19.812 5.6449-9.1925 9.5002-18.497 13.202-18.798 2-0.04 3.5433-0.43667 4.63-1.19 2.4533-1.7 5.02-3.2533 7.7-4.66z" fill="#838483"/>
  <path d="m270.88 53.99c1.14 2.6533 2.49 5.16 4.05 7.52 1.38 2.0933 1.8633 4.42 1.45 6.98-0.19333 1.1867 0.44 2.1067 1.9 2.76 0.30456 0.13957 0.66095 0.08866 0.91-0.13l2.67-2.33c0.1788-0.15891 0.38502-0.28738 0.61-0.38 2.32-0.98667 4.18-0.38333 5.58 1.81l0.32577 0.27418-11.494 14.968-0.60223 0.087923c-5.23 1.56-10.83 5.68-10.85 11.71-1.3733 1.7867-2.34 3.7533-2.9 5.9-0.14667-0.0333-0.33-0.0267-0.55 0.02l-1.48-23.13c0.14-3.74 0.77-7.64 0.84-11.08 0.08-4.3067 0.05-8.6133-0.09-12.92z" fill="#1f1f1f"/>
  <path d="m309.65 57.97q-0.57 5.79-1.96 8.45c-1.59 3.06-5.91 6.19-7.68 10.91-3.32 8.87-12.63 15.94-21.34 19.25 1.68-3.21 4.17-12.27-2.39-11.03l11.77-15.33c2.73 2.48 4.82-0.19 6.47-2.58 3.76-5.45 7.98-9.99 15.13-9.67z" fill="#4d4d4e"/>
  <path d="m410.96 91.63q-0.51-4.05 0.55-6.43c0.99-2.25 0.48-4.47 1.42-5.99a2.35 2.29-1.13 0 1 0.7-0.71c3.33-2.17 8.36-2.37 9.96 1.94 1.58 4.27 0.35 6.64-3.54 8.57-2.68 1.33-4.66 3.38-8.47 3.19a0.66 0.65-2.07 0 1-0.62-0.57z" fill="#a6a7a6"/>
  <path d="m326.01 91.13c1.1667 0.71333 2.4633 1.1233 3.89 1.23 0.30158 0.02614 0.59092 0.12948 0.84 0.3 1.54 1.1 1.11 2.92 1.79 4.37 1.0867 2.3333 3.0333 3.6033 5.84 3.81 0.80643 0.0564 1.5306 0.51037 1.93 1.21 3.24 5.66 8.55 16.51 17.08 11.26 2.2-1.36 5.12-4.45 8.44-4.9 1.2969-0.17741 2.498 0.72569 2.7 2.03l1.34 8.9c7e-3 0.0399 0.0167 0.0801 0.03 0.12 0.99333 2.7133 2.7233 4.4233 5.19 5.13 6.21 1.76 10.49-5.71 13.32-9.63 0.28503-0.39771 0.63239-0.75182 1.03-1.05 5.7-4.3 10.24-9.89 14.83-15.39 0.34-0.41333 0.88333-0.83667 1.63-1.27 0.74891-0.42736 1.6813 0.10777 1.69 0.97 0.05 3.7-3.59 9.67-6.23 13.43-3.0467 4.34-5.2433 8.96-6.59 13.86-0.11296 0.39195-0.27071 0.76785-0.47 1.12-1.5933 2.7933-3.5467 5.47-5.86 8.03-4.13 4.54-2.39 8.42-2.55 13.24-2.4273 4.373-32.179 38.17-32.15 33.4 0.10667-8.96-0.43-15.67-1.61-20.13-1.8533-6.9667-3.61-12.727-5.27-17.28-2.2867-6.2533-6.2633-12.097-11.93-17.53-3.5133-3.3733-7.66-5.2933-12.44-5.76-0.36366-0.0396-0.73298-0.0125-1.09 0.08-14.01 3.65-24.7 12.36-31.17 25.25-6.08 12.11-9.08 24.35-10.95 38.33-0.80667 5.98-0.83667 11.86-0.09 17.64 1.54 12.02 7.04 21.18 17.08 27.62 1.8693 0.96815-9.1188 20.354-10.51 18.17-4.06-6.62-9.2833-11.793-15.67-15.52-5.0733-2.96-10.39-4.5367-15.95-4.73-13.63-0.47-27.66 6.27-37.56 14.87-4.4733 3.8867-9.0233 8.94-13.65 15.16-0.25635 0.33669-0.66441 0.51805-1.08 0.48-4.2733-0.38667-9.79 0.57333-16.55 2.88-9.1467 3.12-16.677 7.653-22.477 13.453l2.5534-15.669c6.88 0.36 12.893-0.68082 17.853-3.1342 12.83-6.36 17.56-18.86 16.84-32.75-0.085-3 14.003-18.662 16.31-16.54 5.0867 3.2667 10.547 4.9533 16.38 5.06 20.22 0.38 32.76-14.59 40.29-32.2 5.56-13 9.07-24.34 10.07-38.05 4.6867-4.3667 9.1067-9.03 13.26-13.99 10.033-11.993 19.913-23.953 29.64-35.88zm-2.32 7.85c-3.58 1.77-4.69 7.09-4.82 10.75-0.12667 3.5733 0.98667 6.4533 3.34 8.64 0.29615 0.26987 0.64482 0.46813 1.02 0.58 1.6667 0.5 3.2167 0.14667 4.65-1.06 5.15-4.36 3.89-11.03 0.3-15.99-1.16-1.6067-2.2867-2.6-3.38-2.98-0.36531-0.12813-0.7647-0.10655-1.11 0.06z" fill="#a6a7a6"/>
  <path d="m81.7 145.08a5.84 3.83-40.6 0 1-1.94 6.71 5.84 3.83-40.6 0 1-6.92 0.89 5.84 3.83-40.6 0 1 1.94-6.71 5.84 3.83-40.6 0 1 6.92-0.89z" fill="#0b0b0b"/>
  <g fill="#f7f6f7">
   <path d="m423.5 153.95q0.07-4.92 3.15-6.8c3.33-2.03 7.68-0.67 9.1 3.16a1.49 1.47-44.72 0 1-0.01 1.04c-1.9 4.87-7.01 4.52-11.62 3.39a0.81 0.81-83.22 0 1-0.62-0.79z"/>
   <path d="m385.88 147.9c-1.02 2.7867-0.0967 4.9067 2.77 6.36 1.1 0.56 2.5567 0.86333 4.37 0.91 3.36 0.0933 6.2367 1.6867 8.63 4.78 0.71006 0.92371 1.8179 1.4516 2.98 1.42 7.07-0.17 12.24-0.81 17.94 1.57 6.04 2.52 3.41 8.93 0.4 12.78-0.99333 1.2667-3.54 3.3267-7.64 6.18-0.11974 0.0798-0.23028 0.17027-0.33 0.27l-2.81 2.86c-0.6174 0.63307-0.51685 1.6672 0.21 2.16l2.98 2.04c0.1649 0.11865 0.3045 0.27187 0.41 0.45 1.0733 1.9 2.4633 3.3467 4.17 4.34 0.29545 0.17724 0.62829 0.28018 0.97 0.3 5.41 0.36 9.2 0.78 10.09 6.5 0.0655 0.40726 0.0312 0.82579-0.1 1.22-0.94 2.78-2.1033 4.84-3.49 6.18-1.6867 1.6333-2.7433 3.0967-3.17 4.39-0.081 0.25358 0.0509 0.52614 0.3 0.62 3.4 1.3 6.06 1.71 7.77 4.62 1.5214 2.69-14.341 14.925-26.28 25.652-9.4236 8.4329-22.672 17.599-29.62 14.708-3.2733-9.86-8.73-18.317-16.37-25.37-0.23856-0.21872-0.50818-0.40071-0.8-0.54-6.91-3.17-16.74 1.12-22.55 5.22-12.49 8.81-25.09 24.4-26.18 39.22-0.66 8.9867 2.9923 17.012 10.792 23.958l-5.9662 3.2816c-4.46-7.6067-10.353-13.817-17.606-18.49-0.28817-0.18093-0.4708-0.49028-0.49-0.83-0.54667-7.4933-1.73-14.297-3.55-20.41-1.6467-5.5-4.3-11.02-7.96-16.56 2.94-6.42 5.65-12.93 10.51-18.17 3.9533 2.08 6.5967 3.2867 7.93 3.62 9.14 2.2933 18.16 0.80333 27.06-4.47 11.08-6.5667 17.997-16.123 20.75-28.67 1.2867-5.8667 1.8633-12.1 1.73-18.7 4.28-2.61 7.84-5.64 8.74-10.56 0.43333-2.3133 0.88333-4.58 1.35-6.8 0.0805-0.3817 0.3431-0.69682 0.7-0.84 3.82-1.5 7.54-2.76 9.33-6.65 0.0533-0.11333 0.6-1.3233 1.64-3.63 0.13681-0.3067 0.36289-0.56756 0.65-0.75 2.9867-1.8933 6.2333-3.2833 9.74-4.17zm-15.74 59.7c-3.5848-0.0454-6.5446 4.2621-6.61 9.62-0.066 5.3567 2.786 9.7354 6.37 9.78 3.5848 0.0454 6.5446-4.2621 6.61-9.62 0.066-5.3567-2.786-9.7354-6.37-9.78z"/>
   <path d="m448.53 147.59a1.78 1.78 20.38 0 1 2.35 0.9l0.42 0.95a4.76 4.62 66.1 0 1-2.3 6.23l-0.03 0.01a4.76 4.62 66.1 0 1-6.16-2.48l-0.42-0.95a1.78 1.78 78.28 0 1 0.91-2.35z"/>
  </g>
  <path d="m61.39 172.78h-5.68a1.58 1.56 30.52 0 0-0.75 0.19c-2.5 1.37-5.11 2.11-7.3 0.25a1.81 1.79-77.97 0 1-0.56-0.87c-0.67-2.38-0.88-4.2-2.01-6.45q-1.35-2.69 0.07-5.68c1.21-2.55-0.36-6.21 3.07-7.27 4.33-1.35 8.15-0.29 10.48 3.77q0.84 1.47 3.03 3.99a1.32 1.3 21.3 0 1 0.31 0.69l0.74 4.86a0.19 0.15 37.98 0 0 0.02 0.08q1.16 2.33 0.73 4.64a2.2 2.18-84.78 0 1-2.15 1.8z" fill="#0b0b0b"/>
  <path d="m200.28 161.07c-1.52 8.67-1.9557 16.556 0.98429 25.016l-9.5858 4.6179c-3.43-5.1-7.9048-10.127-14.325-10.677l-7e-3 -9.8332c3.7267-2.2467 6.2399-5.5334 7.1132-9.8334 5.4333-1.0733 10.707-0.83667 15.82 0.71z" fill="#1f1f1f"/>
  <path d="m201.16 185.78c1.58 4.5667 3.8609 8.7373 6.8609 12.551 1.7974 1.7067-10.603 6.5028-11.1 4.11-1.2533-4.24-3.0807-8.2535-5.4473-12.04z" fill="#4d4d4e"/>
  <path d="m208.02 198.33 7.73 7.34c-0.58895 8.5912-12.588 14.998-15.86 11.06l-2.97-14.29c4.1733-0.24 7.8733-1.61 11.1-4.11z" fill="#838483"/>
  <path d="m216.37 206.19q-2.43 8.07-6.59 14.36c-1.96 2.96-5.94 2.9-9.72 2.18l-0.17-6c4.97 0.1 8.93-0.19 11.58-4.58q1.97-3.27 4.28-6.48z" fill="#989998"/>
  <path d="m438.04 214.65 0.93-0.12q0.11-0.01 0.22-0.02l11.71-0.99a5.15 5.14 31.05 0 0 1.54-0.38q6.14-2.6 9.5-4c5.29-2.22 16.8-4.63 21.41 0.02a1.87 1.81 16.57 0 1 0.49 0.87q0.74 3.19-2.31 5.76c-6.93 5.85-20.06 5.32-27.97 3.15a7.71 7.7 52.19 0 0-2.2-0.28c-3.96 0.06-9.44 0.33-13.7-2.05a1.05 1.05-34.05 0 1 0.38-1.96z" fill="#820282"/>
  <path d="m433.36 229.05c-9.3036 10.959-27.152 23.957-48.289 31.111-1.6842 1.1833-6.9791 3.9486-7.5006 1.9788l-1.14-3.93c3.6067-1.7533 7.3133-3.1367 11.12-4.15 0.57333-0.15333 1.6967-0.84 3.37-2.06 2.26-1.64 4.05-4.78 6.15-6.95 0.33925-0.35253 0.71429-0.67399 1.12-0.96l4.86-3.4c1.0404-0.72891 1.9614-1.6162 2.73-2.63l2.46-3.24c0.75063-0.98979 1.6168-1.8862 2.58-2.67l4.46-3.62c0.42455-0.34496 0.79501-0.74573 1.1-1.19l2.63-3.91c0.78335-1.1588 1.9329-2.0157 3.26-2.43l10.06-3.15c1.2533 1.08 1.7533 2.4633 1.5 4.15-0.4 2.68-0.55667 5.03-0.47 7.05z" fill="#c386c3"/>
  <path d="m433.36 229.05c1.47 2.41 4.1 3.29 6.53 4.4 4.0153 2.5521-32.152 28.148-45.456 29.441l-15.992 3.1735c-0.30771-1.3766-0.37841-2.7708-0.87174-3.9241 2.66-0.0733 5.1133-1.0767 7.36-3.01 0.26433-0.22462 0.56612-0.39755 0.89-0.51 5.3733-1.92 10.227-3.9633 14.56-6.13 4.6-2.3 7.47-8.32 11.38-10.71 0.54667-0.33333 3.3733-2.21 8.48-5.63 3.72-2.49 8.89-4.41 13.12-7.1z" fill="#a951a9"/>
  <path d="m131.83 229.39c0.72 7.84 4.02 16.63 10 22.16 2.28 1.65-20.203 20.22-28.234 34.459-7.4141 5.8686-21.566 13.851-32.019 18.623-8.1186 6.8707-15.665 15.102-35.376 21.308-6.9733-2.8133-10.063-8.05-9.27-15.71 0.2-1.92 1.1267-4.51 2.78-7.77 2.82-5.58 7.9-9.49 14.2-10.19 2.21-0.24 4.58-1.03 7.2-0.99 8.1867 0.12 14.98 0.31 20.38 0.57 2.48 0.12 4.7633-0.14 6.85-0.78 1.3398-0.40729 2.2788-1.5301 2.35-2.81 0.28-5.05 5.7-5.31 9.08-7.36 3.48-2.11 0.76-6.83-1.53-8.63-1.0333-0.81333-2.12-1.6033-3.26-2.37 5.5067-5.8667 9.3333-10.59 11.48-14.17 3.65-6.09 7.65-13.72 12.21-18.2 3.68-3.6067 8.0667-6.32 13.16-8.14z" fill="#1f1f1f"/>
  <path d="m418.16 267.43c-5.556 15.854-41.297 23.785-39.6 19.7 1.5733-6.92 1.5267-13.973-0.14-21.16l16.08-4.14c0.55615-0.13903 1.0865-0.36874 1.57-0.68 7.25-4.69 11.99-7.68 20.05-8.96 0.83254-0.13213 1.6363-0.42041 2.37-0.85l1.83-1.05c0.17295-0.0998 0.33368-0.21362 0.48-0.34 5.3-4.63 10.31-9.47 16.18-11.88 0.3044-0.12321 0.55853-0.3491 0.72-0.64l2.19-3.98c4.8667 1.74 6.6633 5.35 5.39 10.83-0.71 3.07-6.24 6.59-8.44 8.1-3.88 2.68-8.14 4.76-12.11 7.33-3.2067 2.0733-5.3967 4.6467-6.57 7.72z" fill="#942694"/>
  <path d="m141.83 251.55 2.28 1.65c3.4888 1.5162-5.7098 10.745-11.05 18.278-1.2793 6.8302-17.381 17.652-21.555 20.808-8.43 5.83-25.765 13.813-30.825 7.555 1.18-0.7 2.8033-0.94 4.87-0.72 0.30758 0.0328 0.61872-0.0191 0.9-0.15 2.54-1.22 4.4967-2.6067 5.87-4.16 2.56-2.89 4.03-4.89 7.04-6.27 2.74-1.25 6.1-0.8 9.33-1.47 6.56-1.37 5.71-6.54 5.46-11.93-0.25-5.2 2.3-7.48 6.88-9.66 2.6867-1.28 4.2433-2.1333 4.67-2.56 4.6733-4.6667 10.05-8.4567 16.13-11.37z" fill="#4d4d4e"/>
  <path d="m144.11 253.2 6.19 2.69c3.6701 1.001-21.568 33.724-63.47 54.82-3.8 1.28-7.1 3.1033-9.9 5.47-4.0333 3.4133-7.92 6.3033-11.66 8.67-0.06644 0.0465-0.13705 0.0835-0.21 0.11l-2.32 0.89c-6.6767-1.0317-10.642-14.254-6.9209-16.938 6.6222-4.7754 10.481-6.7351 18.478-6.4314 0.71333-0.04 2.8904-0.57741 4.8926-1.0309 0.66667-0.47333 5.9767-1.7333 7.93-0.66 0.22968 0.13121 0.49084 0.20337 0.76 0.21 1.6867 0.0333 3.07-0.34667 4.15-1.14 0.27605-0.20376 0.59863-0.3376 0.94-0.39l2.12-0.32c0.40534-0.0588 0.78608-0.22842 1.1-0.49 4.3333-3.5667 9.0633-6.0667 14.19-7.5 2.34-0.65 4.19-3.05 6.12-5.2 0.74951-0.83573 1.6114-1.5596 2.56-2.15 5.25-3.26 11.79-5.61 12.5-12.52 0.48-4.71 1.19-7.73 5-10.7 2.7867-2.18 5.3033-4.6433 7.55-7.39z" fill="#838483"/>
  <path d="m150.3 255.89c4.94 1.5 9.9799 2.4083 15.147 2.7283l-2.5625 15.594-6.824 8.7477c-5.706 9.334-32.028 29.672-54.26 29.7-3.0533 0.49333-5.7867-0.23333-8.2-2.18-0.24864-0.20262-0.54668-0.33084-0.86-0.37-2-0.24667-3.97-0.0467-5.91 0.6-0.04-3.4067 1.0633-6.2933 3.31-8.66 0.22326-0.24288 0.50544-0.42526 0.82-0.53 3.79-1.28 7.16-3.25 10.99-4.53 3.42-1.13 7.28-1.76 9.77-3.92 1.1867-1.0267 2.5233-2.5533 4.01-4.58 1.11-1.49 4.41-3.27 6.9-4.07 4.4267-1.4067 8.07-4.22 10.93-8.44 0.0981-0.14401 0.15355-0.31387 0.16-0.49l0.16-4.63c6e-3 -0.27469 0.0895-0.54448 0.24-0.78 3.58-5.79 10.52-10.58 16.18-14.19z" fill="#989998"/>
  <path d="m291.79 406.24c-1.1282-1.6705 11.644-34.787 13.1-36.11 8.35-7.4 13.58-17.72 16.73-28.19 1.0503-4.6321 26.007-29.587 29.78-29.3 13.16-3.54 22.213-12.043 27.16-25.51 10.61-0.99 20.31-3.66 28.95-10.15 3.8933-2.9267 7.4433-6.11 10.65-9.55 2.23 3.37 7.16 0.26 9.23 3.3 0.59333 0.86667 0.51333 1.68-0.24 2.44-0.59333 0.59333-1.7 1.0267-3.32 1.3-0.43785 0.0711-0.6079 0.61062-0.29 0.92l0.82 0.83c0.23956 0.23302 0.32839 0.58061 0.23 0.9-0.72 2.4-1.8933 4.2867-3.52 5.66-0.59535 0.49574-0.2346 1.4644 0.54 1.45 0.92667-7e-3 2.52-0.21 4.78-0.61 1.171-0.21097 2.2832 0.28514 2.69 1.2 1.47 3.27-1.56 7.05-4.22 8.62-2.7533 1.6067-4.9433 3.28-6.57 5.02-0.6945 0.73958-1.0115 1.7568-0.86 2.76l0.61 4.06c0.0392 0.24133 4e-3 0.48887-0.1 0.71l-3.03 6.48c-0.20807 0.43938-0.0736 0.96465 0.32 1.25 1.14 0.82 2.32 1.2533 3.54 1.3 3.5 0.13333 6.8167 0.26667 9.95 0.4 0.69333 0.0333 1.9867 0.65 3.88 1.85 0.84667 0.54 1.6933 1.6233 2.54 3.25 2.31 4.43 9.03 6.55 7.14 13.75-0.10174 0.40725-0.37459 0.75287-0.75 0.95-4.44 2.38-12.11 1.46-16.81 0.26-3.45-0.88-6.09-2.8-9.38-4.54-0.34495-0.18576-0.71506-0.32371-1.1-0.41-3.9733-0.96667-6.9467 0.48333-8.92 4.35-0.1522 0.30387-0.15954 0.66011-0.02 0.97 2.45 5.29 6.89 8.07 12.14 10.47 4.68 2.14 7.29 5.12 5.61 10.55-1.19 3.85-6.03 3.01-8.53 1.33-4.26-2.87-8.19-8-10.83-10.21-2.0267-1.7-4.1333-3.1067-6.32-4.22-0.37118-0.18583-0.80333-0.21464-1.2-0.08-5.92 2.01 3.95 14.58 5.35 16.68 0.0333 0.0466 0.0634 0.0967 0.09 0.15l3.28 7.35c0.0928 0.20549 0.21414 0.39424 0.36 0.56l4.88 5.43c0.27138 0.30441 0.4879 0.65287 0.64 1.03 1.01 2.57 1.98 10.6-1.48 12.37-4.65 2.4-10.06-1.3-12.28-5.29-1.42-2.54-2.5067-5.45-3.26-8.73-0.92-3.9933-2.9667-7.1-6.14-9.32-2.11-1.47-3.06-2.15-4.28-4.37-1.4-2.54-3.4767-5.0167-6.23-7.43-1.4667-1.28-2.88-1.1933-4.24 0.26-3.08 3.28-2.62 5.81-1.39 9.82 0.0989 0.31633 0.12963 0.65035 0.09 0.98l-0.33 3.11c-0.0652 0.5624 0.0283 1.1337 0.27 1.65 0.58667 1.2733 0.90667 3.39 0.96 6.35 0.0333 2.1333-0.87667 3.4067-2.73 3.82-0.31345 0.0701-0.63826 0.0124-0.9-0.16-2.6733-1.7533-4.35-2.7433-5.03-2.97-10.2-3.3-8.44 10.34-6.97 15.85 0.1726 0.63073 0.26335 1.2794 0.27 1.93 0.0467 3.5667 0.55333 7.0467 1.52 10.44 1.2933 4.54 2.7333 8.9867 4.32 13.34 0.62 1.7067 2.4667 5.3667 5.54 10.98 1.4333 2.62 3.8 5.97 7.1 10.05 1.8333 2.2667 4.61 5.8767 8.33 10.83 5.66 7.55 8.57 15.36 4.71 24.74-1.4667 3.5667-4.1633 5.6067-8.09 6.12-10.48 1.38-16.23-12.83-17.72-20.82-0.88-4.7-1.6067-10.063-2.18-16.09-0.21333-2.2067-1.04-5.1367-2.48-8.79-0.46667-1.1933-2.0933-3.82-4.88-7.88-2.6333-3.8267-4.6-7.4967-5.9-11.01-2.94-7.9-5.47-15.38-11.09-21.44-1.84-1.99-4.28-3.07-7.57-3.78-2.94-0.64667-5.5133-2.0767-7.72-4.29-0.22469-0.23117-0.49284-0.41785-0.79-0.55-5.7133-2.6-10.237-1.6367-13.57 2.89-0.2062 0.27937-0.38702 0.58072-0.54 0.9-0.30667 0.63333-1.05 2.5967-2.23 5.89-1.4467 4.0467-1.6267 7.9433-0.54 11.69 0.21333 0.72 1.2933 2.5667 3.24 5.54 0.16667 0.26 0.42 1.2833 0.76 3.07 0.0927 0.48356 0.10625 0.98002 0.04 1.47-0.72 5.52-0.0367 10.683 2.05 15.49 1.51 3.49 1.98 8.03 1.2 10.59-1.21 3.96-6.06 6.14-9.94 6.41-6.38 0.44-8.78-4.05-9.18-9.88-0.44667-6.48-0.35-11.207 0.29-14.18 1.27-5.92 2.15-12.54 0.01-18.25z" fill="#820282"/>
  <path d="m156.06 282.96c-4.88 8.32-6.92 19.05-7.11 28.3-0.19 9.46 2.15 21.84 10.57 27.46 14.12 9.44 29.01 11.72 45.45 8.04 2.7854-0.44993-13.329 34.438-14.83 33.96-1.9467 1.26-2.6 3.1233-1.96 5.59 0.88667 3.4333 1.5267 5.7167 1.92 6.85 0.9 2.56 0.89 4.9833-0.03 7.27-1.18 2.9467-1.9333 6.0233-2.26 9.23-0.28 2.83-1.86 5.71-4.35 6.34-5.18 1.2933-8.7467-0.45667-10.7-5.25-0.11926-0.28501-0.19349-0.58866-0.22-0.9-0.38667-4.4133-0.24-7.8833 0.44-10.41 1.2-4.4667 2.1433-8.3667 2.83-11.7 0.95333-4.6267 0.0967-8.9633-2.57-13.01-1.9667-2.9867-3.0833-4.7467-3.35-5.28-0.15634-0.31867-0.40798-0.58079-0.72-0.75-2.0733-1.1667-3.9367-1.1933-5.59-0.08-1.84 1.24-2.87 4.99-4.39 6.32-4.54 3.98-9.3167 4.3367-14.33 1.07-2.55-1.66-1.64-5.14-0.95-7.88 0.26095-1.0392-0.39548-2.102-1.47-2.38-2.29-0.58-6.8 3.62-8.38 5.31-7.61 8.15-14.33 15.37-22.1 19.69-1.3667 0.75333-6.2567 3.1833-14.67 7.29-13.56 6.6067-23.077 16.567-28.55 29.88-2.25 5.47-3.56 11.3-5.21 17.33-0.75333 2.76-1.6867 5.2267-2.8 7.4-0.17793 0.34926-0.4271 0.65304-0.73 0.89-6.2867 4.9-13.29 5.8867-21.01 2.96-4.95-1.88-6.95-5.86-7.19-11.03-0.24-5.3667 1.39-10.647 4.89-15.84 1.2-1.78 3.55-4.0767 7.05-6.89 3.0333-2.44 5.9433-5.3267 8.73-8.66 4.09-4.89 7.74-12.43 11.31-16.92 4.7733-5.98 11.147-10.23 19.12-12.75 0.33974-0.1087 0.55117-0.44699 0.5-0.8-0.31333-2.1267 0.5-4.05 2.44-5.77 5.86-5.2 11.32-7.3 20.41-11.81 8.26-4.1 13.59-10.86 16.99-18.78 0.42667-1 0.68667-1.8533 0.78-2.56 0.11538-0.86656-0.75475-1.5303-1.56-1.19-2.69 1.14-7.05 2.08-8.19-1.26-0.54-1.5667-0.27-2.9633 0.81-4.19 2.84-3.22 5.08-6.03 4.67-10.16-0.0667-0.64622-0.77521-1.011-1.34-0.69-2.2733 1.3067-4.3433 2.7967-6.21 4.47-1.1667 1.04-2.5333 1.62-4.1 1.74-0.78402 0.0549-1.5375-0.31997-1.97-0.98-3.33-5.09-0.39-9.53 2.4-13.99 1.3533-2.1667 1.0067-3.9-1.04-5.2-0.74-0.47333-2.6367-0.66667-5.69-0.58 0.16667-2.4467 0.44-4.89 0.82-7.33 1.04-6.75 8.04-5.65 12.63-3.92 7.83 2.95 10.83 4.51 18.21-0.27 8.87-5.73 16.36-9.5 22.6-18.18z" fill="#a6a7a6"/>
  <path d="m321.25 300.63 7.1016 5.0375-8.3026 7.3934-4.7383-9.1623z" fill="#c386c3"/>
  <path d="m80.68 299.84c3.909 0.53123 0.01415 1.0889-5.95 2.86-4.8533 0.28667-7.38 0.45333-7.58 0.5-1.0091 0.2589-1.9803 0.64537-2.89 1.15l-7.52 4.18c-0.28665 0.15599-0.4721 0.45119-0.49 0.78-0.23333 4.28-0.21 6.8633 0.07 7.75 0.74 2.2667 2.88 5.1967 6.42 8.79-5.5 1.6-11.013 1.63-16.54 0.09 1.8533-5.44 4.4733-10.437 7.86-14.99 0.17233-0.23194 0.30728-0.48833 0.4-0.76l0.82-2.43c0.09887-0.29006 0.25913-0.55602 0.47-0.78 0.96-1.02 2.78-0.98 3.89-2.14 0.26168-0.2814 0.59658-0.48856 0.97-0.6 2.76-0.84 5.41-3.2 8.34-3.2 1.6667 7e-3 3.0467 0.36333 4.14 1.07 0.27678 0.17382 0.60722 0.24133 0.93 0.19z" fill="#4d4d4e"/>
  <path d="m328.28 305.62 10.949 4.9186c1.5241 0.46254-16.109 16.383-16.24 14.98-0.46667-4.2867-1.4746-8.4722-2.9946-12.559z" fill="#a951a9"/>
  <path d="m351.4 312.64q-1.08 3.65-2.25 7.62c-4.09 13.75-14.76 18.41-27.53 21.68q2.29-8.01 1.37-16.42c5.49-4.98 11.33-9.39 16.24-14.98q5.73 1.86 12.17 2.1z" fill="#942694"/>
  <path d="m81.99 346.38a1.59 1.58-77.18 0 0 1.79-1.13q1.48-5.29 7.71-6.61c2.39-0.51 5.84-0.11 6.14 3.07 0.33 3.38-1.91 6.46-5.24 8.09q-2.76 1.36-3.71 3.88-1.01 2.69-2.15 3.49c-2.53 1.77-5.83 3.36-8.15 0.76a0.47 0.39 23.74 0 1-0.11-0.22l-1.39-7.16q0-0.04 0-0.09 0.3-4.91 5.11-4.08z" fill="#a6a7a6"/>
  <path d="m445.76 344.44q4.25-2.77 8.62-1.25 3.39 1.18 5.14 3.04c1.64 1.73 3.14 6.36 0.74 8.2-3.42 2.62-8.24 4.27-11.64 0.53a3.11 3 12.43 0 1-0.53-0.8c-1.17-2.51-4.23-7.06-2.95-9.09a2.31 2.2-89.08 0 1 0.62-0.63z" fill="#820282"/>
  <path d="m267.6 372.68c1.3508 0.53761-3.2222 13.327-4.35 14.09-2.3333 2.2067-5.0267 3.4567-8.08 3.75-0.63073 0.0652-1.2638-0.0677-1.81-0.38-6.29-3.51-10.99 3.18-13.43 8.06-0.82 1.6333-3.0667 6.1733-6.74 13.62-0.2444 0.48884-0.3937 1.0148-0.44 1.55-0.40667 4.7067-0.53333 8.9167-0.38 12.63 0.07 1.63-0.68 5.38-1.49 7.24-0.32667 0.75333-1.5833 3.76-3.77 9.02-0.20574 0.50443-0.34362 1.0358-0.41 1.58-0.51 4.07-1.41 7.99-1.35 12.25 0.1 6.6133 0.0867 11.497-0.04 14.65-0.13333 3.5133-1.0567 7.73-2.77 12.65-1.7467 5.0467-5.34 7.4567-10.78 7.23-8.37-0.36-8.83-11.38-7.27-17.68 1.91-7.69 3.41-11.89 3.34-18.18-0.04-3.1133-0.31667-7.1633-0.83-12.15-0.16915-1.6276 0.16586-3.2713 0.96-4.71 2.71-4.88 4.68-7.91 5.85-12.13 2.82-10.2 2.2-21.09-3.63-30.08-2.07-3.2-7.2-5.89-11.58-8.35-0.39848-0.22582-0.76465-0.49793-1.09-0.81-1.96-1.88-4.68-5.52-7.37-5.81-0.45-8.83 3.76-15.13 9.23-22.65 1.9533-2.6733 3.82-6.4433 5.6-11.31 7.32-1.2733 14.663-1.8333 22.03-1.68 1.1667 0.0267 2.3033 0.38 3.41 1.06 4.04 2.48 7.91 5.1967 11.61 8.15 0.34 0.27333 4.1133 3.47 11.32 9.59 4.2733 3.6267 9.0267 6.56 14.26 8.8z" fill="#f7f6f7"/>
  <path d="m304.89 370.13c-0.43333 10.44-3.3 20.113-8.6 29.02-0.22535 0.37778-0.50517 0.71828-0.83 1.01l-1.25 1.09c-0.31107 0.27309-0.43566 0.70528-0.32 1.11 0.48667 1.7067-0.21333 3-2.1 3.88l-4.14-6.13c-2.9992-3.1899 0.29847-23.49 2.25-23.4 5.78-0.26 10.777-2.4533 14.99-6.58z" fill="#942694"/>
  <path d="m283.38 376.41c1.681 0.0773-11.587 11.536-12.86 10.09-2.1267-1.9133-4.55-1.8233-7.27 0.27-2.67-5.28 0.82-10.22 4.35-14.09 4.9467 2.0533 10.207 3.2967 15.78 3.73z" fill="#c386c3"/>
  <path d="m289.9 376.71c0.9 8.44 2.41 15.08-2.25 23.4l-4.72-5.02a1.34 1.32-17.4 0 0-0.82-0.42q-3.15-0.34-5.87-1.98c-2.12-1.28-3.76-4.19-5.72-6.19q7.35-3.81 12.86-10.09z" fill="#a951a9"/>
  <path d="m25.16 400.87c-3.49 1.61-6.81 0.12-9.51-2.5-4.99-4.84 4.96-12.96 9.91-5.48q2.4 3.63 0.43 7.2a1.84 1.8-87.49 0 1-0.83 0.78z" fill="#a6a7a6"/>
  <path d="m257.86 421.85a1.96 1.91 69.32 0 1 2.48 1.16q1.67 4.47 0.32 8.36c-1.47 4.23-3.29 6.87-8.25 6.13a1.84 1.83 2.86 0 1-1.57-1.73q-0.1-2.2 0.99-3.98 2.4-3.88 3.87-8.13a1.77 1.75-11.64 0 1 0.5-0.75q0.84-0.74 1.66-1.06z" fill="#820282"/>
  <path d="m400.23 423.97a1.78 1.78 12.13 0 1 2.51-1.62q4.01 1.82 10.98 5.67 9.31 5.14 7.34 16.02-0.39 2.13-3.99 5.28-3.35 2.92-6.75 0.41c-2.16-1.58-3.58-7.22-4.36-10.25a3.06 2.84 23.13 0 0-0.38-0.85l-2.64-4.01a3.14 3.11 25.82 0 1-0.52-1.47q-0.37-3.9-2.05-7.64a1.68 1.67-56.95 0 1-0.14-0.67z" fill="#820282"/>
 </g>
</svg>
