<svg id="a" class="img-fluid" width="512" height="512" version="1.1" viewBox="0 0 512 512" xmlns="http://www.w3.org/2000/svg" xmlns:xlink="http://www.w3.org/1999/xlink">
 <defs>
  <linearGradient id="b" x1="345.7" x2="1421" y1="233.34" y2="1514.9" gradientUnits="userSpaceOnUse">
   <stop stop-color="#ff0b02" offset="0"/>
   <stop stop-color="#fe640b" offset=".23705"/>
   <stop stop-color="#fe8b09" offset=".30285"/>
   <stop stop-color="#fdbc0e" offset=".38438"/>
   <stop stop-color="#fdd908" offset=".4342"/>
   <stop stop-color="#fde706" offset=".53594"/>
   <stop stop-color="#c7ec07" offset=".57822"/>
   <stop stop-color="#94ee0a" offset=".61535"/>
   <stop stop-color="#6cf312" offset=".6546"/>
   <stop stop-color="#31f199" offset=".68961"/>
   <stop stop-color="#1fe4cf" offset=".7204"/>
   <stop stop-color="#28d2d4" offset=".75542"/>
   <stop stop-color="#5091db" offset=".79255"/>
   <stop stop-color="#8b43dd" offset=".82756"/>
   <stop stop-color="#9c21e5" offset=".88313"/>
   <stop stop-color="#9c21e5" offset="1"/>
  </linearGradient>
 </defs>
 <g transform="matrix(.28758 0 0 .28758 1.9637 4.6275)" fill="url(#b)">
  <path d="m941.22 4.7903c-10.48 0.3-18.81 1.8492-26.49 9.4492-3.05 3.02-6.7795 6.7409-7.5195 9.9609-4.12 17.74-8.1304 33.689 0.34961 50.859 2.72 5.5 3.5806 9.7105 3.0606 15.061-0.65334 6.78-0.83125 12.652-0.53125 17.619 0.56 9.37 2.9805 15.38 6.4805 24.77 6.21 16.6 7.1402 36.64 7.2402 54.24 0.21333 35.513 0.29357 54.93 0.24024 58.25-0.26001 16.007-2.26 31.441-6 46.301-1.11 4.42-6.1404 17.511-12.65 15.311-2.7733-0.93334-5.6807-2.2779-8.7207-4.0312-5.99-3.46-14.38-4.6384-20.43-3.3984-6.1933 1.2667-10.756 4.9066-13.689 10.92-2.05 4.21-3.49 11.929-9.25 15.119-6.72 3.73-14.97 0.61938-19.15-5.6406-9.3933-14.06-15.47-22.98-18.23-26.76-8.01-10.98-15.28-17.06-26.58-26.9-1.5067-1.3133-4.1291-4.3432-7.8691-9.0898-3.43-4.36-6.13-7.2788-10-10.299-4.76-3.72-7.9627-6.2704-9.6094-7.6504-4.67-3.92-6.9102-8.0308-9.9902-14.051-4.23-8.27-7.2102-12.799-13.91-24.049-5.84-9.8067-10.045-20.187-12.611-31.141-2.2333-9.54-4.1151-16.496-5.6484-20.869-1.6333-4.6467-3.3144-8.2145-5.041-10.701-6.82-9.87-14.229-19.8-17.779-31.83-1.0333-3.5067-1.6198-9.5365-1.7598-18.09-0.0533-3.1933-0.27039-9.4906-0.65039-18.891-0.26666-6.48-0.96937-11.933-2.1094-16.359-2.71-10.51-11.32-19.69-19.15-27.52-8.41-8.4-21.89-8.1411-28.73 2.3789-1.9067 2.9333-3.2493 6.2244-4.0293 9.8711-4.94 23.16 8.5201 41.731 22.58 58.311 4.23 4.99 8.1599 11.379 10.67 16.869 10.75 23.53 19.428 50.16 26.318 75.09 4.22 15.26 8.7502 27.8 16.74 39.34 6.49 9.39 11.68 16.29 14.4 26.08 3.4933 12.547 5.6867 25.687 6.5801 39.42 0.58 8.96 0.40946 19.431-4.3105 27.301a2.99 2.98 22.57 0 1-3.2988 1.3496c-2.9-0.73333-5.9411-1.7961-9.1211-3.1894-6.37-2.78-20.8-3.0605-25.51-11.23-3.4067-5.9133-5.7102-12.443-6.9102-19.59-3.8-22.62-6.82-44.979-13.75-66.699-3.8-11.9-9.3186-25.024-16.559-39.371-3-5.9467-6.2171-10.893-9.6504-14.84-6.5-7.47-14.21-14.459-22-20.449-6.28-4.83-12.851-8.3005-20.621-9.5605-8.09-1.3-16.65 1.2492-22.27 7.4492-5.25 5.79-7.8294 15.391-8.6894 23.361-1.1467 10.533-0.52729 20.503 1.8594 29.91 1.7933 7.08 5.21 15.706 10.25 25.879 8.6 17.35 18.131 28.68 32.201 47.82 2.32 3.1533 7.9332 11.873 16.84 26.16 3.3667 5.3933 5.6918 11.233 6.9785 17.52 1.94 9.4933 3.1447 15.21 3.6113 17.15 1.2733 5.28 2.726 9.3335 4.3594 12.16 7.24 12.53 21.07 27.51 9.7598 42.33-3.41 4.46-9.6994 4.5691-13.109 5.6191-4.15 1.28-6.5394 4.3003-9.1094 7.8203a1.23 1.23 0 0 1-1.6602 0.31055c-6.46-4.17-11.9-8.2111-20.5-6.8711-9.07 1.41-13.841 10.751-13.691 19.371 0.1 6.0133 1.4899 11.763 4.1699 17.25 3.35 6.86 5.4309 12.37 7.2109 19.34 0.86 3.38 1.1224 6.0436 0.78907 7.9902-0.65 3.86-2.7789 8.6394-6.6289 10.359-7.43 3.31-16.96 3.0098-24.24 1.5098-3.1267-0.64667-7.1534-2.2126-12.08-4.6992-9.43-4.76-16.94-7.8913-20.77-17.111-2.0867-5.0267-3.4231-9.0329-4.0098-12.02-2.04-10.5-3.6675-17.8-4.8809-21.9-4.84-16.38-16.21-27.74-34.17-25.93-0.62 0.0667-4.3576 0.58722-11.211 1.5606-10.16 1.45-19.828-2.7098-26.148-10.51-1.5333-1.8867-3.3636-5.3867-5.4902-10.5-2.86-6.8533-4.8096-11.213-5.8496-13.08-8.2867-14.847-18.685-28.331-31.191-40.451-6.93-6.72-11.589-11.109-18.549-16.209-16.26-11.933-33.203-22.951-50.83-33.051-0.6-0.34-1.9097-1.1652-3.9297-2.4785-12.87-8.31-25.451-18.242-35.721-25.512-8.3533-5.9067-16.797-10.306-25.33-13.199-13.367-4.5267-27.569-6.8836-42.609-7.0703-2.3-0.0267-4.374 0.19659-6.2207 0.66992-17.26 4.45-32.75 19.88-41.82 34.48-3.5333 5.7-5.8636 11.933-6.9902 18.699-2.91 17.45 3.1909 33.391 17.131 43.941 7.2133 5.46 11.904 9.2666 14.07 11.42 1.64 1.6267 3.997 4.1267 7.0703 7.5 6.44 7.07 14.03 12.08 22.84 14.6 10.247 2.94 16.637 4.9574 19.17 6.0508 12 5.18 22.756 12.35 32.27 21.51 5.0667 4.8733 9.65 9.2036 13.75 12.99 5.6067 5.1733 12.64 9.4121 21.1 12.719 6.44 2.51 11.86 4.2504 15.18 8.9004 7.86 11 18.841 23.2 30.031 30.07 2.7 1.6533 7.3934 4.3828 14.08 8.1895 10.947 6.2333 21.563 14.364 31.85 24.391 6.9 6.72 10.939 14.91 15.189 24.01 2.56 5.4733 3.2894 10.69 2.1895 15.65-1.7534 7.9067-2.596 14.136-2.5293 18.689 0.04 2.95-0.53024 9.2108-1.4902 11.301-4.09 8.94-13.349 12.618-22.779 11.398-4.1733-0.54667-9.5714-1.5354-16.191-2.9688-4.8333-1.0533-10.453-1.2374-16.859-0.55078-8.07 0.86-16.7 6.0908-24.42 5.3008-12.41-1.25-24.381-2.701-33.811 6.709-8.23 8.23-11.069 20.79-7.6094 31.85 2.37 7.63 7.7104 13.421 13.9 19.281 6.3067 5.96 9.1071 13.359 8.4004 22.199-1.5 18.67-3.1312 33.93 6.0488 49.67 1.34 2.2933 3.6846 5.2964 7.0312 9.0098 5.71 6.32 10.489 11.581 13.359 18.041 2.63 5.89-0.5793 12.749-5.5293 16.359-4.96 3.61-13.312 7.6513-18.602 13.111-9.48 9.8-9.8991 24.3-1.1191 34.76 4.4 5.2467 7.9298 9.9525 10.59 14.119 9.15 14.36 7.4297 29.16-1.5703 42.75-4.1 6.19-10.019 13.03-16.859 17.18-3.08 1.86-6.6335 3.898-10.66 6.1113-7.8933 4.3267-16.543 5.3185-25.949 2.9785-7.2067-1.7933-12.097-3.0259-14.67-3.6992-17.153-4.5067-33.084-2.0695-47.791 7.3105-9.56 6.1-18.977 10.913-28.25 14.439-7.9667 3.0267-17.166 4.3569-27.6 3.9902-5.1933-0.18-11.417-1.4238-18.67-3.7305-16.83-5.36-29.641-10.43-49.371-18.18-16.89-6.64-31.03-3.1306-45.42 6.4394-11.45 7.6-19.36 16.13-21.01 29.9-1.34 11.15 0.56086 24.439 9.1309 32.039 11.97 10.61 30.46 12.17 45.24 6.75 10.69-3.93 20.359-8.0484 28.969-13.148 4.2-2.48 9.1702-2.381 13.74-1.541 1.26 0.22667 5.8701 1.0662 13.83 2.5195 6.4533 1.1667 15.543 2.2202 27.27 3.1602 5.8667 0.46666 10.691 0.64768 14.471 0.54101 10.58-0.29 20.869-0.69008 31.039 1.6699 7.22 1.67 16.511 6.3689 24.291 9.3789 8.74 3.37 17.441 5.2602 26.891 6.1602 13.95 1.33 26.329 2.8805 38.379 10.311 8.2933 5.1067 15.073 9.6633 20.34 13.67 5.33 4.05 10.561 11.79 5.6211 18.16-3.38 4.35-10.97 4.7592-14.65 8.9492-1.98 2.26-3.8071 4.3432-5.4805 6.25a10.61 10.69 8.53 0 1-3.5293 2.6308c-4.62 2.14-8.1809 3.3292-11.961 8.3692-2.04 2.73-3.9188 3.8712-6.7988 4.9512-10.24 3.8333-20.784 6.212-31.631 7.1386-10.98 0.94-19.39-0.5797-31.75-2.0097-9.0333-1.04-18.019-0.029-26.959 3.0312-8.2133 2.8134-13.674 4.4502-16.381 4.9102-1.2933 0.2266-6.6391 1.0332-16.039 2.4199-9.34 1.38-19.961 6.2685-27.771 12.478-12.867 10.247-22.239 23.3-28.119 39.16-5.44 14.66-7.35 32.5 0.25 46.5 7.3 13.447 17.597 22.774 30.891 27.98 6.3 2.4667 14.205 3.9543 23.719 4.461 16.37 0.87 33.78-1.1206 47.58-9.3106 6.32-3.7533 11.356-7.1196 15.109-10.1 13.607-10.793 23.437-18.531 29.49-23.211 11.013-8.5134 23.516-14.266 37.51-17.26 5.1-1.09 11.691-2.0893 15.701 0.2207 2.05 1.18 4.6602 3.9796 6.9902 5.3496 8.08 4.75 16.589 3.4608 26.779 3.0508 3.3133-0.1267 6.5098 0.4125 9.5898 1.6191a1.25 1.26 30.99 0 1 0.49023 1.9903c-1.6667 1.9333-5.2171 5.6329-10.65 11.1-10.27 10.34-15.93 26.75-4.5996 38.58 5.0333 5.2666 8.3275 9.0465 9.8809 11.34 2.6933 3.98 4.7685 6.4203 6.2285 7.3203 9.65 5.95 20.712 3.3892 28.932-3.8008 6.65-5.83 12.599-12.25 19.779-12.51a1.06 1.06 0 0 1 1 1.4804c-1.3 3.0267-3.3031 5.8066-6.0098 8.3399-4.7667 4.4533-8.3438 7.8731-10.73 10.26-8.62 8.65-13.37 24.09-2.5898 33.27 7.51 6.41 16.4 5.5601 25.1 2.6601a0.4 0.4 0 0 1 0.45117 0.6114c-2.1333 2.9133-3.6981 4.9966-4.6914 6.25-6.59 8.35-11.92 17.39-16.41 27.16-1.5667 3.4067-3.576 8.74-6.0293 16-3.04 9.02-4.9629 14.392-5.7695 16.119-9.9 21.2-25.24 37.42-46.76 47.15-7.46 3.37-18.51 4.7596-25.51 7.8496-9.24 4.07-14.96 7.3299-23.41 8.4199-9.9733 1.2933-15.925 2.136-17.852 2.5293-3.4867 0.7067-6.1657 1.6346-8.0391 2.7812-5.7 3.4934-9.4376 5.8236-11.211 6.9903-3.8067 2.5-8.6462 6.4085-14.52 11.728-13.133 11.907-23.464 21.654-30.99 29.24-7.7533 7.82-15.373 17.127-22.859 27.92-5.94 8.57-11.21 18.81-16.84 28.65-5.36 9.36-13.488 19.151-24.381 29.371-6.67 6.27-17.09 14.39-23.75 21.94-17.15 19.42-28.538 48.439-23.148 74.719 2.9267 14.28 10.656 24.568 23.189 30.861 28.14 14.12 62.4 9.989 84.77-12.961 6.2933-6.46 13.02-13.817 20.18-22.07 11.47-13.24 27.09-33.63 39.67-47.83 15.21-17.14 30.411-34.708 41.641-54.068 3.66-6.31 8.4295-16.351 11.939-22.111 5.1667-8.4933 12.09-15.824 20.77-21.99 4.0733-2.8933 10.192-6.9829 18.352-12.27 2.2733-1.48 4.2435-2.9265 5.9102-4.3399 10.97-9.31 15.7-18.63 26.43-24.42 1.9667-1.06 9.7702-5.0096 23.41-11.85 11.3-5.67 22.29-12.71 31.16-22 7.47-7.83 12.4-16.221 20.35-28.471 3.5133-5.42 7.1594-9.6134 10.939-12.58 5.92-4.64 9.3809-7.3962 10.381-8.2695 1.48-1.29 2.3194-2.7497 3.4394-3.9297a0.25 0.25 0 0 1 0.42969 0.209c-1.52 9.6067 0.66721 17.607 6.5606 24 5.52 5.98 14.679 10.002 22.959 11.182 13.09 1.87 25.351-3.7101 35.021-12.16 6.88-6.01 10.14-13.661 13.92-22.051a2.55 2.56 14.08 0 1 2.5-1.5c4.64 0.31 9.1582 0.7894 13.158-1.8106a0.79 0.79 0 0 1 1.1719 0.3809c0.76 2.04 1.7182 4.0206 2.9082 5.6406 3.5467 4.8467 7.3316 10.663 11.352 17.449 6.48 10.94 9.0932 22.673 7.8398 35.199-1.6 15.95-6.5304 31.261-10.4 46.891-1.2933 5.2267-2.317 11.617-3.0703 19.17-1.42 14.25 0.93031 27.511 11.32 37.631 8.9067 8.6666 19.287 11.31 31.141 7.9297 11.86-3.38 18.268-13.49 20.398-25.15 0.24-1.2934 0.89427-6.0732 1.9609-14.34 0.87-6.71 3.7596-13.58 5.5996-17.84 3.42-7.92 4.0909-15.501 1.7109-23.791-1.86-6.46-4.0143-13.624-6.4609-21.49-1.65-5.32-3.4599-13.838-1.4199-19.148 2.87-7.45 11.28-1.0107 14.58 2.5293 7.3 7.82 13.109 14.629 20.359 18.609 12.3 6.74 26.481 13 30.801 24.74 2.3 6.2467 4.7372 12.026 7.3105 17.34 3.1933 6.58 5.2026 11.374 6.0293 14.381 1.42 5.1667 2.1196 11.533 2.0996 19.1-0.0333 12.28-0.38526 22.676-1.0586 31.19-1.34 16.92-7.5009 31.16-14.961 50.23-6.01 15.36-6.6995 29.249-5.1894 46.609 0.45999 5.3667 0.98364 12.42 1.5703 21.16 0.98666 14.74-0.28698 29.082-3.8203 43.022-3.96 15.607-6.4147 25.166-7.3613 28.68-4.43 16.37-5.1198 34.929 2.9902 50.059 5.45 10.15 14.3 17.932 25.76 18.592 22.33 1.3 38.741-13.91 44.771-34.41 5.4133-18.353 8.2323-36.722 8.459-55.102 0.0133-1.4067-0.16573-7.9663-0.53907-19.68-0.98666-30.967 3.249-61.25 12.709-90.85 1.4533-4.5533 4.3812-13.53 8.7812-26.93 3.59-10.94 5.3391-26.04 7.1191-34.31 0.59-2.75 0.36929-4.8992 0.2793-8.6192a9.31 9.63 48.55 0 1 0.16015-2.0312c0.81333-4.4067 2.2598-8.7051 4.3398-12.898 4.2-8.4934 9.3667-19.832 15.5-34.012 2.36-5.4466 5.4166-10.786 9.1699-16.02 2.9733-4.1533 6.8602-6.8622 11.66-8.1289 7.38-1.94 11.541-2.5002 15.631-5.9102 0.99334-0.8266 2.5829-2.3832 4.7695-4.6699a4.48 4.47 21.79 0 1 3.2012-1.3711c9.91-0.04 17.94-0.4496 26.68-5.8496 3.94-2.4333 8.2497-5.4333 12.93-9 5.46-4.15 12.081-6.73 18.641-2.75 6.11 3.7 8.6795 8.0807 13.52 14.721 5.67 7.79 14.299 14.17 24.379 13.16a0.29 0.28 86.28 0 1 0.31055 0.2793c0.34 9.4333 0.37914 17.44 0.11914 24.02-0.78667 19.913 5.7366 37.148 19.57 51.701 6.88 7.24 12.981 14.159 14.891 23.809 1.06 5.3733 1.5867 9.7066 1.5801 13-0.067 20.873-0.04 32.79 0.08 35.75 0.44 10.7 2.1097 23.58 7.9297 32.51 6.42 9.8734 15.866 14.628 28.34 14.262 14.3-0.42 31.64-9.4615 38.23-22.522 5.01-9.95 3.8205-24.72-0.02-34.91-2.98-7.94-4.944-13.206-5.8906-15.799-3.4734-9.5133-5.0237-19.358-4.6504-29.531 0.52-14.25 2.5912-26.159-5.2188-37.379-4.33-6.22-8.49-12.199-9.58-18.689-1.7267-10.273-1.488-20.335 0.7187-30.182 1.83-8.17 6.1501-16.609 9.3301-24.889 1.6867-4.38 3.1898-9.63 4.5098-15.75 0.3666-1.68 1.5096-3.5432 3.4296-5.5899 5.8467-6.2466 12.361-9.5831 19.541-10.01 1.2466-0.08 2.3989 0.4025 3.4589 1.4492 9.7067 9.5466 15.397 15.201 17.07 16.961 7.22 7.56 14.77 12.908 24.48 15.978 1.0267 0.3267 5.4496 1.4903 13.27 3.4903 9.48 2.42 17.001 9.0307 22.721 16.801 14.24 19.36 20.38 38.43 30.15 64.08 5.3667 14.087 12.257 27.447 20.67 40.08 1.8866 2.8267 3.8928 5.5356 6.0195 8.1289 2.4133 2.9333 4.256 5.6031 5.5293 8.0098 8.29 15.7 13.58 27.471 15.4 42.201 2.4533 19.86 3.9863 32.379 4.5996 37.559 3.72 31.41 12.42 61.711 34.08 84.611 9.45 10 21.671 16.37 35.211 15.02 13.053-1.3067 22.961-7.5175 29.721-18.631 6.5533-10.76 9.9619-23.04 10.228-36.84 0.37-18.76-8.2086-36.658-18.639-51.728-10.91-15.76-23.92-31.711-35.74-47.061-5.42-7.04-12.241-13.779-16.221-20.449-3.7733-6.3067-10.526-18.818-20.26-37.531-8.54-16.42-11.989-29.479-18.449-49.789-3.5066-11.033-5.7772-19.837-6.8105-26.41-1.5267-9.68-2.2767-18.748-2.25-27.201 0.04-14.073 0.8857-26.282 2.5391-36.629 0.98-6.09 4.1602-12.98 11.24-12.9 4.66 0.05 11.821 3.92 16.211 5.25 16.26 4.93 27.289-6.7098 24.469-22.51-0.8734-4.86-2.5319-11.619-4.9785-20.279a6.44 6.53 43.34 0 1-0.07-3.2305l2.0196-8.5097a6.05 6.14 43.81 0 0-0.039-2.9199c-0.84-3.1734-1.8749-7.3246-3.1015-12.451-2.1934-9.1467 0.038-16.635 6.6914-22.469 5.14-4.51 10.828-0.5114 14.568 3.0586 6.59 6.3 11.2 12.68 16.67 21.76 2.9 4.84 6.0007 8.8104 9.8907 12.15 4.21 3.62 10.95 7.2797 14.6 11.26 7.58 8.27 10.221 19.281 13.441 30.461 5.7 19.83 15.979 41.569 37.039 48.189 14.78 4.64 28.04-1.059 31.51-16.789 2.97-13.46 1.8803-28.982-7.4297-39.272-1.74-1.9133-4.8532-5.1397-9.3398-9.6797-7.11-7.19-9.9608-15.3-14.051-25.52-2.22-5.54-5.1284-11.02-8.0684-15.09-9.05-12.57-16.801-22.949-20.721-36.779-0.81-2.87-2.4107-10.792 0.5293-12.522a1.75 1.77 31.62 0 1 0.9903-0.2402c3.1466 0.1667 6.5776 1.4105 10.291 3.7305 9.49 5.94 17.429 11.89 24.379 19.67 8.15 9.13 16.27 17.15 26.25 25.24 6.16 4.99 15.401 9.1697 23.281 7.9297 9.58-1.51 15.359-9.3796 16.629-18.85 2.11-15.78-7.4705-27.27-21.06-33.74-4.1867-1.9867-8.9964-4.2727-14.43-6.8594-9.8-4.67-15.989-10.65-24.619-19.24-2.2267-2.2134-3.5507-3.9037-3.9707-5.0703-1.43-3.96-0.5707-8.9604 2.1093-12.07 16.9-19.64 36.332-0.2101 52.772 7.0899 9.99 4.44 20.49 6.0309 32.75 6.9609 13.34 1.01 41.31 2.3689 44.27-15.871 1.67-10.25-3.3198-19.838-10.76-26.828-4.72-4.43-9.7402-8.4913-13.16-13.861-1-1.5734-2.4577-4.097-4.3711-7.5703-7.27-13.23-21.348-19.179-36.318-19.299-5.3334-0.047-9.7613 0.016-13.281 0.1895-7.52 0.37-12.829-0.9494-20.369-2.8594a0.7 0.7 0 0 1-0.4707-0.9512c2.0467-4.6666 5.0199-10.926 8.9199-18.779 3.53-7.1 2.8899-13.55 0.6699-21.07-2.63-8.93 6.0102-15.43 12.66-19.41 6.7733-4.0534 12.25-7.6336 16.43-10.74 8.14-6.07 15.641-18.5 12.691-28.75-2.32-8.08-9.6904-11.05-17.4-9.0097-4.46 1.18-10.931 3.0895-14.711 1.0195-3.56-1.94-1.8595-6.0896-0.1895-8.5996 3.9867-6 6.0165-9.069 6.0898-9.209 2.07-3.85 1.6496-6.4098 1.0196-10.59a0.84 0.83 74.58 0 1 0.5-0.89062c6.64-2.8067 11.91-5.2233 15.81-7.25 12.2-6.34 21.71-10.141 31.74-15.221 19.21-9.71 37.469-23.929 34.779-48.049-0.52-4.62-1.7193-8.391-3.2793-14.041-2.65-9.58 1.4391-18.129 3.3691-26.199 3.34-13.91-3.7889-28.151-14.629-37.371-6.3933-5.4467-10.45-8.9591-12.17-10.539-7.48-6.88-7.8-13.391-10.5-24.541-1.1467-4.7133-3.0366-9.235-5.67-13.568-6.1-10.02-12.81-17.3-23.91-20.92-2.95-0.96-6.1095-1.0916-9.1895-2.1016a0.7 0.7 0 0 1-0.3613-1.0586c2.9267-4.3 6.3278-8.338 10.201-12.111 5.2666-5.1333 9.4364-11.286 12.51-18.459 2.58-6.0067 2.7797-11.828 0.5997-17.461-4.3467-11.253-12.686-17.412-25.02-18.479-5.7733-0.5-10.333-1.0946-13.68-1.7812-6.72-1.38-10.201-6.3806-13.391-12.311-2.84-5.29-7.6508-6.9383-12.051-9.4883-2.13-1.23-2.589-2.8112-1.539-4.9512 1.5066-3.06 3.7299-5.6763 6.6699-7.8496 17.51-12.91 40.21-27.281 43.41-50.791 1.48-10.86-4.5411-19.579-13.951-24.289-18.27-9.16-38.499-7.8893-59.379-6.5293-4.75 0.32-11.27 0.50969-14.98-3.0703-4.1-3.97-9.069-9.8195-15.459-14.02-8.39-5.52-15.311-5.4006-25.441-5.8106-2.7667-0.10666-4.8829-0.76403-6.3496-1.9707-3.8333-3.1467-7.1368-5.5839-9.9102-7.3106a0.62 0.62 0 0 1-0.1992-0.84961c4.19-6.68 4.0489-15.799 2.8789-23.619-0.8666-5.8533-1.2597-9.3894-1.1797-10.609 0.46-6.7667 2.5907-12.871 6.3907-18.311 9.3-13.29 22.82-25.3 27.42-41.32 2.38-8.2733 5.3625-16.077 8.9492-23.41 4.32-8.81 12.341-20.431 16.811-27.301 6.8133-10.487 12.147-20.656 16-30.51 1.98-5.08 5.5192-19.399-3.8008-20.029-4.45-0.3-10.969 6.1891-13.859 9.6191-10.793 12.827-20.773 24.344-29.94 34.551-2.2266 2.48-7.5363 7.0839-15.93 13.811-3.31 2.66-7.0604 6.0191-9.1504 8.8691-6.94 9.4533-11.514 15.623-13.721 18.51-4.52 5.91-9.6988 11.021-17.719 8.3809-2.6667-0.88-4.1903-1.4304-4.5703-1.6504-6.6467-3.7933-12.084-6.6658-16.31-8.6191-3-1.38-4.7504-3.4612-4.9004-6.5312-0.4-7.9533-1.1892-15.12-2.3692-21.5-0.76-4.1067-2.01-7.6931-3.75-10.76-7.91-13.95-24.13-10.039-34.76-2.2793-2.39 1.74-4.4812 4.7892-6.2012 6.4492a6.5 6.36 5 0 1-0.8399 0.68945c-3.6333 2.46-8.1364 3.7212-13.51 3.7812-9.2867 0.10667-16.697-3.453-22.23-10.68-8.94-11.68-18.109-29.331-35.389-32.801-0.067-0.0133-2.0244-0.35906-5.8711-1.0391a3.48 3.46 87.46 0 1-2.7597-2.541c-2.24-8.51-5.5307-17.959-12.971-22.289-1.2334-0.71333-2.7035-1.5436-4.4102-2.4902a2.19 2.2 19.17 0 1-1.0996-2.291c0.4467-2.6867 1.0568-6.8863 1.8301-12.6 0.1333-0.97333 0.2372-4.4198 0.3105-10.34 0.12-9.34 2.7332-18.096 7.8399-26.27 3.63-5.8 7.1004-11.721 10.9-18.281 9.2066-15.907 12.353-32.826 9.4394-50.76-1.87-11.46-8.0007-20.679-18.721-24.639-16.37-6.05-35.019-0.15-49.549 9-4.8667 3.0667-9.9706 6.4453-15.311 10.139-4.73 3.27-9.9989 4.8206-16.209 3.8906-8.41-1.26-15.61-2.0494-23.82 1.6406-9.9466 4.4667-19.143 10.693-27.59 18.68-2.0067 1.9-3.9346 4.2426-5.7812 7.0293-3.64 5.49-7.3104 9.781-12.57 13.041-2.5 1.56-3.8891 1.63-6.6191 0.25-3.2933-1.6533-5.3325-2.5936-6.1191-2.8203-5.8667-1.6933-11.351-1.1212-16.451 1.7188-2.5801 1.43-4.8195 4.3109-6.7695 6.1309a3.67 3.67 0 0 1-3.3106 0.89062c-7.33-1.67-7.1202-8.3803-7.9102-14.82-0.74-5.95-2.8493-10.96-6.2793-16.23-2.49-3.83-6.8301-10.16-9.0801-14.77-3.24-6.64-5.5528-13.44-6.9394-20.4-2.42-12.193-3.5208-24.684-3.3008-37.471 0.21334-12.78 1.094-24.003 2.6406-33.67 4.41-27.64 6.9293-40.1 8.2793-60.83 1.22-18.74-3.5092-43.679-27.699-42.959zm42.91 297.77c4.6327 0.0891 8.3253 2.6098 9.5703 8.1973 3.46 15.45-7.1604 40.191-19.9 49.221-5.69 4.03-12.14 7.581-19.16 6.291-5.99-1.1-10.881-7.4111-12.281-12.871-6.7-26.09 14.411-43.681 36.881-50.141 1.6975-0.4875 3.3464-0.72695 4.8906-0.69726zm165.63 47.83c3.168 0.0254 6.2703 1.8032 8.914 4.7676 15.56 17.46 24.03 43.61 4.4297 62.1-4.1 3.87-11.6 6.6001-17.26 4.3301-6.62-2.65-10.19-9.0988-12.85-15.549-5.95-14.44-1.7305-41.03 9.4395-52.26 2.3581-2.3669 4.8622-3.4084 7.3262-3.3887zm-227.74 14.404c10.698 0.0966 21.234 2.3084 31.16 7.5547 5.76 3.05 7.9013 6.9688 13.861 14.219 11.26 13.69 20.09 30.071 26.58 46.561 9.58 24.36 11.638 51.8 8.6484 79.51-2.5066 23.193-6.7927 44.443-12.859 63.75-4.42 14.067-9.5929 28.466-15.52 43.199-7.4133 18.44-13.726 32.38-18.939 41.82-9.0667 16.433-19.82 31.364-32.26 44.791-10.74 11.59-21.191 20.47-34.881 27.65-14.04 7.3667-29.079 12.033-45.119 14-13.97 1.72-26.511 0.57945-39.721-2.0606-12.29-2.45-22.89-6.7495-33.57-13.77-24.693-16.24-42.64-38.52-53.84-66.84-6.2-15.69-9.9306-32.051-10.141-48.961-0.28667-23.327 3.4335-44.949 11.16-64.869 6.7067-17.273 16.037-35.731 27.99-55.371 3.32-5.4533 8.2006-12.549 14.641-21.289 12.02-16.32 20.689-28.181 33.689-40.531 8.9667-8.52 18.497-16.976 28.59-25.369 9.06-7.5267 15.438-12.667 19.131-15.42 8.79-6.53 18.678-11.299 28.648-15.689 16.644-7.3312 34.921-13.046 52.75-12.885zm219.48 62.607c0.7461-0.0175 1.5176 4e-3 2.3301 0.0664 29.85 2.29 51.861 25.14 68.131 49.27 6.09 9.04 11.909 18.351 15.859 28.561 1.6534 4.3 4.3026 12.05 7.9492 23.25 4.06 12.487 7.6073 24.722 10.641 36.709 4.41 17.39 5.4111 32.042 6.8711 52.262 0.7866 10.827 1.1293 19.432 1.0293 25.818-0.3734 22.987-2.3292 43.575-5.8692 61.762-4.0933 20.973-12.488 41.25-25.182 60.83-9.2 14.19-21.079 26.03-34.699 36-24.58 17.973-51.646 27.239-81.199 27.799-12.78 0.24-24.04-1.7798-35.74-6.2598-12.58-4.82-23.801-10.549-34.691-19.449-12.52-10.227-22.753-22.2-30.699-35.92-7.74-13.38-11.84-26.46-14.74-42-3.36-17.993-4.4906-36.358-3.3906-55.092 0.62667-10.767 2.7244-25.925 6.291-45.479 2.8533-15.627 6.1631-30.567 9.9297-44.82 5.1667-19.567 12.878-39.826 23.131-60.779 12.26-25.03 28.64-47.141 49.74-62.631 14.29-10.49 30.498-19.629 47.328-25.199 7.7963-2.5812 11.758-4.5746 16.98-4.6973zm-501.88 113.69c4.1084 0.0897 8.043 1.3667 11.105 4.4336 6.18 6.2 3.5689 20.91 1.6289 28.27-1.1467 4.3467-3.2218 8.7036-6.2285 13.07-6.5 9.43-15.091 18.459-27.441 17.379-14.17-1.23-18.989-16.019-16.439-28.609 2.6733-13.2 10.054-23.293 22.141-30.279 4.3819-2.5312 9.9521-4.379 15.234-4.2637zm-7.4375 96.77a5.61 5.5 42.29 0 1 0.5625 0.0332c1.7667 0.19333 3.7841 0.68404 6.0508 1.4707 16.83 5.81 30.289 20.59 39.639 35.24 6.0533 9.48 10.997 19.346 14.83 29.6 13.15 35.15 18.361 72.57 14.961 109.83-1.48 16.3-5.6494 32.97-12.359 46.58-13.85 28.07-41.321 47.139-71.791 52.959-12.647 2.4133-24.933 3.3412-36.859 2.7812-21.56-1.0133-41.72-4.8405-60.48-11.48-15.673-5.5533-27.828-14.55-36.461-26.99-3.48-5.0133-7.2331-11.916-11.26-20.709-7.1-15.53-10.79-29.381-11.83-45.801-1.17-18.37-0.0399-37.93 7.0801-54.76 5.68-13.42 13.311-26.143 22.891-38.17 25.547-32.067 56.99-55.471 94.33-70.211 6.8133-2.6867 13.114-4.7638 18.9-6.2305 2.1267-0.52666 9.0197-1.8724 20.68-4.0391a5.61 5.5 42.29 0 1 1.1172-0.10351zm678.64 97.105c8.1574 0.2018 15.132 7.3134 18.789 14.287 6.4734 12.36 7.3129 24.835 2.5196 37.422-4.58 11.99-16.55 21.909-29.18 15.379-11.01-5.69-13.44-17.91-13.9-29.35-0.2067-5.2933 0.3705-10.084 1.7305-14.371 2.29-7.26 7.9485-21.08 16.478-23.01 1.2075-0.27375 2.3971-0.38625 3.5625-0.35743zm-409.7 71.697c8.2 0.01 15.4 1.5608 23.1 2.8008 2.1467 0.34667 4.0006 0.74589 5.5606 1.1992s3.3367 1.1045 5.3301 1.9512c7.18 3.06 14.099 5.589 21.039 9.959 5.28 3.32 10.59 6.7716 15.93 10.352 18.11 12.15 31.461 30.22 43.361 49.09 13.91 22.08 25.229 46.769 29.789 71.969 0.92 5.1133 2.0928 10.908 3.5195 17.381 2.5467 11.567 3.9366 24.311 4.1699 38.23a3.38 3.37 14.14 0 0 1.7403 2.8985c1.53 0.85 3.3902 1.5311 4.7402 2.3711 18.87 11.77 33.209 26.99 46.449 44.83 7.2867 9.8134 13.251 18.894 17.891 27.24 10.547 18.94 17.356 39.306 20.43 61.1 3.3867 24.033 1.3363 47.439-6.1504 70.219-4.88 14.84-11.119 29.512-18.719 44.012-11.34 21.63-26.5 40.96-45.68 55.85-10.82 8.41-23.221 14.8-36.861 16.42-14.11 1.67-28.239 0.4401-43.029-1.4199-27.12-3.4-53.05-13.37-76.01-28.02-11.53-7.36-23.11-17.25-33.91-26.91-8-7.1534-15.884-14.031-23.65-20.631-13.64-11.58-30.34-22.669-46.08-32.119-1.2533-0.7534-2.5002-1.3099-3.7402-1.6699s-2.5919-0.5566-4.0586-0.5899c-18.35-0.4-38.391 0.058-56.111 2.5781-10.093 1.4334-20.43 3.0403-31.01 4.8203-14.29 2.41-29.359 4.6-43.039 4.67-27.23 0.13-54.48-5.2692-79.23-16.869-13.5-6.32-26.11-12.82-37.15-21.76-10.67-8.65-17.75-20.671-22.41-33.561-8.28-22.83-10.78-47.259-8.8301-71.609 1.3133-16.32 3.8637-32.058 7.6504-47.211 5.8267-23.26 16.586-44.147 32.279-62.66 14.227-16.793 30.854-30.383 49.881-40.77 8.38-4.5866 18.27-9.0836 29.67-13.49 20.71-8.03 40.959-13.249 63.199-13.129 1.59 0.01 3.5312 0.4293 5.2812 0.5293a3.38 3.37 18.12 0 0 3.0195-1.5293c7.62-11.647 15.593-21.682 23.92-30.102 4.6667-4.7133 8.7531-8.985 12.26-12.818 17.3-18.88 40.05-33.721 63.6-44.971 20.13-9.61 41.061-17.771 62.861-18.381 6.4267-0.18 12.76-0.26333 19-0.25zm352.82 12.941c4.4907-0.0436 8.9462 0.38343 13.281 1.3984 2.3333 0.54667 4.3004 1.2102 5.9004 1.9902a5.5 5.61 79.94 0 1 1.3887 0.95117c8.7066 8.0533 13.817 12.869 15.33 14.449 4.1133 4.3267 8.3365 9.4429 12.67 15.35 23.727 32.387 37.845 68.961 42.352 109.72 1.6867 15.28 1.3534 30.113-1 44.5-2.95 18.03-12.431 35.18-23.221 50.1-9.64 13.33-20.149 23.08-34.439 32.43-8.0934 5.2933-14.95 9.1348-20.57 11.522-13.94 5.92-29.02 7.0455-45.24 3.3789-19.413-4.3867-38.511-11.902-57.291-22.549-10.393-5.8866-20.292-13.225-29.699-22.012-22.67-21.18-35.74-51.97-32.48-83.1 1.58-15.09 6.9507-31.42 14.391-46 17-33.33 41.37-62.21 71.24-84.93 8.7133-6.6333 18.157-12.342 28.33-17.129 11.798-5.5575 25.586-9.9395 39.059-10.07z"/>
  <path d="m1059.5 169.01q-0.04-0.06-2.74-6c-3.15-6.91-3.93-12.69-2.8-20.71q0.82-5.83 2.29-20.3c1.49-14.56 12.72-24.48 27.42-19.28q10.75 3.8 16.72 5.19c13.3 3.12 16.45 15.05 15.65 27.11-0.9 13.77-8.32 23.69-22.16 27.36q-2.73 0.72-10.77 2.46-2.55 0.55-8.83 4.14c-3.89 2.21-9.94 3.48-13.94 0.88a2.68 2.63 0.9 0 1-0.84-0.85z"/>
  <path d="m1458.5 328.35c-3.3-0.11-4.85-2.94-5.37-5.54-1.47-7.48-0.8-14.98 2.39-22.4q1.88-4.36 2.28-8.11c0.58-5.52 0.44-8.89 2.97-12.7 4.62-6.96 12.96-10.38 21.27-10.54q16.77-0.33 23.17 15.32c3.99 9.77 2.6 22.38-6.51 28.74-3.84 2.69-10.34 5.07-14.92 7.82-1.92 1.16-4.95 3.22-7.89 4.5q-7.5 3.25-17.39 2.91z"/>
  <path d="m1498.9 542.55q1.04-8.21 3.4-13.82c4.64-11.06 18.89-15.7 29.55-12.16 12.43 4.12 18.82 13.53 13.46 26.5-3.75 9.05-10.09 13.11-19.36 14.44q-5.04 0.73-10.77-0.61c-7.75-1.8-17.53-4.56-16.28-14.35z"/>
  <path d="m1603.6 534.78c0.46 10.83-9.89 22.82-21.68 19.75-11.88-3.1-18.87-12.57-12.18-24.51 5.08-9.06 15.05-11.99 24.55-8.34 5.43 2.09 9.06 7.1 9.31 13.1z"/>
  <path d="m198.24 617.99a0.97 0.96 36.08 0 0-1.14 0.17c-7.8 7.88-18.2 7.23-26.96 1.4-10.04-6.68-7.98-17.53-12.74-27.67q-2.47-5.28-2.92-7.06c-1.43-5.76-0.54-12.02 1.72-17.88q2.35-6.08 2.17-12.39c-0.3-10.24 9.85-17.51 18.91-18.38q20.05-1.92 31.42 14.39 1.41 2.02 4.98 7.73c2.35 3.74 4.27 5.65 7.23 8.84 6.71 7.22 8.2 15.1 6.95 24.84q-0.63 4.92 0.06 11.51c0.99 9.47-7.12 15.66-16 16.92q-7.17 1.02-13.68-2.42z"/>
  <path d="m1546.2 762.52c0.22-3.73 3.49-4.69 6.75-5.25q10.11-1.77 22.64-2.28c12.53-0.52 23.15-1.51 34.67-6.18q7.18-2.91 27.54-11.47 9.06-3.81 15.44-5.49 7.62-2.01 23.03-3.54 10.02-0.99 19.79 1.19c9.66 2.16 16.57 4.43 21.95 12.46 3.72 5.57 1.12 14.65-2.75 18.88q-18.98 20.78-47.3 22.88c-13.14 0.97-27.16 2.14-40.25 0.24q-7.6-1.1-18.5-3.97c-7.55-1.98-14.13-1.37-23.76-1.1q-13.27 0.37-26.02-3.6c-5.2-1.61-13.59-6.52-13.23-12.77z"/>
  <path d="m292.48 1224.3a0.79 0.79 10.18 0 0 0.95-0.66c2.86-19.49 35.65-37.03 51.69-22.17q4.94 4.58 4.76 11.98-0.43 17.46-14.22 27.49c-3.74 2.71-9.64 4.74-12.85 6.26a1.35 1.35-10.04 0 0-0.77 1.1c-0.53 6.12-2.79 15.26-7.12 19.75-6.3 6.53-16.22 9.53-24.91 9.4-8.86-0.13-17.14-4.69-17.89-14.05q-0.33-4.13-0.62-7.59a15.09 14.84 33.69 0 0-0.77-3.69l-2.09-6.08a2.11 2.03 34.5 0 1-0.1-0.49q-0.98-10.88 6.37-17.68c5.08-4.69 10.78-5.02 17.57-3.57z"/>
  <path d="m1574.4 1234.7c-1.82-3.22-2.7-8.44 0.22-11.25 8.78-8.42 18.03-14.78 30.5-12.3q9.29 1.84 18.84 7.89 15.21 9.61 15.91 27.11 0.16 3.85-2.46 8.21c-4.07 6.77-14.05 11.53-21.74 14.34-12.17 4.46-22.75-1.27-29.85-11.18q-1.61-2.25-4.94-9.93-2.64-6.09-6.48-12.89z"/>
  <path d="m98.51 1406.6q0.66 10.16-6.83 16.34c-8.21 6.79-20.31 5.32-28.87-0.71q-7.27-5.12-10.38-8.08c-9.94-9.44-5.18-22.7 4.26-30.2q13.03-10.37 27.29-2.04c5.68 3.32 9.57 8.81 11.52 15.46q1.03 3.52 2.65 7.61a5.25 5.21-57.76 0 1 0.36 1.62z"/>
  <path d="m919.72 1489.2c5.73-0.21 9.84 5.15 11.26 10.39 3.55 13.08-2.49 30.8-9.01 42.4q-7.21 12.82-21.3 13.31c-17.49 0.62-18.14-14.35-11.33-25.97q8.15-13.92 9.09-16.41c1.58-4.17 3.01-10.18 5.77-15.18q3.11-5.67 7.79-6.95 5.45-1.5 7.73-1.59z"/>
  <path d="m1415.4 1499.7c2.51-9.41 12.75-6.83 18.88-3.46 6.64 3.65 11.13 6.46 17.58 9.43q8.72 4.03 10.94 5.39c14.26 8.7 26.32 17.07 31.54 32.1 3.82 11 6.13 25.98-0.25 36.44q-7.01 11.49-17.46 18.95c-17.23 12.3-30.72-6.4-35.48-20.68q-0.98-2.93-5.79-19.15-0.82-2.75-3.87-7.21c-4.83-7.05-8.18-11.29-9.36-18.83q-0.94-6.03-1.35-11.37a7.47 7.41-60.39 0 0-0.72-2.66q-1.02-2.11-2.65-5.46-3.63-7.46-2.01-13.49z"/>
  <path d="m263.92 548.87c-7.96-1.04-11.56-8.73-11.05-16.6 1.01-15.83 17.81-28.06 33.22-24.07 5.57 1.44 9.66 5.62 10.48 11.58q1.38 10.01-7.28 16.02-4.27 2.97-6.36 4.89-4.71 4.34-6.21 5.11-7.34 3.79-12.8 3.07z"/>
 </g>
</svg>
