<svg id="a" class="img-fluid" width="512" height="512" version="1.1" viewBox="0 0 512 512" xmlns="http://www.w3.org/2000/svg">
 <g transform="matrix(.48414 0 0 .48414 -1168.9 -128)">
  <path d="m3016.1 277.48c6.79-1.95 12.8 0.05 14.46 7.5 3.46 15.45-7.16 40.19-19.9 49.22-5.69 4.03-12.14 7.58-19.16 6.29-5.99-1.1-10.88-7.41-12.28-12.87-6.7-26.09 14.41-43.68 36.88-50.14z"/>
  <path d="m3179.3 328c5.39-5.41 11.54-3.89 16.24 1.38 15.56 17.46 24.03 43.61 4.43 62.1-4.1 3.87-11.6 6.6-17.26 4.33-6.62-2.65-10.19-9.1-12.85-15.55-5.95-14.44-1.73-41.03 9.44-52.26z"/>
  <path d="m2752.4 639.4c-6.2-15.69-9.93-32.05-10.14-48.96q-0.43-34.99 11.16-64.87 10.06-25.91 27.99-55.37 4.98-8.18 14.64-21.29c12.02-16.32 20.69-28.18 33.69-40.53q13.45-12.78 28.59-25.37 13.59-11.29 19.13-15.42c8.79-6.53 18.68-11.3 28.65-15.69 26.63-11.73 57.44-19.32 83.91-5.33 5.76 3.05 7.9 6.97 13.86 14.22 11.26 13.69 20.09 30.07 26.58 46.56 9.58 24.36 11.64 51.8 8.65 79.51q-3.76 34.79-12.86 63.75-6.63 21.1-15.52 43.2-11.12 27.66-18.94 41.82-13.6 24.65-32.26 44.79c-10.74 11.59-21.19 20.47-34.88 27.65q-21.06 11.05-45.12 14c-13.97 1.72-26.51 0.58-39.72-2.06-12.29-2.45-22.89-6.75-33.57-13.77q-37.04-24.36-53.84-66.84z"/>
  <path d="m3225.4 776.15q-36.87 26.96-81.2 27.8c-12.78 0.24-24.04-1.78-35.74-6.26-12.58-4.82-23.8-10.55-34.69-19.45q-18.78-15.34-30.7-35.92c-7.74-13.38-11.84-26.46-14.74-42q-5.04-26.99-3.39-55.09 0.94-16.15 6.29-45.48 4.28-23.44 9.93-44.82 7.75-29.35 23.13-60.78c12.26-25.03 28.64-47.14 49.74-62.63 14.29-10.49 30.5-19.63 47.33-25.2 8.91-2.95 12.81-5.13 19.31-4.63 29.85 2.29 51.86 25.14 68.13 49.27 6.09 9.04 11.91 18.35 15.86 28.56q2.48 6.45 7.95 23.25 6.09 18.73 10.64 36.71c4.41 17.39 5.41 32.04 6.87 52.26q1.18 16.24 1.03 25.82-0.56 34.48-5.87 61.76-6.14 31.46-25.18 60.83c-9.2 14.19-21.08 26.03-34.7 36z"/>
  <path d="m2687.6 519.75c6.18 6.2 3.57 20.91 1.63 28.27q-1.72 6.52-6.23 13.07c-6.5 9.43-15.09 18.46-27.44 17.38-14.17-1.23-18.99-16.02-16.44-28.61q4.01-19.8 22.14-30.28c7.79-4.5 19.34-6.84 26.34 0.17z"/>
  <path d="m2669.6 612.12q2.65 0.29 6.05 1.47c16.83 5.81 30.29 20.59 39.64 35.24q9.08 14.22 14.83 29.6c13.15 35.15 18.36 72.57 14.96 109.83-1.48 16.3-5.65 32.97-12.36 46.58-13.85 28.07-41.32 47.14-71.79 52.96q-18.97 3.62-36.86 2.78-32.34-1.52-60.48-11.48-23.51-8.33-36.46-26.99-5.22-7.52-11.26-20.71c-7.1-15.53-10.79-29.38-11.83-45.8-1.17-18.37-0.04-37.93 7.08-54.76q8.52-20.13 22.89-38.17 38.32-48.1 94.33-70.21 10.22-4.03 18.9-6.23 3.19-0.79 20.68-4.04a5.61 5.5 42.29 0 1 1.68-0.07z"/>
  <path d="m3344.1 709.55c9.66-2.19 18.17 5.96 22.35 13.93q9.71 18.54 2.52 37.42c-4.58 11.99-16.55 21.91-29.18 15.38-11.01-5.69-13.44-17.91-13.9-29.35q-0.31-7.94 1.73-14.37c2.29-7.26 7.95-21.08 16.48-23.01z"/>
  <path d="m2966.7 784.89q2.34 0.68 5.33 1.95c7.18 3.06 14.1 5.59 21.04 9.96q7.92 4.98 15.93 10.35c18.11 12.15 31.46 30.22 43.36 49.09 13.91 22.08 25.23 46.77 29.79 71.97q1.38 7.67 3.52 17.38 3.82 17.35 4.17 38.23a3.38 3.37 14.14 0 0 1.74 2.9c1.53 0.85 3.39 1.53 4.74 2.37 18.87 11.77 33.21 26.99 46.45 44.83q10.93 14.72 17.89 27.24 15.82 28.41 20.43 61.1 5.08 36.05-6.15 70.22-7.32 22.26-18.72 44.01c-11.34 21.63-26.5 40.96-45.68 55.85-10.82 8.41-23.22 14.8-36.86 16.42-14.11 1.67-28.24 0.44-43.03-1.42-27.12-3.4-53.05-13.37-76.01-28.02-11.53-7.36-23.11-17.25-33.91-26.91q-12-10.73-23.65-20.63c-13.64-11.58-30.34-22.67-46.08-32.12q-1.88-1.13-3.74-1.67t-4.06-0.59c-18.35-0.4-38.39 0.06-56.11 2.58q-15.14 2.15-31.01 4.82c-14.29 2.41-29.36 4.6-43.04 4.67-27.23 0.13-54.48-5.27-79.23-16.87-13.5-6.32-26.11-12.82-37.15-21.76-10.67-8.65-17.75-20.67-22.41-33.56-8.28-22.83-10.78-47.26-8.83-71.61q1.97-24.48 7.65-47.21 8.74-34.89 32.28-62.66 21.34-25.19 49.88-40.77 12.57-6.88 29.67-13.49c20.71-8.03 40.96-13.25 63.2-13.13 1.59 0.01 3.53 0.43 5.28 0.53a3.38 3.37 18.12 0 0 3.02-1.53q11.43-17.47 23.92-30.1 7-7.07 12.26-12.82c17.3-18.88 40.05-33.72 63.6-44.97 20.13-9.61 41.06-17.77 62.86-18.38q9.64-0.27 19-0.25c8.2 0.01 15.4 1.56 23.1 2.8q3.22 0.52 5.56 1.2z"/>
  <path d="m3311.4 798.17q13.06 12.08 15.33 14.45 6.17 6.49 12.67 15.35 35.59 48.58 42.35 109.72 2.53 22.92-1 44.5c-2.95 18.03-12.43 35.18-23.22 50.1-9.64 13.33-20.15 23.08-34.44 32.43q-12.14 7.94-20.57 11.52-20.91 8.88-45.24 3.38-29.12-6.58-57.29-22.55-15.59-8.83-29.7-22.01c-22.67-21.18-35.74-51.97-32.48-83.1 1.58-15.09 6.95-31.42 14.39-46 17-33.33 41.37-62.21 71.24-84.93q13.07-9.95 28.33-17.13c15.73-7.41 35-12.73 52.34-8.67q3.5 0.82 5.9 1.99a5.5 5.61 79.94 0 1 1.39 0.95z"/>
 </g>
</svg>
